<?xml version="1.0" encoding="utf-8"?>
<!-- Generator: Adobe Illustrator 26.3.0, SVG Export Plug-In . SVG Version: 6.00 Build 0)  -->
<svg version="1.1" id="Layer_1" xmlns="http://www.w3.org/2000/svg" xmlns:xlink="http://www.w3.org/1999/xlink" x="0px" y="0px"
	 viewBox="0 0 994 295" style="enable-background:new 0 0 994 295;" xml:space="preserve">
<style type="text/css">
	.st0{fill:#FFFFFF;}
	.st1{fill-rule:evenodd;clip-rule:evenodd;fill:#FFFFFF;}
</style>
<path class="st0" d="M321.6,119.8v11.9h-17.6c-3.3,0-5.5,0.8-6.5,2.4c-1.1,1.4-1.1,3.4,0,4.8c1.1,1.6,3.3,2.4,6.5,2.4h6.4
	c5.3,0,9.5,1.2,12.7,3.6c3,2.2,5.3,5.4,6.4,8.9c1,3.4,1,7.1,0,10.6c-1.1,3.6-3.3,6.7-6.4,8.9c-3.2,2.4-7.4,3.7-12.7,3.7h-22.9V165
	h22.9c3.3,0,5.5-1,6.6-3c1.1-1.9,1-4.2-0.1-6c-1.1-2-3.3-3-6.5-3h-6.4c-5.4,0-9.7-1.1-12.9-3.4c-3-2-5.3-4.9-6.5-8.3
	c-1.1-3.2-1.1-6.7,0-9.9c1.2-3.4,3.5-6.3,6.5-8.3c3.2-2.3,7.5-3.4,12.9-3.4L321.6,119.8z"/>
<path class="st0" d="M359.6,119.8h12.5l22.9,57.1h-12.4l-3-7.7H352l-3,7.7h-12.4L359.6,119.8z M365.8,135l-9.2,22.9H375L365.8,135z"
	/>
<path class="st0" d="M424,176.9h-12.8l-10.6-57.1h11.6l7.1,38.7l14.7-38.7h8l14.7,38.7l7.2-38.7h11.6L465,176.9h-12.8l-14.1-36.7
	L424,176.9z"/>
<path class="st0" d="M507,176.9h-11.5v-45.7h-13.7v-11.4h38.8v11.4H507V176.9z"/>
<path class="st0" d="M550.4,165.3h-12.6v11.6h-11.4v-57.1h24.1c5.8-0.1,11.3,2.2,15.3,6.4c2.8,2.9,4.8,6.5,5.8,10.4
	c0.9,3.9,0.9,8,0,11.9c-0.9,3.9-2.9,7.5-5.8,10.4c-1.2,1.2-2.6,2.3-4.1,3.2l8.3,14.8H557L550.4,165.3z M550.6,153.4
	c2.6,0,5.1-1,6.9-2.9c3.9-4.6,3.9-11.3,0-15.9c-1.8-1.9-4.3-2.9-6.9-2.9h-12.7v21.6L550.6,153.4z"/>
<path class="st0" d="M624.6,155.9c0.1,5.8-2.2,11.3-6.4,15.3c-2.9,2.8-6.5,4.8-10.4,5.7c-3.9,1-8.1,1-12,0
	c-3.9-0.9-7.5-2.9-10.4-5.7c-4.2-4-6.5-9.6-6.4-15.3v-36.1h11.9v36.1c0,2.6,1,5.1,2.9,6.9c2.2,1.9,5.1,3,8,3c2.9,0,5.8-1.1,8-3
	c1.9-1.8,2.9-4.3,2.9-6.9v-36.1h11.9L624.6,155.9z"/>
<path class="st0" d="M674.1,119.8c9,0,16.2,7.3,16.3,16.2c0,2.8-0.7,5.6-2.2,8c0.8,0.6,1.6,1.3,2.3,2c7.1,7.1,7,18.6,0,25.6
	c-3.4,3.4-8,5.3-12.8,5.3h-27.1v-57.2H674.1z M662.1,141.2h12c1.7,0.1,3.2-0.8,3.8-2.4c0.7-1.5,0.7-3.2,0.1-4.7
	c-0.6-1.6-1.9-2.4-3.9-2.4h-12V141.2z M662.1,165h15.7c2.5-0.3,4.3-1.2,5.3-2.8c1-1.5,1.4-3.2,1.2-5c-0.3-1.6-1.1-3-2.2-4.1
	c-1.1-1.1-2.7-1.8-4.3-1.8h-15.7L662.1,165z"/>
<path class="st0" d="M752.1,127.7c11.5,11.4,11.5,30,0.1,41.5c-11.4,11.5-30,11.5-41.5,0.1c-11.5-11.4-11.5-30-0.1-41.5
	c5.5-5.5,13-8.6,20.8-8.6C739.2,119,746.7,122.1,752.1,127.7z M718.5,135.5c-7.1,7.1-7.1,18.7,0,25.8c7.1,7.1,18.7,7.1,25.8,0
	s7.1-18.7,0-25.8c0,0,0,0,0,0C737.2,128.4,725.7,128.4,718.5,135.5z"/>
<path class="st0" d="M816.9,127.7c11.5,11.4,11.5,30,0.1,41.5c-11.4,11.5-30,11.5-41.5,0.1c-11.5-11.4-11.5-30-0.1-41.5
	c5.5-5.5,13-8.6,20.8-8.6C804,119,811.5,122.1,816.9,127.7z M783.3,135.5c-7.1,7.1-7.1,18.7,0,25.8c7.1,7.1,18.7,7.1,25.8,0
	s7.1-18.7,0-25.8c0,0,0,0,0,0C802,128.4,790.5,128.4,783.3,135.5z"/>
<path class="st0" d="M870.4,119.8v11.9h-17.6c-3.3,0-5.5,0.8-6.6,2.4c-1.1,1.4-1,3.4,0.1,4.8c1.1,1.6,3.3,2.4,6.5,2.4h6.4
	c5.3,0,9.6,1.2,12.7,3.6c3,2.2,5.3,5.4,6.3,8.9c1,3.4,1,7.1,0,10.6c-1.1,3.6-3.3,6.7-6.3,8.9c-3.2,2.4-7.4,3.7-12.7,3.7h-22.9V165
	h22.9c3.3,0,5.5-1,6.6-3c1.1-1.9,1-4.2-0.1-6c-1.1-2-3.3-3-6.5-3h-6.4c-5.4,0-9.7-1.1-12.9-3.4c-3-2-5.3-4.9-6.5-8.3
	c-1.1-3.2-1.1-6.7,0-9.9c1.2-3.4,3.5-6.3,6.5-8.3c3.2-2.3,7.5-3.4,12.9-3.4L870.4,119.8z"/>
<path class="st0" d="M911.2,176.9h-11.4v-45.7H886v-11.4h38.8v11.4h-13.7V176.9z"/>
<path class="st0" d="M312,202.2c0-5.3,0.1-11,0.2-14.1H312c-1.4,5.4-5.6,18-8.5,26.4h-3.7c-2.2-7-6.5-20.7-7.9-26.4h-0.2
	c0.2,3.4,0.3,9.9,0.3,15v11.5h-3.8v-29.4h6.1c2.9,8.3,6.6,20,7.5,24.1h0.1c0.6-3,5.1-15.7,8.1-24.1h6v29.3h-4L312,202.2z"/>
<path class="st0" d="M337.3,205.9l-2.7,8.6h-4.1c1.7-5.2,7.5-23.5,9.5-29.3h5.2l9.9,29.3h-4.4l-2.8-8.6H337.3z M346.9,202.4
	c-2.4-7.2-3.9-11.6-4.5-14h-0.1c-0.8,3.4-2.3,8-4.2,14H346.9z"/>
<path class="st0" d="M373.6,201.3v13.1h-4v-29.3h10.7c5.3,0,9,2.6,9,7.6c0.2,3.1-1.8,6-4.8,6.9c3,1,4.3,3.4,4.3,7.3v0.6
	c-0.1,2.3,0.1,4.6,0.4,6.9h-4c-0.5-2.3-0.6-4.6-0.5-6.9v-0.6c0-4-1.5-5.6-6.1-5.6L373.6,201.3z M373.6,198h5.2c3.6,0,6.2-1,6.2-5
	c0-3.1-2.1-4.6-5.4-4.6h-6.1L373.6,198z"/>
<path class="st0" d="M405.4,185.1h4v14.5c3.2-3.8,8.9-10.2,12.6-14.5h5l-10.8,12.1l11.5,17.3h-4.9l-9.4-14.5l-3.9,4v10.5h-4
	L405.4,185.1z"/>
<path class="st0" d="M458.5,200.8h-13.1V211h14.5l-0.5,3.4h-17.9v-29.3h17.8v3.5h-13.7v8.8h13.1L458.5,200.8z"/>
<path class="st0" d="M480.5,188.6h-8.5v-3.5h21.1v3.5h-8.5v25.9h-4.1L480.5,188.6z"/>
<path class="st0" d="M511.6,185.1v29.3h-4.1v-29.3H511.6z"/>
<path class="st0" d="M529,214.4v-29.3h5.4c11.2,20.3,12.7,23.1,13.2,24.4h0.1c-0.3-3.8-0.3-8.6-0.3-13.3v-11.1h3.8v29.3h-5
	c-11.9-22-12.9-23.9-13.5-25.1l0,0c0.2,3.8,0.2,8.7,0.2,14v11.2L529,214.4z"/>
<path class="st0" d="M590.6,214.4h-3.1c-0.2-1.3-0.3-2.7-0.3-4.1c-1.5,3.3-4.4,4.5-8.5,4.5c-7.7,0-11.5-6.5-11.5-14.9
	s4.5-15.2,12.8-15.2c6.4,0,9.9,3.4,10.8,8.6h-4c-0.8-2.9-2.7-5.1-6.9-5.1c-5.9,0-8.4,5.3-8.4,11.8c0,6.1,2.4,11.5,8,11.5
	c5.9,0,7.2-4.1,7.2-9.2v-0.2h-7.3v-3.6h11.4L590.6,214.4z"/>
<path class="st0" d="M630.5,206.1c0.5,3.6,3,5.4,6.4,5.4s5.6-1.7,5.6-4.8s-1.5-4.5-6.5-6c-6.3-1.9-8.6-4-8.6-8.2
	c0-4.8,3.7-7.8,9.2-7.8c6.5,0,9.2,3.7,9.5,8h-4c-0.4-2.8-2-4.7-5.6-4.7c-3.3,0-4.9,1.6-4.9,4.2s1.5,3.6,6.1,5c7.3,2.2,9.1,5,9.1,9.1
	c0,4.9-3.3,8.5-10,8.5c-6.2,0-9.9-3.3-10.3-8.7L630.5,206.1z"/>
<path class="st0" d="M685.9,199.6c0,8.4-4,15.3-12.7,15.3c-8.3,0-12.4-6.6-12.4-15.3c0-7.6,4-14.9,12.7-14.9
	C681.8,184.7,685.9,191.3,685.9,199.6z M665.1,199.6c0,6.7,2.7,11.9,8.3,11.9c5.9,0,8.3-5.1,8.3-11.9c0-6.5-2.5-11.5-8.3-11.5
	S665.1,193.2,665.1,199.6z"/>
<path class="st0" d="M701.8,185.1h4.1V211h14l-0.5,3.4h-17.5L701.8,185.1z"/>
<path class="st0" d="M738,185.1v18.7c0,4.4,1.6,7.7,6.6,7.7s6.5-3.1,6.5-7.7v-18.6h4.2v18.8c0,6.2-2.6,11-10.8,11
	c-7.7,0-10.7-4.1-10.7-10.8v-19L738,185.1z"/>
<path class="st0" d="M777.8,188.6h-8.5v-3.5h21.1v3.5h-8.5v25.9h-4.1V188.6z"/>
<path class="st0" d="M808.8,185.1v29.3h-4.1v-29.3H808.8z"/>
<path class="st0" d="M849.8,199.6c0,8.4-4,15.3-12.7,15.3c-8.3,0-12.4-6.6-12.4-15.3c0-7.6,4-14.9,12.7-14.9
	C845.7,184.7,849.8,191.3,849.8,199.6z M829,199.6c0,6.7,2.7,11.9,8.3,11.9c5.9,0,8.3-5.1,8.3-11.9c0-6.5-2.5-11.5-8.3-11.5
	S829,193.2,829,199.6z"/>
<path class="st0" d="M865.7,214.4v-29.3h5.4c11.2,20.3,12.7,23.1,13.2,24.4h0.1c-0.3-3.8-0.3-8.6-0.3-13.3v-11.1h3.8v29.3h-5
	c-11.9-22-12.9-23.9-13.5-25.1l0,0c0.2,3.8,0.2,8.7,0.2,14v11.2L865.7,214.4z"/>
<path class="st0" d="M907.4,206.1c0.5,3.6,3,5.4,6.4,5.4s5.6-1.7,5.6-4.8s-1.5-4.5-6.5-6c-6.3-1.9-8.6-4-8.6-8.2
	c0-4.8,3.7-7.8,9.2-7.8c6.5,0,9.2,3.7,9.5,8h-4.1c-0.4-2.8-2-4.7-5.6-4.7c-3.3,0-4.9,1.6-4.9,4.2s1.5,3.6,6.1,5
	c7.3,2.2,9.1,5,9.1,9.1c0,4.9-3.3,8.5-10,8.5c-6.2,0-9.9-3.3-10.3-8.7L907.4,206.1z"/>
<path class="st1" d="M112.8,257.4l69.1-82.6l30.1-35.9c4.5-5.4,16.4-10.9,26.7-4.3l-51.5-33.1c-12.4-7.5-24.5-4.5-36.3,8.8L116,152
	l-41.8,49.7c-7.4,9.6-22.6,6.9-22.7-4.3v33.8c0.9,9.7,5.5,17.4,14.1,23.1l7.6,4.9C95.1,273.2,107.4,263.8,112.8,257.4z"/>
<path class="st1" d="M69.3,63.9c-11,7.4-17,17.2-18,29.6l-0.1,98.7v0.2c0.2,11.2,15.3,13.8,22.7,4.2l41.8-49.8l0.3-24.5l0.6-52
	c0.1-5.6,6.3-9.6,14.7-9.8l-10.8-6.9c-13-8.4-24.1-7.5-36.2,0.4L69.3,63.9z"/>
<path class="st1" d="M120.2,72.2l-0.6,48.4L156,77.3L133.9,63C126.1,63.2,120.3,67,120.2,72.2L120.2,72.2z"/>
<path class="st1" d="M200.8,181.1c9.6,6.1,7.6,14.8-0.3,20.5l48.3-30.9c9.3-6.4,11.8-18.9,1.9-25.9l-12.3-7.9
	c-9.1-5.8-19.8-0.9-23.8,3.9l-26.8,31.9L200.8,181.1z"/>
<path class="st1" d="M195.2,180.4l-42.8,51.3l45.7-29.3C206.6,197.1,208.5,187.7,195.2,180.4L195.2,180.4z"/>
</svg>
