<?xml version="1.0" standalone="no"?>
<!DOCTYPE svg PUBLIC "-//W3C//DTD SVG 20010904//EN"
 "http://www.w3.org/TR/2001/REC-SVG-20010904/DTD/svg10.dtd">
<svg version="1.0" xmlns="http://www.w3.org/2000/svg"
 width="779.000000pt" height="534.000000pt" viewBox="0 0 779.000000 534.000000"
 preserveAspectRatio="xMidYMid meet">

<g transform="translate(0.000000,534.000000) scale(0.100000,-0.100000)"
fill="#FF0000" stroke="none">
<path d="M0 2670 l0 -2670 3895 0 3895 0 0 2670 0 2670 -3895 0 -3895 0 0
-2670z m2865 1314 c306 -50 614 -231 806 -474 86 -109 93 -125 28 -65 -319
298 -788 373 -1176 190 -121 -57 -192 -105 -282 -190 -441 -416 -451 -1105
-24 -1528 95 -94 180 -155 289 -207 394 -189 861 -119 1186 177 71 66 62 43
-28 -68 -191 -236 -481 -405 -794 -464 -128 -25 -342 -25 -470 0 -620 117
-1066 628 -1097 1255 -28 582 336 1123 887 1318 219 77 435 95 675 56z m1501
-874 c75 -104 142 -190 148 -190 6 0 108 32 227 70 120 39 220 70 223 70 3 0
-55 -83 -130 -185 -74 -102 -137 -192 -140 -199 -3 -7 57 -97 132 -200 75
-103 134 -189 132 -192 -3 -2 -102 27 -220 66 -119 38 -220 70 -225 70 -5 0
-72 -87 -148 -192 l-140 -193 -3 242 -2 242 -225 72 c-124 40 -225 75 -225 78
0 3 101 39 225 79 l225 72 0 240 c0 132 2 240 4 240 2 0 66 -85 142 -190z"/>
</g>
</svg>
