<svg enable-background="new 0 0 512 512" height="512" viewBox="0 0 512 512" width="512" xmlns="http://www.w3.org/2000/svg"><g id="_x30_1_United_Kingdom_x2C__country_x2C__national_x2C__flag_x2C__world_flag"><g id="XMLID_684_"><path id="XMLID_670_" d="m16 386v-260l30-50h150l60 10 60-10h150l30 50v260l-30 50h-150l-60-10-60 10h-150z" fill="#0053b5"/><path id="XMLID_669_" d="m16 196h480v120h-480z" fill="#fff"/><path id="XMLID_668_" d="m16 216h480v80h-480z" fill="#d80027"/><path id="XMLID_667_" d="m196 76h120v360h-120z" fill="#fff"/><path id="XMLID_666_" d="m216 76h80v360h-80z" fill="#d80027"/><path id="XMLID_665_" d="m496 76h-30l-150 100v30l80-10 100-70z" fill="#fff"/><path id="XMLID_664_" d="m496 76-180 120h50l130-90z" fill="#d80027"/><path id="XMLID_663_" d="m16 76h30l150 100v30l-80-10-100-70z" fill="#fff"/><path id="XMLID_662_" d="m16 76 180 120h-50l-130-90z" fill="#d80027"/><path id="XMLID_661_" d="m16 436h30l150-100v-30l-80 10-100 70z" fill="#fff"/><path id="XMLID_660_" d="m16 436 180-120h-50l-130 90z" fill="#d80027"/><path id="XMLID_659_" d="m496 436h-30l-150-100v-30l80 10 100 70z" fill="#fff"/><path id="XMLID_658_" d="m496 436-180-120h50l130 90z" fill="#d80027"/></g></g></svg>