<svg id="Layer_1" data-name="Layer 1" xmlns="http://www.w3.org/2000/svg" viewBox="0 0 873.59 218.78"><defs><style>.cls-1,.cls-2{fill:#fff;}.cls-2{fill-rule:evenodd;}</style></defs><path class="cls-1" d="M270.31,72.08V84H252.66c-3.3,0-5.49.8-6.55,2.39a3.9,3.9,0,0,0,0,4.77c1.11,1.58,3.27,2.38,6.5,2.38h6.41c5.3,0,9.55,1.21,12.72,3.64a17.34,17.34,0,0,1,6.35,8.94,18.13,18.13,0,0,1,0,10.57,17.45,17.45,0,0,1-6.35,8.93c-3.17,2.44-7.42,3.66-12.72,3.66H236.15V117.3h22.92q5,0,6.57-3a5.87,5.87,0,0,0-.09-6q-1.68-3-6.48-3h-6.41q-8.07,0-12.92-3.4a16.47,16.47,0,0,1-6.46-8.33,15.41,15.41,0,0,1,0-9.86,16.38,16.38,0,0,1,6.46-8.33Q244.58,72,252.66,72Z"/><path class="cls-1" d="M308.32,72.11h12.49l22.94,57.12H331.39l-3-7.67H300.75l-3,7.67H285.4Zm6.25,15.19-9.22,22.89h18.4Z"/><path class="cls-1" d="M372.8,129.23H360L349.41,72.11h11.64l7.14,38.71,14.68-38.71h8l14.68,38.71,7.2-38.71h11.6l-10.6,57.12H401L386.89,92.52Z"/><path class="cls-1" d="M455.75,129.23H444.27V83.52h-13.7V72.11h38.84V83.52H455.75Z"/><path class="cls-1" d="M499.19,117.59H486.62v11.64H475.18V72.11h24.13a20.82,20.82,0,0,1,15.34,6.39,21.65,21.65,0,0,1,5.76,10.38,25.33,25.33,0,0,1,0,11.93,22.07,22.07,0,0,1-5.76,10.4,21.38,21.38,0,0,1-4.1,3.23l8.35,14.79H505.75Zm.12-11.91a9.46,9.46,0,0,0,6.91-2.88,12.13,12.13,0,0,0,0-15.89A9.43,9.43,0,0,0,499.31,84H486.62v21.65Z"/><path class="cls-1" d="M573.31,108.17A21,21,0,0,1,567,123.51a22.2,22.2,0,0,1-10.42,5.7,25.62,25.62,0,0,1-12,0,21.87,21.87,0,0,1-10.4-5.7,20.92,20.92,0,0,1-6.4-15.34V72.11h11.9v36.06a9.5,9.5,0,0,0,2.89,6.93,12.17,12.17,0,0,0,16,0,9.5,9.5,0,0,0,2.89-6.93V72.11h11.9Z"/><path class="cls-1" d="M622.85,72.11a16.29,16.29,0,0,1,16.28,16.24,15.54,15.54,0,0,1-2.15,8,14.89,14.89,0,0,1,2.35,2,18.13,18.13,0,0,1-12.85,30.91H599.39V72.11Zm-12,21.38h12a3.76,3.76,0,0,0,3.81-2.38,6.11,6.11,0,0,0,.08-4.73c-.61-1.58-1.9-2.36-3.89-2.35h-12Zm0,23.83H626.5q3.75-.39,5.31-2.82a7,7,0,0,0,1.17-5,7.75,7.75,0,0,0-2.22-4.15,6.22,6.22,0,0,0-4.26-1.84H610.83Z"/><path class="cls-1" d="M700.87,80a29.37,29.37,0,1,1-20.71-8.55A28,28,0,0,1,700.87,80Zm-33.59,7.78a18.23,18.23,0,1,0,25.78,0l0,0A18.28,18.28,0,0,0,667.28,87.82Z"/><path class="cls-1" d="M765.67,80A29.37,29.37,0,1,1,745,71.49,28,28,0,0,1,765.67,80Zm-33.59,7.78a18.23,18.23,0,1,0,25.78,0l0,0A18.28,18.28,0,0,0,732.08,87.82Z"/><path class="cls-1" d="M819.13,72.08V84H801.49c-3.33,0-5.52.79-6.56,2.39a3.89,3.89,0,0,0,.06,4.77c1.1,1.58,3.27,2.38,6.5,2.38h6.4q8,0,12.72,3.64a17.34,17.34,0,0,1,6.35,8.94,18.13,18.13,0,0,1,0,10.57,17.45,17.45,0,0,1-6.35,8.93q-4.75,3.66-12.72,3.66H785V117.3h22.92c3.33,0,5.53-1,6.58-3a5.91,5.91,0,0,0-.1-6q-1.68-3-6.48-3h-6.4q-8.09,0-12.93-3.4a16.47,16.47,0,0,1-6.46-8.33,15.41,15.41,0,0,1,0-9.86,16.38,16.38,0,0,1,6.46-8.33Q793.41,72,801.49,72Z"/><path class="cls-1" d="M859.92,129.23H848.49V83.52H834.75V72.11h38.84V83.52H859.92Z"/><path class="cls-1" d="M260.75,154.54c0-5.33.06-11,.19-14.14h-.14c-1.37,5.42-5.6,18-8.54,26.35h-3.73c-2.21-7-6.55-20.74-7.93-26.41h-.17c.24,3.4.34,9.91.34,15V166.8h-3.83V137.42h6.14c2.88,8.33,6.58,20,7.55,24.09h.12c.59-3,5.06-15.7,8.07-24.09h6v29.33h-4Z"/><path class="cls-1" d="M286,158.19l-2.72,8.56h-4.07c1.74-5.18,7.5-23.46,9.46-29.33h5.21l9.89,29.33h-4.37l-2.81-8.56Zm9.65-3.48c-2.36-7.25-3.88-11.59-4.47-14h-.06c-.8,3.42-2.29,8-4.23,14Z"/><path class="cls-1" d="M322.32,153.63v13.12h-4.05V137.42H329c5.26,0,9,2.6,9,7.63a6.66,6.66,0,0,1-4.78,6.85c3,1,4.3,3.4,4.3,7.33v.57a41.51,41.51,0,0,0,.41,6.95h-4a28.89,28.89,0,0,1-.51-6.94v-.62c0-4-1.45-5.56-6.1-5.56Zm0-3.34h5.24c3.65,0,6.24-1,6.24-5,0-3.06-2.08-4.56-5.38-4.56h-6.1Z"/><path class="cls-1" d="M354.18,137.42h4v14.51c3.25-3.76,8.91-10.2,12.61-14.51h5l-10.82,12.07,11.46,17.26h-4.92l-9.37-14.54-3.88,4v10.52h-4Z"/><path class="cls-1" d="M407.24,153.12H394.1V163.3h14.46l-.54,3.45H390.09V137.42h17.75v3.46H394.1v8.76h13.14Z"/><path class="cls-1" d="M429.29,140.9h-8.48v-3.48h21.12v3.48h-8.51v25.85h-4.13Z"/><path class="cls-1" d="M460.32,137.42v29.33h-4.08V137.42Z"/><path class="cls-1" d="M477.75,166.75V137.42h5.37c11.16,20.26,12.72,23.08,13.24,24.39h.06c-.28-3.82-.32-8.57-.32-13.33V137.42h3.84v29.33h-5c-11.94-22-12.89-23.94-13.49-25.15h0c.21,3.78.19,8.72.19,14v11.17Z"/><path class="cls-1" d="M539.31,166.75h-3.13a28,28,0,0,1-.35-4.08c-1.54,3.27-4.44,4.5-8.53,4.5-7.69,0-11.48-6.53-11.48-14.94s4.5-15.22,12.8-15.22c6.38,0,9.91,3.44,10.76,8.55h-4c-.82-2.92-2.67-5.14-6.93-5.14-5.88,0-8.36,5.27-8.36,11.83,0,6.15,2.37,11.53,8,11.53,5.94,0,7.2-4.11,7.2-9.21v-.17H528v-3.57h11.38Z"/><path class="cls-1" d="M579.24,158.39c.55,3.59,3,5.41,6.39,5.41s5.6-1.73,5.6-4.77-1.55-4.46-6.54-6c-6.28-1.87-8.63-4-8.63-8.2,0-4.8,3.68-7.81,9.18-7.81,6.46,0,9.21,3.71,9.53,8h-4c-.43-2.84-2-4.69-5.57-4.69-3.29,0-4.93,1.59-4.93,4.16s1.52,3.64,6.13,5c7.3,2.19,9.1,5,9.1,9.07,0,4.86-3.35,8.52-10,8.52-6.16,0-9.87-3.26-10.28-8.69Z"/><path class="cls-1" d="M634.68,151.91c0,8.42-4,15.26-12.69,15.26-8.31,0-12.36-6.55-12.36-15.26,0-7.59,4-14.9,12.72-14.9C630.6,137,634.68,143.56,634.68,151.91Zm-20.79,0c0,6.69,2.7,11.92,8.31,11.92,5.86,0,8.29-5.1,8.29-11.85,0-6.46-2.48-11.53-8.3-11.53S613.89,145.53,613.89,151.86Z"/><path class="cls-1" d="M650.59,137.42h4.09V163.3h14l-.55,3.45h-17.5Z"/><path class="cls-1" d="M686.75,137.42v18.66c0,4.4,1.56,7.68,6.63,7.68s6.51-3.13,6.51-7.7V137.42h4.17v18.79c0,6.18-2.58,11-10.79,11-7.7,0-10.66-4.06-10.66-10.77v-19Z"/><path class="cls-1" d="M726.52,140.9H718v-3.48h21.12v3.48h-8.51v25.85h-4.13Z"/><path class="cls-1" d="M757.55,137.42v29.33h-4.09V137.42Z"/><path class="cls-1" d="M798.54,151.91c0,8.42-4,15.26-12.69,15.26-8.31,0-12.36-6.55-12.36-15.26,0-7.59,4-14.9,12.72-14.9C794.46,137,798.54,143.56,798.54,151.91Zm-20.79,0c0,6.69,2.7,11.92,8.31,11.92,5.86,0,8.29-5.1,8.29-11.85,0-6.46-2.48-11.53-8.3-11.53S777.75,145.53,777.75,151.86Z"/><path class="cls-1" d="M814.45,166.75V137.42h5.37c11.16,20.26,12.72,23.08,13.23,24.39h.07c-.28-3.82-.32-8.57-.32-13.33V137.42h3.84v29.33h-5c-11.94-22-12.89-23.94-13.49-25.15h0c.21,3.78.19,8.72.19,14v11.17Z"/><path class="cls-1" d="M856.16,158.39c.55,3.59,3,5.41,6.39,5.41s5.6-1.73,5.6-4.77-1.55-4.46-6.54-6c-6.28-1.87-8.63-4-8.63-8.2,0-4.8,3.69-7.81,9.18-7.81,6.47,0,9.22,3.71,9.54,8h-4.06c-.43-2.84-2-4.69-5.57-4.69-3.29,0-4.93,1.59-4.93,4.16s1.52,3.64,6.14,5c7.29,2.19,9.09,5,9.09,9.07,0,4.86-3.35,8.52-10,8.52-6.16,0-9.87-3.26-10.28-8.69Z"/><path class="cls-2" d="M61.53,209.72l69.06-82.6,30.08-35.89c4.49-5.37,16.45-10.91,26.66-4.31L135.87,53.84c-12.41-7.47-24.46-4.48-36.33,8.8L64.75,104.3,22.92,154c-7.39,9.59-22.61,7-22.7-4.31v33.78c.88,9.67,5.54,17.42,14.07,23.13l7.57,4.93C43.86,225.47,56.17,216.14,61.53,209.72Z"/><path class="cls-2" d="M18.08,16.19Q1.58,27.28.08,45.75L0,144.45v.18c.17,11.17,15.3,13.81,22.69,4.22l41.79-49.8.27-24.45.62-52c.08-5.55,6.33-9.59,14.69-9.77L69.27,5.9c-13-8.36-24.1-7.48-36.15.44Z"/><path class="cls-2" d="M68.92,24.46l-.61,48.39,36.44-43.29L82.65,15.3c-7.83.18-13.64,4-13.73,9.15Z"/><path class="cls-2" d="M149.5,133.45c9.59,6.07,7.57,14.78-.26,20.5l48.29-30.88c9.33-6.42,11.79-18.91,1.85-25.86L187.06,89.3c-9.14-5.81-19.79-.88-23.75,3.87L136.48,125.1Z"/><path class="cls-2" d="M144,132.75,101.12,184l45.74-29.3c8.45-5.36,10.38-14.69-2.9-22Z"/></svg>