<svg id="Layer_1" data-name="Layer 1" xmlns="http://www.w3.org/2000/svg" viewBox="0 0 1949 1483.74"><defs><style>.cls-1{fill:#b4afaf;}.cls-1,.cls-10,.cls-11,.cls-12,.cls-13,.cls-2,.cls-3,.cls-4,.cls-5,.cls-6,.cls-7,.cls-8,.cls-9{fill-rule:evenodd;}.cls-2{fill:#e7e6e6;}.cls-3{fill:#cfcdcd;}.cls-4{fill:#dedbdb;}.cls-5{fill:#f0f0f0;}.cls-6{fill:#fce392;}.cls-7{fill:#d1cfcf;}.cls-8{fill:#fcecb8;}.cls-9{fill:#ffe488;}.cls-10{fill:#fff1c2;}.cls-11{fill:#ffeba8;}.cls-12{fill:#ffeba6;}.cls-13{fill:#ffd23b;}</style></defs><polygon class="cls-1" points="45.63 1079.51 141.11 936.71 63.14 930.56 17.25 1074.79 45.63 1079.51"/><polygon class="cls-2" points="63.14 930.56 141.11 936.71 186.5 831.29 63.14 930.56"/><polygon class="cls-2" points="141.11 936.71 45.63 1079.51 144.9 1089.94 289.56 1006.68 141.11 936.71"/><polygon class="cls-3" points="144.9 1089.94 45.63 1079.51 121.82 1235.6 144.9 1089.94"/><polygon class="cls-3" points="45.63 1226.1 45.63 1079.51 17.25 1074.79 45.63 1226.1"/><polygon class="cls-1" points="45.63 1079.51 45.63 1226.1 121.39 1238.1 121.82 1235.6 45.63 1079.51"/><polygon class="cls-3" points="121.39 1238.1 45.63 1226.1 157.19 1339.52 123.17 1238.39 121.39 1238.1"/><polygon class="cls-1" points="123.17 1238.39 157.19 1339.52 255.25 1339.52 250.03 1319.58 123.17 1238.39"/><polygon class="cls-1" points="123.17 1238.39 250.03 1319.58 230.02 1243.11 250.97 1173.85 144.9 1089.94 121.82 1235.6 123.17 1238.39"/><polygon class="cls-4" points="144.9 1089.94 250.97 1173.85 264.04 1130.54 282.7 1110.46 289.56 1006.68 144.9 1089.94"/><polygon class="cls-5" points="141.11 936.71 289.56 1006.68 309.43 853.52 186.5 831.29 141.11 936.71"/><polygon class="cls-2" points="186.5 831.29 309.43 853.52 328.8 797.27 186.5 831.29"/><polygon class="cls-5" points="328.8 797.27 309.43 853.52 461.66 850.73 328.8 797.27"/><polygon class="cls-5" points="461.66 850.73 309.43 853.52 431.36 945.21 569.94 958.01 461.66 850.73"/><polygon class="cls-5" points="569.94 958.01 431.36 945.21 434.43 1024.4 461.66 1017.11 589.81 1060.43 573.3 975.3 569.94 958.01"/><polygon class="cls-6" points="434.43 1024.4 431.36 945.21 289.56 1006.68 352.52 1046.49 434.43 1024.4"/><polygon class="cls-4" points="289.56 1006.68 431.36 945.21 309.43 853.52 289.56 1006.68"/><polygon class="cls-2" points="352.52 1046.49 289.56 1006.68 282.7 1110.46 338.73 1050.2 352.52 1046.49"/><polygon class="cls-2" points="461.66 1017.11 523.13 1071.93 590.1 1062 589.81 1060.43 461.66 1017.11"/><polygon class="cls-2" points="523.13 1071.93 461.66 1017.11 377.47 1067.72 523.13 1071.93"/><polygon class="cls-2" points="377.47 1067.72 461.66 1017.11 434.43 1024.4 352.52 1046.49 338.73 1050.2 377.47 1067.72"/><polygon class="cls-1" points="377.47 1067.72 338.73 1050.2 282.7 1110.46 264.04 1130.54 323.15 1193.01 377.47 1067.72"/><polygon class="cls-2" points="323.15 1193.01 264.04 1130.54 250.97 1173.85 230.02 1243.11 247.96 1259.62 323.15 1193.01"/><polygon class="cls-3" points="321.72 1337.66 247.96 1259.62 230.02 1243.11 250.03 1319.58 255.25 1339.52 262.11 1365.97 321.72 1337.66"/><polygon class="cls-1" points="321.72 1337.66 262.11 1365.97 301.35 1395.34 423.85 1408.99 439.94 1393.41 321.72 1337.66"/><polygon class="cls-1" points="439.94 1393.41 423.85 1408.99 459.73 1408.06 439.94 1393.41"/><polygon class="cls-1" points="439.94 1393.41 459.73 1408.06 538.21 1404.27 560.44 1340.45 439.94 1393.41"/><polygon class="cls-7" points="560.44 1340.45 538.21 1404.27 602.53 1397.7 630.34 1381.19 596.89 1348.03 591.24 1313.43 560.44 1340.45"/><polygon class="cls-3" points="439.94 1393.41 560.44 1340.45 558.08 1339.09 441.29 1272.41 321.72 1337.66 439.94 1393.41"/><polygon class="cls-6" points="321.72 1337.66 441.29 1272.41 323.15 1193.01 247.96 1259.62 321.72 1337.66"/><polygon class="cls-2" points="323.15 1193.01 441.29 1272.41 441.29 1143.33 377.47 1067.72 323.15 1193.01"/><polygon class="cls-2" points="377.47 1067.72 441.29 1143.33 523.13 1071.93 377.47 1067.72"/><polygon class="cls-6" points="560.44 1198.65 441.29 1143.33 441.29 1272.41 560.44 1198.65"/><polygon class="cls-2" points="560.44 1198.65 441.29 1272.41 558.08 1339.09 560.44 1198.65"/><polygon class="cls-2" points="560.44 1198.65 558.08 1339.09 560.44 1340.45 591.24 1313.43 584.59 1271.91 593.31 1224.17 560.44 1198.65"/><polygon class="cls-2" points="560.44 1198.65 593.31 1224.17 599.25 1192 648.06 1134.26 560.44 1198.65"/><polygon class="cls-2" points="560.44 1198.65 648.06 1134.26 628.76 1108.74 606.75 1079.65 593.1 1061.57 590.1 1062 523.13 1071.93 560.44 1198.65"/><polygon class="cls-4" points="560.44 1198.65 523.13 1071.93 441.29 1143.33 560.44 1198.65"/><polygon class="cls-5" points="589.81 1060.43 593.1 1061.57 606.75 1079.65 626.05 992.38 604.46 985.38 573.3 975.3 589.81 1060.43"/><polygon class="cls-4" points="626.05 992.38 606.75 1079.65 628.76 1108.74 686.58 1076.51 656.35 1034.41 638.84 1010.11 626.05 992.38"/><polygon class="cls-8" points="686.58 1076.51 628.76 1108.74 648.06 1134.26 685.08 1123.39 686.58 1076.51"/><polygon class="cls-1" points="638.84 1010.11 684.22 966.8 623.69 964.44 604.46 985.38 626.05 992.38 638.84 1010.11"/><polygon class="cls-2" points="623.69 964.44 684.22 966.8 724.39 932.78 623.69 964.44"/><polygon class="cls-5" points="684.22 966.8 709.74 1036.77 815.66 1070.86 836.96 967.8 724.39 932.78 684.22 966.8"/><polygon class="cls-8" points="709.74 1036.77 684.22 966.8 638.84 1010.11 656.35 1034.41 709.74 1036.77"/><polygon class="cls-1" points="709.74 1036.77 656.35 1034.41 686.58 1076.51 685.08 1123.39 729.39 1110.31 734.83 1111.96 709.74 1036.77"/><polygon class="cls-9" points="709.74 1036.77 734.83 1111.96 757.77 1119.03 815.66 1070.86 709.74 1036.77"/><polygon class="cls-6" points="836.96 967.8 815.66 1070.86 872.41 1021.69 836.96 967.8"/><path class="cls-8" d="M872.41,1021.69l-56.75,49.17,2.64,70.47q29.81-51.24,54.11-119.64Z"/><polygon class="cls-10" points="818.3 1141.33 815.66 1070.86 757.77 1119.03 814.02 1136.33 818.3 1141.33"/><polygon class="cls-8" points="818.3 1141.33 814.02 1136.33 773.56 1146.26 802.87 1230.6 857.97 1186.93 818.3 1141.33"/><polygon class="cls-5" points="773.56 1146.26 814.02 1136.33 757.77 1119.03 734.83 1111.96 729.39 1110.31 773.56 1146.26"/><polygon class="cls-2" points="773.56 1146.26 729.39 1110.31 678.79 1148.84 773.56 1146.26"/><polygon class="cls-2" points="773.56 1146.26 678.79 1148.84 724.18 1199.94 773.56 1146.26"/><polygon class="cls-2" points="773.56 1146.26 724.18 1199.94 802.87 1230.6 773.56 1146.26"/><polygon class="cls-2" points="802.87 1230.6 724.18 1199.94 721.82 1285.49 802.87 1230.6"/><polygon class="cls-2" points="802.87 1230.6 721.82 1285.49 799.22 1333.59 802.87 1230.6"/><polygon class="cls-2" points="802.87 1230.6 799.22 1333.59 805.23 1310.79 805.51 1310.36 839.32 1262.33 802.87 1230.6"/><polygon class="cls-2" points="678.79 1148.84 729.39 1110.31 685.08 1123.39 648.06 1134.26 678.79 1148.84"/><polygon class="cls-2" points="644.27 1230.17 678.79 1148.84 648.06 1134.26 599.25 1192 644.27 1230.17"/><polygon class="cls-2" points="678.79 1148.84 644.27 1230.17 724.18 1199.94 678.79 1148.84"/><polygon class="cls-2" points="724.18 1199.94 644.27 1230.17 721.82 1285.49 724.18 1199.94"/><polygon class="cls-10" points="721.82 1285.49 644.27 1230.17 591.31 1273.2 640.98 1328.52 721.82 1285.49"/><polygon class="cls-1" points="591.31 1273.2 644.27 1230.17 599.25 1192 593.31 1224.17 584.59 1271.91 591.31 1273.2"/><polygon class="cls-2" points="640.98 1328.52 591.31 1273.2 584.59 1271.91 591.24 1313.43 596.89 1348.03 640.98 1328.52"/><polygon class="cls-2" points="721.82 1285.49 640.98 1328.52 720.89 1366.32 721.82 1285.49"/><polygon class="cls-2" points="721.82 1285.49 720.89 1366.32 799.22 1333.59 721.82 1285.49"/><polygon class="cls-1" points="799.22 1333.59 720.89 1366.32 767.42 1405.28 769.06 1405.35 793.79 1388.55 788 1376.47 799.22 1333.59"/><polygon class="cls-2" points="767.42 1405.28 720.89 1366.32 674.5 1404.63 767.42 1405.28"/><polygon class="cls-1" points="674.5 1404.63 720.89 1366.32 640.98 1328.52 596.89 1348.03 674.5 1404.63"/><polygon class="cls-2" points="674.5 1404.63 596.89 1348.03 630.34 1381.19 645.99 1396.7 674.5 1404.63"/><polygon class="cls-1" points="793.79 1388.55 809.73 1421.86 846.82 1428 812.59 1390.91 788 1376.47 793.79 1388.55"/><polygon class="cls-2" points="788 1376.47 812.59 1390.91 805.23 1310.79 799.22 1333.59 788 1376.47"/><polygon class="cls-3" points="805.51 1310.36 846.39 1334.38 863.4 1270.12 846.61 1251.9 839.32 1262.33 805.51 1310.36"/><polygon class="cls-5" points="846.61 1251.9 863.4 1270.12 898.35 1228.74 846.61 1251.9"/><polygon class="cls-5" points="925.8 1229.6 945.17 1258.76 964.32 1230.88 925.8 1229.6"/><polygon class="cls-5" points="945.17 1258.76 925.8 1229.6 898.35 1228.74 863.4 1270.12 915.86 1320.22 945.17 1258.76"/><polygon class="cls-5" points="945.17 1258.76 915.86 1320.22 982.05 1313.15 945.17 1258.76"/><polygon class="cls-2" points="982.05 1313.15 915.86 1320.22 963.39 1381.69 982.05 1313.15"/><polygon class="cls-2" points="915.86 1320.22 863.4 1270.12 846.39 1334.38 915.86 1320.22"/><polygon class="cls-10" points="915.86 1320.22 846.39 1334.38 881.63 1393.27 915.86 1320.22"/><polygon class="cls-2" points="881.63 1393.27 812.59 1390.91 846.82 1428 874.05 1431.58 881.63 1393.27"/><polygon class="cls-1" points="881.63 1393.27 874.05 1431.58 921.29 1433.43 881.63 1393.27"/><polygon class="cls-2" points="881.63 1393.27 921.29 1433.43 936.45 1433.22 963.39 1381.69 881.63 1393.27"/><polygon class="cls-1" points="963.39 1381.69 936.45 1433.22 991.26 1431.29 963.39 1381.69"/><polygon class="cls-2" points="963.39 1381.69 991.26 1431.29 997.63 1431.79 1020.86 1365.11 963.39 1381.69"/><polygon class="cls-1" points="1020.86 1365.11 997.63 1431.79 1039.72 1403.63 1030.29 1384.4 1020.86 1365.11"/><polygon class="cls-2" points="812.59 1390.91 846.39 1334.38 805.51 1310.36 805.23 1310.79 812.59 1390.91"/><polygon class="cls-7" points="846.39 1334.38 812.59 1390.91 881.63 1393.27 846.39 1334.38"/><polygon class="cls-3" points="915.86 1320.22 881.63 1393.27 963.39 1381.69 915.86 1320.22"/><polygon class="cls-2" points="982.05 1313.15 963.39 1381.69 1020.86 1365.11 992.48 1307.93 982.05 1313.15"/><polygon class="cls-5" points="945.17 1258.76 982.05 1313.15 992.48 1307.93 979.9 1282.63 973.33 1239.17 964.32 1230.88 945.17 1258.76"/><polygon class="cls-10" points="874.48 1239.46 857.97 1186.93 802.87 1230.6 839.32 1262.33 846.61 1251.9 874.48 1239.46"/><polygon class="cls-7" points="987.98 1197.29 973.33 1239.17 979.9 1282.63 1038.79 1239.6 987.98 1197.29"/><polygon class="cls-10" points="987.98 1197.29 1038.79 1239.6 1071.17 1155.2 1037.01 1141.47 1035.93 1141.76 987.98 1197.29"/><polygon class="cls-5" points="1037.01 1141.47 1071.17 1155.2 1117.27 1119.03 1099.9 1123.89 1037.01 1141.47"/><polygon class="cls-2" points="1117.27 1119.03 1071.17 1155.2 1164.8 1160.91 1117.27 1119.03"/><polygon class="cls-2" points="1164.8 1160.91 1071.17 1155.2 1120.41 1204.87 1121.56 1204.37 1164.8 1160.91"/><polygon class="cls-2" points="1120.41 1204.87 1071.17 1155.2 1038.79 1239.6 1120.41 1204.87"/><polygon class="cls-1" points="1120.41 1204.87 1038.79 1239.6 1120.34 1293.99 1121.49 1205.37 1120.41 1204.87"/><polygon class="cls-2" points="1120.34 1293.99 1038.79 1239.6 979.9 1282.63 1039.29 1336.31 1040.15 1336.73 1120.34 1293.99"/><polygon class="cls-1" points="1039.29 1336.31 979.9 1282.63 992.48 1307.93 1020.86 1365.11 1038.44 1337.59 1039.29 1336.31"/><polygon class="cls-2" points="1039.51 1337.02 1065.1 1414.99 1117.77 1374.33 1040.15 1336.73 1039.51 1337.02"/><polygon class="cls-2" points="1065.1 1414.99 1039.51 1337.02 1038.44 1337.59 1020.86 1365.11 1030.29 1384.4 1065.1 1414.99"/><polygon class="cls-2" points="1040.15 1336.73 1117.77 1374.33 1199.75 1338.88 1120.34 1293.99 1040.15 1336.73"/><polygon class="cls-1" points="1117.77 1374.33 1065.1 1414.99 1079.89 1421.64 1148.93 1421.64 1117.77 1374.33"/><polygon class="cls-1" points="1065.1 1414.99 1030.29 1384.4 1039.72 1403.63 1065.1 1414.99"/><polygon class="cls-2" points="1117.77 1374.33 1148.93 1421.64 1177.81 1411.71 1184.02 1406.99 1205.25 1391.05 1244.42 1361.61 1199.75 1338.88 1117.77 1374.33"/><polygon class="cls-1" points="1199.75 1338.88 1244.42 1361.61 1256.64 1317.65 1265.72 1284.99 1252.71 1285.92 1199.75 1338.88"/><polygon class="cls-2" points="1199.75 1338.88 1252.71 1285.92 1200.25 1241.25 1199.75 1338.88"/><polygon class="cls-7" points="1200.25 1241.25 1252.71 1285.92 1265.72 1284.99 1264.29 1254.76 1256.14 1230.81 1249.99 1213.02 1247.63 1206.08 1246.35 1202.3 1200.25 1241.25"/><polygon class="cls-8" points="1200.25 1241.25 1246.35 1202.3 1238.91 1192.72 1201.39 1144.62 1164.8 1160.91 1200.25 1241.25"/><polygon class="cls-2" points="1200.25 1241.25 1164.8 1160.91 1121.56 1204.37 1121.49 1205.37 1200.25 1241.25"/><polygon class="cls-2" points="1200.25 1241.25 1121.49 1205.37 1120.34 1293.99 1200.25 1241.25"/><polygon class="cls-3" points="1200.25 1241.25 1120.34 1293.99 1199.75 1338.88 1200.25 1241.25"/><polygon class="cls-2" points="1284.66 1403.77 1205.25 1391.05 1207.54 1422.64 1265.72 1426.93 1284.66 1403.77"/><polygon class="cls-1" points="1284.66 1403.77 1205.25 1391.05 1207.54 1422.64 1265.72 1426.93 1284.66 1403.77"/><polygon class="cls-2" points="1207.54 1422.64 1205.25 1391.05 1184.02 1406.99 1207.54 1422.64"/><polygon class="cls-2" points="1205.25 1391.05 1284.66 1403.77 1284.08 1331.87 1256.64 1317.65 1244.42 1361.61 1205.25 1391.05"/><polygon class="cls-2" points="1284.66 1403.77 1265.72 1426.93 1310.6 1425.5 1284.66 1403.77"/><polygon class="cls-2" points="1284.66 1403.77 1310.6 1425.5 1359.27 1377.4 1284.66 1403.77"/><polygon class="cls-1" points="1359.27 1377.4 1310.6 1425.5 1368.85 1425.07 1399.15 1395.06 1359.27 1377.4"/><polygon class="cls-4" points="1359.27 1377.4 1399.15 1395.06 1404.16 1363.82 1410.23 1326.3 1404.16 1327.44 1359.27 1377.4"/><polygon class="cls-6" points="1359.27 1377.4 1404.16 1327.44 1356.27 1288.56 1359.27 1377.4"/><polygon class="cls-2" points="1359.27 1377.4 1356.27 1288.56 1284.08 1331.87 1359.27 1377.4"/><polygon class="cls-2" points="1359.27 1377.4 1284.08 1331.87 1284.66 1403.77 1359.27 1377.4"/><polygon class="cls-2" points="1284.08 1331.87 1284.08 1261.19 1256.14 1230.81 1264.29 1254.76 1265.72 1284.99 1256.64 1317.65 1284.08 1331.87"/><polygon class="cls-1" points="1284.08 1261.19 1284.08 1331.87 1356.27 1288.56 1284.08 1261.19"/><polygon class="cls-2" points="1356.27 1288.56 1404.16 1327.44 1410.23 1326.3 1402.3 1283.13 1397.01 1254.11 1356.27 1288.56"/><polygon class="cls-2" points="1356.27 1288.56 1397.01 1254.11 1352.84 1201.94 1325.11 1215.09 1356.27 1288.56"/><polygon class="cls-2" points="1356.27 1288.56 1325.11 1215.09 1284.08 1261.19 1356.27 1288.56"/><polygon class="cls-2" points="1284.08 1261.19 1325.11 1215.09 1249.99 1213.02 1256.14 1230.81 1284.08 1261.19"/><polygon class="cls-2" points="1249.99 1213.02 1325.11 1215.09 1279.37 1180.28 1247.63 1206.08 1249.99 1213.02"/><polygon class="cls-2" points="1247.63 1206.08 1279.37 1180.28 1274.51 1181.78 1253.71 1188.14 1238.91 1192.72 1246.35 1202.3 1247.63 1206.08"/><polygon class="cls-2" points="1279.37 1180.28 1325.11 1215.09 1352.84 1201.94 1319.39 1192.08 1279.37 1180.28"/><path class="cls-11" d="M1065,1037.55,1120,947l-41.6-41.67-43.31,33.24q13.08,51.24,29.94,99Z"/><polygon class="cls-10" points="1078.39 905.33 1119.98 947 1186.67 896.4 1078.39 905.33"/><polygon class="cls-11" points="1186.67 896.4 1119.98 947 1180.24 1043.92 1223.55 982.45 1186.67 896.4"/><polygon class="cls-1" points="1186.67 896.4 1223.55 982.45 1280.22 925.2 1186.67 896.4"/><polygon class="cls-2" points="1280.22 925.2 1223.55 982.45 1274.94 1022.62 1283.87 1019.83 1299.74 1024.83 1343.62 1008.89 1280.22 925.2"/><polygon class="cls-3" points="1274.94 1022.62 1223.55 982.45 1180.24 1043.92 1184.52 1050.7 1274.94 1022.62"/><path class="cls-2" d="M1180.24,1043.92,1120,947l-55,90.55c.72,2,1.43,4.08,2.15,6.15Z"/><path class="cls-6" d="M1180.24,1043.84l-113.07-.14q14.89,41.49,32.73,80.19l17.37-4.86,14.87,4.5,18-23.37,32-48.74,2.35-.71Z"/><polygon class="cls-1" points="1299.74 1024.83 1352.55 1041.41 1343.62 1008.89 1299.74 1024.83"/><polygon class="cls-1" points="1201.39 1144.62 1182.17 1051.42 1150.15 1100.16 1201.39 1144.62"/><polygon class="cls-8" points="1201.39 1144.62 1150.15 1100.16 1132.14 1123.54 1201.39 1144.62"/><polygon class="cls-3" points="1201.39 1144.62 1245.99 1078.22 1182.17 1051.42 1201.39 1144.62"/><polygon class="cls-5" points="1182.17 1051.42 1245.99 1078.22 1283.87 1019.83 1274.94 1022.62 1184.52 1050.7 1182.17 1051.42"/><polygon class="cls-4" points="1283.87 1019.83 1245.99 1078.22 1320.18 1050.56 1283.87 1019.83"/><polygon class="cls-3" points="1320.18 1050.56 1245.99 1078.22 1297.09 1113.82 1320.18 1050.56"/><polygon class="cls-2" points="1297.09 1113.82 1245.99 1078.22 1201.39 1144.62 1297.09 1113.82"/><polygon class="cls-4" points="1297.09 1113.82 1201.39 1144.62 1253.71 1188.14 1274.51 1181.78 1297.09 1113.82"/><polygon class="cls-1" points="1253.71 1188.14 1201.39 1144.62 1238.91 1192.72 1253.71 1188.14"/><polygon class="cls-4" points="1320.18 1050.56 1297.09 1113.82 1345.41 1111.67 1361.2 1089.66 1320.18 1050.56"/><polygon class="cls-10" points="1320.18 1050.56 1361.2 1089.66 1372.71 1073.65 1392.29 1067.36 1374.85 1048.49 1320.18 1050.56"/><polygon class="cls-2" points="1320.18 1050.56 1374.85 1048.49 1352.55 1041.41 1299.74 1024.83 1283.87 1019.83 1320.18 1050.56"/><polygon class="cls-2" points="1297.09 1113.82 1318.46 1163.34 1318.03 1149.69 1345.41 1111.67 1297.09 1113.82"/><polygon class="cls-4" points="1318.46 1163.34 1297.09 1113.82 1274.51 1181.78 1279.37 1180.28 1319.39 1192.08 1318.46 1163.34"/><polygon class="cls-1" points="1318.03 1149.69 1318.46 1163.34 1319.39 1192.08 1352.84 1201.94 1370.28 1178.85 1318.03 1149.69"/><polygon class="cls-10" points="1318.03 1149.69 1370.28 1178.85 1390.22 1152.55 1372.71 1073.65 1361.2 1089.66 1345.41 1111.67 1318.03 1149.69"/><polygon class="cls-4" points="1372.71 1073.65 1390.22 1152.55 1402.58 1136.18 1405.51 1135.18 1420.45 1058.28 1392.29 1067.36 1372.71 1073.65"/><polygon class="cls-2" points="1402.58 1136.18 1390.22 1152.55 1370.28 1178.85 1352.84 1201.94 1432.03 1260.05 1465.76 1145.62 1405.23 1136.61 1402.58 1136.18"/><polygon class="cls-4" points="1432.03 1260.05 1352.84 1201.94 1397.01 1254.11 1402.3 1283.13 1432.03 1260.05"/><polygon class="cls-1" points="1432.03 1260.05 1402.3 1283.13 1410.23 1326.3 1404.16 1363.82 1432.03 1388.27 1434.17 1386.98 1432.03 1260.05"/><polygon class="cls-2" points="1432.03 1260.05 1434.17 1386.98 1539.67 1326.73 1432.03 1260.05"/><polygon class="cls-1" points="1432.03 1260.05 1539.67 1326.73 1539.67 1210.09 1432.03 1260.05"/><polygon class="cls-8" points="1432.03 1260.05 1539.67 1210.09 1465.76 1145.62 1432.03 1260.05"/><polygon class="cls-4" points="1465.76 1145.62 1539.67 1210.09 1597.34 1141.76 1465.76 1145.62"/><polygon class="cls-4" points="1465.76 1145.62 1521.3 1096.02 1405.51 1135.18 1405.23 1136.61 1465.76 1145.62"/><polygon class="cls-2" points="1521.3 1096.02 1465.76 1145.62 1597.34 1141.76 1521.3 1096.02"/><polygon class="cls-2" points="1521.3 1096.02 1597.34 1141.76 1632.44 1125.96 1620 1122.61 1545.95 1102.66 1521.3 1096.02"/><polygon class="cls-2" points="1597.34 1141.76 1646.52 1254.97 1699.9 1198.58 1683.04 1180.43 1632.44 1125.96 1597.34 1141.76"/><polygon class="cls-7" points="1646.52 1254.97 1597.34 1141.76 1539.67 1210.09 1539.67 1326.73 1646.52 1254.97"/><polygon class="cls-3" points="1646.52 1254.97 1539.67 1326.73 1647.8 1385.69 1714.41 1315.22 1646.52 1254.97"/><polygon class="cls-10" points="1646.52 1254.97 1714.41 1315.22 1730.64 1300.21 1711.77 1237.67 1699.9 1198.58 1646.52 1254.97"/><polygon class="cls-1" points="1714.41 1315.22 1647.8 1385.69 1701.62 1411.35 1707.84 1387.41 1712.56 1369.4 1730.64 1300.21 1714.41 1315.22"/><polygon class="cls-2" points="1701.62 1411.35 1647.8 1385.69 1540.95 1436.08 1555.53 1450.16 1666.17 1437.8 1701.62 1411.35"/><polygon class="cls-2" points="1555.53 1450.16 1540.95 1436.08 1523.01 1449.37 1555.53 1450.16"/><polygon class="cls-1" points="1523.01 1449.37 1540.95 1436.08 1432.03 1388.27 1452.11 1445.94 1523.01 1449.37"/><polygon class="cls-2" points="1452.11 1445.94 1432.03 1388.27 1404.16 1363.82 1399.15 1395.06 1368.85 1425.07 1394.01 1439.94 1452.11 1445.94"/><polygon class="cls-7" points="1432.03 1388.27 1540.95 1436.08 1647.8 1385.69 1539.67 1326.73 1434.17 1386.98 1432.03 1388.27"/><polygon class="cls-5" points="1405.51 1135.18 1521.3 1096.02 1545.95 1102.66 1548.67 1031.12 1423.53 1042.63 1420.45 1058.28 1405.51 1135.18"/><polygon class="cls-7" points="1423.53 1042.63 1548.67 1031.12 1658.88 948.22 1521.3 945.64 1423.53 1042.63"/><polygon class="cls-2" points="1521.3 945.64 1658.88 948.22 1641.37 897.4 1521.3 945.64"/><polygon class="cls-1" points="1641.37 897.4 1658.88 948.22 1769.95 928.13 1641.37 897.4"/><polygon class="cls-4" points="1769.95 928.13 1658.88 948.22 1676.82 1086.66 1810.97 1023.4 1769.95 928.13"/><polygon class="cls-1" points="1769.95 928.13 1810.97 1023.4 1881.44 1017.83 1769.95 928.13"/><polygon class="cls-7" points="1881.44 1017.83 1810.97 1023.4 1897.31 1152.41 1922.89 1148.12 1881.44 1017.83"/><polygon class="cls-2" points="1897.31 1152.41 1810.97 1023.4 1676.82 1086.66 1807.54 1161.84 1897.31 1152.41"/><polygon class="cls-7" points="1807.54 1161.84 1676.82 1086.66 1683.04 1180.43 1699.9 1198.58 1711.77 1237.67 1807.54 1161.84"/><polygon class="cls-1" points="1683.04 1180.43 1676.82 1086.66 1620 1122.61 1632.44 1125.96 1683.04 1180.43"/><polygon class="cls-8" points="1620 1122.61 1676.82 1086.66 1548.67 1031.12 1545.95 1102.66 1620 1122.61"/><polygon class="cls-2" points="1548.67 1031.12 1676.82 1086.66 1658.88 948.22 1548.67 1031.12"/><polygon class="cls-1" points="1807.54 1161.84 1711.77 1237.67 1730.64 1300.21 1712.56 1369.4 1827.19 1295.99 1828.41 1293.49 1807.54 1161.84"/><polygon class="cls-5" points="1807.54 1161.84 1828.41 1293.49 1897.31 1152.41 1807.54 1161.84"/><polygon class="cls-1" points="1897.31 1152.41 1828.41 1293.49 1828.77 1295.71 1897.31 1284.85 1897.31 1152.41"/><polygon class="cls-2" points="1897.31 1152.41 1897.31 1284.85 1922.89 1148.12 1897.31 1152.41"/><polygon class="cls-2" points="1897.31 1284.85 1828.77 1295.71 1827.19 1295.99 1796.46 1387.41 1897.31 1284.85"/><polygon class="cls-5" points="1796.46 1387.41 1827.19 1295.99 1712.56 1369.4 1707.84 1387.41 1796.46 1387.41"/><polygon class="cls-5" points="1201.39 1144.62 1132.14 1123.54 1117.27 1119.03 1164.8 1160.91 1201.39 1144.62"/><path class="cls-8" d="M988,1197.29l36.16-41.88-57.68-4.5q-.42,18.43-.85,36-.54,22.72-1.29,44l9,8.3Z"/><path class="cls-11" d="M964.32,1230.88q.75-21.23,1.29-44h-66c-3.65,15.65-7.51,31.09-11.51,46.46l10.29-4.65,27.45.86Z"/><path class="cls-10" d="M888.06,1233.39c4-15.37,7.86-30.81,11.51-46.46H858l16.51,52.53Z"/><path class="cls-12" d="M858,1186.93h41.6c2.86-12,5.57-24.09,8.29-36.31l-45.53-6.22q7.5-14.79,14.37-31l-34-18.73c-7.79,16.58-15.94,32.09-24.38,46.67Z"/><path class="cls-10" d="M862.33,1144.4l45.53,6.22c2.36-10.93,4.64-21.94,6.93-33l-38.09-4.21q-6.87,16.18-14.37,31Z"/><path class="cls-12" d="M907.86,1150.62c-2.72,12.22-5.43,24.3-8.29,36.31h66q.42-17.58.85-36Z"/><path class="cls-10" d="M907.86,1150.62l58.6.29c.22-10.58.43-21.3.65-32.31l-52.32-1c-2.29,11.08-4.57,22.09-6.93,33Z"/><path class="cls-10" d="M967.11,1118.75q-.33,16.39-.65,32.16l57.68,4.5q-3.65-17.79-7.07-39.45l-50,2.64Z"/><path class="cls-2" d="M1017.07,1116q3.42,21.66,7.07,39.45l11.8-13.65,1.07-.29,62.89-17.58c-3.93-8.57-7.79-17.22-11.5-25.94Z"/><path class="cls-10" d="M1067.17,1043.7l-2.15-6.15q-3.42-9.65-6.64-19.29l-52.11,13c1.51,14.29,3,27.73,4.65,40.52l62-12.37c-1.93-5.21-3.86-10.5-5.79-15.72Zm-43,111.71,11.8-13.65,1.07-.29,62.89-17.58q-17.79-38.7-32.73-80.19l113.07.22L1120,947l-55,90.55c-7.36-20.79-14.15-42.16-20.44-64l-42.81,10.5c1.43,16.51,2.93,32.31,4.5,47.18l-37.88,2.43c-.14,13.29-.35,26.3-.5,39l43-.93q2.9,23.81,6.15,44.17,3.42,21.66,7.07,39.45Z"/><path class="cls-2" d="M1065,1037.55q-3.42-9.65-6.64-19.29l-52.11,13c1.51,14.29,3,27.73,4.65,40.52l62-12.37c-1.93-5.21-3.86-10.5-5.79-15.72Z"/><path class="cls-6" d="M1017.07,1116q-3.23-20.37-6.15-44.17l-43,.93c-.28,15.72-.5,31-.78,45.88Z"/><path class="cls-11" d="M967.11,1118.6c.28-14.93.5-30.16.78-45.88l-44.38-.64c-2.79,15.29-5.72,30.51-8.72,45.52Z"/><path class="cls-11" d="M914.79,1117.6c3-15,5.93-30.23,8.72-45.52l-30.16-2.15q-7.83,22.83-16.65,43.46Z"/><path class="cls-2" d="M876.7,1113.39q8.79-20.6,16.65-43.46c4.43-12.79,8.72-26.16,12.72-40l-33.66-8.29q-14,39.35-29.73,73Z"/><path class="cls-8" d="M876.7,1113.39q8.79-20.6,16.65-43.46c4.43-12.79,8.72-26.16,12.72-40l-33.66-8.29q-14,39.35-29.73,73Z"/><path class="cls-12" d="M893.35,1069.93l30.16,2.15c2.36-12.87,4.57-25.81,6.72-38.81L906.07,1030c-4,13.79-8.29,27.16-12.72,40Z"/><path class="cls-10" d="M930.23,1033.27c-2.15,13-4.36,25.94-6.72,38.81l44.38.64.5-39v-.07Z"/><path class="cls-6" d="M969,983.74q-.22,25.62-.58,50l37.88-2.43c-1.57-14.87-3.07-30.67-4.5-47.18Z"/><path class="cls-10" d="M968.39,1033.7q.33-24.35.58-50l-31-.58c-2.43,16.87-5,33.53-7.79,50.11Z"/><path class="cls-8" d="M930.23,1033.27c2.79-16.58,5.36-33.24,7.79-50.11l-19.16-1.92c-4,16.86-8.29,33.16-12.79,48.74Z"/><path class="cls-8" d="M906.07,1030c4.5-15.58,8.79-31.88,12.79-48.74l-31-6.72q-7.41,24.54-15.44,47.17Z"/><path class="cls-8" d="M887.85,974.52l31,6.72q4.93-21.24,9.44-43.75l-28.95-3.28q-5.57,20.79-11.5,40.31Z"/><path class="cls-9" d="M928.3,937.49q-4.5,22.51-9.44,43.75L938,983.16q3.32-22.39,6.22-45.24Z"/><path class="cls-2" d="M944.24,937.92q-2.9,22.85-6.22,45.24l31,.58q.21-22.62.43-46.17Z"/><path class="cls-6" d="M969.4,937.57,969,983.45c.14-14.94.28-30.09.43-45.6v-.28Zm-25.16.35q-2.9,22.85-6.22,45.24l31,.58,32.8.35c-1.36-15.29-2.64-31.37-3.86-48l-28.51,1.5Z"/><path class="cls-12" d="M995.41,900.54c.79,12.15,1.64,24,2.5,35.53l35.67-3.58q-4.51-18.12-8.58-36.66Z"/><path class="cls-11" d="M997.91,936.07c-.86-11.51-1.71-23.38-2.5-35.53l-25.8,1.93c-.07,11.87-.14,23.52-.21,35.1Z"/><path class="cls-10" d="M969.4,937.57c.07-11.58.14-23.23.21-35.1l-21.08.29q-2,17.68-4.29,35.16Z"/><path class="cls-12" d="M944.24,937.92q2.25-17.48,4.29-35.16L934.8,902c-2.07,12.08-4.21,24-6.5,35.45Z"/><path class="cls-11" d="M992.62,855q1.29,23.47,2.79,45.52l29.59-4.71c-3.07-13.87-5.86-28-8.51-42.17Z"/><path class="cls-11" d="M928.3,937.49c2.29-11.5,4.43-23.37,6.5-35.45l-27-1.07c-2.72,11.37-5.58,22.44-8.44,33.24Z"/><path class="cls-11" d="M907.79,901l27,1.07c2.5-14.86,4.93-30.16,7.08-45.81L918.22,855c-3.36,15.79-6.79,31.09-10.43,46Z"/><path class="cls-10" d="M941.88,856.23c-2.15,15.65-4.58,30.95-7.08,45.81l13.73.72c1.85-15.51,3.5-31.23,5.14-47Z"/><path class="cls-11" d="M953.67,855.73c-1.64,15.8-3.29,31.52-5.14,47l21.08-.29c.14-15.58.21-31.44.36-47.52Z"/><path class="cls-10" d="M970,855c-.15,16.08-.22,31.94-.36,47.52l25.8-1.93q-1.5-22.08-2.79-45.52Z"/><path class="cls-6" d="M989.76,803.2c.93,17.87,1.86,35.09,2.86,51.82l23.87-1.36q-4.92-26.7-9-54.18Z"/><path class="cls-10" d="M992.62,855c-1-16.73-1.93-33.95-2.86-51.82l-19.51-.07c-.14,17.58-.21,34.8-.28,51.82Z"/><path class="cls-10" d="M970,855c.07-17,.14-34.24.28-51.82l-11.79.64c-1.5,17.44-3.07,34.81-4.79,52Z"/><path class="cls-12" d="M953.67,855.73c1.72-17.15,3.29-34.52,4.79-52l-10,.22c-2,17.94-4.14,35.3-6.57,52.24Z"/><path class="cls-8" d="M941.88,856.23c2.43-16.94,4.57-34.3,6.57-52.24l-19.51-.08c-1.43,7.22-3,14.08-4.57,20.66-2,10.29-4.08,20.44-6.15,30.38Z"/><path class="cls-6" d="M928.94,803.91l19.51.08c1.58-14,3-28.38,4.36-43H936.59c-2.36,15.44-4.86,29.73-7.65,42.95Z"/><path class="cls-11" d="M952.81,761c-1.35,14.65-2.78,29-4.36,43l10-.22c1.14-14.22,2.29-28.44,3.29-42.81Z"/><path class="cls-10" d="M961.75,761c-1,14.37-2.15,28.59-3.29,42.81l11.79-.64q0-20.8.15-42.24Z"/><path class="cls-8" d="M970.4,760.89q-.12,21.43-.15,42.24l19.51.07c-.64-13.79-1.35-27.87-2-42.31Z"/><path class="cls-12" d="M987.76,760.89c.65,14.44,1.36,28.52,2,42.31l17.73-3.72q-2.79-19.08-5.15-38.59Z"/><path class="cls-10" d="M987.76,760.89h14.58c-2.14-17.8-4.07-35.88-5.64-54.25H985.55q1.07,27.87,2.21,54.25Z"/><path class="cls-11" d="M987.76,760.89q-1.17-26.37-2.21-54.25H970.61q-.11,27.66-.21,54.25Z"/><path class="cls-9" d="M970.4,760.89q.11-26.6.21-54.25h-5.36q-1.61,27.45-3.5,54.32Z"/><path class="cls-12" d="M961.75,761q1.92-26.91,3.5-54.32H957.1q-1.92,27.87-4.29,54.32Z"/><path class="cls-8" d="M952.81,761q2.37-26.48,4.29-54.32H943.52c-2.07,19.37-4.43,37.52-6.93,54.32Z"/><path class="cls-8" d="M984.19,670.48c.43,12.29.93,24.3,1.36,36.16H996.7c-1.07-11.93-2-23.94-2.79-36.16Z"/><path class="cls-11" d="M985.55,706.64c-.43-11.86-.93-23.87-1.36-36.16H970.75c-.07,12.22-.07,24.3-.14,36.16Z"/><path class="cls-8" d="M965.25,706.64c.64-11.93,1.29-24,1.79-36.16h-7.72c-.72,12.29-1.43,24.3-2.22,36.16Z"/><path class="cls-11" d="M957.1,706.64c.79-11.86,1.5-23.87,2.22-36.16H947c-1.07,12.51-2.21,24.58-3.5,36.16Z"/><path class="cls-12" d="M947,670.48h12.3c1.14-21,2-42.53,2.71-64.61H951.67c-1.36,22.73-2.86,44.31-4.65,64.61Z"/><path class="cls-8" d="M962,605.87c-.71,22.08-1.57,43.59-2.71,64.61H967c1-21.3,1.85-42.89,2.5-64.61Z"/><path class="cls-10" d="M971,605.87q-.11,32.91-.22,64.61h13.44q-1.07-31.41-2.07-64.61Z"/><path class="cls-6" d="M982.12,605.87q1,33.23,2.07,64.61h9.72c-1.43-21.16-2.5-42.74-3.22-64.61Z"/><path class="cls-12" d="M982.12,605.87h8.57q-.86-25-1.07-50.6h-8.86c.43,17.22.86,34,1.36,50.6Z"/><path class="cls-10" d="M982.12,605.87c-.5-16.58-.93-33.38-1.36-50.6h-9.65q-.11,25.62-.14,50.6Z"/><path class="cls-12" d="M969.54,605.87c.5-16.73.86-33.59,1.21-50.6h-7.43q-.44,25.72-1.29,50.6Z"/><path class="cls-8" d="M962,605.87q.87-24.87,1.29-50.6h-9.15q-1.06,26.26-2.5,50.6Z"/><path class="cls-9" d="M954.17,555.27h9.15c.14-9.22.29-18.52.36-27.88h-8.51c-.28,9.44-.64,18.73-1,27.88Z"/><path class="cls-8" d="M963.68,527.39c-.07,9.36-.22,18.66-.36,27.88h7.43c.15-9.22.29-18.59.43-27.88Z"/><path class="cls-9" d="M971.18,527.39c-.07,9.36-.07,18.66-.07,27.88h9.65c-.22-9.22-.5-18.52-.72-27.88Z"/><path class="cls-8" d="M980,527.39c.22,9.36.5,18.66.72,27.88h8.86q-.11-13.83,0-27.88Z"/><path class="cls-12" d="M980,527.39h9.58q0-10.29.22-20.58H979.62l.42,20.58Z"/><path class="cls-9" d="M980,527.39l-.42-20.58h-8.3c0,6.07-.07,12.15-.14,18.15v2.43Z"/><path class="cls-8" d="M971.18,525c0-6,0-12.08.07-18.15h-7.43c0,6.86-.07,13.72-.14,20.58h7.5V525Z"/><path class="cls-10" d="M963.68,527.39c.07-6.86.14-13.72.14-20.58h-8q-.33,10.4-.65,20.58Z"/><path class="cls-9" d="M979.19,488.94c.14,6,.28,11.94.43,17.87h10.22c.07-5.93.14-11.87.28-17.87Z"/><path class="cls-8" d="M979.62,506.81c-.15-5.93-.29-11.87-.43-17.87h-7.72c-.07,5.93-.07,11.94-.15,17.87Z"/><path class="cls-9" d="M971.25,506.81V488.94h-7.36c0,6,0,11.94-.07,17.87Z"/><path class="cls-10" d="M963.82,506.81c.07-5.93.07-11.87.07-17.87h-7.65c-.14,6-.28,11.94-.42,17.87Z"/><path class="cls-12" d="M956.24,488.94h7.65c0-4.72,0-9.51-.07-14.29h-7.29c-.07,4.78-.14,9.57-.29,14.29Z"/><path class="cls-8" d="M963.82,474.65c.07,4.78.07,9.57.07,14.29h7.36c.07-4.72.07-9.51.07-14.29Z"/><path class="cls-8" d="M971.47,474.65v14.29h7.72c-.07-4.72-.22-9.51-.29-14.29Z"/><path class="cls-12" d="M978.9,474.65c.07,4.78.22,9.57.29,14.29h10.93c.14-4.72.22-9.51.36-14.29Z"/><path class="cls-12" d="M978.9,474.65h11.58c.14-5,.29-10,.5-15H978.62c.07,5,.14,10.07.28,15Z"/><path class="cls-8" d="M978.9,474.65c-.14-4.94-.21-10-.28-15h-7.15v15Z"/><path class="cls-8" d="M971.32,474.65c0-5,0-10,.08-15h-7.65c.07,5,.07,10.07.07,15Z"/><path class="cls-12" d="M956.82,459.64c-.08,5.07-.15,10.07-.29,15h7.29c0-4.94,0-10-.07-15Z"/><path class="cls-12" d="M956.82,459.64h6.93c0-3.51-.07-7-.07-10.44H957c-.07,3.5-.14,6.93-.21,10.44Z"/><path class="cls-8" d="M963.68,449.2c0,3.43.07,6.93.07,10.44h7.65V449.2Z"/><path class="cls-8" d="M971.4,449.2c0,3.43.07,6.93.07,10.44h7.15c-.08-3.51-.15-6.94-.22-10.44Z"/><path class="cls-12" d="M978.4,449.2c.07,3.5.14,6.93.22,10.44H991c.07-3.51.21-7,.36-10.44H978.4Z"/><path class="cls-8" d="M1033.58,932.49l-35.67,3.58c1.22,16.65,2.5,32.73,3.86,48,1.43,16.51,2.93,32.31,4.5,47.18,1.51,14.29,3,27.73,4.65,40.52q2.9,23.81,6.15,44.17,3.42,21.66,7.07,39.45l11.8-13.65,1.07-.29,62.89-17.58q-17.79-38.7-32.73-80.19l-2.15-6.15q-16.83-47.7-29.94-99c-.5-2-1-4.08-1.5-6.08Z"/><path class="cls-9" d="M970.61,706.64c.07-11.86.07-23.94.14-36.16H967c-.5,12.15-1.15,24.23-1.79,36.16Z"/><path class="cls-11" d="M967,670.48h3.71q.11-31.74.22-64.61h-1.43c-.65,21.72-1.5,43.31-2.5,64.61Z"/><path class="cls-13" d="M969.54,605.87H971q0-25,.14-50.6h-.36c-.35,17-.71,33.87-1.21,50.6Z"/></svg>