<svg id="Layer_1" data-name="Layer 1" xmlns="http://www.w3.org/2000/svg" viewBox="0 0 118 100"><defs><style>.cls-1{fill:#b3afaf;}.cls-1,.cls-2{fill-rule:evenodd;}.cls-2{fill:#e5bf43;}</style></defs><path id="LOGO" class="cls-1" d="M75.56,43.06a15.2,15.2,0,0,0-1-5,10.16,10.16,0,0,0-2.37-3.64,10,10,0,0,0-3.63-2.36,15,15,0,0,0-5-1C61.44,31,60.74,31,55.17,31s-6.27,0-8.46.12a14.92,14.92,0,0,0-5,1,10.4,10.4,0,0,0-6,6,14.92,14.92,0,0,0-1,5c-.1,2.19-.12,2.89-.12,8.46s0,6.27.12,8.46a15,15,0,0,0,1,5,10,10,0,0,0,2.36,3.63A10.16,10.16,0,0,0,41.73,71a14.94,14.94,0,0,0,5,1c2.19.1,2.88.13,8.46.13s6.27,0,8.46-.13a15.05,15.05,0,0,0,5-1,10.55,10.55,0,0,0,6-6,15.31,15.31,0,0,0,1-5c.1-2.19.12-2.89.12-8.46S75.66,45.25,75.56,43.06Zm-20.39,19A10.54,10.54,0,1,1,65.7,51.52,10.53,10.53,0,0,1,55.17,62.05Zm11-19a2.47,2.47,0,1,1,2.46-2.46A2.46,2.46,0,0,1,66.12,43ZM62,51.52a6.84,6.84,0,1,1-6.84-6.84A6.84,6.84,0,0,1,62,51.52Z"/><g id="INSTAGRAM_006" data-name="INSTAGRAM 006"><path id="LOGO-2" data-name="LOGO" class="cls-2" d="M74.56,43.06a15.2,15.2,0,0,0-1-5,10.16,10.16,0,0,0-2.37-3.64,10,10,0,0,0-3.63-2.36,15,15,0,0,0-5-1C60.44,31,59.74,31,54.17,31s-6.27,0-8.46.12a14.92,14.92,0,0,0-5,1,10.4,10.4,0,0,0-6,6,14.92,14.92,0,0,0-1,5c-.1,2.19-.12,2.89-.12,8.46s0,6.27.12,8.46a15,15,0,0,0,1,5,10,10,0,0,0,2.36,3.63A10.16,10.16,0,0,0,40.73,71a14.94,14.94,0,0,0,5,1c2.19.1,2.88.13,8.46.13s6.27,0,8.46-.13a15.05,15.05,0,0,0,5-1,10.55,10.55,0,0,0,6-6,15.31,15.31,0,0,0,1-5c.1-2.19.12-2.89.12-8.46S74.66,45.25,74.56,43.06Zm-20.39,19A10.54,10.54,0,1,1,64.7,51.52,10.53,10.53,0,0,1,54.17,62.05Zm11-19a2.47,2.47,0,1,1,2.46-2.46A2.46,2.46,0,0,1,65.12,43ZM61,51.52a6.84,6.84,0,1,1-6.84-6.84A6.84,6.84,0,0,1,61,51.52Z"/></g></svg>