<svg id="Layer_1" data-name="Layer 1" xmlns="http://www.w3.org/2000/svg" viewBox="0 0 1032.7 269.77"><defs><style>.cls-1{fill:#e5bf43;}</style></defs><path class="cls-1" d="M82.52,60.46V78.74H55.38c-5.09,0-8.42,1.24-10.1,3.68a6,6,0,0,0,0,7.35q2.55,3.66,10,3.66h9.85c8.17,0,14.73,1.87,19.59,5.6a26.72,26.72,0,0,1,9.76,13.76,27.87,27.87,0,0,1,0,16.28,26.78,26.78,0,0,1-9.68,13.79q-7.32,5.64-19.58,5.64H29.94V130.15H65.23c5.13,0,8.41-1.52,10.12-4.59a9.07,9.07,0,0,0-.15-9.2q-2.6-4.6-10-4.6H55.38q-12.48,0-19.91-5.26a25.17,25.17,0,0,1-9.93-12.82,23.46,23.46,0,0,1,0-15.17A25.1,25.1,0,0,1,35.47,65.7q7.45-5.27,19.91-5.26Z"/><path class="cls-1" d="M141,60.52h19.23l35.29,87.93H176.62l-4.69-11.8H129.44l-4.69,11.8H105.81Zm9.61,23.42-14.18,35.24h28.3Z"/><path class="cls-1" d="M240.31,148.45H220.66L204.33,60.52h17.91l11,59.59,22.58-59.59h12.4l22.59,59.59,11-59.59h17.84l-16.26,87.93H283.72L262,91.93Z"/><path class="cls-1" d="M368,148.45H350.34V78.09h-21V60.52h59.8V78.09h-21Z"/><path class="cls-1" d="M434.89,130.53H415.53v17.92H397.92V60.52h37.13a32.19,32.19,0,0,1,23.63,9.83,33.57,33.57,0,0,1,8.86,16,39.15,39.15,0,0,1,0,18.39,33.81,33.81,0,0,1-8.86,16,33.09,33.09,0,0,1-6.31,5l12.88,22.76h-20.2Zm.16-18.33a14.62,14.62,0,0,0,10.65-4.44,18.64,18.64,0,0,0,0-24.45,14.48,14.48,0,0,0-10.65-4.44H415.53V112.2Z"/><path class="cls-1" d="M549,116a32.29,32.29,0,0,1-9.81,23.61,34.22,34.22,0,0,1-16,8.79,39.63,39.63,0,0,1-18.44,0,33.89,33.89,0,0,1-16-8.79A32.17,32.17,0,0,1,478.86,116V60.52h18.33V116a14.49,14.49,0,0,0,4.44,10.67A18.66,18.66,0,0,0,514,131.24a18.39,18.39,0,0,0,12.25-4.54A14.51,14.51,0,0,0,530.67,116V60.52H549Z"/><path class="cls-1" d="M625.17,60.52a25.16,25.16,0,0,1,25.06,25,24.06,24.06,0,0,1-3.31,12.35,24.53,24.53,0,0,1,3.6,3,27.89,27.89,0,0,1-19.76,47.59H589.12V60.52ZM606.65,93.43h18.52A5.76,5.76,0,0,0,631,89.77a9.29,9.29,0,0,0,.12-7.28,5.71,5.71,0,0,0-6-3.62H606.65Zm0,36.67h24.2a10.29,10.29,0,0,0,8.16-4.33,10.79,10.79,0,0,0,1.81-7.64,12,12,0,0,0-3.43-6.31,9.75,9.75,0,0,0-6.54-2.84H606.73Z"/><path class="cls-1" d="M745.36,72.72a45.24,45.24,0,1,1-31.82-13.15A43.24,43.24,0,0,1,745.36,72.72Zm-51.72,12a27.88,27.88,0,0,0-.13,39.43l.13.13a28,28,0,1,0,19.9-47.75,27,27,0,0,0-19.9,8.19Z"/><path class="cls-1" d="M845.12,72.72a45.24,45.24,0,1,1-31.88-13.15A43.2,43.2,0,0,1,845.12,72.72Zm-51.62,12a27.89,27.89,0,0,0-.13,39.43,1.59,1.59,0,0,1,.13.13,28,28,0,1,0,19.84-47.75A27.06,27.06,0,0,0,793.5,84.72Z"/><path class="cls-1" d="M927.41,60.46V78.74H900.25c-5.1,0-8.42,1.24-10.1,3.68a6,6,0,0,0,.1,7.35c1.68,2.44,5,3.66,10,3.66h9.84q12.27,0,19.59,5.6a26.83,26.83,0,0,1,9.79,13.76,27.87,27.87,0,0,1,0,16.28,26.78,26.78,0,0,1-9.79,13.74q-7.32,5.64-19.59,5.64H874.83V130.1h35.26c5.14,0,8.53-1.51,10.15-4.58a9.07,9.07,0,0,0-.17-9.2q-2.55-4.6-10-4.61h-9.84q-12.43,0-19.89-5.26a25.23,25.23,0,0,1-10-12.81,23.73,23.73,0,0,1,0-15.17,25.26,25.26,0,0,1,10-12.82q7.46-5.25,19.89-5.26Z"/><path class="cls-1" d="M990.2,148.45H972.61V78.09h-21V60.52h59.8V78.09h-21Z"/><path class="cls-1" d="M67.88,187.42c0-8.22,0-17,.29-21.78H68c-2.1,8.42-8.63,27.63-13.15,40.55H49.07C45.68,195.38,39,174.27,36.86,165.54h-.25c.36,5.24.52,15.28.52,23.14V206.3H31.22V161h9.47c4.42,12.83,10.12,30.76,11.62,37.09h.1c.93-4.61,7.81-24.17,12.44-37.09H74v45.15H67.88Z"/><path class="cls-1" d="M106.74,193l-4.21,13.15H96.22c2.69-7.95,11.55-36.11,14.56-45.15h8L134,206.19h-6.71L123,193Zm14.86-5.36c-3.62-11.18-6-17.85-6.88-21.57h0c-1.23,5.28-3.52,12.24-6.51,21.57Z"/><path class="cls-1" d="M162.61,186v20.18h-6.32V161h16.48c8.1,0,13.8,4,13.8,11.76a10.24,10.24,0,0,1-7.36,10.52c4.69,1.56,6.63,5.24,6.63,11.28v.86a63.44,63.44,0,0,0,.63,10.67h-6.19a43.38,43.38,0,0,1-.78-10.67v-1c0-6.16-2.25-8.56-9.4-8.56Zm0-5.13h8.06c5.61,0,9.59-1.6,9.59-7.68,0-4.69-3.22-7-8.29-7h-9.38Z"/><path class="cls-1" d="M211.65,161h6.19v22.34c5-5.78,13.74-15.69,19.42-22.34h7.6l-16.65,18.6,17.64,26.55h-7.58l-14.43-22.37-6,6.19v16.18h-6.31Z"/><path class="cls-1" d="M293.34,185.23H273.1v15.68h22.26l-.82,5.28H266.93V161h27.36v5.34H273.1v13.49h20.24Z"/><path class="cls-1" d="M327.28,166.4h-13V161h32.51v5.36H333.63v39.79h-6.31Z"/><path class="cls-1" d="M375.06,161v45.15h-6.31V161Z"/><path class="cls-1" d="M401.85,206.19V161h8.27c17.19,31.2,19.57,35.56,20.37,37.56h0c-.42-5.87-.49-13.18-.49-20.52V161h5.9v45.15h-7.73c-18.39-33.85-19.86-36.84-20.76-38.69h0c.31,5.8.27,13.42.27,21.52v17.17Z"/><path class="cls-1" d="M496.64,206.19h-4.81a40.5,40.5,0,0,1-.53-6.31c-2.38,5.05-6.84,6.94-13.15,6.94-11.83,0-17.66-10-17.66-23s6.93-23.42,19.7-23.42c9.83,0,15.25,5.31,16.56,13.15h-6.31c-1.24-4.5-4.11-7.91-10.65-7.91-9.07,0-12.88,8.13-12.88,18.23,0,9.46,3.64,17.75,12.33,17.75,9.16,0,11.09-6.31,11.09-14.18v-.27H479.14v-5.49h17.5Z"/><path class="cls-1" d="M558.11,193.36a9.14,9.14,0,0,0,9.83,8.41h0c5.39,0,8.63-2.67,8.63-7.34s-2.4-6.88-10.08-9.22c-9.66-2.88-13.27-6.14-13.27-12.62,0-7.41,5.66-12,14.11-12,10,0,14.21,5.73,14.73,12.27h-6.31a7.7,7.7,0,0,0-8.1-7.28l-.46,0c-5.07,0-7.6,2.46-7.6,6.42s2.34,5.62,9.45,7.74c11.24,3.37,14,7.7,14,14,0,7.47-5.15,13.11-15.38,13.11-9.49,0-15.19-5-15.82-13.38Z"/><path class="cls-1" d="M643.47,183.36c0,13-6.1,23.51-19.54,23.51-12.78,0-18.94-10.1-18.94-23.51,0-11.7,6.14-22.93,19.57-22.93C637.18,160.43,643.47,170.5,643.47,183.36Zm-32,0c0,10.29,4.21,18.35,12.79,18.35,9,0,12.77-7.87,12.77-18.26,0-9.94-3.8-17.74-12.77-17.74s-12.79,7.82-12.79,17.59Z"/><path class="cls-1" d="M668,161h6.31v39.87h21.48l-.84,5.28H668Z"/><path class="cls-1" d="M723.6,161v28.74c0,6.77,2.4,11.82,10.21,11.82s10-4.81,10-11.84V161h6.44v29c0,9.51-4,16.83-16.6,16.83-11.87,0-16.41-6.31-16.41-16.6V161Z"/><path class="cls-1" d="M784.85,166.4H771.79V161H804.3v5.36H791.21v39.79H784.9Z"/><path class="cls-1" d="M832.62,161v45.15h-6.31V161Z"/><path class="cls-1" d="M895.72,183.36c0,13-6.1,23.51-19.55,23.51-12.77,0-18.93-10.1-18.93-23.51,0-11.7,6.14-22.93,19.57-22.93C889.43,160.43,895.72,170.5,895.72,183.36Zm-32,0c0,10.29,4.21,18.35,12.81,18.35,9,0,12.75-7.87,12.75-18.26,0-9.94-3.81-17.74-12.77-17.74s-12.79,7.82-12.79,17.59Z"/><path class="cls-1" d="M920.21,206.19V161h8.27c17.17,31.2,19.57,35.56,20.37,37.56h0c-.44-5.87-.5-13.18-.5-20.52V161h5.91v45.15h-7.74c-18.37-33.85-19.85-36.84-20.75-38.69h0c.34,5.8.29,13.42.29,21.52v17.17Z"/><path class="cls-1" d="M984.43,193.36a9.16,9.16,0,0,0,9.83,8.41c5.39,0,8.63-2.67,8.63-7.34s-2.4-6.88-10.08-9.22c-9.66-2.88-13.28-6.14-13.28-12.62,0-7.41,5.66-12,14.12-12,10,0,14.2,5.73,14.73,12.27h-6.31a7.73,7.73,0,0,0-8.15-7.28l-.44,0c-5.07,0-7.59,2.46-7.59,6.42s2.35,5.62,9.44,7.74c11.24,3.37,14,7.7,14,14,0,7.47-5.14,13.11-15.38,13.11-9.49,0-15.2-5-15.83-13.38Z"/></svg>