<svg id="Layer_1" data-name="Layer 1" xmlns="http://www.w3.org/2000/svg" viewBox="0 0 118 100"><defs><style>.cls-1{fill:#b3afaf;}.cls-1,.cls-2{fill-rule:evenodd;}.cls-2{fill:#e5bf43;}</style></defs><path class="cls-1" d="M63.61,39.37c-4.38-2-10.88-.82-14.06,3.69-2.1,3-3.17,7.46-.53,11,.9,1.22-.25,3.54-.51,3.7-1.35.56-3.23-1.53-3.71-2.18C42,51.7,42.68,45,45.35,41.5c.63-1.87,1.9-1.83,2.69-3.2.44-.77-.43,0,.24-.81.47-.57-.07-.05.29-.21s.63-.05.9-.09l.81-.32A18.43,18.43,0,0,1,66,35.75c11,4.53,10,18.65,3.56,24.93-4.14,4-11.34,3.94-13.37.34-.51.68-1.22,4.38-1.54,5.58C54,68.78,53.1,70,52.55,71.65c.6.12.4.18.25.71,1.23.61,5.17.85,7.12.77C75.85,72.48,86.49,55.22,80.13,41,74.5,28.36,60.5,23.3,48.7,28.92a23.79,23.79,0,0,0-7,5.07A19.25,19.25,0,0,1,40,36.06l-1.41,2.16c-.49,1.23-1.17,2.26-1.72,3.77a23.29,23.29,0,0,0-.49,14.39,23.71,23.71,0,0,0,9.11,12.69,2.94,2.94,0,0,1,.77.39l.31.23a1.53,1.53,0,0,1,.31.28,8.85,8.85,0,0,0,2.47,1.09,28.88,28.88,0,0,1,1.17-8.26c.61-2.5,1.12-5,1.77-7.54s.32-1.74-.09-3.94a8.74,8.74,0,0,1,.2-4.22c.8-2.46,2.37-4,5.59-3.35.28.38.58.43.92.87a2.32,2.32,0,0,1,.61,1.45c.58,1.81-1.35,7-1.82,8.85-.86,3.39,2.08,5.77,5.37,4.47,5.23-2.06,6.47-12.08,5-15.32-.1-.22-.16-.25-.16-.25-.38-.2-.76-1-1.09-1.47s-.16-.53-.42-.05l-.11-.1-.1-.11-.1-.1-.28-.24a1.45,1.45,0,0,1-.49-.52c.75.17.13.45.54,0-.5-.27-.4-.44-1.07-.79-.88-.45-.67-.1-1.16-1.07Z"/><path class="cls-1" d="M67.89,43.82a7.72,7.72,0,0,0-4.28-4.45c.49,1,.28.62,1.16,1.07.67.35.57.52,1.07.79-.41.45.21.17-.54,0a1.45,1.45,0,0,0,.49.52l.28.24.1.1.1.11.11.1c.26-.48.06-.47.42.05s.71,1.27,1.09,1.47Z"/><path class="cls-1" d="M45.35,41.5a15.53,15.53,0,0,1,2.16-2.64,15,15,0,0,1,2.77-2l-.81.32c-.27,0-.48-.1-.9.09s.18-.36-.29.21c-.67.8.2,0-.24.81-.79,1.37-2.06,1.33-2.69,3.2Z"/><path class="cls-1" d="M59.48,46.07a2.32,2.32,0,0,0-.61-1.45c-.34-.44-.64-.49-.92-.87.13.69,0,.28.18.71-.22.24-.25-.34-.08.17s-.06-.26.12.11a2.38,2.38,0,0,0,.14.61A2.08,2.08,0,0,0,59,45c.23.36.48.48.45,1.08Z"/><path class="cls-1" d="M52.8,72.36c.15-.53.35-.59-.25-.71l-.38.63Z"/><path class="cls-1" d="M46.84,70a1.53,1.53,0,0,0-.31-.28l-.31-.23a2.94,2.94,0,0,0-.77-.39,1.31,1.31,0,0,0,.32.29l.35.2c.28.17.4.24.72.41Z"/><path class="cls-1" d="M38.55,38.22,40,36.06Z"/><path class="cls-2" d="M62.61,39.37c-4.38-2-10.88-.82-14.06,3.69-2.1,3-3.17,7.46-.53,11,.9,1.22-.25,3.54-.51,3.7-1.35.56-3.23-1.53-3.71-2.18C41,51.7,41.68,45,44.35,41.5c.63-1.87,1.9-1.83,2.69-3.2.44-.77-.43,0,.24-.81.47-.57-.07-.05.29-.21s.63-.05.9-.09l.81-.32A18.43,18.43,0,0,1,65,35.75c11,4.53,10,18.65,3.56,24.93-4.14,4-11.34,3.94-13.37.34-.51.68-1.22,4.38-1.54,5.58C53,68.78,52.1,70,51.55,71.65c.6.12.4.18.25.71,1.23.61,5.17.85,7.12.77C74.85,72.48,85.49,55.22,79.13,41,73.5,28.36,59.5,23.3,47.7,28.92a23.79,23.79,0,0,0-7,5.07A19.25,19.25,0,0,1,39,36.06l-1.41,2.16c-.49,1.23-1.17,2.26-1.72,3.77a23.29,23.29,0,0,0-.49,14.39,23.71,23.71,0,0,0,9.11,12.69,2.94,2.94,0,0,1,.77.39l.31.23a1.53,1.53,0,0,1,.31.28,8.85,8.85,0,0,0,2.47,1.09,28.88,28.88,0,0,1,1.17-8.26c.61-2.5,1.12-5,1.77-7.54s.32-1.74-.09-3.94a8.74,8.74,0,0,1,.2-4.22c.8-2.46,2.37-4,5.59-3.35.28.38.58.43.92.87a2.32,2.32,0,0,1,.61,1.45c.58,1.81-1.35,7-1.82,8.85-.86,3.39,2.08,5.77,5.37,4.47,5.23-2.06,6.47-12.08,5-15.32-.1-.22-.16-.25-.16-.25-.38-.2-.76-1-1.09-1.47s-.16-.53-.42-.05l-.11-.1-.1-.11-.1-.1-.28-.24a1.45,1.45,0,0,1-.49-.52c.75.17.13.45.54,0-.5-.27-.4-.44-1.07-.79-.88-.45-.67-.1-1.16-1.07Z"/><path class="cls-2" d="M66.89,43.82a7.72,7.72,0,0,0-4.28-4.45c.49,1,.28.62,1.16,1.07.67.35.57.52,1.07.79-.41.45.21.17-.54,0a1.45,1.45,0,0,0,.49.52l.28.24.1.1.1.11.11.1c.26-.48.06-.47.42.05s.71,1.27,1.09,1.47Z"/><path class="cls-2" d="M44.35,41.5a15.53,15.53,0,0,1,2.16-2.64,15,15,0,0,1,2.77-2l-.81.32c-.27,0-.48-.1-.9.09s.18-.36-.29.21c-.67.8.2,0-.24.81-.79,1.37-2.06,1.33-2.69,3.2Z"/><path class="cls-2" d="M58.48,46.07a2.32,2.32,0,0,0-.61-1.45c-.34-.44-.64-.49-.92-.87.13.69,0,.28.18.71-.22.24-.25-.34-.08.17s-.06-.26.12.11a2.38,2.38,0,0,0,.14.61A2.08,2.08,0,0,0,58,45c.23.36.48.48.45,1.08Z"/><path class="cls-2" d="M51.8,72.36c.15-.53.35-.59-.25-.71l-.38.63Z"/><path class="cls-2" d="M45.84,70a1.53,1.53,0,0,0-.31-.28l-.31-.23a2.94,2.94,0,0,0-.77-.39,1.31,1.31,0,0,0,.32.29l.35.2c.28.17.4.24.72.41Z"/><path class="cls-2" d="M37.55,38.22,39,36.06Z"/></svg>