<svg id="Layer_1" data-name="Layer 1" xmlns="http://www.w3.org/2000/svg" viewBox="0 0 753.37 1483.74"><defs><style>.cls-1{fill:#e8be36;}.cls-1,.cls-2,.cls-3,.cls-4{fill-rule:evenodd;}.cls-2{fill:#d1a81e;}.cls-3,.cls-5{fill:#ffd64c;}.cls-4{fill:#e7e6e6;}</style></defs><polygon class="cls-1" points="413.26 1110.06 413.26 1202.33 452.97 1202.33 459.4 1165.54 466.11 1117.65 413.26 1110.06"/><polygon class="cls-2" points="413.26 1110.06 466.11 1117.65 480.42 1018.09 439.25 990.35 413.26 1110.06"/><polygon class="cls-2" points="439.25 990.35 480.42 1018.09 527.72 888.15 539.99 905.09 545.24 852.53 553.13 750.34 449.47 748 443.63 870.63 439.25 990.35"/><polygon class="cls-3" points="413.26 1110.06 358.08 1111.52 360.42 1202.33 400.71 1202.33 413.26 1202.33 413.26 1110.06"/><polygon class="cls-1" points="358.08 1111.52 413.26 1110.06 439.25 990.35 370.05 997.07 358.08 1111.52 358.08 1111.52"/><polygon class="cls-1" points="370.05 997.07 439.25 990.35 443.63 870.63 376.47 884.07 370.63 992.68 370.05 997.07"/><polygon class="cls-2" points="376.47 884.07 443.63 870.63 449.47 748 378.81 752.38 376.47 884.07"/><polygon class="cls-1" points="378.81 752.38 449.47 748 438.96 637.92 372.68 638.8 379.1 750.34 378.81 752.38"/><polygon class="cls-2" points="438.96 637.92 449.47 748 553.13 750.34 553.13 654.57 438.96 637.92"/><polygon class="cls-1" points="438.96 637.92 553.13 654.57 534.73 571.64 426.4 518.21 426.7 520.84 438.96 637.92"/><polygon class="cls-3" points="438.96 637.92 426.7 520.84 365.09 527.26 372.68 638.8 438.96 637.92"/><polygon class="cls-3" points="365.09 527.26 426.7 520.84 426.4 518.21 418.52 426.82 363.92 421.27 365.09 527.26"/><polygon class="cls-1" points="418.52 426.82 426.4 518.21 534.73 571.64 493.27 451.93 418.52 426.82"/><polygon class="cls-1" points="418.52 426.82 493.27 451.93 444.8 358.2 394.58 373.97 418.52 426.82"/><polygon class="cls-3" points="418.52 426.82 394.58 373.97 356.91 311.19 363.92 421.27 418.52 426.82"/><polygon class="cls-3" points="394.58 373.97 444.8 358.2 437.21 343.6 406.26 282.29 356.91 311.19 394.58 373.97"/><polygon class="cls-3" points="319.25 373.97 356.91 311.19 307.27 282.29 276.32 343.6 268.73 358.2 319.25 373.97"/><polygon class="cls-3" points="356.91 311.19 319.25 373.97 295.01 426.82 363.92 421.27 356.91 311.19"/><polygon class="cls-1" points="319.25 373.97 268.73 358.2 220.26 451.93 295.01 426.82 319.25 373.97"/><polygon class="cls-1" points="295.01 426.82 220.26 451.93 178.8 571.64 287.13 518.21 295.01 426.82"/><polygon class="cls-3" points="295.01 426.82 287.13 518.21 287.13 519.09 365.09 527.26 363.92 421.27 295.01 426.82"/><polygon class="cls-3" points="365.09 527.26 287.13 519.09 274.57 637.92 372.68 638.8 365.09 527.26"/><polygon class="cls-1" points="274.57 637.92 287.13 519.09 287.13 518.21 178.8 571.64 160.41 654.57 274.57 637.92"/><polygon class="cls-2" points="274.57 637.92 160.41 654.57 160.41 750.34 264.06 748 274.57 637.92"/><polygon class="cls-1" points="274.57 637.92 264.06 748 379.1 750.34 372.68 638.8 274.57 637.92"/><polygon class="cls-2" points="379.1 750.34 264.06 748 269.9 870.63 376.47 884.07 378.81 752.38 379.1 750.34"/><polygon class="cls-1" points="376.47 884.07 269.9 870.63 274.28 990.35 370.63 992.68 376.47 884.07"/><polygon class="cls-4" points="370.63 992.68 274.28 990.35 300.27 1110.06 300.27 1111.52 358.08 1111.52 370.05 997.07 370.63 992.68"/><polygon class="cls-1" points="370.63 992.68 274.28 990.35 300.27 1110.06 300.27 1111.52 358.08 1111.52 370.05 997.07 370.63 992.68"/><polygon class="cls-2" points="300.27 1110.06 274.28 990.35 233.11 1018.09 247.42 1117.65 300.27 1110.06"/><polygon class="cls-1" points="300.27 1110.06 247.42 1117.65 254.13 1165.54 260.56 1202.33 273.11 1202.33 300.27 1202.33 300.27 1111.52 300.27 1110.06"/><polygon class="cls-3" points="300.27 1111.52 300.27 1202.33 331.8 1202.33 360.42 1202.33 358.08 1111.52 358.08 1111.52 300.27 1111.52"/><polygon class="cls-2" points="233.11 1018.09 274.28 990.35 269.9 870.63 264.06 748 160.41 750.34 168.29 852.53 173.54 905.09 185.81 888.15 233.11 1018.09"/><polygon class="cls-3" points="307.27 282.29 356.91 311.19 406.26 282.29 375.31 220.97 338.22 220.97 307.27 282.29"/><polygon class="cls-3" points="356.91 220.97 375.31 220.97 391.66 220.97 391.66 208.12 317.49 208.12 317.49 220.97 338.22 220.97 356.91 220.97"/><rect class="cls-5" x="317.49" y="178.34" width="74.16" height="20.73"/><rect class="cls-5" x="341.14" y="109.72" width="26.86" height="55.77"/><path class="cls-1" d="M198.07,1221.6l-23.94-123.51a29.47,29.47,0,0,1-22.48-10.51L103.47,1374h40.58l33-90.81Z"/><path class="cls-2" d="M174.13,1098.09l23.94,123.51,52.85-52.85-53.43-82.34a29.18,29.18,0,0,1-23.36,11.68Z"/><path class="cls-2" d="M197.49,1086.41l53.43,82.34,3.21-3.21-6.71-47.89-14.31-99.56-41.75,26a30,30,0,0,1,6.13,42.34Z"/><path class="cls-2" d="M191.36,1044.07l41.75-26-47.3-129.94-12.27,16.94-37.08,51.68L168,1039.11a43.68,43.68,0,0,1,6.13-.58,29.62,29.62,0,0,1,17.23,5.54Z"/><path class="cls-1" d="M168,1039.11l-31.54-82.34-29.2,73.58,39.42,26.57A29.91,29.91,0,0,1,168,1039.11Z"/><path class="cls-3" d="M151.65,1087.58a30.93,30.93,0,0,1-5-30.66l-39.42-26.57-3.79,87.89V1374Z"/><path class="cls-1" d="M515.46,1221.6l23.94-123.51a29.47,29.47,0,0,0,22.48-10.51L610.06,1374H569.48l-32.71-90.81Z"/><path class="cls-2" d="M539.4,1098.09,515.46,1221.6l-52.56-52.85L516,1086.41a29.18,29.18,0,0,0,23.36,11.68Z"/><path class="cls-2" d="M516,1086.41l-53.14,82.34-3.5-3.21,6.71-47.89,14.31-99.56,41.75,26a30,30,0,0,0-6.13,42.34Z"/><path class="cls-2" d="M522.17,1044.07l-41.75-26,47.3-129.94L540,905.09l37.08,51.68-31.54,82.34a39.89,39.89,0,0,0-6.13-.58,29.62,29.62,0,0,0-17.23,5.54Z"/><path class="cls-1" d="M545.53,1039.11l31.54-82.34,29.2,73.58-39.42,26.57a29.91,29.91,0,0,0-21.32-17.81Z"/><path class="cls-3" d="M561.88,1087.58a30.93,30.93,0,0,0,5-30.66l39.42-26.57,3.79,87.89V1374Z"/></svg>