<svg id="Layer_1" data-name="Layer 1" xmlns="http://www.w3.org/2000/svg" viewBox="0 0 1949 1483.74"><defs><style>.cls-1{fill:#010101;}.cls-2{fill:#fff;}.cls-3{fill:#ffd431;}</style></defs><path class="cls-1" d="M122.79,929a15,15,0,0,1-5.25-.94l-11.88-4.39a15.89,15.89,0,0,1-9.27-20.31L140,775.83a19.29,19.29,0,0,1,10.12-11.29,17.93,17.93,0,0,1,14.23-.44l29,11.49a18,18,0,0,1,10,9.92,19.35,19.35,0,0,1-.15,15L151.72,919.87a2,2,0,0,1-3.67-1.58l51.49-119.38a15.11,15.11,0,0,0,.13-11.87,14,14,0,0,0-7.79-7.73l-29-11.49a14,14,0,0,0-11.09.35,15.36,15.36,0,0,0-8,9L100.17,904.63A11.92,11.92,0,0,0,107,919.9l11.88,4.39c6,2.21,12.78-1,15.22-7.17l39.31-99.18a13.86,13.86,0,0,0,0-10.4,12.71,12.71,0,0,0-17.22-6.76,14,14,0,0,0-7.3,8.18l-29.14,85.69a2,2,0,1,1-3.79-1.29l29.14-85.68a18,18,0,0,1,9.41-10.53,16.7,16.7,0,0,1,22.6,8.87,17.82,17.82,0,0,1,0,13.39L137.86,918.6A16.39,16.39,0,0,1,122.79,929Z"/><path class="cls-2" d="M213.87,585.29c14.57-12,32.55-14.89,46.28-1.63s15.58,41.24,1.84,54.49c-14.94,14.41-50.45,14.22-69.86,13.88-37.35-.65-75.35,1.15-112.71,1.15-70,0-62.42-60.14-43.74-72.95a23.85,23.85,0,0,1,29.65,2.4c-3.5-25.31,12-52.21,33.55-58S144.56,535,151,559.46c9.68-11.67,25.73-15.49,38.58-9.16S210.73,570.11,213.87,585.29Z"/><path class="cls-1" d="M79.42,655.18c-40.72,0-53-19.88-56.64-31.72-5.63-18.16,1.54-37.86,11.77-44.88a25.92,25.92,0,0,1,28.36-.32c-1.34-25,14.12-49.82,35.45-55.58,9.94-2.69,20.82-1,30.67,4.66a51.86,51.86,0,0,1,22.91,28.18c10.43-10.36,25.81-13.29,38.56-7,11.82,5.82,20.67,17.85,24.61,33.29,16.16-11.91,33.73-11.83,46.43.43,7.44,7.17,11.88,18.67,11.88,30.74,0,10.77-3.66,20.47-10,26.63-16,15.4-53.32,14.75-71.28,14.44-21.5-.37-43.59.07-64.94.51C111.48,654.85,95.26,655.18,79.42,655.18Zm-30.56-77a21.28,21.28,0,0,0-12,3.68c-8.87,6.09-15.24,24.18-10.21,40.4,3.35,10.8,14.66,28.91,52.82,28.91,15.8,0,32-.32,47.66-.64,21.39-.43,43.51-.88,65.09-.51,16.05.28,53.66.93,68.44-13.32,5.6-5.4,8.81-14.06,8.81-23.75,0-11-4-21.43-10.65-27.87-12-11.54-28.28-10.89-43.63,1.74a2,2,0,0,1-3.23-1.13c-3.24-15.71-11.69-28-23.17-33.61-11.93-5.87-27.14-2.23-36.16,8.65a2,2,0,0,1-3.47-.77A48,48,0,0,0,127,530.8c-8.92-5.15-18.73-6.67-27.63-4.26C79,532.06,64,558.15,67.31,582.36A2,2,0,0,1,64,584.1,22.26,22.26,0,0,0,48.86,578.19Z"/><path class="cls-1" d="M1038.12,1456.17a2,2,0,0,1-1.42-.59L335,753.86a2,2,0,0,1-.59-1.41A2,2,0,0,1,335,751L1036.7,49.31a2,2,0,0,1,2.83,0L1741.25,751a2,2,0,0,1,.59,1.42,2,2,0,0,1-.59,1.41l-701.72,701.72A2,2,0,0,1,1038.12,1456.17ZM339.22,752.45l698.9,698.89L1737,752.45,1038.12,53.55Z"/><path class="cls-2" d="M1230.21,529.13c6.35,27.24,5.19,60.87,5.19,60.87l-24.68,9.59s-15.12,62.2,80.22,43.14c18.53-3.7,72.16-44.43,72.16-44.43l-42.41-12.13s-4.07-61.65-5.68-92.27C1292.72,504.28,1257,520.78,1230.21,529.13Z"/><path class="cls-1" d="M1258.42,648.37c-18.49,0-32.14-4.49-40.74-13.46-13.89-14.47-9.11-34.93-8.9-35.79a2,2,0,0,1,1.22-1.39l23.43-9.11c.13-6.45.35-35.38-5.16-59a2,2,0,0,1,1.35-2.36c27.64-8.63,66.07-26.53,84.54-35.13a2,2,0,0,1,1.88.09,2,2,0,0,1,1,1.61c1.47,27.71,5,81.48,5.59,90.85l41.06,11.74a2,2,0,0,1,.66,3.51c-2.21,1.68-54.22,41.05-73,44.8A169.34,169.34,0,0,1,1258.42,648.37Zm-46-47.31c-.72,4.09-2.63,19.94,8.12,31.11,12.09,12.57,35.63,15.46,70,8.6,15.3-3.06,56.32-32.89,68.12-41.66l-38.53-11a2,2,0,0,1-1.45-1.8c0-.59-3.83-58.19-5.52-89.34-19,8.82-54.17,25-80.6,33.52,5.88,26.86,4.84,59.26,4.83,59.59a2,2,0,0,1-1.28,1.8ZM1235.4,590h0Z"/><path class="cls-3" d="M1171.8,357.58c-8.71,2.09-17.4-6.73-17.57-16.05s6.36-17.76,14.4-21.86,17.3-4.56,26.32-5.85c-3.4-9.05.9-19.92,8.4-25.71s17.44-7.17,26.68-6c6.07.75,12.18,2.58,17,6.53a21.44,21.44,0,0,1,7.79,17.11c8.08-10.18,21.11-17,33.41-14.08s21.57,18,22.5,28.31c6-7.35,13.8-13.38,23-12.88,18.28,1,22.41,16.53,14.18,36.52,9.73-4.79,24.24-.6,28.87,13.54,3.44,10.53-.42,27.28-7.75,35.52a20.92,20.92,0,0,1-5.38,4.09c-2.85,15.63-6.41,32-11.79,52.65a188.49,188.49,0,0,1-18.53,45c-3.72,6.39-6.62,9.5-14.1,13-.42-6.48-7.17-9.69-8.21-16.13-1.29-7.92,3.8-14.89-1-21.91a115.72,115.72,0,0,1-18.19-43.05c-2.39-12.34-2.47-25.33,3.35-36.73a39.58,39.58,0,0,1,8.64-11.14,66.66,66.66,0,0,1-3.87-9.68c-5.35,9.19-9.27,15.52-22.69,19.92-9.78,3.21-21.42-.69-24.71-10-2.09,9.42-16.74,22.71-25.94,23.65S1214,399,1210.27,390.17c-8.17,7.23-14.29,14.61-22.63,17.78-12.74,4.84-28.51-3.14-32.73-16.56S1158.83,361.68,1171.8,357.58Z"/><path class="cls-1" d="M1319.22,509.39a1.94,1.94,0,0,1-1-.28,2,2,0,0,1-1-1.59c-.18-2.75-1.79-4.84-3.67-7.26s-3.93-5.07-4.52-8.67a29,29,0,0,1,.48-9.73c.7-4.19,1.3-7.81-1.12-11.37a117.05,117.05,0,0,1-18.5-43.8c-2.94-15.19-1.78-27.62,3.53-38a41.56,41.56,0,0,1,8-10.68q-1-2.16-1.9-4.5c-4.42,7.23-9.22,13-21.59,17.09-9.74,3.19-20,.06-25-7-4.77,9.44-17.3,19.87-26,20.76-9.34.95-13.6-3-17.27-10.8-1.27,1.17-2.49,2.34-3.69,3.47-5.6,5.31-10.88,10.33-17.52,12.85a26.37,26.37,0,0,1-20.73-1.3A28,28,0,0,1,1153,392c-3.79-12,1.5-26,11.42-32.94a17,17,0,0,1-4.57-2.54,19.86,19.86,0,0,1-7.63-14.94c-.18-9.36,6-18.87,15.49-23.68,6.86-3.49,14.53-4.46,22-5.4l2.69-.34c-2.1-8.88,1.84-19.51,9.77-25.63,7.14-5.5,17.13-7.78,28.14-6.43,7.45.91,13.5,3.25,18,7a23.48,23.48,0,0,1,8.15,13.79c9.21-9.4,21.45-13.74,32.24-11.15,11.33,2.71,20.55,14.89,23.29,25.79,6.93-7.33,14.28-10.82,21.87-10.42,7.8.42,13.68,3.43,17,8.7,4,6.33,4.14,15.64.46,26.51a22.76,22.76,0,0,1,14,1.22,24,24,0,0,1,13.44,15c3.6,11-.21,28.54-8.16,37.47a21.39,21.39,0,0,1-5.07,4c-3,16.6-6.76,33.12-11.65,51.89A190,190,0,0,1,1335,495.41c-3.75,6.46-6.81,10-15,13.8A2.08,2.08,0,0,1,1319.22,509.39ZM1300,366.76h.22a2,2,0,0,1,1.69,1.38,63.33,63.33,0,0,0,3.75,9.39,2,2,0,0,1-.44,2.38,37.69,37.69,0,0,0-8.21,10.57c-4.89,9.57-5.93,21.16-3.17,35.44a113.22,113.22,0,0,0,17.88,42.31c3.33,4.88,2.53,9.66,1.76,14.28A25.57,25.57,0,0,0,1313,491c.42,2.59,2,4.67,3.73,6.86a22.08,22.08,0,0,1,4,6.63c5.54-2.95,7.92-5.88,10.92-11a186,186,0,0,0,18.33-44.53c5-19,8.69-35.7,11.75-52.5a2,2,0,0,1,1-1.39,19,19,0,0,0,4.85-3.67c7-7.88,10.52-23.88,7.34-33.57a20,20,0,0,0-11.18-12.56,18.22,18.22,0,0,0-14.9.19,2,2,0,0,1-2.73-2.55c4.68-11.38,5.17-20.94,1.39-26.93-2.64-4.18-7.29-6.48-13.83-6.84-7.25-.37-14.47,3.7-21.36,12.15a2,2,0,0,1-2.14.65,2,2,0,0,1-1.4-1.73c-.83-9.19-9.21-23.73-21-26.55-10.59-2.54-22.91,2.72-31.37,13.38a2,2,0,0,1-3.57-1.32,19.55,19.55,0,0,0-7.06-15.49c-3.9-3.22-9.27-5.26-16-6.08-10-1.23-18.91.77-25.2,5.63-7.32,5.65-10.66,15.72-7.76,23.42a2,2,0,0,1-.15,1.72,2,2,0,0,1-1.44,1c-1.68.25-3.37.46-5.06.67-7.4.94-14.4,1.82-20.64,5-6.74,3.43-13.48,11-13.31,20a15.79,15.79,0,0,0,6.09,11.85,10.65,10.65,0,0,0,9,2.3,2,2,0,0,1,1.07,3.85c-11.89,3.76-19.46,19-15.59,31.3a24,24,0,0,0,12.55,14.13,22.36,22.36,0,0,0,17.56,1.16c5.89-2.24,10.66-6.76,16.18-12,1.86-1.76,3.78-3.58,5.83-5.4a2,2,0,0,1,3.17.72c3.52,8.38,6.28,11.73,14.32,10.93,8.3-.84,22.31-13.64,24.18-22.09a2,2,0,0,1,3.84-.24c3,8.62,13.94,11.5,22.21,8.79,13-4.26,16.59-10.45,21.58-19A2,2,0,0,1,1300,366.76Z"/><path class="cls-2" d="M1185.94,410c0-.47,0-1,0-1.45.56-.16,1.12-.34,1.68-.55,8.34-3.17,14.46-10.55,22.63-17.78,3.7,8.83,7.16,13.07,16.36,12.14s23.85-14.23,25.94-23.65c3.29,9.33,14.93,13.23,24.71,10,13.42-4.4,17.34-10.73,22.69-19.92,2.93,9.21,7.69,19,17.75,26.2a37.14,37.14,0,0,0,11.78,5.57c.15,1.8.31,3.56.5,5.23.71,6.19,2.32,19.66.88,33.28,10.44-8.67,19.08-7.22,25.57-.65s6,16.92-.4,23.37-17.48,8.9-27.27,6.83c-2.54,16.49-6.32,49.51-17.78,64.11-12.18,15.52-33.73,25.45-56,25.82s-44.71-8.84-58.3-23.93c-15.43-17.15-18.86-39.84-17.56-61.1S1185.88,431.26,1185.94,410Z"/><path class="cls-1" d="M1253.69,560.53c-22.45,0-44.76-9.35-58.48-24.6s-19.69-36.17-18.08-62.56c.57-9.35,1.95-18.75,3.29-27.85,1.71-11.64,3.49-23.69,3.52-35.57,0-.49,0-1,0-1.48a2,2,0,0,1,1.44-1.89c.51-.15,1-.31,1.53-.5,5.89-2.24,10.66-6.76,16.18-12,1.86-1.76,3.78-3.58,5.83-5.4a2,2,0,0,1,3.17.72c3.52,8.38,6.28,11.73,14.32,10.93,8.3-.84,22.31-13.64,24.18-22.09a2,2,0,0,1,3.84-.24c3,8.62,13.94,11.5,22.21,8.79,13-4.26,16.59-10.45,21.58-19a2,2,0,0,1,3.64.4c2.29,7.24,6.56,17.72,17,25.19A35.3,35.3,0,0,0,1330,398.6a2,2,0,0,1,1.46,1.77c.14,1.78.3,3.51.49,5.16l0,.41a165.06,165.06,0,0,1,1.2,28.89c8.92-5.72,17.56-5,24.63,2.15s7,18.71-.39,26.18c-6.17,6.28-16.82,9.29-27,7.76-.17,1.13-.34,2.31-.52,3.54-2.69,18.3-6.75,46-17.36,59.47C1300,550,1278,560.14,1255,560.52ZM1187.94,410c0,12.16-1.83,24.35-3.56,36.14-1.33,9-2.7,18.32-3.26,27.5-1.54,25.28,4.2,45.34,17.06,59.64,13.24,14.72,35,23.67,56.78,23.27s42.62-10,54.47-25.06c10-12.67,14.08-40.78,16.54-57.58.3-2,.57-3.89.84-5.59a2,2,0,0,1,.84-1.34,2,2,0,0,1,1.55-.31c9.53,2,19.75-.51,25.43-6.28s6-14.93.39-20.57c-6.55-6.63-14.24-6.37-22.86.79a2,2,0,0,1-3.27-1.75c1.39-13.11-.11-26.16-.83-32.43l0-.41q-.23-1.9-.39-3.93a39.24,39.24,0,0,1-11.08-5.47c-9.51-6.81-14.3-15.79-17.06-23.1-4.41,7.24-9.21,13-21.58,17.09-9.74,3.19-20,.06-25-7-4.77,9.44-17.3,19.87-26,20.76-9.34.95-13.6-3-17.27-10.8-1.27,1.17-2.49,2.34-3.69,3.47-5.6,5.31-10.88,10.33-17.52,12.85Zm-2,0h0Z"/><path class="cls-1" d="M1205.71,440.81a5,5,0,1,1,5.55,4.18A4.91,4.91,0,0,1,1205.71,440.81Z"/><path class="cls-1" d="M1276,444.6a5.05,5.05,0,1,1,5.55,4.18A4.92,4.92,0,0,1,1276,444.6Z"/><path class="cls-1" d="M1255.09,527.29a25.84,25.84,0,0,1-6.54-.84,2,2,0,0,1,1-3.87,22.87,22.87,0,0,0,22.81-7.1,2,2,0,0,1,3,2.6A27,27,0,0,1,1255.09,527.29Z"/><path class="cls-1" d="M1243.12,500.88a31.87,31.87,0,0,1-10.7-2,13.65,13.65,0,0,1-5.91-3.61c-2.13-2.45-2.88-6-2.07-9.87a31.16,31.16,0,0,1,2.89-7.36l.51-1a90.6,90.6,0,0,0,9.12-39.94,2,2,0,0,1,2-2h0a2,2,0,0,1,2,2,94.49,94.49,0,0,1-9.53,41.71l-.52,1.06a27.74,27.74,0,0,0-2.56,6.42,7.51,7.51,0,0,0,1.17,6.42,10.18,10.18,0,0,0,4.25,2.46,25.36,25.36,0,0,0,12.34,1.56,14.66,14.66,0,0,0,10-5.88,2,2,0,0,1,3.32,2.23,18.46,18.46,0,0,1-12.66,7.6A23.64,23.64,0,0,1,1243.12,500.88Z"/><path class="cls-1" d="M1329.76,451.88l-.27,0a2,2,0,0,1-1.72-2.25c.77-5.79,1-8.88,1.57-14.48a2,2,0,1,1,4,.37c-.52,5.65-.81,8.76-1.58,14.64A2,2,0,0,1,1329.76,451.88Z"/><path class="cls-1" d="M1167.91,395.88a.69.69,0,0,1-.48-.2,19.24,19.24,0,0,1-4.36-19.1.66.66,0,1,1,1.26.42,17.85,17.85,0,0,0,4.06,17.75.67.67,0,0,1-.48,1.13Z"/><path class="cls-1" d="M1353.85,389.3a.65.65,0,0,1-.5-.22.66.66,0,0,1,.05-.94A27.56,27.56,0,0,0,1361,359a.67.67,0,0,1,1.26-.44,28.94,28.94,0,0,1-8,30.54A.68.68,0,0,1,1353.85,389.3Z"/><path class="cls-2" d="M900.35,736.94c-21.07-48.46-45.77-137.64-70.76-185-16.13-10.29-34.44-28.36-43.91-46.31-3.85-7.31-4.45-10.49-.38-16.83,3-4.63,9.92-4.78,14.68-3.09-3-4.48-8.58-7.94-3.56-14.19,2.25-2.82,5.89-4.82,9.27-3.56-3.68-9.55,6.14-17.73,14.35-9.52-7.3-11.21-13.95-21.23-21.23-31.49-4.51-6.35-9.19-14.08-5.42-17.86,4.83-4.83,12.16,1.76,20.91,12.2,14.92,17.82,19.87,23.75,35.49,39.38,14.7,14.69,30.37,44.15,24.26,57.52C879,538.55,953.31,656.59,977.7,681c8.9,8.9,1.63,17.47-.46,29.88-2.53,15-13.48,67.79-51.55,50.62C914.9,756.62,901.61,739.84,900.35,736.94Z"/><path class="cls-1" d="M939.88,766.87a36.57,36.57,0,0,1-15-3.57C913.48,758.17,900,741,898.52,737.74c-8.77-20.17-18.07-47.09-27.92-75.58-13.8-39.95-28.07-81.25-42.54-108.83-14.77-9.54-34-27.59-44.15-46.78-4.12-7.82-4.79-11.84-.29-18.84,2.4-3.74,7-5.17,11.5-5-2.4-3.12-4.52-7.17-.26-12.48a11.62,11.62,0,0,1,8.17-4.67,11,11,0,0,1,4.64-11,9.65,9.65,0,0,1,6.51-1.48c-5.29-8.07-10.95-16.52-17-25-5.26-7.41-10-15.64-5.21-20.43a7.06,7.06,0,0,1,5.45-2.19c4.61.2,10,4.41,18.41,14.52l.36.42c14.64,17.49,19.58,23.39,35,38.82,14.33,14.33,30.88,44.15,25,59.1,5.91,20.72,78.17,136.44,103,161.22,7.25,7.25,5,14.53,2.56,22.24a69.66,69.66,0,0,0-2.46,9.4c-2.64,15.68-9.66,43.36-27,52.6A25.9,25.9,0,0,1,939.88,766.87ZM794.23,486.71c-3,0-5.82.93-7.25,3.16-3.64,5.67-3.12,8,.47,14.82,9.88,18.74,28.83,36.38,43.21,45.55a2,2,0,0,1,.7.76c14.69,27.85,29.09,69.54,43,109.85,9.82,28.42,19.09,55.26,27.81,75.29h0c1.12,2.6,14,18.89,24.32,23.52,9,4.05,17,4.26,23.85.61,15.8-8.43,22.39-34.78,24.91-49.74a74.44,74.44,0,0,1,2.58-9.93c2.31-7.36,4-12.67-1.57-18.21-23.9-23.91-98.87-141.74-104.17-163.74a2,2,0,0,1,.12-1.3c5.31-11.61-8.68-40.1-23.85-55.28-15.56-15.56-20.53-21.49-35.26-39.08l-.36-.42c-4.63-5.54-11.27-12.91-15.52-13.1a3,3,0,0,0-2.44,1c-3,3.05,3.49,12.26,5.64,15.28,7.71,10.86,14.78,21.58,21.27,31.56a2,2,0,0,1-3.08,2.5c-2.88-2.88-6.16-3.58-8.78-1.88-2.26,1.47-3.94,5-2.29,9.27a2,2,0,0,1-.45,2.13,2,2,0,0,1-2.12.46c-2.48-.92-5.31.81-7,2.94-2.8,3.5-1.51,5.36,1.43,8.92a33,33,0,0,1,2.25,2.91,2,2,0,0,1-.09,2.34,2,2,0,0,1-2.24.65A15.5,15.5,0,0,0,794.23,486.71Z"/><path class="cls-1" d="M812.84,514a9.28,9.28,0,0,1-3.3-.63,19.54,19.54,0,0,1-5.71-3.87l-7.34-6.43a2,2,0,1,1,2.64-3l7.34,6.43a16.22,16.22,0,0,0,4.51,3.15,4,4,0,0,0,3.92-.28,4,4,0,0,0,.88-4,13.62,13.62,0,0,0-2.91-4.87c-4.6-5.62-5.74-6.52-9.13-9.2-1.28-1-2.87-2.27-5-4.09a2,2,0,1,1,2.57-3.06c2.13,1.78,3.69,3,5,4C809.76,491,811.09,492,816,498a17.29,17.29,0,0,1,3.69,6.38,7.84,7.84,0,0,1-2.2,8.08A7.13,7.13,0,0,1,812.84,514Z"/><path class="cls-1" d="M826.19,507.62a13.48,13.48,0,0,1-4.89-1.17c-1.85-.75-3.7-1.55-5.49-2.39a2,2,0,0,1,1.7-3.62c1.72.81,3.5,1.58,5.28,2.3,1.6.64,3.38,1.22,4.53.63,1.44-.73,1.75-3.14,1.32-5.14-.7-3.23-5.4-10.77-23.81-28.34l-.52-.49a2,2,0,0,1,2.76-2.89l.52.49c9.94,9.49,23.34,23,24.95,30.38.76,3.51,0,7.82-3.4,9.55A6.41,6.41,0,0,1,826.19,507.62Z"/><path class="cls-1" d="M839.5,520.18a2,2,0,0,1-1.77-1.06c-4.48-8.49-.73-17.12,2-23.41.9-2.09,2.42-5.57,2-6.28-2-2.09-11-2.84-14.8-3.16a22.69,22.69,0,0,1-4.16-.52c-4.79-1.57-6.79-4.14-7.63-6a6.15,6.15,0,0,1-.24-4.86c.79-1.79,3.86-5.72,6.31-6.53,4.44-1.47,15-1.15,24.46-.73l3.12.13c3.61.11,14.24,4,15.5,8.29a2,2,0,0,1-3.84,1.13c-.59-1.67-8.53-5.32-11.79-5.43l-3.16-.13c-6.61-.29-18.91-.83-23,.54-.89.29-3.31,3-3.91,4.35a2.39,2.39,0,0,0,.23,1.61c.42.94,1.65,2.68,5.23,3.85.34.09,1.88.22,3.24.33,7.28.61,14.61,1.45,17.39,4.42,2.29,2.45.73,6.05-1.25,10.6-2.55,5.86-5.72,13.16-2.14,19.95a2,2,0,0,1-.84,2.7A1.91,1.91,0,0,1,839.5,520.18Z"/><path class="cls-1" d="M829.59,471.25a2,2,0,0,1-1.73-1c-1-1.67-4.05-5-6.52-7.65-1.31-1.41-2.54-2.75-3.4-3.76a2,2,0,0,1,3-2.59c.8.95,2,2.25,3.28,3.63,2.88,3.1,5.85,6.31,7.05,8.37a2,2,0,0,1-1.73,3Z"/><path class="cls-1" d="M832.93,501.64a5.62,5.62,0,0,1-1.36-.16,2,2,0,0,1-1.46-2.42,2,2,0,0,1,2.42-1.46,3.34,3.34,0,0,0,3.13-1.51c1.42-1.95,1.07-5-1-8.25a2,2,0,0,1,3.39-2.11c4.18,6.74,2,11.13.82,12.71A7.6,7.6,0,0,1,832.93,501.64Z"/><path class="cls-1" d="M1532.06,814.15c-13.25-69.65-13.35-144.42-69.46-191.26-26.93-22.48-90.78-32.19-128.21-34.59-2.3,36.24-37.72,44.86-60.39,43.4-37.88-2.43-44.61-9.87-54.23-38.62-8.5,3.38-59.65,5.95-92.87,35.63-61.66,55.08-142.4,46.51-146.8,50.91-6.12,6.12,8.92,59.57-45.44,84.75-22.87,10.59,114.19,32.38,208.59,7.4-3.53,49.4,25.37,186.21,35.61,241.69,98.46,68.66,289.81-1.68,289.81-1.68s-15.48-45.58-15.48-80c0-17.05,59.64,18.23,67.56,19.63,2.63.47,8.6-1.68,9.65-4.14C1537.06,931.74,1544.26,878.23,1532.06,814.15Z"/><path class="cls-1" d="M1296.22,1045.46c-41.66,0-85.34-7.23-118.51-30.36a2,2,0,0,1-.82-1.28c-1.63-8.84-3.71-19.59-6.11-32-12.67-65.61-31.68-164-29.68-207.39-49.9,12.66-105.3,11.66-134.19,9.89-34.84-2.12-73.66-8.08-76.56-16.13-.46-1.27-.62-3.7,3.47-5.59,39.75-18.41,41.38-52.52,42.25-70.85.34-7.13.55-11.44,2.61-13.5,1.44-1.44,4.59-1.73,14.36-2.43,25.44-1.83,85-6.12,132.53-48.57,26.37-23.56,63.07-30.16,82.78-33.71,5-.9,9-1.62,10.68-2.28a2,2,0,0,1,1.58,0,2,2,0,0,1,1.05,1.18c9.4,28.08,15.36,34.89,52.46,37.27,6.26.4,22.36.49,36.76-7.33,13.3-7.22,20.53-18.73,21.51-34.21a2,2,0,0,1,.68-1.37,1.94,1.94,0,0,1,1.44-.49c43.67,2.8,103.75,13.66,129.37,35,46.15,38.53,55,96.69,63.63,152.93,2,13,4,26.45,6.52,39.5,11.69,61.43,5.84,116.46-1.79,134.32-1.52,3.55-8.5,5.93-11.84,5.32-2.33-.41-7.48-2.87-16.38-7.17-14.64-7.09-41.89-20.27-47.94-16.47a2.1,2.1,0,0,0-.89,2c0,33.65,15.22,78.87,15.38,79.32a2,2,0,0,1-1.21,2.52A619,619,0,0,1,1361,1040.35,442.46,442.46,0,0,1,1296.22,1045.46Zm-115.55-33.18c50.31,34.6,125.4,32.24,179.65,24.12a622.08,622.08,0,0,0,105.85-25.85c-2.89-9-15-48.36-15-78.73a6,6,0,0,1,2.77-5.42c7.34-4.61,27.8,4.63,51.8,16.25,6.91,3.34,13.44,6.5,15.34,6.83s6.87-1.58,7.46-3c5.78-13.51,14.19-65.52,1.54-132-2.5-13.12-4.56-26.61-6.55-39.65-8.86-58.06-17.24-112.9-62.23-150.46-24.51-20.45-82.22-31-125.1-34-1.56,15.74-9.63,28-23.43,35.46-15.32,8.32-32.32,8.23-38.92,7.81-37.62-2.42-45.72-10-55.37-38.14-2.23.58-5.42,1.16-9.44,1.88-19.33,3.48-55.3,9.95-80.83,32.76-48.53,43.35-109.06,47.71-134.91,49.57-5.26.38-10.71.77-11.87,1.34-.92,1.14-1.17,6.26-1.39,10.79-.91,19.17-2.62,54.86-44.56,74.29a4.45,4.45,0,0,0-1.29.79c2.18,3.42,27.72,10.57,73.19,13.33,29.11,1.76,85.41,2.74,135.34-10.47a2,2,0,0,1,2.51,2.07c-3,41.26,17.33,146.33,29.45,209.11C1177,993.1,1179.06,1003.59,1180.67,1012.28Z"/><path class="cls-2" d="M1462.3,876.86c-53.37-3-107.06-6.65-160.76-10.34-4.8-.79-28.69-4.21-34.58-5.07a53.41,53.41,0,0,1-14.35-4.69c-16-7.38-50.23-21.85-57.87-17.57-17.62,5.18-33.59,17.9-46.06,34-7,9-12.75,24-9.85,26.58,1.84,1.64,4.63,2.31,6.67.61a84.29,84.29,0,0,1,41-40.61,119.21,119.21,0,0,0-23,16.93c-7,6.63-13.52,14.62-15.1,24.16a3.25,3.25,0,0,0,.19,2.2c1,1.58,3.39.66,4.85-.48,2.85-2.23,39.56-32.05,46.43-31.26-9.13,3.44-41.65,29.83-41.78,32.64a5.59,5.59,0,0,0,1,3.8,5.32,5.32,0,0,0,5,1.59,14.54,14.54,0,0,0,5-2.19c10.5-6.38,20.11-14.37,31.45-19.09,5.67-2.36,12.58-3.72,17.62-.21a85.14,85.14,0,0,0-27.52,16.7,16.37,16.37,0,0,0-3.17,4c-1.24,2.23-2.65,5.46-.92,7.3,2.83,3,5.23,1.5,7.66.08a165.76,165.76,0,0,1,30.07-15.85c3.23-1.29,7.08-2.41,10-.54,2.53,1.62,14.78,9.23,40,10.53,8.59.45,16.87,2.69,27.62,5.65,141.5,39,183.77,54.55,218,39.81,6.71-2.88,9-6.41,6.74-17.93C1520.7,906.89,1514.86,889.41,1462.3,876.86Z"/><path class="cls-1" d="M1491.22,963.13c-27.12,0-65.74-10.8-138.37-31.11-15.3-4.28-32.64-9.13-51.49-14.33-10-2.75-18.62-5.13-27.19-5.57-23.58-1.22-36.49-8-40.94-10.85-2.18-1.39-5.52-.35-8.19.72a163.68,163.68,0,0,0-29.71,15.66l-.26.16c-2.43,1.42-6.1,3.57-10-.54-3-3.17-.27-8,.63-9.65a18.2,18.2,0,0,1,3.56-4.53,85.24,85.24,0,0,1,23.54-15.22c-3.85-.6-8.16.65-11.52,2-7.37,3.06-14.2,7.69-20.8,12.17-3.37,2.28-6.84,4.63-10.38,6.78a16.44,16.44,0,0,1-5.73,2.45,7.25,7.25,0,0,1-6.89-2.3,7.46,7.46,0,0,1-1.48-5.15,2.27,2.27,0,0,1,.38-1.14l-.54.42c-.6.48-1,.83-1.26,1a7.16,7.16,0,0,1-5.26,1.68,3.71,3.71,0,0,1-2.53-1.73,3.89,3.89,0,0,1-.56-1.8c-2.57,1.73-6.09,1.35-8.78-1-4.74-4.21,3.64-21.6,9.6-29.29,13.63-17.6,29.84-29.58,46.88-34.64,9.25-4.61,44.6,10.75,59.47,17.61a51.87,51.87,0,0,0,13.8,4.53l7.9,1.14c9.15,1.33,22.94,3.32,26.62,3.92,52.38,3.6,106.54,7.32,160.64,10.34a1.41,1.41,0,0,1,.35,0c53.76,12.83,59.81,31.12,65.87,62.35,2.25,11.56.25,16.64-7.91,20.15C1511.8,961.25,1502.5,963.13,1491.22,963.13ZM1230.67,896.6a8.49,8.49,0,0,1,4.71,1.31c4.19,2.68,16.37,9,39,10.22,9,.46,17.83,2.9,28.05,5.71,18.86,5.2,36.21,10,51.51,14.33,101.84,28.47,136.15,38.07,165.21,25.57,5.41-2.32,7.72-4.63,5.57-15.71-5.91-30.43-11.39-46.9-62.7-59.18-54.11-3-108.24-6.74-160.6-10.33l-.19,0c-3.5-.57-17.43-2.59-26.64-3.92l-7.91-1.15a55.23,55.23,0,0,1-14.9-4.85c-28.26-13-51.31-20.29-56.06-17.63a2.09,2.09,0,0,1-.41.17c-16.06,4.72-32.06,16.55-45,33.3-7.13,9.2-11.22,22-10,23.93a3.34,3.34,0,0,0,3.69.72A86.75,86.75,0,0,1,1185.64,858a2,2,0,0,1,1.81,3.56,116.67,116.67,0,0,0-22.62,16.65c-8.63,8.11-13.24,15.43-14.5,23a3.39,3.39,0,0,0-.07.71,4.26,4.26,0,0,0,1.91-.9l1.23-1c39.5-31.51,44.7-30.91,46.65-30.69a2,2,0,0,1,.48,3.86c-8.42,3.18-37.91,27-40.49,31.17a2.8,2.8,0,0,0,3.73,3,12.68,12.68,0,0,0,4.3-1.93c3.46-2.1,6.89-4.42,10.21-6.67,6.77-4.59,13.77-9.33,21.52-12.56,5.57-2.32,13.49-4.2,19.52,0a2,2,0,0,1,.84,1.88,2,2,0,0,1-1.27,1.63A82.78,82.78,0,0,0,1192,906a14.23,14.23,0,0,0-2.78,3.54c-2,3.64-1.44,4.72-1.21,5,1.6,1.7,2.48,1.31,5-.18l.18-.1a166.65,166.65,0,0,1,30.34-16A19.86,19.86,0,0,1,1230.67,896.6Z"/><path class="cls-1" d="M1430.46,877a2,2,0,0,1-1.9-1.37c-20.11-60.88-31.48-99.39-31.48-182.86a2,2,0,1,1,4,0c0,82.86,11.3,121.12,31.28,181.6a2,2,0,0,1-1.28,2.53A1.91,1.91,0,0,1,1430.46,877Z"/><path class="cls-1" d="M1143.25,773.77a2,2,0,0,1-1.33-.51c-1.11-1-1.13-2-1.31-14.38-.13-9.13-.35-24.41-1.21-47.62a2,2,0,1,1,4-.15c.86,23.25,1.08,38.56,1.21,47.71.09,6.25.16,10.85.38,12a2,2,0,0,1-1.74,3Zm1.34-3.49Z"/><path class="cls-2" d="M1249.35,739.57c-37.82,0-72.17-3.34-90.29-12.57a.66.66,0,1,1,.6-1.18c37.37,19,144.71,12.79,207.75,4a.69.69,0,0,1,.75.57.66.66,0,0,1-.57.75C1334.82,735.69,1290.08,739.57,1249.35,739.57Z"/><path class="cls-2" d="M1289.7,792.66c-50.19,0-96.09-8-130.5-16.4a.68.68,0,0,1-.49-.81.67.67,0,0,1,.81-.48c52.78,12.9,132.67,24.8,213.49,8.27a.67.67,0,0,1,.27,1.31A417.64,417.64,0,0,1,1289.7,792.66Z"/><path class="cls-2" d="M1536.48,893.54a.69.69,0,0,1-.51-.23c-24.18-28.47-63.6-42.81-100.42-36.52a.67.67,0,0,1-.22-1.32c37.27-6.35,77.18,8.15,101.66,37a.67.67,0,0,1-.08.94A.64.64,0,0,1,1536.48,893.54Z"/><path class="cls-2" d="M1532.07,867.27a.74.74,0,0,1-.25,0c-3.92-1.58-7.11-4.43-10.2-7.19-1.08-1-2.19-2-3.31-2.88a49.15,49.15,0,0,0-23.88-10.57.65.65,0,0,1-.56-.76.67.67,0,0,1,.75-.56,50.46,50.46,0,0,1,24.54,10.86c1.14.94,2.26,1.94,3.35,2.92,3,2.68,6.1,5.45,9.81,6.94a.67.67,0,0,1,.37.87A.66.66,0,0,1,1532.07,867.27Z"/><path class="cls-2" d="M988.66,733a.73.73,0,0,1-.25,0,.67.67,0,0,1-.36-.87,120,120,0,0,0,8.81-48.23.67.67,0,0,1,.65-.69h0a.66.66,0,0,1,.66.65,121,121,0,0,1-8.91,48.77A.66.66,0,0,1,988.66,733Z"/><path class="cls-2" d="M1011.29,702.42a.39.39,0,0,1-.15,0,.66.66,0,0,1-.5-.79,55.4,55.4,0,0,0,1.1-17.74.66.66,0,0,1,.6-.73.67.67,0,0,1,.73.59,56.35,56.35,0,0,1-1.13,18.17A.67.67,0,0,1,1011.29,702.42Z"/><path class="cls-2" d="M1435.44,880.63a2,2,0,0,1-1.93-1.48,895.7,895.7,0,0,1-27.6-152.87,2,2,0,1,1,4-.36,891.89,891.89,0,0,0,27.48,152.18,2,2,0,0,1-1.41,2.46A2.32,2.32,0,0,1,1435.44,880.63Z"/><path class="cls-2" d="M1139.19,783.11h0a2,2,0,0,1-2-2l.87-56.82a2,2,0,0,1,2-2h0a2,2,0,0,1,2,2l-.87,56.82A2,2,0,0,1,1139.19,783.11Z"/><path class="cls-3" d="M371,1016.89a44.17,44.17,0,1,1,31.48,53.95A44.16,44.16,0,0,1,371,1016.89Z"/><path class="cls-1" d="M413.82,1074.31a46.25,46.25,0,0,1-44.73-57.93h0a46.15,46.15,0,1,1,44.73,57.93ZM373,1017.4a42.17,42.17,0,1,0,51.51-30.06A42.21,42.21,0,0,0,373,1017.4Z"/><path class="cls-1" d="M412.37,1053.28a12.43,12.43,0,0,1-3.2-.41c-10.8-2.84-13.72-9.74-13.84-10a2,2,0,1,1,3.7-1.51c.09.2,2.41,5.37,11.16,7.67a8.76,8.76,0,0,0,6.35-.76,8.56,8.56,0,0,0,4.18-5.51c1.66-6.32-2.34-9.61-7-13.42s-10-8.2-8.29-16.07a12.75,12.75,0,0,1,6-7.69,11.85,11.85,0,0,1,9.32-1.54c10.37,2.73,11.25,9.58,11.28,9.87a2,2,0,0,1-4,.47c0-.24-.83-4.5-8.35-6.48a8.12,8.12,0,0,0-6.21,1.09,9,9,0,0,0-4.12,5.11c-1.17,5.5,2.58,8.58,6.92,12.15,5,4.09,10.61,8.73,8.3,17.53a12.62,12.62,0,0,1-6.14,8A12.79,12.79,0,0,1,412.37,1053.28Z"/><path class="cls-1" d="M420.36,1008a1.79,1.79,0,0,1-.51-.07,2,2,0,0,1-1.42-2.44l1.64-6.23a2,2,0,0,1,3.86,1l-1.64,6.23A2,2,0,0,1,420.36,1008Z"/><path class="cls-1" d="M406.23,1058.69a1.79,1.79,0,0,1-.51-.07,2,2,0,0,1-1.42-2.44l1.64-6.23a2,2,0,0,1,3.86,1l-1.64,6.23A2,2,0,0,1,406.23,1058.69Z"/><polygon class="cls-1" points="547.77 745.52 519.71 719.42 529.16 563.58 584.47 659.38 547.77 745.52"/><path class="cls-1" d="M547.77,747.52a2,2,0,0,1-1.36-.53l-28.06-26.11a2,2,0,0,1-.64-1.58l9.45-155.84a2,2,0,0,1,3.73-.88l55.31,95.8a2,2,0,0,1,.11,1.79l-36.7,86.14a2,2,0,0,1-1.43,1.17A1.84,1.84,0,0,1,547.77,747.52Zm-26-28.92L547,742.12l35.2-82.6-51.49-89.18Z"/><polygon class="cls-1" points="736.54 636.54 727.96 599.18 588.28 529.45 643.59 625.25 736.54 636.54"/><path class="cls-1" d="M736.54,638.54l-.25,0-92.94-11.28a2,2,0,0,1-1.49-1l-55.31-95.8a2,2,0,0,1,2.62-2.79L728.85,597.4a2,2,0,0,1,1.06,1.34l8.57,37.35a2,2,0,0,1-1.94,2.45Zm-91.72-15.15L734,634.21l-7.73-33.66L593.33,534.21Z"/><path class="cls-3" d="M578.74,678.19,475,531.09C432.92,471.35,417.89,399.48,436,333.76l.33.1A238.74,238.74,0,0,1,585.23,462.67l77.3,167.14Z"/><path class="cls-1" d="M578.74,680.19a2,2,0,0,1-1.63-.85l-103.7-147.1c-43-61-57.37-133.56-39.38-199a2,2,0,0,1,1-1.21,2,2,0,0,1,1.53-.18l.34.1A240.12,240.12,0,0,1,587.05,461.83L664.34,629a2,2,0,0,1-.82,2.58l-83.78,48.37A2,2,0,0,1,578.74,680.19ZM437.36,336.26C420.5,400,434.78,470.51,476.68,529.94l102.64,145.6L659.94,629,583.42,463.51A236.16,236.16,0,0,0,437.36,336.26Z"/><path class="cls-2" d="M493.47,485.72a26.1,26.1,0,1,1,35.66,9.55A26.11,26.11,0,0,1,493.47,485.72Z"/><path class="cls-1" d="M516.13,500.76a28.14,28.14,0,0,1-24.39-14h0a28.12,28.12,0,1,1,24.39,14Zm-20.92-16A24.1,24.1,0,1,0,504,451.79a24.13,24.13,0,0,0-8.82,32.93Z"/><rect class="cls-2" x="586.79" y="652.42" width="80.62" height="27.81" transform="translate(-249.15 402.83) rotate(-30)"/><path class="cls-1" d="M599.14,700.53a2,2,0,0,1-1.73-1L583.5,675.44a2.07,2.07,0,0,1-.2-1.52,2,2,0,0,1,.93-1.21l69.82-40.31a2,2,0,0,1,2.74.73l13.9,24.09a2,2,0,0,1,.2,1.51A2,2,0,0,1,670,660l-69.82,40.31A2,2,0,0,1,599.14,700.53ZM588,675.17l11.9,20.63,66.36-38.32-11.91-20.62Z"/><path class="cls-1" d="M433.88,440.18a.67.67,0,0,1-.34-1.24l95-54.85a.66.66,0,0,1,.91.24.67.67,0,0,1-.24.91l-95,54.85A.57.57,0,0,1,433.88,440.18Z"/><path class="cls-1" d="M708.82,808.49a2,2,0,0,1-1.73-1l-60-103.92a2,2,0,1,1,3.46-2l60,103.92a2,2,0,0,1-1.73,3Z"/><path class="cls-1" d="M712,746.14a2,2,0,0,1-1.73-1l-33.8-58.55a2,2,0,1,1,3.46-2l33.8,58.56a2,2,0,0,1-1.73,3Z"/><path class="cls-1" d="M727.74,773.33a2,2,0,0,1-1.73-1l-7.25-12.55a2,2,0,0,1,3.47-2l7.24,12.55a2,2,0,0,1-.73,2.73A2,2,0,0,1,727.74,773.33Z"/><path class="cls-1" d="M665.28,801a2,2,0,0,1-1.73-1l-45.88-79.47a2,2,0,1,1,3.46-2L667,798a2,2,0,0,1-.73,2.73A2,2,0,0,1,665.28,801Z"/><path class="cls-1" d="M1794.63,1057.21a63.42,63.42,0,1,1,44.65-108.46,2,2,0,1,1-2.82,2.83,59.45,59.45,0,1,0,12.81,18.88,2,2,0,0,1,3.68-1.57,63.43,63.43,0,0,1-58.32,88.32Z"/><path class="cls-1" d="M1794.65,1095.34a101.55,101.55,0,1,1,76.72-168,2,2,0,0,1-3,2.62,97.54,97.54,0,0,0-169.49,45.23,97.54,97.54,0,1,0,191.5,37.25,96.63,96.63,0,0,0-8.8-62.84,2,2,0,0,1,3.57-1.81,100.57,100.57,0,0,1,9.15,65.41A101.72,101.72,0,0,1,1794.65,1095.34Z"/><path class="cls-3" d="M1768.45,988.69a26.65,26.65,0,1,1,21.07,31.26A26.65,26.65,0,0,1,1768.45,988.69Z"/><path class="cls-1" d="M1794.62,1022.44a28.67,28.67,0,0,1-28.14-34.13h0a28.66,28.66,0,1,1,28.14,34.13Zm-24.21-33.36a24.65,24.65,0,1,0,28.91-19.5,24.69,24.69,0,0,0-28.91,19.5Z"/><path class="cls-1" d="M1794.61,995.78a2,2,0,0,1-1.12-3.65l129.41-87.27a2,2,0,1,1,2.24,3.32l-129.41,87.26A2,2,0,0,1,1794.61,995.78Z"/><polygon class="cls-1" points="1891.86 928.6 1924.2 906.79 1949 914.27 1916.66 936.08 1891.86 928.6"/><path class="cls-1" d="M1916.66,938.08a1.9,1.9,0,0,1-.58-.09l-24.8-7.48a2,2,0,0,1-.54-3.57l32.34-21.81a2,2,0,0,1,1.7-.26l24.79,7.49a2,2,0,0,1,.54,3.57l-32.33,21.81A2.07,2.07,0,0,1,1916.66,938.08Zm-20.19-10.18,19.86,6L1944.39,915l-19.86-6Z"/><polygon class="cls-1" points="1891.68 928.33 1924.02 906.52 1926.56 880.99 1894.22 902.8 1891.68 928.33"/><path class="cls-1" d="M1891.68,930.33a2,2,0,0,1-2-2.2l2.54-25.53a2,2,0,0,1,.87-1.46l32.34-21.8a2,2,0,0,1,3.1,1.85L1926,906.72a2,2,0,0,1-.87,1.46L1892.8,930A2.07,2.07,0,0,1,1891.68,930.33Zm4.44-26.4-2,20.36,28-18.9,2-20.36Z"/><path class="cls-2" d="M641.51,1268.4A86.44,86.44,0,1,1,799,1323.62l30.22,27a126.73,126.73,0,1,0-228.21-79.94Z"/><path class="cls-1" d="M829.26,1352.62a2,2,0,0,1-1.34-.51l-30.22-27a2,2,0,0,1-.31-2.62,84.44,84.44,0,0,0-132.66-104,83.7,83.7,0,0,0-21.23,50,2,2,0,0,1-1.88,1.85l-40.46,2.28a2,2,0,0,1-1.51-.57,2,2,0,0,1-.6-1.49,128.72,128.72,0,1,1,231.81,81.2,2,2,0,0,1-1.41.79Zm-27.59-29.33L829,1347.66c36.9-51.19,29.13-123.63-18.14-165.86a124.72,124.72,0,0,0-207.67,86.76l36.52-2a88.44,88.44,0,0,1,147-57.66A88.58,88.58,0,0,1,801.67,1323.29ZM641.51,1268.4h0Z"/><path class="cls-1" d="M784.21,1340.21a86.17,86.17,0,0,1-52,20.93l-2.35,40.37a126.35,126.35,0,0,0,84.56-34.3Z"/><path class="cls-1" d="M729.87,1403.51a2,2,0,0,1-2-2.11l2.35-40.38a2,2,0,0,1,1.89-1.88,84.68,84.68,0,0,0,50.79-20.44,2,2,0,0,1,2.64,0l30.22,27a2,2,0,0,1,.67,1.47,2,2,0,0,1-.63,1.48,128.3,128.3,0,0,1-85.9,34.84Zm4.24-40.49L732,1399.46a124.36,124.36,0,0,0,79.47-32.22l-27.28-24.38A88.77,88.77,0,0,1,734.11,1363Z"/><path class="cls-3" d="M710,1359.42a86.36,86.36,0,0,1-67.3-68.8l-40.45,2.28A126.74,126.74,0,0,0,707.67,1400Z"/><path class="cls-1" d="M707.67,1402l-.31,0A128.76,128.76,0,0,1,600.3,1293.18a2,2,0,0,1,1.87-2.28l40.45-2.28a2,2,0,0,1,2.08,1.64,83.6,83.6,0,0,0,26.74,47.53,84.47,84.47,0,0,0,39,19.68,2,2,0,0,1,1.59,2.07l-2.36,40.54a2,2,0,0,1-2,1.88ZM604.59,1294.77a124.73,124.73,0,0,0,101.22,102.85l2.12-36.61a88.49,88.49,0,0,1-39.16-20.24,87.6,87.6,0,0,1-27.67-48.06Z"/><rect class="cls-1" x="1488.91" y="333.9" width="30.18" height="14.04" transform="translate(145.38 -388.74) rotate(15.47)"/><path class="cls-1" d="M1516.66,353.7a2,2,0,0,1-.53-.07l-29.08-8.05a2,2,0,0,1-1.4-2.46l3.75-13.53a2,2,0,0,1,2.46-1.39l29.08,8.05a2,2,0,0,1,1.21.94,2,2,0,0,1,.18,1.52l-3.74,13.53A2,2,0,0,1,1516.66,353.7ZM1490,342.26l25.23,7,2.68-9.67-25.23-7Z"/><path class="cls-2" d="M1616.79,221.63a76.9,76.9,0,1,0-141,17.44c11,19.46,19.84,32.63,13.87,54.2l51.11,14.14c5.89-21.31,19.71-28.29,39.07-39A76.65,76.65,0,0,0,1616.79,221.63Z"/><path class="cls-1" d="M1540.78,309.41a2,2,0,0,1-.54-.07l-51.11-14.14a2,2,0,0,1-1.39-2.46c5.36-19.38-1.74-31.8-11.57-49-.69-1.21-1.4-2.44-2.11-3.7a78.9,78.9,0,1,1,144.66-17.88h0a78.32,78.32,0,0,1-37.91,48l-1.94,1.07c-18.48,10.18-30.69,16.91-36.17,36.69a2,2,0,0,1-1.92,1.46Zm-48.68-17.54L1539.41,305c6.19-19.94,19.42-27.23,37.53-37.21l1.94-1.07a74.9,74.9,0,1,0-101.34-28.6l2.1,3.68C1489.25,258.57,1496.91,272,1492.1,291.87Zm124.69-70.24h0Z"/><path class="cls-3" d="M1482.11,302.29l6.6-23.85,60.51,16.74-6.6,23.85A31.4,31.4,0,0,1,1504,340.92h0A31.41,31.41,0,0,1,1482.11,302.29Z"/><path class="cls-1" d="M1514.7,344.82a30.2,30.2,0,0,1-8.08-1.1L1500.3,342a30.15,30.15,0,0,1-21-37.05h0l7.48-27a2,2,0,0,1,2.46-1.4l60.5,16.75a2,2,0,0,1,1.39,2.45l-7.47,27a30.14,30.14,0,0,1-29,22.09ZM1483.17,306a26.09,26.09,0,0,0,18.2,32.12l6.32,1.75a26.1,26.1,0,0,0,32.13-18.2l6.94-25.08-56.65-15.68Z"/><path class="cls-1" d="M1539.27,304.85a.55.55,0,0,1-.18,0l-46.65-12.91a.67.67,0,0,1,.36-1.29l46.65,12.92a.66.66,0,0,1-.18,1.3Z"/><path class="cls-1" d="M1559.1,233.19l-.18,0-46.65-12.91a.66.66,0,0,1-.46-.82.65.65,0,0,1,.82-.47l46.65,12.91a.67.67,0,0,1,.46.82A.66.66,0,0,1,1559.1,233.19Z"/><path class="cls-1" d="M1571.46,99.11a2,2,0,0,1-1.93-2.53l7.94-28.69a2,2,0,1,1,3.85,1.07l-7.94,28.69A2,2,0,0,1,1571.46,99.11Z"/><path class="cls-1" d="M1644.29,149.34a2,2,0,0,1-1-3.73l25.9-14.67a2,2,0,0,1,2,3.47l-25.9,14.67A2,2,0,0,1,1644.29,149.34Z"/><path class="cls-1" d="M1683.33,236.44a2,2,0,0,1-.54-.08l-28.68-7.93a2,2,0,0,1,1.06-3.86l28.69,7.94a2,2,0,0,1-.53,3.93Z"/><path class="cls-1" d="M1487.66,106a2,2,0,0,1-1.74-1l-14.68-25.9a2,2,0,0,1,3.48-2l14.67,25.9a2,2,0,0,1-.75,2.72A2,2,0,0,1,1487.66,106Z"/><path class="cls-1" d="M1438.08,168.58a2,2,0,0,1-.53-.08l-28.69-7.93a2,2,0,0,1,1.07-3.86l28.69,7.94a2,2,0,0,1-.54,3.93Z"/><path class="cls-1" d="M1508.56,284.45a2.49,2.49,0,0,1-.46-.05,2,2,0,0,1-1.49-2.4c.12-.53,12.13-53.63-5.89-82.37a2,2,0,0,1,3.39-2.13c18.91,30.16,6.91,83.16,6.39,85.4A2,2,0,0,1,1508.56,284.45Z"/><path class="cls-1" d="M1530.14,290.42a2.21,2.21,0,0,1-.62-.09,2,2,0,0,1-1.29-2.52c.71-2.19,17.67-53.82,49.39-70a2,2,0,0,1,1.82,3.57c-30.24,15.39-47.23,67.11-47.4,67.63A2,2,0,0,1,1530.14,290.42Z"/><path class="cls-1" d="M1578.54,221.57a2,2,0,0,1-.53-.08c-4.08-1.12-5.46-4.23-6.57-6.72s-1.82-3.9-4-4.49-3.51.25-5.72,1.81-5,3.52-9.09,2.39-5.46-4.24-6.57-6.73-1.83-3.9-4-4.49-3.52.25-5.73,1.81-5,3.52-9.09,2.39-5.46-4.24-6.57-6.73-1.83-3.9-4-4.49-3.52.25-5.73,1.8-5,3.53-9.09,2.39a2,2,0,0,1,1.07-3.85c2.15.6,3.51-.25,5.73-1.81s5-3.52,9.09-2.39,5.46,4.23,6.57,6.73,1.83,3.9,4,4.49,3.51-.25,5.72-1.81,5-3.51,9.09-2.39,5.46,4.24,6.57,6.73,1.83,3.9,4,4.49,3.51-.25,5.72-1.81,5-3.51,9.09-2.39,5.46,4.23,6.57,6.73,1.82,3.89,4,4.49a2,2,0,0,1-.54,3.93Z"/><path class="cls-2" d="M868.73,1021.76l-10.3-5.79-17.6,5.18-5.52,10.45-24.13-5.84-.13-11.82-13.28-12.65-11.81.44-7-23.81,10.17-6c1.69-7,2.62-10.83,4.31-17.84l-6.29-10,17.12-18,10.3,5.8,17.61-5.18,5.51-10.45,24.13,5.84.13,11.81,13.29,12.66,11.81-.45,7,23.82-10.17,6c-1.7,7-2.62,10.83-4.32,17.83l6.29,10Z"/><path class="cls-1" d="M835.31,1033.6a2,2,0,0,1-.47-.06l-24.13-5.84a2,2,0,0,1-1.53-1.92l-.12-11L797,1003.32l-11,.41a2,2,0,0,1-2-1.43l-7-23.82a2,2,0,0,1,.9-2.28l9.44-5.59,3.92-16.2-5.84-9.28a2,2,0,0,1,.25-2.45l17.12-18a2,2,0,0,1,2.42-.37l9.57,5.38,16-4.7,5.12-9.7a2,2,0,0,1,2.24-1l24.13,5.83a2,2,0,0,1,1.53,1.93l.12,11L876,944.53l11-.41a2,2,0,0,1,2,1.43l7,23.81a2,2,0,0,1-.9,2.29l-9.44,5.59-3.92,16.19,5.84,9.29a2,2,0,0,1-.24,2.45l-17.12,18a2,2,0,0,1-2.43.37l-9.56-5.38-16,4.7-5.12,9.7A2,2,0,0,1,835.31,1033.6Zm-22.14-9.42,21.1,5.11,4.79-9.08a2,2,0,0,1,1.21-1l17.6-5.18a2,2,0,0,1,1.54.18l9,5,15-15.72-5.46-8.69a2,2,0,0,1-.25-1.54l4.31-17.83a2,2,0,0,1,.93-1.25l8.83-5.23-6.13-20.83-10.26.39a2,2,0,0,1-1.45-.55l-13.29-12.66a2,2,0,0,1-.62-1.42l-.11-10.26-21.11-5.11-4.79,9.07a2,2,0,0,1-1.2,1l-17.6,5.18a2,2,0,0,1-1.55-.18l-8.94-5-15,15.72,5.47,8.69a2,2,0,0,1,.25,1.53l-4.32,17.84a2,2,0,0,1-.92,1.25l-8.83,5.23,6.13,20.83,10.25-.39a2,2,0,0,1,1.45.55l13.29,12.66a2,2,0,0,1,.62,1.42Z"/><path class="cls-2" d="M859.73,973.92a23.23,23.23,0,1,1-23.23-23.23A23.23,23.23,0,0,1,859.73,973.92Z"/><path class="cls-1" d="M836.5,999.16a25.24,25.24,0,1,1,25.23-25.24A25.26,25.26,0,0,1,836.5,999.16Zm0-46.47a21.24,21.24,0,1,0,21.23,21.23A21.26,21.26,0,0,0,836.5,952.69Z"/><path class="cls-1" d="M1231.76,1261.44a2,2,0,0,1-2-1.54,2168.31,2168.31,0,0,1-42.19-238.13,2,2,0,0,1,4-.48A2162.28,2162.28,0,0,0,1233.71,1259a2,2,0,0,1-1.49,2.41A1.85,1.85,0,0,1,1231.76,1261.44Z"/><path class="cls-1" d="M1349.6,1143.66a2,2,0,0,1-2-1.6,190.09,190.09,0,0,0-14.73-43.85,104.46,104.46,0,0,1-20.23,1.48,2,2,0,0,1,0-4h0a99,99,0,0,0,20.9-1.68,2,2,0,0,1,2.17,1.08,194.22,194.22,0,0,1,15.71,46.17,2,2,0,0,1-1.56,2.36A1.81,1.81,0,0,1,1349.6,1143.66Z"/><path class="cls-1" d="M1463,1032a2,2,0,0,1-1.81-1.14,37.57,37.57,0,0,1-3.55-13.55,2,2,0,0,1,1.86-2.13,2,2,0,0,1,2.13,1.86,33.53,33.53,0,0,0,3.17,12.1,2,2,0,0,1-.94,2.67A2,2,0,0,1,1463,1032Z"/><path class="cls-1" d="M272,388.21a19.46,19.46,0,1,1,19.46-19.45A19.48,19.48,0,0,1,272,388.21Zm0-34.91a15.46,15.46,0,1,0,15.46,15.46A15.47,15.47,0,0,0,272,353.3Z"/><path class="cls-1" d="M1571.46,1150.08a19.46,19.46,0,1,1,19.45-19.46A19.48,19.48,0,0,1,1571.46,1150.08Zm0-34.91a15.46,15.46,0,1,0,15.45,15.45A15.47,15.47,0,0,0,1571.46,1115.17Z"/><path class="cls-1" d="M1281,87.88a19.46,19.46,0,1,1,19.45-19.45A19.47,19.47,0,0,1,1281,87.88ZM1281,53a15.46,15.46,0,1,0,15.45,15.46A15.47,15.47,0,0,0,1281,53Z"/><path class="cls-1" d="M1011.29,1107.48a14.09,14.09,0,1,1,14.09-14.08A14.1,14.1,0,0,1,1011.29,1107.48Zm0-24.17a10.09,10.09,0,1,0,10.09,10.09A10.11,10.11,0,0,0,1011.29,1083.31Z"/><path class="cls-1" d="M782.51,84.18a14.09,14.09,0,1,1,14.08-14.09A14.1,14.1,0,0,1,782.51,84.18Zm0-24.18a10.09,10.09,0,1,0,10.08,10.09A10.1,10.1,0,0,0,782.51,60Z"/><rect class="cls-1" x="409.19" y="1258.49" width="42.21" height="42.21" transform="translate(1030.85 70.52) rotate(45)"/><path class="cls-1" d="M430.3,1311.45a2,2,0,0,1-1.41-.59L399,1281a2,2,0,0,1,0-2.82l29.85-29.85a2,2,0,0,1,2.83,0l29.85,29.85a2,2,0,0,1,0,2.82l-29.85,29.85A2,2,0,0,1,430.3,1311.45Zm-27-31.85,27,27,27-27-27-27Z"/><rect class="cls-1" x="563.36" y="209.36" width="42.21" height="42.21" transform="translate(334.16 -345.78) rotate(45)"/><path class="cls-1" d="M584.47,262.32a2,2,0,0,1-1.42-.59L553.2,231.88a2,2,0,0,1,0-2.82l29.85-29.86a2,2,0,0,1,2.83,0l29.85,29.86a2,2,0,0,1,0,2.82l-29.85,29.85A2,2,0,0,1,584.47,262.32Zm-27-31.85,27,27,27-27-27-27Z"/><rect class="cls-1" x="1609.94" y="424.84" width="25.74" height="25.74" transform="translate(784.82 -1019.3) rotate(45)"/><path class="cls-1" d="M1622.82,457.92a2,2,0,0,1-1.42-.59l-18.2-18.21a2,2,0,0,1,0-2.82l18.2-18.21a2,2,0,0,1,2.83,0l18.2,18.21a2,2,0,0,1,0,2.82l-18.2,18.21A2,2,0,0,1,1622.82,457.92Zm-15.38-20.21,15.38,15.38,15.37-15.38-15.37-15.38Z"/><rect class="cls-1" x="1222.52" y="1432.73" width="25.74" height="25.74" transform="translate(1384.04 -450.15) rotate(45)"/><path class="cls-1" d="M1235.4,1465.81a2,2,0,0,1-1.42-.59l-18.2-18.2a2,2,0,0,1-.59-1.41,2,2,0,0,1,.59-1.42L1234,1426a2,2,0,0,1,2.83,0l18.2,18.2a2,2,0,0,1,0,2.83l-18.2,18.2A2,2,0,0,1,1235.4,1465.81Zm-15.38-20.2L1235.4,1461l15.37-15.37-15.37-15.38Z"/><path class="cls-1" d="M194.8,1090.23a36.56,36.56,0,0,1-13-2.39,2,2,0,0,1,1.42-3.74,32.79,32.79,0,0,0,14.82,2,2,2,0,0,1,.38,4A35.66,35.66,0,0,1,194.8,1090.23Zm18.4-5.28a2,2,0,0,1-1.07-3.7,33,33,0,0,0,10.52-10.61,2,2,0,1,1,3.41,2.09,37,37,0,0,1-11.8,11.91A2,2,0,0,1,213.2,1085Zm-43.85-5.86a2,2,0,0,1-1.47-.64,36.94,36.94,0,0,1-8.27-14.58,2,2,0,0,1,3.84-1.12,32.88,32.88,0,0,0,7.37,13,2,2,0,0,1-1.47,3.35Zm60-20.46h-.18a2,2,0,0,1-1.81-2.16c.08-1,.12-1.93.12-2.88a32.62,32.62,0,0,0-2.23-11.91,2,2,0,0,1,3.72-1.46,36.48,36.48,0,0,1,2.51,13.37c0,1.07,0,2.16-.14,3.23A2,2,0,0,1,229.32,1058.63Zm-69.17-3.05a2,2,0,0,1-2-2,36.3,36.3,0,0,1,3.83-16.33,2,2,0,1,1,3.58,1.79,32.31,32.31,0,0,0-3.41,14.54A2,2,0,0,1,160.15,1055.58Zm57.92-25.68a2,2,0,0,1-1.34-.52,32.88,32.88,0,0,0-13.06-7.24,2,2,0,0,1,1.08-3.85,36.75,36.75,0,0,1,14.67,8.13,2,2,0,0,1,.13,2.82A2,2,0,0,1,218.07,1029.9Zm-44.18-2a2,2,0,0,1-1.21-3.59,36.76,36.76,0,0,1,15.33-6.8,2,2,0,0,1,.73,3.93,32.69,32.69,0,0,0-13.64,6.06A2,2,0,0,1,173.89,1027.94Z"/><path class="cls-2" d="M836.46,207.5c-17.31-14.25-38.66-17.69-55-1.94s-18.51,49-2.19,64.73c17.75,17.12,59.93,16.88,83,16.49,44.37-.77,89.5,1.36,133.88,1.36,83.16,0,74.15-71.43,52-86.66a28.35,28.35,0,0,0-35.22,2.86c4.16-30.07-14.32-62-39.85-68.93s-54.26,12.29-62,41.41c-11.5-13.87-30.57-18.4-45.83-10.89S840.19,189.46,836.46,207.5Z"/><path class="cls-1" d="M996.17,290.14c-18.81,0-38.07-.39-56.7-.76-25.37-.52-51.6-1.05-77.15-.61-21.28.37-65.56,1.14-84.41-17-7.5-7.24-11.81-18.67-11.81-31.36,0-14.24,5.23-27.8,14-36.25,15.06-14.54,36-14.51,55.11-.15,4.58-18.49,15.1-32.91,29.18-39.83,15.18-7.47,33.52-3.85,45.8,8.69A61.34,61.34,0,0,1,937.43,139c11.61-6.71,24.45-8.66,36.15-5.5,25.37,6.86,43.71,36.58,41.79,66.38a30.46,30.46,0,0,1,33.89,0c12,8.26,20.47,31.49,13.84,52.89C1058.76,266.7,1044.3,290.14,996.17,290.14Zm-113.64-5.53c19.07,0,38.28.39,57,.77s37.85.76,56.62.76c45.57,0,59.1-21.68,63.11-34.6,6-19.43-1.64-41.11-12.28-48.41a26.49,26.49,0,0,0-32.73,2.68,2,2,0,0,1-2.29.3,2,2,0,0,1-1.05-2c4-28.94-13.94-60.11-38.4-66.73-10.66-2.88-22.42-1.07-33.1,5.11A57.34,57.34,0,0,0,913,177.33a2,2,0,0,1-3.47.76c-10.83-13.05-29.08-17.41-43.41-10.36-13.74,6.76-23.85,21.4-27.73,40.17a2,2,0,0,1-1.29,1.48,2,2,0,0,1-1.94-.34c-18.4-15.14-38-15.9-52.32-2-8,7.72-12.77,20.2-12.77,33.38,0,11.61,3.86,22,10.59,28.48,17.66,17,62.44,16.26,81.56,15.93Q872.35,284.6,882.53,284.61Z"/><path class="cls-2" d="M1366,1343.88c41.92,1.17,83.86,2.34,125.79,1.8,21.06-.27,45.36-2.66,57.22-20.06,10-14.6,5.65-37-9-46.84s-37-5.42-46.79,9.32c5.26-24-14.38-50.41-38.93-52.23s-47.87,21.34-46.22,45.89c-3.37-8.33-12.21-13.59-21.15-14.52-19.21-2-42.1,2.74-52.87,35.32C1329.77,1315.57,1335.24,1343,1366,1343.88Z"/><path class="cls-1" d="M1470.26,1347.81c-35,0-70.1-1-104.28-1.93-16.08-.45-24.59-7.86-28.9-14-6.91-9.85-7.39-22.43-4.91-29.94,9-27.22,27.5-39.56,55-36.68a29,29,0,0,1,19.09,9.69A46.21,46.21,0,0,1,1420,1247.5c9.64-9.57,22.21-14.55,34.49-13.63s24,7.69,32.1,18.59a46.12,46.12,0,0,1,9.51,29.17,36.91,36.91,0,0,1,18.34-9.38c9.56-1.9,19.3-.13,26.73,4.87s12.75,13.35,14.6,22.92,0,19.31-5,26.71c-12.22,17.93-36.6,20.64-58.84,20.93Q1481.08,1347.82,1470.26,1347.81Zm-90.49-79c-21.55,0-36.26,11.52-43.8,34.33-2.18,6.6-1.74,17.67,4.39,26.4,5.42,7.73,14.32,12,25.73,12.3h0c41.19,1.15,83.78,2.34,125.71,1.8,21.22-.27,44.41-2.76,55.6-19.18,4.45-6.53,6.06-15.17,4.41-23.7s-6.34-16-12.9-20.36-15.2-6-23.72-4.27-15.92,6.45-20.29,13a2,2,0,0,1-3.61-1.53c2.38-10.89-.51-22.86-7.94-32.82s-18.07-16.16-29.18-17-22.56,3.72-31.38,12.48-13.46,20.16-12.71,31.29a2,2,0,0,1-3.85.88c-2.88-7.13-10.53-12.34-19.49-13.28A67.29,67.29,0,0,0,1379.77,1268.85Z"/></svg>