<svg id="Layer_1" data-name="Layer 1" xmlns="http://www.w3.org/2000/svg" viewBox="0 0 118 100"><defs><style>.cls-1{fill:#b3afaf;}.cls-1,.cls-2{fill-rule:evenodd;}.cls-2{fill:#e5bf43;}</style></defs><g id="TIKTOK_006" data-name="TIKTOK 006"><path id="LOGO" class="cls-1" d="M78.74,37.83l1.05.08v9.75l-1.07.12a13.39,13.39,0,0,1-7.48-1.64,13.22,13.22,0,0,1-2.73-2v15.6a14.95,14.95,0,1,1-15-14.93c.32,0,.65,0,1,0l1.07.07V54.1L54.28,54l-.23,0a3.13,3.13,0,0,0-.48-.05,5.91,5.91,0,1,0,0,11.82A6.45,6.45,0,0,0,57.92,64a5.59,5.59,0,0,0,1.84-4.11L59.83,27H68.5l.11,1A11,11,0,0,0,78.74,37.83Z"/></g><g id="TIKTOK_006-2" data-name="TIKTOK 006"><path id="LOGO-2" data-name="LOGO" class="cls-2" d="M77.74,37.83l1.05.08v9.75l-1.07.12a13.39,13.39,0,0,1-7.48-1.64,13.22,13.22,0,0,1-2.73-2v15.6a14.95,14.95,0,1,1-15-14.93c.32,0,.65,0,1,0l1.07.07V54.1L53.28,54l-.23,0a3.13,3.13,0,0,0-.48-.05,5.91,5.91,0,1,0,0,11.82A6.45,6.45,0,0,0,56.92,64a5.59,5.59,0,0,0,1.84-4.11L58.83,27H67.5l.11,1A11,11,0,0,0,77.74,37.83Z"/></g></svg>