<svg id="Layer_1" data-name="Layer 1" xmlns="http://www.w3.org/2000/svg" viewBox="0 0 615 1079"><defs><style>.cls-1{fill:#ffc54a;fill-rule:evenodd;}</style></defs><path class="cls-1" d="M393.71,888.5c14.81-11.41,18.79-33.47,2.86-45.84l-19.63-14-2.79-2L258.93,744l-49-35.14a61.13,61.13,0,0,0-8.88-5.36,43.8,43.8,0,0,0-6.47-2.5,27,27,0,0,0-3.69-.72c-13.78-1.77-26.59,6.89-27.23,24.66l0,268.82c0,18.66,13.14,27.79,27.26,26a31.77,31.77,0,0,0,9-2.63l1.19-.62,112-74.43.95-.64c.37-.26.65-.46.43-.28l.52-.35Z"/><path class="cls-1" d="M370.36,478.17c14.82-11.41,18.8-33.47,2.86-45.84l-19.63-14-2.79-2L235.59,333.7l-49-35.14a61.13,61.13,0,0,0-8.88-5.36,43.8,43.8,0,0,0-6.47-2.5,26.84,26.84,0,0,0-3.7-.72c-13.78-1.77-26.59,6.89-27.22,24.66l0,268.82c0,18.66,13.15,27.79,27.26,26a31.84,31.84,0,0,0,9-2.63l1.19-.62,112-74.43.95-.64c.37-.26.66-.46.44-.28l.52-.35Z"/><path class="cls-1" d="M217.94,615.87c-18.8,14.49-23.85,42.47-3.63,58.17l24.91,17.82,3.54,2.56L389,799.2l62.24,44.58a76.94,76.94,0,0,0,11.26,6.81,53.77,53.77,0,0,0,8.21,3.17,32.37,32.37,0,0,0,4.69.92c17.49,2.25,33.74-8.74,34.55-31.29l0-341.13c0-23.68-16.68-35.27-34.59-33A39.74,39.74,0,0,0,464,452.62l-1.51.78L320.3,547.86l-1.21.8c-.47.33-.83.59-.55.36l-.66.45Z"/><path class="cls-1" d="M180.32,196.87c-18.79,14.49-23.85,42.47-3.62,58.17l24.91,17.82,3.54,2.56L351.35,380.2l62.23,44.59a77.79,77.79,0,0,0,11.27,6.8,53.77,53.77,0,0,0,8.21,3.17,32.37,32.37,0,0,0,4.69.92c17.49,2.25,33.74-8.74,34.55-31.29l0-341.13c0-23.68-16.68-35.26-34.59-33a40,40,0,0,0-11.39,3.33l-1.51.78L282.68,128.86l-1.2.8c-.47.33-.83.59-.56.36l-.65.45Z"/></svg>