<svg id="Layer_1" data-name="Layer 1" xmlns="http://www.w3.org/2000/svg" viewBox="0 0 3620.25 1491.42"><defs><style>.cls-1{fill:#c1971b;}</style></defs><path class="cls-1" d="M3618.12,19.68c108.43,102.44,139.13,250.41,82.14,395.81s-188.2,253.83-351,290.07c-178.58,39.75-368.19,5-551.55-28.51-199.29-36.48-405.3-74.19-591-12.52-203.29,67.53-317.24,231.82-427.44,390.7-116,167.31-236,340.32-460.61,397.4-213,54.14-441.6-19.6-657.4-99.81L0,1107l4.45-7.46,661.31,245.79c213.91,79.5,440.31,152.68,649.76,99.43,220.58-56.08,339.55-227.62,454.61-393.51C1881.2,891.14,1996,725.57,2202.71,656.92c188.73-62.7,396.52-24.68,597.4,12.08,182,33.32,370.28,67.79,546.34,28.61,159.33-35.48,287.87-141.86,343.82-284.57s26-287.78-80.16-388.07Z"/></svg>