<svg id="Layer_1" data-name="Layer 1" xmlns="http://www.w3.org/2000/svg" viewBox="0 0 1984 581"><defs><style>.cls-1{fill:#c1971b;}</style></defs><path class="cls-1" d="M-22.19,928.46c-63.93-57.94-85.39-145-57.42-232.86S19.14,539.81,109.73,513.93c99.39-28.39,207.1-12.86,311.25,2.15,113.21,16.32,230.23,33.2,333-8.4C866.5,462.12,926,361.5,983.53,264.2c60.59-102.48,123.23-208.44,248-248.35,118.38-37.87,249.11-.2,372.84,41.66l379.17,128.25-2.29,4.55L1602.1,62.06c-122.66-41.48-252.16-78.88-368.54-41.63C1111,59.64,1048.88,164.7,988.8,266.3c-58,98.07-117.95,199.48-232.33,245.79C652,554.38,534,537.37,419.87,520.92,316.46,506,209.55,490.59,111.56,518.57c-88.68,25.34-158,92-185.48,178.21S-80.4,868.39-17.83,925.11Z"/></svg>