<svg id="Layer_1" data-name="Layer 1" xmlns="http://www.w3.org/2000/svg" xmlns:xlink="http://www.w3.org/1999/xlink" viewBox="0 0 717 161.73"><defs><style>.cls-1{fill:none;}.cls-2{clip-path:url(#clip-path);}.cls-3{fill:#fdd34b;}.cls-10,.cls-100,.cls-101,.cls-102,.cls-103,.cls-104,.cls-105,.cls-106,.cls-107,.cls-108,.cls-109,.cls-11,.cls-110,.cls-111,.cls-112,.cls-113,.cls-114,.cls-115,.cls-116,.cls-117,.cls-118,.cls-119,.cls-12,.cls-120,.cls-122,.cls-123,.cls-124,.cls-125,.cls-126,.cls-127,.cls-128,.cls-129,.cls-13,.cls-130,.cls-131,.cls-132,.cls-133,.cls-134,.cls-135,.cls-136,.cls-137,.cls-138,.cls-139,.cls-14,.cls-140,.cls-141,.cls-142,.cls-143,.cls-144,.cls-145,.cls-146,.cls-147,.cls-148,.cls-149,.cls-15,.cls-150,.cls-151,.cls-152,.cls-153,.cls-154,.cls-155,.cls-156,.cls-157,.cls-158,.cls-159,.cls-16,.cls-160,.cls-161,.cls-162,.cls-163,.cls-164,.cls-165,.cls-166,.cls-167,.cls-168,.cls-169,.cls-17,.cls-170,.cls-171,.cls-172,.cls-173,.cls-174,.cls-175,.cls-176,.cls-177,.cls-178,.cls-179,.cls-18,.cls-180,.cls-181,.cls-182,.cls-183,.cls-184,.cls-185,.cls-186,.cls-188,.cls-189,.cls-19,.cls-190,.cls-191,.cls-192,.cls-193,.cls-194,.cls-195,.cls-196,.cls-197,.cls-198,.cls-199,.cls-20,.cls-200,.cls-201,.cls-202,.cls-203,.cls-204,.cls-205,.cls-206,.cls-207,.cls-208,.cls-209,.cls-21,.cls-210,.cls-211,.cls-212,.cls-213,.cls-214,.cls-215,.cls-216,.cls-217,.cls-218,.cls-219,.cls-22,.cls-220,.cls-221,.cls-222,.cls-223,.cls-224,.cls-225,.cls-226,.cls-227,.cls-228,.cls-229,.cls-23,.cls-230,.cls-231,.cls-232,.cls-233,.cls-234,.cls-235,.cls-236,.cls-237,.cls-238,.cls-239,.cls-24,.cls-240,.cls-241,.cls-242,.cls-243,.cls-244,.cls-245,.cls-246,.cls-247,.cls-248,.cls-25,.cls-250,.cls-251,.cls-252,.cls-253,.cls-254,.cls-255,.cls-256,.cls-257,.cls-258,.cls-259,.cls-26,.cls-260,.cls-261,.cls-262,.cls-263,.cls-264,.cls-265,.cls-266,.cls-267,.cls-268,.cls-269,.cls-27,.cls-270,.cls-271,.cls-272,.cls-273,.cls-274,.cls-275,.cls-276,.cls-277,.cls-278,.cls-28,.cls-29,.cls-3,.cls-30,.cls-31,.cls-32,.cls-33,.cls-34,.cls-35,.cls-36,.cls-37,.cls-38,.cls-39,.cls-4,.cls-40,.cls-41,.cls-42,.cls-43,.cls-44,.cls-45,.cls-46,.cls-47,.cls-48,.cls-49,.cls-5,.cls-50,.cls-51,.cls-52,.cls-53,.cls-54,.cls-55,.cls-56,.cls-57,.cls-58,.cls-59,.cls-6,.cls-60,.cls-61,.cls-62,.cls-63,.cls-64,.cls-65,.cls-66,.cls-67,.cls-68,.cls-69,.cls-7,.cls-70,.cls-71,.cls-72,.cls-73,.cls-74,.cls-75,.cls-76,.cls-77,.cls-78,.cls-79,.cls-8,.cls-80,.cls-81,.cls-82,.cls-83,.cls-84,.cls-85,.cls-86,.cls-87,.cls-88,.cls-89,.cls-9,.cls-90,.cls-91,.cls-92,.cls-93,.cls-94,.cls-95,.cls-96,.cls-97,.cls-98,.cls-99{fill-rule:evenodd;}.cls-4{fill:#fcd34b;}.cls-5{fill:#fcd249;}.cls-6{fill:#fbd249;}.cls-7{fill:#fcd14a;}.cls-8{fill:#fad14a;}.cls-9{fill:#fbd048;}.cls-10{fill:#f9d048;}.cls-11{fill:#f8cf49;}.cls-12{fill:#f7ce49;}.cls-13{fill:#f6ce47;}.cls-14{fill:#f6cd48;}.cls-15{fill:#f5cd48;}.cls-16{fill:#f5cc48;}.cls-17{fill:#f4cc48;}.cls-18{fill:#f4cb48;}.cls-19{fill:#f3cb48;}.cls-20{fill:#f2ca48;}.cls-21{fill:#f2ca47;}.cls-22{fill:#f1ca47;}.cls-23{fill:#f1c947;}.cls-24{fill:#f0c947;}.cls-25{fill:#f0c847;}.cls-26{fill:#efc847;}.cls-27{fill:#efc747;}.cls-28{fill:#eec747;}.cls-29{fill:#edc646;}.cls-30{fill:#ecc646;}.cls-31{fill:#ecc546;}.cls-32{fill:#ebc546;}.cls-33{fill:#ebc446;}.cls-34{fill:#eac446;}.cls-35{fill:#eac347;}.cls-36{fill:#e9c347;}.cls-37{fill:#e9c345;}.cls-38{fill:#e8c245;}.cls-39{fill:#e7c146;}.cls-40{fill:#e5c146;}.cls-41{fill:#e6c046;}.cls-42{fill:#e4c046;}.cls-43{fill:#e5bf45;}.cls-44{fill:#e3bf45;}.cls-45{fill:#e4be45;}.cls-46{fill:#e3be45;}.cls-47{fill:#e2bd44;}.cls-48{fill:#e1bc44;}.cls-49{fill:#dfbc44;}.cls-50{fill:#e0bb43;}.cls-51{fill:#debb43;}.cls-52{fill:#ddba43;}.cls-53{fill:#dcb943;}.cls-54{fill:#dbb843;}.cls-55{fill:#dbb842;}.cls-56{fill:#dab742;}.cls-57{fill:#d9b642;}.cls-58{fill:#d8b542;}.cls-59{fill:#d7b542;}.cls-60{fill:#d7b541;}.cls-61{fill:#d7b441;}.cls-62{fill:#d6b441;}.cls-63{fill:#d6b341;}.cls-64{fill:#d5b341;}.cls-65{fill:#d5b241;}.cls-66{fill:#d4b241;}.cls-67{fill:#d3b241;}.cls-68{fill:#d3b240;}.cls-69{fill:#d2b240;}.cls-70{fill:#d2b040;}.cls-71{fill:#d1b040;}.cls-72{fill:#d1af41;}.cls-73{fill:#d0af41;}.cls-74{fill:#d0ae41;}.cls-75{fill:#cfae41;}.cls-76{fill:#cead40;}.cls-77{fill:#cdac40;}.cls-78{fill:#cbab40;}.cls-79{fill:#caaa3f;}.cls-80{fill:#c9a93f;}.cls-81{fill:#c7a83e;}.cls-82{fill:#c6a73e;}.cls-83{fill:#c5a63d;}.cls-84{fill:#c4a43d;}.cls-85{fill:#c3a33d;}.cls-86{fill:#c0a23c;}.cls-87{fill:#bfa13c;}.cls-88{fill:#bea03c;}.cls-89{fill:#bd9f3c;}.cls-90{fill:#bc9e3b;}.cls-91{fill:#ba9d3b;}.cls-92{fill:#b99c3b;}.cls-93{fill:#b89b3a;}.cls-94{fill:#b69a3a;}.cls-95{fill:#b5993b;}.cls-96{fill:#b49839;}.cls-97{fill:#b1973a;}.cls-98{fill:#b0963a;}.cls-99{fill:#af9538;}.cls-100{fill:#ae9439;}.cls-101{fill:#ad9337;}.cls-102{fill:#ac9238;}.cls-103{fill:#ab9136;}.cls-104{fill:#a98f37;}.cls-105{fill:#a88e37;}.cls-106{fill:#a78d37;}.cls-107{fill:#a58c36;}.cls-108{fill:#a48b36;}.cls-109{fill:#a38a36;}.cls-110{fill:#a18935;}.cls-111{fill:#a08835;}.cls-112{fill:#9e8835;}.cls-113{fill:#9f8735;}.cls-114{fill:#9d8735;}.cls-115{fill:#9e8635;}.cls-116{fill:#9c8634;}.cls-117{fill:#9d8534;}.cls-118{fill:#9b8534;}.cls-119{fill:#9c8434;}.cls-120{fill:#9a8434;}.cls-121{clip-path:url(#clip-path-2);}.cls-122{fill:#facf49;}.cls-123{fill:#f7cf49;}.cls-124{fill:#f7ce47;}.cls-125{fill:#f4cc46;}.cls-126{fill:#f4cb47;}.cls-127{fill:#f3cb47;}.cls-128{fill:#f0c946;}.cls-129{fill:#f0c846;}.cls-130{fill:#efc846;}.cls-131{fill:#efc746;}.cls-132{fill:#eec746;}.cls-133{fill:#eec646;}.cls-134{fill:#edc645;}.cls-135{fill:#ecc545;}.cls-136{fill:#ebc545;}.cls-137{fill:#ebc445;}.cls-138{fill:#eac445;}.cls-139{fill:#eac345;}.cls-140{fill:#e9c344;}.cls-141{fill:#e8c244;}.cls-142{fill:#e7c144;}.cls-143{fill:#e5c144;}.cls-144{fill:#e6c044;}.cls-145{fill:#e6c043;}.cls-146{fill:#e4c043;}.cls-147,.cls-279{fill:#e5bf43;}.cls-148{fill:#e3bf43;}.cls-149{fill:#e4be43;}.cls-150{fill:#e3be43;}.cls-151{fill:#e2bd42;}.cls-152{fill:#e1bc42;}.cls-153{fill:#dfbc42;}.cls-154{fill:#dfba41;}.cls-155{fill:#ddba41;}.cls-156{fill:#dcb942;}.cls-157{fill:#dab741;}.cls-158{fill:#d9b641;}.cls-159{fill:#d8b540;}.cls-160{fill:#d7b440;}.cls-161{fill:#d6b440;}.cls-162{fill:#d6b340;}.cls-163{fill:#d5b240;}.cls-164{fill:#d4b23f;}.cls-165{fill:#d3b23f;}.cls-166{fill:#d2b23f;}.cls-167{fill:#d2b03f;}.cls-168{fill:#d1af3f;}.cls-169{fill:#d0af3f;}.cls-170{fill:#cfae3f;}.cls-171{fill:#cead3e;}.cls-172{fill:#cdac3e;}.cls-173{fill:#ccab3f;}.cls-174{fill:#cbab3f;}.cls-175{fill:#caa93e;}.cls-176{fill:#c9a93e;}.cls-177{fill:#c8a83e;}.cls-178{fill:#c6a63d;}.cls-179{fill:#c3a33c;}.cls-180{fill:#c2a23c;}.cls-181{fill:#bea03b;}.cls-182{fill:#bd9f3b;}.cls-183{fill:#bc9f3b;}.cls-184{fill:#bb9e3b;}.cls-185{fill:#bb9d3b;}.cls-186{fill:#b99c3a;}.cls-187{clip-path:url(#clip-path-3);}.cls-188{fill:#9e8836;}.cls-189{fill:#a08836;}.cls-190{fill:#9f8936;}.cls-191{fill:#a18936;}.cls-192{fill:#a08a36;}.cls-193{fill:#a28a36;}.cls-194{fill:#a18b36;}.cls-195{fill:#a38b36;}.cls-196{fill:#a38b37;}.cls-197{fill:#a28c37;}.cls-198{fill:#a48c37;}.cls-199{fill:#a58d37;}.cls-200{fill:#a68e37;}.cls-201{fill:#a78f37;}.cls-202{fill:#a88f38;}.cls-203{fill:#a99038;}.cls-204{fill:#a99138;}.cls-205{fill:#aa9138;}.cls-206{fill:#ab9238;}.cls-207{fill:#ac9339;}.cls-208{fill:#ad9339;}.cls-209{fill:#b2983b;}.cls-210{fill:#b3993b;}.cls-211{fill:#b49a3c;}.cls-212{fill:#b59b3c;}.cls-213{fill:#b79b3c;}.cls-214{fill:#b89c3b;}.cls-215{fill:#b99d3b;}.cls-216{fill:#ba9e3b;}.cls-217{fill:#bb9e3c;}.cls-218{fill:#bb9f3c;}.cls-219{fill:#bc9f3c;}.cls-220{fill:#bda03c;}.cls-221{fill:#bea13c;}.cls-222{fill:#bfa23d;}.cls-223{fill:#c0a23d;}.cls-224{fill:#c2a23d;}.cls-225{fill:#c1a33d;}.cls-226{fill:#c4a43e;}.cls-227{fill:#c5a63e;}.cls-228{fill:#c8a93f;}.cls-229{fill:#caab40;}.cls-230{fill:#ccac40;}.cls-231{fill:#cdad40;}.cls-232{fill:#ceae41;}.cls-233{fill:#cfaf41;}.cls-234{fill:#d1b042;}.cls-235{fill:#d2b042;}.cls-236{fill:#d2b241;}.cls-237{fill:#d4b341;}.cls-238{fill:#d5b441;}.cls-239{fill:#d6b442;}.cls-240{fill:#d8b642;}.cls-241{fill:#d9b742;}.cls-242{fill:#dab743;}.cls-243{fill:#debb44;}.cls-244{fill:#e6c245;}.cls-245{fill:#e7c347;}.cls-246{fill:#edc647;}.cls-247{fill:#f1ca48;}.cls-248{fill:#f6ce49;}.cls-249{clip-path:url(#clip-path-4);}.cls-250{fill:#928032;}.cls-251{fill:#948034;}.cls-252{fill:#958034;}.cls-253{fill:#968034;}.cls-254{fill:#968133;}.cls-255{fill:#978133;}.cls-256{fill:#988235;}.cls-257{fill:#9a8235;}.cls-258{fill:#998335;}.cls-259{fill:#9a8436;}.cls-260{fill:#9b8536;}.cls-261{fill:#9c8635;}.cls-262{fill:#9f8737;}.cls-263{fill:#a48b37;}.cls-264{fill:#a58c37;}.cls-265{fill:#a68d37;}.cls-266{fill:#a78e37;}.cls-267{fill:#a98f38;}.cls-268{fill:#aa9038;}.cls-269{fill:#ab9138;}.cls-270{fill:#ac9239;}.cls-271{fill:#b4983b;}.cls-272{fill:#b69a3c;}.cls-273{fill:#ba9d3d;}.cls-274{fill:#bfa13d;}.cls-275{fill:#c7a73e;}.cls-276{fill:#d7b442;}.cls-277{fill:#e0bb44;}.cls-278{fill:#f2cb48;}</style><clipPath id="clip-path"><path class="cls-1" d="M92.36,99,65.49,131.09l27.57-17.68c5.12-3.22,7.24-10-.7-14.47Z"/></clipPath><clipPath id="clip-path-2"><path class="cls-1" d="M19.56,110.12l25.18-30L45,65.38,45.31,34c0-3.29,3.78-5.74,8.82-5.89L47.62,24c-7.79-5-14.47-4.55-21.7.21l-8.45,5.55-.62.42C10.25,34.58,6.61,40.54,6,48l-.07,59.47v.07c.07,6.73,9.19,8.34,13.68,2.59Z"/></clipPath><clipPath id="clip-path-3"><path class="cls-1" d="M45.31,34,45,65.38l23.49-28L54.13,28.14C49.09,28.29,45.37,30.74,45.31,34Z"/></clipPath><clipPath id="clip-path-4"><path class="cls-1" d="M93.19,99.53c6.53,4.14,5.13,10-.13,14l32.74-21c6.32-4.36,8-12.78,1.27-17.47l-8.35-5.4c-6.17-4-13.45-.64-16.12,2.59L84.46,93.94Z"/></clipPath></defs><g class="cls-2"><polyline class="cls-3" points="65.49 98.97 65.57 98.97 65.57 131.09 65.49 131.09"/><polyline class="cls-3" points="65.49 98.97 65.64 98.97 65.64 131.09 65.49 131.09"/><polyline class="cls-4" points="65.64 98.97 65.78 98.97 65.78 131.09 65.64 131.09"/><polyline class="cls-5" points="65.71 98.97 65.92 98.97 65.92 131.09 65.71 131.09"/><polyline class="cls-5" points="65.84 98.97 66.06 98.97 66.06 131.09 65.84 131.09"/><polyline class="cls-5" points="65.99 98.97 66.21 98.97 66.21 131.09 65.99 131.09"/><polyline class="cls-6" points="66.13 98.97 66.27 98.97 66.27 131.09 66.13 131.09"/><polyline class="cls-7" points="66.27 98.97 66.41 98.97 66.41 131.09 66.27 131.09"/><polyline class="cls-7" points="66.34 98.97 66.56 98.97 66.56 131.09 66.34 131.09"/><polyline class="cls-7" points="66.48 98.97 66.69 98.97 66.69 131.09 66.48 131.09"/><polyline class="cls-8" points="66.62 98.97 66.83 98.97 66.83 131.09 66.62 131.09"/><polyline class="cls-8" points="66.76 98.97 66.91 98.97 66.91 131.09 66.76 131.09"/><polyline class="cls-9" points="66.83 98.97 67.04 98.97 67.04 131.09 66.83 131.09"/><polyline class="cls-9" points="66.98 98.97 67.18 98.97 67.18 131.09 66.98 131.09"/><polyline class="cls-10" points="67.11 98.97 67.33 98.97 67.33 131.09 67.11 131.09"/><polyline class="cls-10" points="67.25 98.97 67.46 98.97 67.46 131.09 67.25 131.09"/><polyline class="cls-10" points="67.39 98.97 67.53 98.97 67.53 131.09 67.39 131.09"/><polyline class="cls-11" points="67.46 98.97 67.68 98.97 67.68 131.09 67.46 131.09"/><polyline class="cls-11" points="67.61 98.97 67.81 98.97 67.81 131.09 67.61 131.09"/><polyline class="cls-11" points="67.74 98.97 67.95 98.97 67.95 131.09 67.74 131.09"/><polyline class="cls-11" points="67.88 98.97 68.03 98.97 68.03 131.09 67.88 131.09"/><polyline class="cls-12" points="68.03 98.97 68.16 98.97 68.16 131.09 68.03 131.09"/><polyline class="cls-12" points="68.09 98.97 68.3 98.97 68.3 131.09 68.09 131.09"/><polyline class="cls-12" points="68.23 98.97 68.45 98.97 68.45 131.09 68.23 131.09"/><polyline class="cls-12" points="68.38 98.97 68.58 98.97 68.58 131.09 68.38 131.09"/><polyline class="cls-13" points="68.51 98.97 68.65 98.97 68.65 131.09 68.51 131.09"/><polyline class="cls-14" points="68.65 98.97 68.8 98.97 68.8 131.09 68.65 131.09"/><polyline class="cls-14" points="68.73 98.97 68.93 98.97 68.93 131.09 68.73 131.09"/><polyline class="cls-15" points="68.86 98.97 69.08 98.97 69.08 131.09 68.86 131.09"/><polyline class="cls-15" points="69 98.97 69.22 98.97 69.22 131.09 69 131.09"/><polyline class="cls-15" points="69.15 98.97 69.28 98.97 69.28 131.09 69.15 131.09"/><polyline class="cls-16" points="69.22 98.97 69.43 98.97 69.43 131.09 69.22 131.09"/><polyline class="cls-17" points="69.35 98.97 69.57 98.97 69.57 131.09 69.35 131.09"/><polyline class="cls-17" points="69.5 98.97 69.7 98.97 69.7 131.09 69.5 131.09"/><polyline class="cls-17" points="69.63 98.97 69.85 98.97 69.85 131.09 69.63 131.09"/><polyline class="cls-18" points="69.78 98.97 69.92 98.97 69.92 131.09 69.78 131.09"/><polyline class="cls-19" points="69.85 98.97 70.05 98.97 70.05 131.09 69.85 131.09"/><polyline class="cls-19" points="69.99 98.97 70.2 98.97 70.2 131.09 69.99 131.09"/><polyline class="cls-19" points="70.13 98.97 70.34 98.97 70.34 131.09 70.13 131.09"/><polyline class="cls-19" points="70.27 98.97 70.4 98.97 70.4 131.09 70.27 131.09"/><polyline class="cls-20" points="70.4 98.97 70.55 98.97 70.55 131.09 70.4 131.09"/><polyline class="cls-20" points="70.47 98.97 70.69 98.97 70.69 131.09 70.47 131.09"/><polyline class="cls-21" points="70.62 98.97 70.83 98.97 70.83 131.09 70.62 131.09"/><polyline class="cls-22" points="70.76 98.97 70.97 98.97 70.97 131.09 70.76 131.09"/><polyline class="cls-23" points="70.9 98.97 71.04 98.97 71.04 131.09 70.9 131.09"/><polyline class="cls-23" points="71.04 98.97 71.17 98.97 71.17 131.09 71.04 131.09"/><polyline class="cls-23" points="71.11 98.97 71.32 98.97 71.32 131.09 71.11 131.09"/><polyline class="cls-24" points="71.25 98.97 71.46 98.97 71.46 131.09 71.25 131.09"/><polyline class="cls-24" points="71.39 98.97 71.6 98.97 71.6 131.09 71.39 131.09"/><polyline class="cls-25" points="71.54 98.97 71.67 98.97 71.67 131.09 71.54 131.09"/><polyline class="cls-25" points="71.6 98.97 71.81 98.97 71.81 131.09 71.6 131.09"/><polyline class="cls-26" points="71.74 98.97 71.95 98.97 71.95 131.09 71.74 131.09"/><polyline class="cls-26" points="71.87 98.97 72.09 98.97 72.09 131.09 71.87 131.09"/><polyline class="cls-26" points="72.02 98.97 72.16 98.97 72.16 131.09 72.02 131.09"/><polyline class="cls-27" points="72.16 98.97 72.3 98.97 72.3 131.09 72.16 131.09"/><polyline class="cls-28" points="72.24 98.97 72.44 98.97 72.44 131.09 72.24 131.09"/><polyline class="cls-28" points="72.37 98.97 72.58 98.97 72.58 131.09 72.37 131.09"/><polyline class="cls-28" points="72.51 98.97 72.72 98.97 72.72 131.09 72.51 131.09"/><polyline class="cls-29" points="72.65 98.97 72.79 98.97 72.79 131.09 72.65 131.09"/><polyline class="cls-29" points="72.79 98.97 72.94 98.97 72.94 131.09 72.79 131.09"/><polyline class="cls-29" points="72.86 98.97 73.07 98.97 73.07 131.09 72.86 131.09"/><polyline class="cls-29" points="73.01 98.97 73.21 98.97 73.21 131.09 73.01 131.09"/><polyline class="cls-30" points="73.14 98.97 73.36 98.97 73.36 131.09 73.14 131.09"/><polyline class="cls-31" points="73.28 98.97 73.42 98.97 73.42 131.09 73.28 131.09"/><polyline class="cls-31" points="73.36 98.97 73.56 98.97 73.56 131.09 73.36 131.09"/><polyline class="cls-31" points="73.49 98.97 73.71 98.97 73.71 131.09 73.49 131.09"/><polyline class="cls-32" points="73.63 98.97 73.84 98.97 73.84 131.09 73.63 131.09"/><polyline class="cls-32" points="73.78 98.97 73.98 98.97 73.98 131.09 73.78 131.09"/><polyline class="cls-33" points="73.91 98.97 74.06 98.97 74.06 131.09 73.91 131.09"/><polyline class="cls-33" points="73.98 98.97 74.19 98.97 74.19 131.09 73.98 131.09"/><polyline class="cls-34" points="74.13 98.97 74.33 98.97 74.33 131.09 74.13 131.09"/><polyline class="cls-34" points="74.26 98.97 74.48 98.97 74.48 131.09 74.26 131.09"/><polyline class="cls-35" points="74.41 98.97 74.55 98.97 74.55 131.09 74.41 131.09"/><polyline class="cls-36" points="74.55 98.97 74.68 98.97 74.68 131.09 74.55 131.09"/><polyline class="cls-36" points="74.61 98.97 74.83 98.97 74.83 131.09 74.61 131.09"/><polyline class="cls-37" points="74.76 98.97 74.96 98.97 74.96 131.09 74.76 131.09"/><polyline class="cls-37" points="74.9 98.97 75.11 98.97 75.11 131.09 74.9 131.09"/><polyline class="cls-38" points="75.03 98.97 75.18 98.97 75.18 131.09 75.03 131.09"/><polyline class="cls-38" points="75.18 98.97 75.32 98.97 75.32 131.09 75.18 131.09"/><polyline class="cls-38" points="75.25 98.97 75.45 98.97 75.45 131.09 75.25 131.09"/><polyline class="cls-38" points="75.38 98.97 75.6 98.97 75.6 131.09 75.38 131.09"/><polyline class="cls-39" points="75.53 98.97 75.73 98.97 75.73 131.09 75.53 131.09"/><polyline class="cls-39" points="75.67 98.97 75.81 98.97 75.81 131.09 75.67 131.09"/><polyline class="cls-39" points="75.73 98.97 75.95 98.97 75.95 131.09 75.73 131.09"/><polyline class="cls-40" points="75.88 98.97 76.09 98.97 76.09 131.09 75.88 131.09"/><polyline class="cls-40" points="76.02 98.97 76.23 98.97 76.23 131.09 76.02 131.09"/><polyline class="cls-41" points="76.16 98.97 76.37 98.97 76.37 131.09 76.16 131.09"/><polyline class="cls-41" points="76.3 98.97 76.43 98.97 76.43 131.09 76.3 131.09"/><polyline class="cls-42" points="76.37 98.97 76.58 98.97 76.58 131.09 76.37 131.09"/><polyline class="cls-42" points="76.5 98.97 76.72 98.97 76.72 131.09 76.5 131.09"/><polyline class="cls-42" points="76.65 98.97 76.85 98.97 76.85 131.09 76.65 131.09"/><polyline class="cls-43" points="76.79 98.97 76.93 98.97 76.93 131.09 76.79 131.09"/><polyline class="cls-44" points="76.93 98.97 77.07 98.97 77.07 131.09 76.93 131.09"/><polyline class="cls-44" points="77 98.97 77.2 98.97 77.2 131.09 77 131.09"/><polyline class="cls-44" points="77.14 98.97 77.35 98.97 77.35 131.09 77.14 131.09"/><polyline class="cls-45" points="77.28 98.97 77.49 98.97 77.49 131.09 77.28 131.09"/><polyline class="cls-46" points="77.42 98.97 77.57 98.97 77.57 131.09 77.42 131.09"/><polyline class="cls-46" points="77.57 98.97 77.7 98.97 77.7 131.09 77.57 131.09"/><polyline class="cls-46" points="77.63 98.97 77.84 98.97 77.84 131.09 77.63 131.09"/><polyline class="cls-46" points="77.77 98.97 77.99 98.97 77.99 131.09 77.77 131.09"/><polyline class="cls-47" points="77.92 98.97 78.12 98.97 78.12 131.09 77.92 131.09"/><polyline class="cls-47" points="78.05 98.97 78.19 98.97 78.19 131.09 78.05 131.09"/><polyline class="cls-47" points="78.12 98.97 78.34 98.97 78.34 131.09 78.12 131.09"/><polyline class="cls-47" points="78.27 98.97 78.47 98.97 78.47 131.09 78.27 131.09"/><polyline class="cls-47" points="78.4 98.97 78.61 98.97 78.61 131.09 78.4 131.09"/><polyline class="cls-48" points="78.54 98.97 78.75 98.97 78.75 131.09 78.54 131.09"/><polyline class="cls-48" points="78.69 98.97 78.82 98.97 78.82 131.09 78.69 131.09"/><polyline class="cls-49" points="78.75 98.97 78.97 98.97 78.97 131.09 78.75 131.09"/><polyline class="cls-49" points="78.89 98.97 79.11 98.97 79.11 131.09 78.89 131.09"/><polyline class="cls-50" points="79.04 98.97 79.24 98.97 79.24 131.09 79.04 131.09"/><polyline class="cls-50" points="79.17 98.97 79.31 98.97 79.31 131.09 79.17 131.09"/><polyline class="cls-51" points="79.31 98.97 79.46 98.97 79.46 131.09 79.31 131.09"/><polyline class="cls-51" points="79.39 98.97 79.59 98.97 79.59 131.09 79.39 131.09"/><polyline class="cls-51" points="79.52 98.97 79.74 98.97 79.74 131.09 79.52 131.09"/><polyline class="cls-52" points="79.66 98.97 79.87 98.97 79.87 131.09 79.66 131.09"/><polyline class="cls-52" points="79.81 98.97 79.94 98.97 79.94 131.09 79.81 131.09"/><polyline class="cls-52" points="79.94 98.97 80.09 98.97 80.09 131.09 79.94 131.09"/><polyline class="cls-52" points="80.01 98.97 80.22 98.97 80.22 131.09 80.01 131.09"/><polyline class="cls-52" points="80.16 98.97 80.36 98.97 80.36 131.09 80.16 131.09"/><polyline class="cls-53" points="80.29 98.97 80.51 98.97 80.51 131.09 80.29 131.09"/><polyline class="cls-53" points="80.44 98.97 80.58 98.97 80.58 131.09 80.44 131.09"/><polyline class="cls-53" points="80.51 98.97 80.71 98.97 80.71 131.09 80.51 131.09"/><polyline class="cls-53" points="80.64 98.97 80.86 98.97 80.86 131.09 80.64 131.09"/><polyline class="cls-54" points="80.79 98.97 81 98.97 81 131.09 80.79 131.09"/><polyline class="cls-55" points="80.93 98.97 81.06 98.97 81.06 131.09 80.93 131.09"/><polyline class="cls-55" points="81.06 98.97 81.21 98.97 81.21 131.09 81.06 131.09"/><polyline class="cls-55" points="81.14 98.97 81.35 98.97 81.35 131.09 81.14 131.09"/><polyline class="cls-55" points="81.28 98.97 81.48 98.97 81.48 131.09 81.28 131.09"/><polyline class="cls-56" points="81.41 98.97 81.63 98.97 81.63 131.09 81.41 131.09"/><polyline class="cls-56" points="81.56 98.97 81.7 98.97 81.7 131.09 81.56 131.09"/><polyline class="cls-56" points="81.7 98.97 81.83 98.97 81.83 131.09 81.7 131.09"/><polyline class="cls-56" points="81.77 98.97 81.98 98.97 81.98 131.09 81.77 131.09"/><polyline class="cls-57" points="81.91 98.97 82.12 98.97 82.12 131.09 81.91 131.09"/><polyline class="cls-57" points="82.05 98.97 82.26 98.97 82.26 131.09 82.05 131.09"/><polyline class="cls-57" points="82.18 98.97 82.33 98.97 82.33 131.09 82.18 131.09"/><polyline class="cls-57" points="82.26 98.97 82.47 98.97 82.47 131.09 82.26 131.09"/><polyline class="cls-57" points="82.4 98.97 82.61 98.97 82.61 131.09 82.4 131.09"/><polyline class="cls-58" points="82.53 98.97 82.75 98.97 82.75 131.09 82.53 131.09"/><polyline class="cls-58" points="82.68 98.97 82.88 98.97 82.88 131.09 82.68 131.09"/><polyline class="cls-58" points="82.82 98.97 82.96 98.97 82.96 131.09 82.82 131.09"/><polyline class="cls-59" points="82.88 98.97 83.1 98.97 83.1 131.09 82.88 131.09"/><polyline class="cls-60" points="83.03 98.97 83.25 98.97 83.25 131.09 83.03 131.09"/><polyline class="cls-61" points="83.17 98.97 83.38 98.97 83.38 131.09 83.17 131.09"/><polyline class="cls-61" points="83.31 98.97 83.45 98.97 83.45 131.09 83.31 131.09"/><polyline class="cls-62" points="83.45 98.97 83.59 98.97 83.59 131.09 83.45 131.09"/><polyline class="cls-62" points="83.52 98.97 83.73 98.97 83.73 131.09 83.52 131.09"/><polyline class="cls-63" points="83.67 98.97 83.87 98.97 83.87 131.09 83.67 131.09"/><polyline class="cls-63" points="83.8 98.97 84.02 98.97 84.02 131.09 83.8 131.09"/><polyline class="cls-64" points="83.94 98.97 84.08 98.97 84.08 131.09 83.94 131.09"/><polyline class="cls-64" points="84.08 98.97 84.22 98.97 84.22 131.09 84.08 131.09"/><polyline class="cls-64" points="84.15 98.97 84.37 98.97 84.37 131.09 84.15 131.09"/><polyline class="cls-65" points="84.3 98.97 84.5 98.97 84.5 131.09 84.3 131.09"/><polyline class="cls-66" points="84.43 98.97 84.64 98.97 84.64 131.09 84.43 131.09"/><polyline class="cls-66" points="84.57 98.97 84.72 98.97 84.72 131.09 84.57 131.09"/><polyline class="cls-66" points="84.64 98.97 84.85 98.97 84.85 131.09 84.64 131.09"/><polyline class="cls-67" points="84.78 98.97 84.99 98.97 84.99 131.09 84.78 131.09"/><polyline class="cls-67" points="84.92 98.97 85.14 98.97 85.14 131.09 84.92 131.09"/><polyline class="cls-67" points="85.07 98.97 85.27 98.97 85.27 131.09 85.07 131.09"/><polyline class="cls-68" points="85.2 98.97 85.34 98.97 85.34 131.09 85.2 131.09"/><polyline class="cls-69" points="85.27 98.97 85.49 98.97 85.49 131.09 85.27 131.09"/><polyline class="cls-70" points="85.42 98.97 85.62 98.97 85.62 131.09 85.42 131.09"/><polyline class="cls-70" points="85.56 98.97 85.77 98.97 85.77 131.09 85.56 131.09"/><polyline class="cls-70" points="85.69 98.97 85.84 98.97 85.84 131.09 85.69 131.09"/><polyline class="cls-71" points="85.84 98.97 85.97 98.97 85.97 131.09 85.84 131.09"/><polyline class="cls-71" points="85.91 98.97 86.12 98.97 86.12 131.09 85.91 131.09"/><polyline class="cls-72" points="86.04 98.97 86.26 98.97 86.26 131.09 86.04 131.09"/><polyline class="cls-72" points="86.19 98.97 86.39 98.97 86.39 131.09 86.19 131.09"/><polyline class="cls-73" points="86.32 98.97 86.47 98.97 86.47 131.09 86.32 131.09"/><polyline class="cls-73" points="86.47 98.97 86.61 98.97 86.61 131.09 86.47 131.09"/><polyline class="cls-74" points="86.54 98.97 86.74 98.97 86.74 131.09 86.54 131.09"/><polyline class="cls-75" points="86.68 98.97 86.89 98.97 86.89 131.09 86.68 131.09"/><polyline class="cls-75" points="86.81 98.97 87.03 98.97 87.03 131.09 86.81 131.09"/><polyline class="cls-75" points="86.96 98.97 87.09 98.97 87.09 131.09 86.96 131.09"/><polyline class="cls-75" points="87.03 98.97 87.24 98.97 87.24 131.09 87.03 131.09"/><polyline class="cls-76" points="87.17 98.97 87.38 98.97 87.38 131.09 87.17 131.09"/><polyline class="cls-77" points="87.31 98.97 87.52 98.97 87.52 131.09 87.31 131.09"/><polyline class="cls-78" points="87.44 98.97 87.66 98.97 87.66 131.09 87.44 131.09"/><polyline class="cls-79" points="87.59 98.97 87.73 98.97 87.73 131.09 87.59 131.09"/><polyline class="cls-80" points="87.66 98.97 87.86 98.97 87.86 131.09 87.66 131.09"/><polyline class="cls-81" points="87.8 98.97 88.01 98.97 88.01 131.09 87.8 131.09"/><polyline class="cls-82" points="87.94 98.97 88.15 98.97 88.15 131.09 87.94 131.09"/><polyline class="cls-83" points="88.08 98.97 88.23 98.97 88.23 131.09 88.08 131.09"/><polyline class="cls-84" points="88.23 98.97 88.36 98.97 88.36 131.09 88.23 131.09"/><polyline class="cls-85" points="88.29 98.97 88.5 98.97 88.5 131.09 88.29 131.09"/><polyline class="cls-86" points="88.43 98.97 88.64 98.97 88.64 131.09 88.43 131.09"/><polyline class="cls-87" points="88.58 98.97 88.78 98.97 88.78 131.09 88.58 131.09"/><polyline class="cls-88" points="88.71 98.97 88.85 98.97 88.85 131.09 88.71 131.09"/><polyline class="cls-89" points="88.85 98.97 88.99 98.97 88.99 131.09 88.85 131.09"/><polyline class="cls-90" points="88.93 98.97 89.13 98.97 89.13 131.09 88.93 131.09"/><polyline class="cls-91" points="89.06 98.97 89.28 98.97 89.28 131.09 89.06 131.09"/><polyline class="cls-92" points="89.2 98.97 89.41 98.97 89.41 131.09 89.2 131.09"/><polyline class="cls-93" points="89.34 98.97 89.48 98.97 89.48 131.09 89.34 131.09"/><polyline class="cls-94" points="89.41 98.97 89.63 98.97 89.63 131.09 89.41 131.09"/><polyline class="cls-95" points="89.55 98.97 89.76 98.97 89.76 131.09 89.55 131.09"/><polyline class="cls-96" points="89.7 98.97 89.9 98.97 89.9 131.09 89.7 131.09"/><polyline class="cls-97" points="89.83 98.97 89.97 98.97 89.97 131.09 89.83 131.09"/><polyline class="cls-98" points="89.97 98.97 90.12 98.97 90.12 131.09 89.97 131.09"/><polyline class="cls-99" points="90.05 98.97 90.25 98.97 90.25 131.09 90.05 131.09"/><polyline class="cls-100" points="90.18 98.97 90.4 98.97 90.4 131.09 90.18 131.09"/><polyline class="cls-101" points="90.32 98.97 90.53 98.97 90.53 131.09 90.32 131.09"/><polyline class="cls-102" points="90.47 98.97 90.6 98.97 90.6 131.09 90.47 131.09"/><polyline class="cls-103" points="90.6 98.97 90.75 98.97 90.75 131.09 90.6 131.09"/><polyline class="cls-104" points="90.67 98.97 90.88 98.97 90.88 131.09 90.67 131.09"/><polyline class="cls-105" points="90.82 98.97 91.02 98.97 91.02 131.09 90.82 131.09"/><polyline class="cls-106" points="90.95 98.97 91.17 98.97 91.17 131.09 90.95 131.09"/><polyline class="cls-107" points="91.1 98.97 91.24 98.97 91.24 131.09 91.1 131.09"/><polyline class="cls-108" points="91.17 98.97 91.37 98.97 91.37 131.09 91.17 131.09"/><polyline class="cls-109" points="91.3 98.97 91.52 98.97 91.52 131.09 91.3 131.09"/><polyline class="cls-110" points="91.45 98.97 91.65 98.97 91.65 131.09 91.45 131.09"/><polyline class="cls-111" points="91.59 98.97 91.8 98.97 91.8 131.09 91.59 131.09"/><polyline class="cls-111" points="91.72 98.97 91.87 98.97 91.87 131.09 91.72 131.09"/><polyline class="cls-111" points="91.8 98.97 92 98.97 92 131.09 91.8 131.09"/><polyline class="cls-111" points="91.94 98.97 92.14 98.97 92.14 131.09 91.94 131.09"/><polyline class="cls-111" points="92.07 98.97 92.29 98.97 92.29 131.09 92.07 131.09"/><polyline class="cls-112" points="92.22 98.97 92.36 98.97 92.36 131.09 92.22 131.09"/><polyline class="cls-113" points="92.36 98.97 92.5 98.97 92.5 131.09 92.36 131.09"/><polyline class="cls-113" points="92.42 98.97 92.64 98.97 92.64 131.09 92.42 131.09"/><polyline class="cls-113" points="92.57 98.97 92.78 98.97 92.78 131.09 92.57 131.09"/><polyline class="cls-113" points="92.71 98.97 92.92 98.97 92.92 131.09 92.71 131.09"/><polyline class="cls-113" points="92.84 98.97 92.99 98.97 92.99 131.09 92.84 131.09"/><polyline class="cls-113" points="92.99 98.97 93.13 98.97 93.13 131.09 92.99 131.09"/><polyline class="cls-113" points="93.06 98.97 93.27 98.97 93.27 131.09 93.06 131.09"/><polyline class="cls-113" points="93.19 98.97 93.41 98.97 93.41 131.09 93.19 131.09"/><polyline class="cls-114" points="93.34 98.97 93.54 98.97 93.54 131.09 93.34 131.09"/><polyline class="cls-114" points="93.48 98.97 93.62 98.97 93.62 131.09 93.48 131.09"/><polyline class="cls-114" points="93.54 98.97 93.76 98.97 93.76 131.09 93.54 131.09"/><polyline class="cls-114" points="93.69 98.97 93.89 98.97 93.89 131.09 93.69 131.09"/><polyline class="cls-115" points="93.83 98.97 94.04 98.97 94.04 131.09 93.83 131.09"/><polyline class="cls-115" points="93.97 98.97 94.18 98.97 94.18 131.09 93.97 131.09"/><polyline class="cls-115" points="94.11 98.97 94.26 98.97 94.26 131.09 94.11 131.09"/><polyline class="cls-115" points="94.18 98.97 94.39 98.97 94.39 131.09 94.18 131.09"/><polyline class="cls-115" points="94.32 98.97 94.53 98.97 94.53 131.09 94.32 131.09"/><polyline class="cls-115" points="94.46 98.97 94.68 98.97 94.68 131.09 94.46 131.09"/><polyline class="cls-116" points="94.61 98.97 94.74 98.97 94.74 131.09 94.61 131.09"/><polyline class="cls-116" points="94.74 98.97 94.88 98.97 94.88 131.09 94.74 131.09"/><polyline class="cls-116" points="94.81 98.97 95.02 98.97 95.02 131.09 94.81 131.09"/><polyline class="cls-116" points="94.95 98.97 95.16 98.97 95.16 131.09 94.95 131.09"/><polyline class="cls-116" points="95.09 98.97 95.31 98.97 95.31 131.09 95.09 131.09"/><polyline class="cls-117" points="95.23 98.97 95.38 98.97 95.38 131.09 95.23 131.09"/><polyline class="cls-117" points="95.38 98.97 95.51 98.97 95.51 131.09 95.38 131.09"/><polyline class="cls-117" points="95.44 98.97 95.66 98.97 95.66 131.09 95.44 131.09"/><polyline class="cls-117" points="95.58 98.97 95.8 98.97 95.8 131.09 95.58 131.09"/><polyline class="cls-118" points="95.73 98.97 95.93 98.97 95.93 131.09 95.73 131.09"/><polyline class="cls-118" points="95.86 98.97 96 98.97 96 131.09 95.86 131.09"/><polyline class="cls-118" points="95.93 98.97 96.15 98.97 96.15 131.09 95.93 131.09"/><polyline class="cls-118" points="96.08 98.97 96.28 98.97 96.28 131.09 96.08 131.09"/><polyline class="cls-118" points="96.21 98.97 96.43 98.97 96.43 131.09 96.21 131.09"/><polyline class="cls-118" points="96.35 98.97 96.56 98.97 96.56 131.09 96.35 131.09"/><polyline class="cls-118" points="96.5 98.97 96.63 98.97 96.63 131.09 96.5 131.09"/><polyline class="cls-118" points="96.56 98.97 96.78 98.97 96.78 131.09 96.56 131.09"/><polyline class="cls-119" points="96.7 98.97 96.92 98.97 96.92 131.09 96.7 131.09"/><polyline class="cls-120" points="96.85 98.97 97.05 98.97 97.05 131.09 96.85 131.09"/><polyline class="cls-120" points="96.98 98.97 97.13 98.97 97.13 131.09 96.98 131.09"/><polyline class="cls-120" points="97.13 98.97 97.27 98.97 97.27 131.09 97.13 131.09"/><polyline class="cls-120" points="97.2 98.97 97.4 98.97 97.4 131.09 97.2 131.09"/><polyline class="cls-120" points="97.33 98.97 100.28 98.97 100.28 131.09 97.33 131.09"/></g><path class="cls-3" d="M42.85,143.65,84.46,93.94l18.09-21.71c2.74-3.23,10-6.59,16-2.59L87.68,49.72Q76.43,43,65.81,55L44.74,80.11l-25.18,30c-4.49,5.75-13.6,4.14-13.67-2.59v20.33a18.17,18.17,0,0,0,8.44,14l4.56,3c13.26,8.34,20.69,2.72,23.91-1.12Z"/><g class="cls-121"><polyline class="cls-3" points="37.45 9.84 37.45 9.77 -31.76 72.74 -31.76 72.81"/><polyline class="cls-3" points="37.31 9.71 37.66 10.05 -31.63 73.03 -31.91 72.68"/><polyline class="cls-4" points="37.52 9.91 37.87 10.26 -31.41 73.23 -31.69 72.88"/><polyline class="cls-5" points="37.73 10.13 38.01 10.48 -31.21 73.45 -31.49 73.09"/><polyline class="cls-5" points="37.94 10.33 38.22 10.68 -30.99 73.66 -31.28 73.31"/><polyline class="cls-5" points="38.14 10.54 38.43 10.89 -30.79 73.87 -31.06 73.51"/><polyline class="cls-5" points="38.36 10.83 38.64 11.1 -30.57 74.08 -30.93 73.8"/><polyline class="cls-5" points="38.57 11.03 38.85 11.31 -30.36 74.28 -30.71 74"/><polyline class="cls-5" points="38.71 11.25 39.06 11.6 -30.22 74.5 -30.51 74.22"/><polyline class="cls-5" points="38.92 11.45 39.28 11.8 -30.02 74.78 -30.29 74.43"/><polyline class="cls-6" points="39.13 11.66 39.41 12.01 -29.8 74.99 -30.09 74.64"/><polyline class="cls-6" points="39.34 11.88 39.63 12.22 -29.59 75.2 -29.87 74.85"/><polyline class="cls-6" points="39.55 12.08 39.83 12.43 -29.39 75.4 -29.74 75.05"/><polyline class="cls-7" points="39.76 12.37 40.05 12.65 -29.17 75.62 -29.52 75.27"/><polyline class="cls-7" points="39.98 12.57 40.25 12.85 -29.04 75.83 -29.32 75.55"/><polyline class="cls-7" points="40.11 12.78 40.46 13.14 -28.82 76.04 -29.1 75.77"/><polyline class="cls-7" points="40.33 13 40.68 13.35 -28.62 76.32 -28.89 75.97"/><polyline class="cls-7" points="40.53 13.2 40.81 13.56 -28.4 76.53 -28.68 76.17"/><polyline class="cls-8" points="40.75 13.42 41.03 13.77 -28.19 76.74 -28.47 76.39"/><polyline class="cls-8" points="40.95 13.62 41.23 13.97 -27.98 76.95 -28.33 76.6"/><polyline class="cls-8" points="41.16 13.9 41.45 14.19 -27.77 77.16 -28.12 76.81"/><polyline class="cls-8" points="41.38 14.12 41.65 14.4 -27.63 77.37 -27.91 77.09"/><polyline class="cls-9" points="41.52 14.32 41.87 14.67 -27.42 77.59 -27.7 77.3"/><polyline class="cls-9" points="41.73 14.54 42.08 14.89 -27.2 77.86 -27.5 77.51"/><polyline class="cls-9" points="41.93 14.74 42.22 15.1 -27 78.07 -27.28 77.72"/><polyline class="cls-9" points="42.15 14.96 42.42 15.31 -26.78 78.29 -27.07 77.94"/><polyline class="cls-10" points="42.35 15.17 42.64 15.52 -26.58 78.49 -26.93 78.14"/><polyline class="cls-10" points="42.57 15.46 42.85 15.73 -26.37 78.71 -26.72 78.36"/><polyline class="cls-10" points="42.77 15.66 43.06 15.94 -26.23 78.91 -26.51 78.64"/><polyline class="cls-10" points="42.92 15.87 43.27 16.22 -26.01 79.13 -26.3 78.84"/><polyline class="cls-10" points="43.12 16.08 43.47 16.43 -25.81 79.41 -26.08 79.06"/><polyline class="cls-10" points="43.34 16.29 43.62 16.64 -25.6 79.61 -25.88 79.26"/><polyline class="cls-122" points="43.55 16.51 43.84 16.86 -25.38 79.83 -25.66 79.48"/><polyline class="cls-122" points="43.76 16.71 44.04 17.06 -25.18 80.03 -25.53 79.69"/><polyline class="cls-11" points="43.97 16.99 44.25 17.28 -24.96 80.25 -25.31 79.9"/><polyline class="cls-11" points="44.19 17.2 44.46 17.48 -24.82 80.46 -25.11 80.18"/><polyline class="cls-11" points="44.32 17.41 44.67 17.76 -24.61 80.67 -24.89 80.38"/><polyline class="cls-11" points="44.53 17.63 44.88 17.98 -24.41 80.95 -24.68 80.6"/><polyline class="cls-11" points="44.74 17.83 45.02 18.18 -24.19 81.16 -24.48 80.81"/><polyline class="cls-11" points="44.95 18.05 45.23 18.4 -23.98 81.37 -24.26 81.02"/><polyline class="cls-11" points="45.16 18.25 45.44 18.6 -23.77 81.58 -24.12 81.23"/><polyline class="cls-123" points="45.37 18.53 45.66 18.82 -23.56 81.8 -23.91 81.43"/><polyline class="cls-124" points="45.59 18.75 45.86 19.03 -23.42 82 -23.71 81.72"/><polyline class="cls-124" points="45.73 18.95 46.08 19.24 -23.21 82.2 -23.49 81.93"/><polyline class="cls-124" points="45.93 19.17 46.28 19.52 -23 82.49 -23.29 82.14"/><polyline class="cls-124" points="46.14 19.38 46.43 19.73 -22.79 82.7 -23.07 82.35"/><polyline class="cls-124" points="46.36 19.59 46.63 19.94 -22.59 82.92 -22.86 82.57"/><polyline class="cls-124" points="46.56 19.8 46.85 20.15 -22.37 83.12 -22.72 82.77"/><polyline class="cls-124" points="46.78 20 47.06 20.36 -22.16 83.33 -22.51 82.99"/><polyline class="cls-13" points="46.98 20.29 47.26 20.57 -22.02 83.54 -22.3 83.27"/><polyline class="cls-13" points="47.13 20.5 47.48 20.77 -21.8 83.75 -22.09 83.47"/><polyline class="cls-14" points="47.33 20.71 47.68 21.06 -21.6 84.04 -21.88 83.69"/><polyline class="cls-14" points="47.55 20.92 47.83 21.27 -21.39 84.24 -21.67 83.89"/><polyline class="cls-14" points="47.76 21.14 48.03 21.49 -21.18 84.46 -21.45 84.11"/><polyline class="cls-14" points="47.97 21.34 48.25 21.69 -20.97 84.67 -21.32 84.31"/><polyline class="cls-14" points="48.18 21.55 48.45 21.9 -20.75 84.88 -21.1 84.52"/><polyline class="cls-14" points="48.38 21.84 48.67 22.11 -20.62 85.09 -20.9 84.81"/><polyline class="cls-15" points="48.53 22.04 48.88 22.32 -20.4 85.29 -20.69 85.02"/><polyline class="cls-15" points="48.74 22.26 49.09 22.61 -20.2 85.58 -20.48 85.22"/><polyline class="cls-15" points="48.95 22.46 49.23 22.81 -19.98 85.79 -20.27 85.44"/><polyline class="cls-15" points="49.15 22.67 49.44 23.02 -19.78 86 -20.05 85.64"/><polyline class="cls-16" points="49.37 22.89 49.65 23.23 -19.56 86.21 -19.91 85.86"/><polyline class="cls-16" points="49.58 23.09 49.87 23.44 -19.36 86.41 -19.7 86.06"/><polyline class="cls-16" points="49.79 23.38 50.07 23.66 -19.21 86.63 -19.5 86.35"/><polyline class="cls-16" points="49.93 23.59 50.29 23.86 -19 86.84 -19.28 86.56"/><polyline class="cls-17" points="50.14 23.79 50.49 24.15 -18.79 87.13 -19.08 86.78"/><polyline class="cls-17" points="50.35 24.01 50.64 24.36 -18.58 87.33 -18.86 86.98"/><polyline class="cls-17" points="50.56 24.21 50.84 24.56 -18.38 87.53 -18.66 87.19"/><polyline class="cls-125" points="50.77 24.43 51.05 24.78 -18.16 87.75 -18.51 87.4"/><polyline class="cls-125" points="50.99 24.63 51.26 24.98 -17.96 87.96 -18.31 87.61"/><polyline class="cls-126" points="51.19 24.91 51.47 25.2 -17.81 88.17 -18.09 87.9"/><polyline class="cls-126" points="51.34 25.13 51.69 25.41 -17.61 88.38 -17.88 88.1"/><polyline class="cls-126" points="51.54 25.33 51.89 25.68 -17.39 88.67 -17.67 88.31"/><polyline class="cls-127" points="51.76 25.55 52.04 25.9 -17.18 88.87 -17.46 88.52"/><polyline class="cls-127" points="51.96 25.75 52.24 26.11 -16.97 89.08 -17.24 88.73"/><polyline class="cls-127" points="52.17 25.97 52.46 26.32 -16.76 89.3 -17.11 88.95"/><polyline class="cls-127" points="52.39 26.18 52.66 26.53 -16.55 89.5 -16.89 89.15"/><polyline class="cls-127" points="52.59 26.45 52.88 26.74 -16.41 89.72 -16.69 89.37"/><polyline class="cls-127" points="52.74 26.67 53.09 26.95 -16.2 89.92 -16.47 89.65"/><polyline class="cls-127" points="52.94 26.88 53.3 27.23 -15.99 90.14 -16.27 89.85"/><polyline class="cls-21" points="53.16 27.09 53.44 27.44 -15.77 90.42 -16.06 90.07"/><polyline class="cls-21" points="53.36 27.3 53.65 27.65 -15.57 90.62 -15.85 90.27"/><polyline class="cls-21" points="53.58 27.52 53.86 27.87 -15.35 90.84 -15.71 90.49"/><polyline class="cls-21" points="53.78 27.72 54.07 28.07 -15.15 91.04 -15.5 90.69"/><polyline class="cls-21" points="54 28 54.28 28.29 -15 91.26 -15.29 90.91"/><polyline class="cls-21" points="54.13 28.22 54.48 28.49 -14.8 91.47 -15.07 91.19"/><polyline class="cls-21" points="54.35 28.42 54.7 28.77 -14.58 91.68 -14.87 91.39"/><polyline class="cls-21" points="54.56 28.64 54.85 28.99 -14.37 91.96 -14.65 91.61"/><polyline class="cls-22" points="54.77 28.84 55.05 29.19 -14.17 92.17 -14.45 91.82"/><polyline class="cls-22" points="54.98 29.06 55.26 29.41 -13.95 92.38 -14.3 92.03"/><polyline class="cls-23" points="55.18 29.27 55.47 29.61 -13.75 92.59 -14.1 92.24"/><polyline class="cls-23" points="55.4 29.54 55.68 29.83 -13.6 92.81 -13.88 92.44"/><polyline class="cls-23" points="55.55 29.76 55.9 30.04 -13.4 93.01 -13.68 92.73"/><polyline class="cls-23" points="55.75 29.96 56.1 30.31 -13.18 93.22 -13.46 92.94"/><polyline class="cls-23" points="55.96 30.18 56.24 30.53 -12.97 93.5 -13.25 93.16"/><polyline class="cls-23" points="56.17 30.39 56.45 30.74 -12.76 93.71 -13.05 93.36"/><polyline class="cls-128" points="56.38 30.6 56.67 30.95 -12.55 93.93 -12.9 93.56"/><polyline class="cls-128" points="56.59 30.81 56.87 31.16 -12.34 94.13 -12.69 93.78"/><polyline class="cls-128" points="56.8 31.09 57.09 31.38 -12.2 94.34 -12.48 93.99"/><polyline class="cls-129" points="56.94 31.3 57.29 31.58 -11.99 94.55 -12.28 94.28"/><polyline class="cls-129" points="57.15 31.51 57.5 31.86 -11.78 94.76 -12.06 94.48"/><polyline class="cls-129" points="57.37 31.73 57.64 32.08 -11.56 95.05 -11.85 94.7"/><polyline class="cls-129" points="57.57 31.93 57.86 32.28 -11.36 95.25 -11.64 94.9"/><polyline class="cls-129" points="57.79 32.13 58.07 32.5 -11.15 95.47 -11.5 95.12"/><polyline class="cls-130" points="57.99 32.35 58.27 32.7 -10.94 95.67 -11.29 95.33"/><polyline class="cls-130" points="58.21 32.63 58.49 32.91 -10.79 95.88 -11.08 95.53"/><polyline class="cls-130" points="58.34 32.85 58.69 33.12 -10.59 96.1 -10.87 95.82"/><polyline class="cls-130" points="58.56 33.05 58.91 33.4 -10.38 96.3 -10.66 96.03"/><polyline class="cls-130" points="58.77 33.27 59.04 33.62 -10.17 96.59 -10.44 96.23"/><polyline class="cls-131" points="58.98 33.47 59.26 33.82 -9.96 96.8 -10.24 96.45"/><polyline class="cls-131" points="59.19 33.68 59.47 34.03 -9.74 97.01 -10.09 96.65"/><polyline class="cls-131" points="59.39 33.9 59.68 34.24 -9.54 97.22 -9.89 96.87"/><polyline class="cls-132" points="59.61 34.1 59.89 34.45 -9.39 97.42 -9.67 97.07"/><polyline class="cls-132" points="59.74 34.39 60.1 34.67 -9.19 97.64 -9.47 97.36"/><polyline class="cls-132" points="59.96 34.59 60.31 34.87 -8.97 97.85 -9.26 97.57"/><polyline class="cls-132" points="60.16 34.8 60.45 35.15 -8.77 98.14 -9.04 97.79"/><polyline class="cls-132" points="60.38 35.02 60.66 35.37 -8.55 98.34 -8.84 97.99"/><polyline class="cls-132" points="60.59 35.22 60.88 35.57 -8.35 98.55 -8.69 98.2"/><polyline class="cls-133" points="60.8 35.44 61.08 35.79 -8.13 98.76 -8.49 98.41"/><polyline class="cls-29" points="61.01 35.64 61.29 35.99 -8 98.97 -8.27 98.62"/><polyline class="cls-29" points="61.15 35.92 61.5 36.21 -7.78 99.18 -8.07 98.91"/><polyline class="cls-29" points="61.36 36.14 61.71 36.42 -7.57 99.39 -7.85 99.11"/><polyline class="cls-29" points="61.58 36.34 61.85 36.7 -7.37 99.67 -7.64 99.32"/><polyline class="cls-134" points="61.78 36.56 62.06 36.91 -7.15 99.88 -7.43 99.53"/><polyline class="cls-134" points="62 36.77 62.27 37.12 -6.95 100.09 -7.29 99.74"/><polyline class="cls-135" points="62.2 36.98 62.48 37.33 -6.73 100.31 -7.08 99.96"/><polyline class="cls-135" points="62.35 37.19 62.7 37.54 -6.6 100.51 -6.87 100.16"/><polyline class="cls-135" points="62.55 37.47 62.9 37.75 -6.38 100.73 -6.66 100.44"/><polyline class="cls-136" points="62.77 37.68 63.05 37.96 -6.17 100.93 -6.45 100.66"/><polyline class="cls-137" points="62.97 37.89 63.25 38.24 -5.96 101.21 -6.25 100.86"/><polyline class="cls-138" points="63.19 38.1 63.47 38.45 -5.75 101.43 -6.03 101.08"/><polyline class="cls-138" points="63.4 38.31 63.67 38.66 -5.54 101.63 -5.88 101.28"/><polyline class="cls-139" points="63.6 38.53 63.89 38.88 -5.33 101.85 -5.68 101.5"/><polyline class="cls-140" points="63.75 38.73 64.1 39.08 -5.18 102.06 -5.47 101.7"/><polyline class="cls-140" points="63.95 39.01 64.3 39.3 -4.98 102.27 -5.26 101.98"/><polyline class="cls-140" points="64.17 39.23 64.44 39.5 -4.76 102.48 -5.05 102.2"/><polyline class="cls-141" points="64.37 39.43 64.66 39.78 -4.56 102.75 -4.83 102.4"/><polyline class="cls-141" points="64.59 39.65 64.87 40 -4.35 102.97 -4.63 102.62"/><polyline class="cls-141" points="64.8 39.85 65.07 40.2 -4.14 103.18 -4.49 102.83"/><polyline class="cls-142" points="65.01 40.07 65.29 40.42 -3.93 103.39 -4.28 103.04"/><polyline class="cls-142" points="65.14 40.27 65.49 40.63 -3.79 103.6 -4.06 103.25"/><polyline class="cls-142" points="65.36 40.55 65.71 40.84 -3.58 103.81 -3.86 103.45"/><polyline class="cls-143" points="65.57 40.77 65.84 41.05 -3.36 104.02 -3.64 103.74"/><polyline class="cls-144" points="65.78 40.97 66.06 41.32 -3.16 104.22 -3.44 103.95"/><polyline class="cls-145" points="65.99 41.19 66.27 41.54 -2.94 104.52 -3.29 104.17"/><polyline class="cls-146" points="66.21 41.4 66.48 41.75 -2.74 104.72 -3.09 104.37"/><polyline class="cls-147" points="66.41 41.61 66.69 41.96 -2.59 104.94 -2.87 104.58"/><polyline class="cls-147" points="66.56 41.82 66.91 42.17 -2.39 105.14 -2.67 104.79"/><polyline class="cls-148" points="66.76 42.1 67.11 42.38 -2.17 105.35 -2.46 105"/><polyline class="cls-148" points="66.98 42.31 67.25 42.59 -1.97 105.56 -2.24 105.29"/><polyline class="cls-149" points="67.18 42.52 67.46 42.87 -1.75 105.77 -2.04 105.49"/><polyline class="cls-150" points="67.39 42.73 67.68 43.09 -1.54 106.06 -1.89 105.71"/><polyline class="cls-150" points="67.61 42.94 67.88 43.29 -1.34 106.26 -1.69 105.91"/><polyline class="cls-47" points="67.81 43.15 68.09 43.51 -1.19 106.47 -1.47 106.13"/><polyline class="cls-151" points="67.95 43.36 68.3 43.71 -0.98 106.69 -1.27 106.34"/><polyline class="cls-151" points="68.16 43.64 68.51 43.92 -0.77 106.89 -1.05 106.54"/><polyline class="cls-151" points="68.38 43.86 68.65 44.13 -0.57 107.11 -0.84 106.83"/><polyline class="cls-152" points="68.58 44.06 68.86 44.41 -0.35 107.31 -0.63 107.03"/><polyline class="cls-152" points="68.8 44.27 69.08 44.63 -0.14 107.6 -0.49 107.25"/><polyline class="cls-153" points="69 44.48 69.28 44.83 0.07 107.81 -0.28 107.46"/><polyline class="cls-50" points="69.22 44.69 69.5 45.04 0.2 108.02 -0.07 107.66"/><polyline class="cls-50" points="69.35 44.91 69.7 45.26 0.42 108.23 0.14 107.88"/><polyline class="cls-51" points="69.57 45.18 69.92 45.46 0.63 108.43 0.35 108.08"/><polyline class="cls-51" points="69.78 45.4 70.05 45.68 0.84 108.65 0.56 108.36"/><polyline class="cls-154" points="69.99 45.6 70.27 45.95 1.05 108.86 0.77 108.58"/><polyline class="cls-155" points="70.2 45.81 70.47 46.16 1.27 109.14 0.92 108.78"/><polyline class="cls-155" points="70.4 46.03 70.69 46.38 1.47 109.35 1.12 109"/><polyline class="cls-155" points="70.62 46.23 70.9 46.58 1.62 109.56 1.33 109.21"/><polyline class="cls-156" points="70.76 46.45 71.11 46.8 1.82 109.77 1.54 109.42"/><polyline class="cls-156" points="70.97 46.73 71.32 47 2.04 109.98 1.75 109.63"/><polyline class="cls-55" points="71.17 46.93 71.46 47.22 2.24 110.19 1.97 109.92"/><polyline class="cls-55" points="71.39 47.15 71.67 47.5 2.45 110.4 2.17 110.12"/><polyline class="cls-157" points="71.6 47.35 71.87 47.7 2.67 110.68 2.32 110.33"/><polyline class="cls-158" points="71.81 47.57 72.09 47.92 2.87 110.89 2.52 110.54"/><polyline class="cls-158" points="72.02 47.78 72.3 48.13 3.02 111.1 2.74 110.75"/><polyline class="cls-159" points="72.16 47.99 72.51 48.34 3.22 111.32 2.94 110.97"/><polyline class="cls-160" points="72.37 48.2 72.72 48.55 3.44 111.52 3.16 111.17"/><polyline class="cls-161" points="72.58 48.48 72.86 48.77 3.64 111.74 3.37 111.45"/><polyline class="cls-162" points="72.79 48.69 73.07 48.97 3.86 111.94 3.58 111.67"/><polyline class="cls-163" points="73.01 48.9 73.28 49.25 4.06 112.22 3.71 111.87"/><polyline class="cls-164" points="73.21 49.11 73.49 49.46 4.28 112.44 3.93 112.09"/><polyline class="cls-165" points="73.42 49.32 73.71 49.67 4.41 112.64 4.14 112.29"/><polyline class="cls-166" points="73.56 49.54 73.91 49.89 4.63 112.86 4.35 112.51"/><polyline class="cls-167" points="73.78 49.74 74.13 50.09 4.84 113.06 4.56 112.72"/><polyline class="cls-168" points="73.98 50.02 74.26 50.31 5.05 113.28 4.76 112.99"/><polyline class="cls-169" points="74.19 50.24 74.48 50.51 5.26 113.49 4.98 113.21"/><polyline class="cls-170" points="74.41 50.44 74.68 50.79 5.47 113.76 5.11 113.41"/><polyline class="cls-171" points="74.61 50.66 74.9 51.01 5.68 113.98 5.33 113.63"/><polyline class="cls-171" points="74.83 50.86 75.11 51.21 5.83 114.19 5.54 113.84"/><polyline class="cls-172" points="74.96 51.08 75.32 51.43 6.03 114.4 5.75 114.05"/><polyline class="cls-173" points="75.18 51.28 75.53 51.63 6.25 114.61 5.96 114.26"/><polyline class="cls-174" points="75.38 51.56 75.67 51.85 6.45 114.81 6.17 114.54"/><polyline class="cls-79" points="75.6 51.78 75.88 52.06 6.66 115.03 6.38 114.75"/><polyline class="cls-175" points="75.81 51.98 76.09 52.33 6.87 115.31 6.53 114.96"/><polyline class="cls-176" points="76.02 52.2 76.3 52.55 7.08 115.53 6.73 115.17"/><polyline class="cls-177" points="76.23 52.41 76.5 52.76 7.22 115.73 6.95 115.38"/><polyline class="cls-81" points="76.37 52.62 76.72 52.97 7.43 115.95 7.15 115.58"/><polyline class="cls-82" points="76.58 52.83 76.93 53.18 7.65 116.15 7.37 115.8"/><polyline class="cls-178" points="76.79 53.11 77.07 53.4 7.85 116.37 7.57 116.08"/><polyline class="cls-83" points="77 53.32 77.28 53.6 8.07 116.57 7.79 116.3"/><polyline class="cls-84" points="77.2 53.53 77.49 53.88 8.27 116.85 7.92 116.5"/><polyline class="cls-179" points="77.42 53.74 77.7 54.09 8.49 117.07 8.14 116.71"/><polyline class="cls-179" points="77.63 53.95 77.92 54.3 8.62 117.27 8.35 116.92"/><polyline class="cls-180" points="77.77 54.16 78.12 54.52 8.84 117.48 8.56 117.13"/><polyline class="cls-86" points="77.99 54.37 78.34 54.72 9.04 117.69 8.77 117.35"/><polyline class="cls-86" points="78.19 54.65 78.47 54.93 9.26 117.9 8.97 117.62"/><polyline class="cls-87" points="78.4 54.87 78.69 55.14 9.47 118.12 9.19 117.84"/><polyline class="cls-181" points="78.61 55.07 78.89 55.42 9.67 118.32 9.32 118.05"/><polyline class="cls-181" points="78.82 55.28 79.11 55.64 9.89 118.61 9.54 118.26"/><polyline class="cls-182" points="79.04 55.49 79.31 55.84 10.03 118.82 9.74 118.47"/><polyline class="cls-183" points="79.17 55.7 79.52 56.05 10.24 119.02 9.96 118.67"/><polyline class="cls-184" points="79.39 55.92 79.74 56.27 10.46 119.24 10.17 118.89"/><polyline class="cls-185" points="79.59 56.19 79.87 56.47 10.66 119.44 10.38 119.09"/><polyline class="cls-91" points="79.81 56.41 80.09 56.69 10.87 119.66 10.59 119.38"/><polyline class="cls-186" points="80.01 56.62 80.16 56.76 10.87 119.73 10.73 119.59"/></g><g class="cls-187"><polyline class="cls-115" points="44.95 28.14 45.09 28.14 45.09 65.38 44.95 65.38"/><polyline class="cls-114" points="45.02 28.14 45.16 28.14 45.16 65.38 45.02 65.38"/><polyline class="cls-113" points="45.09 28.14 45.23 28.14 45.23 65.38 45.09 65.38"/><polyline class="cls-188" points="45.16 28.14 45.31 28.14 45.31 65.38 45.16 65.38"/><polyline class="cls-189" points="45.31 28.14 45.44 28.14 45.44 65.38 45.31 65.38"/><polyline class="cls-190" points="45.37 28.14 45.51 28.14 45.51 65.38 45.37 65.38"/><polyline class="cls-191" points="45.44 28.14 45.59 28.14 45.59 65.38 45.44 65.38"/><polyline class="cls-192" points="45.59 28.14 45.73 28.14 45.73 65.38 45.59 65.38"/><polyline class="cls-192" points="45.66 28.14 45.79 28.14 45.79 65.38 45.66 65.38"/><polyline class="cls-192" points="45.73 28.14 45.86 28.14 45.86 65.38 45.73 65.38"/><polyline class="cls-193" points="45.86 28.14 46.01 28.14 46.01 65.38 45.86 65.38"/><polyline class="cls-193" points="45.93 28.14 46.08 28.14 46.08 65.38 45.93 65.38"/><polyline class="cls-193" points="46.01 28.14 46.14 28.14 46.14 65.38 46.01 65.38"/><polyline class="cls-194" points="46.14 28.14 46.28 28.14 46.28 65.38 46.14 65.38"/><polyline class="cls-194" points="46.21 28.14 46.36 28.14 46.36 65.38 46.21 65.38"/><polyline class="cls-195" points="46.28 28.14 46.43 28.14 46.43 65.38 46.28 65.38"/><polyline class="cls-195" points="46.43 28.14 46.56 28.14 46.56 65.38 46.43 65.38"/><polyline class="cls-196" points="46.5 28.14 46.63 28.14 46.63 65.38 46.5 65.38"/><polyline class="cls-196" points="46.56 28.14 46.71 28.14 46.71 65.38 46.56 65.38"/><polyline class="cls-197" points="46.63 28.14 46.78 28.14 46.78 65.38 46.63 65.38"/><polyline class="cls-198" points="46.78 28.14 46.91 28.14 46.91 65.38 46.78 65.38"/><polyline class="cls-198" points="46.85 28.14 46.98 28.14 46.98 65.38 46.85 65.38"/><polyline class="cls-198" points="46.91 28.14 47.06 28.14 47.06 65.38 46.91 65.38"/><polyline class="cls-198" points="47.06 28.14 47.2 28.14 47.2 65.38 47.06 65.38"/><polyline class="cls-198" points="47.13 28.14 47.26 28.14 47.26 65.38 47.13 65.38"/><polyline class="cls-199" points="47.2 28.14 47.33 28.14 47.33 65.38 47.2 65.38"/><polyline class="cls-199" points="47.33 28.14 47.48 28.14 47.48 65.38 47.33 65.38"/><polyline class="cls-199" points="47.41 28.14 47.55 28.14 47.55 65.38 47.41 65.38"/><polyline class="cls-200" points="47.48 28.14 47.61 28.14 47.61 65.38 47.48 65.38"/><polyline class="cls-200" points="47.61 28.14 47.76 28.14 47.76 65.38 47.61 65.38"/><polyline class="cls-201" points="47.68 28.14 47.83 28.14 47.83 65.38 47.68 65.38"/><polyline class="cls-202" points="47.76 28.14 47.9 28.14 47.9 65.38 47.76 65.38"/><polyline class="cls-203" points="47.9 28.14 47.97 28.14 47.97 65.38 47.9 65.38"/><polyline class="cls-204" points="47.97 28.14 48.1 28.14 48.1 65.38 47.97 65.38"/><polyline class="cls-205" points="48.03 28.14 48.18 28.14 48.18 65.38 48.03 65.38"/><polyline class="cls-206" points="48.1 28.14 48.25 28.14 48.25 65.38 48.1 65.38"/><polyline class="cls-102" points="48.25 28.14 48.38 28.14 48.38 65.38 48.25 65.38"/><polyline class="cls-207" points="48.32 28.14 48.45 28.14 48.45 65.38 48.32 65.38"/><polyline class="cls-208" points="48.38 28.14 48.53 28.14 48.53 65.38 48.38 65.38"/><polyline class="cls-100" points="48.53 28.14 48.67 28.14 48.67 65.38 48.53 65.38"/><polyline class="cls-99" points="48.6 28.14 48.74 28.14 48.74 65.38 48.6 65.38"/><polyline class="cls-99" points="48.67 28.14 48.8 28.14 48.8 65.38 48.67 65.38"/><polyline class="cls-98" points="48.8 28.14 48.95 28.14 48.95 65.38 48.8 65.38"/><polyline class="cls-98" points="48.88 28.14 49.02 28.14 49.02 65.38 48.88 65.38"/><polyline class="cls-97" points="48.95 28.14 49.09 28.14 49.09 65.38 48.95 65.38"/><polyline class="cls-209" points="49.09 28.14 49.23 28.14 49.23 65.38 49.09 65.38"/><polyline class="cls-209" points="49.15 28.14 49.3 28.14 49.3 65.38 49.15 65.38"/><polyline class="cls-210" points="49.23 28.14 49.37 28.14 49.37 65.38 49.23 65.38"/><polyline class="cls-95" points="49.37 28.14 49.44 28.14 49.44 65.38 49.37 65.38"/><polyline class="cls-211" points="49.44 28.14 49.58 28.14 49.58 65.38 49.44 65.38"/><polyline class="cls-212" points="49.52 28.14 49.65 28.14 49.65 65.38 49.52 65.38"/><polyline class="cls-213" points="49.58 28.14 49.72 28.14 49.72 65.38 49.58 65.38"/><polyline class="cls-214" points="49.72 28.14 49.87 28.14 49.87 65.38 49.72 65.38"/><polyline class="cls-214" points="49.79 28.14 49.93 28.14 49.93 65.38 49.79 65.38"/><polyline class="cls-215" points="49.87 28.14 50 28.14 50 65.38 49.87 65.38"/><polyline class="cls-216" points="50 28.14 50.14 28.14 50.14 65.38 50 65.38"/><polyline class="cls-217" points="50.07 28.14 50.22 28.14 50.22 65.38 50.07 65.38"/><polyline class="cls-218" points="50.14 28.14 50.29 28.14 50.29 65.38 50.14 65.38"/><polyline class="cls-219" points="50.29 28.14 50.42 28.14 50.42 65.38 50.29 65.38"/><polyline class="cls-220" points="50.35 28.14 50.49 28.14 50.49 65.38 50.35 65.38"/><polyline class="cls-221" points="50.42 28.14 50.56 28.14 50.56 65.38 50.42 65.38"/><polyline class="cls-221" points="50.56 28.14 50.7 28.14 50.7 65.38 50.56 65.38"/><polyline class="cls-222" points="50.64 28.14 50.77 28.14 50.77 65.38 50.64 65.38"/><polyline class="cls-223" points="50.7 28.14 50.84 28.14 50.84 65.38 50.7 65.38"/><polyline class="cls-224" points="50.84 28.14 50.91 28.14 50.91 65.38 50.84 65.38"/><polyline class="cls-225" points="50.91 28.14 51.05 28.14 51.05 65.38 50.91 65.38"/><polyline class="cls-85" points="50.99 28.14 51.12 28.14 51.12 65.38 50.99 65.38"/><polyline class="cls-84" points="51.05 28.14 51.19 28.14 51.19 65.38 51.05 65.38"/><polyline class="cls-226" points="51.19 28.14 51.34 28.14 51.34 65.38 51.19 65.38"/><polyline class="cls-227" points="51.26 28.14 51.4 28.14 51.4 65.38 51.26 65.38"/><polyline class="cls-227" points="51.34 28.14 51.47 28.14 51.47 65.38 51.34 65.38"/><polyline class="cls-82" points="51.47 28.14 51.61 28.14 51.61 65.38 51.47 65.38"/><polyline class="cls-81" points="51.54 28.14 51.69 28.14 51.69 65.38 51.54 65.38"/><polyline class="cls-81" points="51.61 28.14 51.76 28.14 51.76 65.38 51.61 65.38"/><polyline class="cls-228" points="51.76 28.14 51.89 28.14 51.89 65.38 51.76 65.38"/><polyline class="cls-80" points="51.82 28.14 51.96 28.14 51.96 65.38 51.82 65.38"/><polyline class="cls-79" points="51.89 28.14 52.04 28.14 52.04 65.38 51.89 65.38"/><polyline class="cls-229" points="52.04 28.14 52.17 28.14 52.17 65.38 52.04 65.38"/><polyline class="cls-78" points="52.11 28.14 52.24 28.14 52.24 65.38 52.11 65.38"/><polyline class="cls-230" points="52.17 28.14 52.31 28.14 52.31 65.38 52.17 65.38"/><polyline class="cls-230" points="52.31 28.14 52.39 28.14 52.39 65.38 52.31 65.38"/><polyline class="cls-231" points="52.39 28.14 52.53 28.14 52.53 65.38 52.39 65.38"/><polyline class="cls-232" points="52.46 28.14 52.59 28.14 52.59 65.38 52.46 65.38"/><polyline class="cls-75" points="52.53 28.14 52.66 28.14 52.66 65.38 52.53 65.38"/><polyline class="cls-233" points="52.66 28.14 52.81 28.14 52.81 65.38 52.66 65.38"/><polyline class="cls-73" points="52.74 28.14 52.88 28.14 52.88 65.38 52.74 65.38"/><polyline class="cls-71" points="52.81 28.14 52.94 28.14 52.94 65.38 52.81 65.38"/><polyline class="cls-234" points="52.94 28.14 53.09 28.14 53.09 65.38 52.94 65.38"/><polyline class="cls-235" points="53.01 28.14 53.16 28.14 53.16 65.38 53.01 65.38"/><polyline class="cls-236" points="53.09 28.14 53.23 28.14 53.23 65.38 53.09 65.38"/><polyline class="cls-236" points="53.23 28.14 53.36 28.14 53.36 65.38 53.23 65.38"/><polyline class="cls-236" points="53.3 28.14 53.44 28.14 53.44 65.38 53.3 65.38"/><polyline class="cls-67" points="53.36 28.14 53.51 28.14 53.51 65.38 53.36 65.38"/><polyline class="cls-67" points="53.51 28.14 53.65 28.14 53.65 65.38 53.51 65.38"/><polyline class="cls-67" points="53.58 28.14 53.71 28.14 53.71 65.38 53.58 65.38"/><polyline class="cls-67" points="53.65 28.14 53.78 28.14 53.78 65.38 53.65 65.38"/><polyline class="cls-66" points="53.78 28.14 53.86 28.14 53.86 65.38 53.78 65.38"/><polyline class="cls-66" points="53.86 28.14 54 28.14 54 65.38 53.86 65.38"/><polyline class="cls-66" points="53.93 28.14 54.07 28.14 54.07 65.38 53.93 65.38"/><polyline class="cls-237" points="54 28.14 54.13 28.14 54.13 65.38 54 65.38"/><polyline class="cls-64" points="54.13 28.14 54.28 28.14 54.28 65.38 54.13 65.38"/><polyline class="cls-64" points="54.21 28.14 54.35 28.14 54.35 65.38 54.21 65.38"/><polyline class="cls-64" points="54.28 28.14 54.42 28.14 54.42 65.38 54.28 65.38"/><polyline class="cls-238" points="54.42 28.14 54.56 28.14 54.56 65.38 54.42 65.38"/><polyline class="cls-239" points="54.48 28.14 54.63 28.14 54.63 65.38 54.48 65.38"/><polyline class="cls-239" points="54.56 28.14 54.7 28.14 54.7 65.38 54.56 65.38"/><polyline class="cls-239" points="54.7 28.14 54.85 28.14 54.85 65.38 54.7 65.38"/><polyline class="cls-239" points="54.77 28.14 54.91 28.14 54.91 65.38 54.77 65.38"/><polyline class="cls-59" points="54.85 28.14 54.98 28.14 54.98 65.38 54.85 65.38"/><polyline class="cls-59" points="54.98 28.14 55.12 28.14 55.12 65.38 54.98 65.38"/><polyline class="cls-59" points="55.05 28.14 55.18 28.14 55.18 65.38 55.05 65.38"/><polyline class="cls-58" points="55.12 28.14 55.26 28.14 55.26 65.38 55.12 65.38"/><polyline class="cls-58" points="55.26 28.14 55.33 28.14 55.33 65.38 55.26 65.38"/><polyline class="cls-240" points="55.33 28.14 55.47 28.14 55.47 65.38 55.33 65.38"/><polyline class="cls-240" points="55.4 28.14 55.55 28.14 55.55 65.38 55.4 65.38"/><polyline class="cls-57" points="55.47 28.14 55.61 28.14 55.61 65.38 55.47 65.38"/><polyline class="cls-57" points="55.61 28.14 55.75 28.14 55.75 65.38 55.61 65.38"/><polyline class="cls-57" points="55.68 28.14 55.82 28.14 55.82 65.38 55.68 65.38"/><polyline class="cls-241" points="55.75 28.14 55.9 28.14 55.9 65.38 55.75 65.38"/><polyline class="cls-56" points="55.9 28.14 56.03 28.14 56.03 65.38 55.9 65.38"/><polyline class="cls-56" points="55.96 28.14 56.1 28.14 56.1 65.38 55.96 65.38"/><polyline class="cls-56" points="56.03 28.14 56.17 28.14 56.17 65.38 56.03 65.38"/><polyline class="cls-242" points="56.17 28.14 56.32 28.14 56.32 65.38 56.17 65.38"/><polyline class="cls-54" points="56.24 28.14 56.38 28.14 56.38 65.38 56.24 65.38"/><polyline class="cls-54" points="56.32 28.14 56.45 28.14 56.45 65.38 56.32 65.38"/><polyline class="cls-54" points="56.45 28.14 56.59 28.14 56.59 65.38 56.45 65.38"/><polyline class="cls-54" points="56.52 28.14 56.67 28.14 56.67 65.38 56.52 65.38"/><polyline class="cls-53" points="56.59 28.14 56.73 28.14 56.73 65.38 56.59 65.38"/><polyline class="cls-53" points="56.73 28.14 56.8 28.14 56.8 65.38 56.73 65.38"/><polyline class="cls-53" points="56.8 28.14 56.94 28.14 56.94 65.38 56.8 65.38"/><polyline class="cls-53" points="56.87 28.14 57.02 28.14 57.02 65.38 56.87 65.38"/><polyline class="cls-53" points="56.94 28.14 57.09 28.14 57.09 65.38 56.94 65.38"/><polyline class="cls-52" points="57.09 28.14 57.22 28.14 57.22 65.38 57.09 65.38"/><polyline class="cls-52" points="57.15 28.14 57.29 28.14 57.29 65.38 57.15 65.38"/><polyline class="cls-52" points="57.22 28.14 57.37 28.14 57.37 65.38 57.22 65.38"/><polyline class="cls-52" points="57.37 28.14 57.5 28.14 57.5 65.38 57.37 65.38"/><polyline class="cls-52" points="57.44 28.14 57.57 28.14 57.57 65.38 57.44 65.38"/><polyline class="cls-51" points="57.5 28.14 57.64 28.14 57.64 65.38 57.5 65.38"/><polyline class="cls-51" points="57.64 28.14 57.79 28.14 57.79 65.38 57.64 65.38"/><polyline class="cls-51" points="57.72 28.14 57.86 28.14 57.86 65.38 57.72 65.38"/><polyline class="cls-243" points="57.79 28.14 57.92 28.14 57.92 65.38 57.79 65.38"/><polyline class="cls-243" points="57.92 28.14 58.07 28.14 58.07 65.38 57.92 65.38"/><polyline class="cls-49" points="57.99 28.14 58.14 28.14 58.14 65.38 57.99 65.38"/><polyline class="cls-49" points="58.07 28.14 58.21 28.14 58.21 65.38 58.07 65.38"/><polyline class="cls-49" points="58.21 28.14 58.27 28.14 58.27 65.38 58.21 65.38"/><polyline class="cls-49" points="58.27 28.14 58.42 28.14 58.42 65.38 58.27 65.38"/><polyline class="cls-48" points="58.34 28.14 58.49 28.14 58.49 65.38 58.34 65.38"/><polyline class="cls-47" points="58.42 28.14 58.56 28.14 58.56 65.38 58.42 65.38"/><polyline class="cls-47" points="58.56 28.14 58.69 28.14 58.69 65.38 58.56 65.38"/><polyline class="cls-47" points="58.63 28.14 58.77 28.14 58.77 65.38 58.63 65.38"/><polyline class="cls-47" points="58.69 28.14 58.84 28.14 58.84 65.38 58.69 65.38"/><polyline class="cls-46" points="58.84 28.14 58.98 28.14 58.98 65.38 58.84 65.38"/><polyline class="cls-46" points="58.91 28.14 59.04 28.14 59.04 65.38 58.91 65.38"/><polyline class="cls-46" points="58.98 28.14 59.12 28.14 59.12 65.38 58.98 65.38"/><polyline class="cls-46" points="59.12 28.14 59.26 28.14 59.26 65.38 59.12 65.38"/><polyline class="cls-46" points="59.19 28.14 59.33 28.14 59.33 65.38 59.19 65.38"/><polyline class="cls-44" points="59.26 28.14 59.39 28.14 59.39 65.38 59.26 65.38"/><polyline class="cls-44" points="59.39 28.14 59.54 28.14 59.54 65.38 59.39 65.38"/><polyline class="cls-44" points="59.47 28.14 59.61 28.14 59.61 65.38 59.47 65.38"/><polyline class="cls-44" points="59.54 28.14 59.68 28.14 59.68 65.38 59.54 65.38"/><polyline class="cls-44" points="59.68 28.14 59.74 28.14 59.74 65.38 59.68 65.38"/><polyline class="cls-42" points="59.74 28.14 59.89 28.14 59.89 65.38 59.74 65.38"/><polyline class="cls-42" points="59.81 28.14 59.96 28.14 59.96 65.38 59.81 65.38"/><polyline class="cls-42" points="59.89 28.14 60.03 28.14 60.03 65.38 59.89 65.38"/><polyline class="cls-42" points="60.03 28.14 60.16 28.14 60.16 65.38 60.03 65.38"/><polyline class="cls-41" points="60.1 28.14 60.24 28.14 60.24 65.38 60.1 65.38"/><polyline class="cls-40" points="60.16 28.14 60.31 28.14 60.31 65.38 60.16 65.38"/><polyline class="cls-40" points="60.31 28.14 60.45 28.14 60.45 65.38 60.31 65.38"/><polyline class="cls-40" points="60.38 28.14 60.51 28.14 60.51 65.38 60.38 65.38"/><polyline class="cls-39" points="60.45 28.14 60.59 28.14 60.59 65.38 60.45 65.38"/><polyline class="cls-39" points="60.59 28.14 60.73 28.14 60.73 65.38 60.59 65.38"/><polyline class="cls-244" points="60.66 28.14 60.8 28.14 60.8 65.38 60.66 65.38"/><polyline class="cls-38" points="60.73 28.14 60.88 28.14 60.88 65.38 60.73 65.38"/><polyline class="cls-38" points="60.88 28.14 61.01 28.14 61.01 65.38 60.88 65.38"/><polyline class="cls-38" points="60.94 28.14 61.08 28.14 61.08 65.38 60.94 65.38"/><polyline class="cls-245" points="61.01 28.14 61.15 28.14 61.15 65.38 61.01 65.38"/><polyline class="cls-36" points="61.15 28.14 61.23 28.14 61.23 65.38 61.15 65.38"/><polyline class="cls-36" points="61.23 28.14 61.36 28.14 61.36 65.38 61.23 65.38"/><polyline class="cls-36" points="61.29 28.14 61.43 28.14 61.43 65.38 61.29 65.38"/><polyline class="cls-36" points="61.36 28.14 61.5 28.14 61.5 65.38 61.36 65.38"/><polyline class="cls-34" points="61.5 28.14 61.65 28.14 61.65 65.38 61.5 65.38"/><polyline class="cls-34" points="61.58 28.14 61.71 28.14 61.71 65.38 61.58 65.38"/><polyline class="cls-34" points="61.65 28.14 61.78 28.14 61.78 65.38 61.65 65.38"/><polyline class="cls-34" points="61.78 28.14 61.92 28.14 61.92 65.38 61.78 65.38"/><polyline class="cls-33" points="61.85 28.14 62 28.14 62 65.38 61.85 65.38"/><polyline class="cls-32" points="61.92 28.14 62.06 28.14 62.06 65.38 61.92 65.38"/><polyline class="cls-32" points="62.06 28.14 62.2 28.14 62.2 65.38 62.06 65.38"/><polyline class="cls-32" points="62.13 28.14 62.27 28.14 62.27 65.38 62.13 65.38"/><polyline class="cls-31" points="62.2 28.14 62.35 28.14 62.35 65.38 62.2 65.38"/><polyline class="cls-31" points="62.35 28.14 62.48 28.14 62.48 65.38 62.35 65.38"/><polyline class="cls-30" points="62.42 28.14 62.55 28.14 62.55 65.38 62.42 65.38"/><polyline class="cls-30" points="62.48 28.14 62.62 28.14 62.62 65.38 62.48 65.38"/><polyline class="cls-29" points="62.55 28.14 62.7 28.14 62.7 65.38 62.55 65.38"/><polyline class="cls-246" points="62.7 28.14 62.83 28.14 62.83 65.38 62.7 65.38"/><polyline class="cls-246" points="62.77 28.14 62.9 28.14 62.9 65.38 62.77 65.38"/><polyline class="cls-28" points="62.83 28.14 62.97 28.14 62.97 65.38 62.83 65.38"/><polyline class="cls-28" points="62.97 28.14 63.12 28.14 63.12 65.38 62.97 65.38"/><polyline class="cls-28" points="63.05 28.14 63.19 28.14 63.19 65.38 63.05 65.38"/><polyline class="cls-28" points="63.12 28.14 63.25 28.14 63.25 65.38 63.12 65.38"/><polyline class="cls-26" points="63.25 28.14 63.4 28.14 63.4 65.38 63.25 65.38"/><polyline class="cls-26" points="63.32 28.14 63.47 28.14 63.47 65.38 63.32 65.38"/><polyline class="cls-26" points="63.4 28.14 63.53 28.14 63.53 65.38 63.4 65.38"/><polyline class="cls-26" points="63.53 28.14 63.67 28.14 63.67 65.38 63.53 65.38"/><polyline class="cls-25" points="63.6 28.14 63.75 28.14 63.75 65.38 63.6 65.38"/><polyline class="cls-24" points="63.67 28.14 63.82 28.14 63.82 65.38 63.67 65.38"/><polyline class="cls-24" points="63.82 28.14 63.95 28.14 63.95 65.38 63.82 65.38"/><polyline class="cls-24" points="63.89 28.14 64.02 28.14 64.02 65.38 63.89 65.38"/><polyline class="cls-23" points="63.95 28.14 64.1 28.14 64.1 65.38 63.95 65.38"/><polyline class="cls-23" points="64.02 28.14 64.17 28.14 64.17 65.38 64.02 65.38"/><polyline class="cls-22" points="64.17 28.14 64.3 28.14 64.3 65.38 64.17 65.38"/><polyline class="cls-247" points="64.24 28.14 64.37 28.14 64.37 65.38 64.24 65.38"/><polyline class="cls-20" points="64.3 28.14 64.44 28.14 64.44 65.38 64.3 65.38"/><polyline class="cls-20" points="64.44 28.14 64.59 28.14 64.59 65.38 64.44 65.38"/><polyline class="cls-20" points="64.52 28.14 64.66 28.14 64.66 65.38 64.52 65.38"/><polyline class="cls-19" points="64.59 28.14 64.72 28.14 64.72 65.38 64.59 65.38"/><polyline class="cls-19" points="64.72 28.14 64.87 28.14 64.87 65.38 64.72 65.38"/><polyline class="cls-19" points="64.8 28.14 64.94 28.14 64.94 65.38 64.8 65.38"/><polyline class="cls-19" points="64.87 28.14 65.01 28.14 65.01 65.38 64.87 65.38"/><polyline class="cls-18" points="65.01 28.14 65.14 28.14 65.14 65.38 65.01 65.38"/><polyline class="cls-17" points="65.07 28.14 65.22 28.14 65.22 65.38 65.07 65.38"/><polyline class="cls-17" points="65.14 28.14 65.29 28.14 65.29 65.38 65.14 65.38"/><polyline class="cls-17" points="65.29 28.14 65.43 28.14 65.43 65.38 65.29 65.38"/><polyline class="cls-16" points="65.36 28.14 65.49 28.14 65.49 65.38 65.36 65.38"/><polyline class="cls-15" points="65.43 28.14 65.57 28.14 65.57 65.38 65.43 65.38"/><polyline class="cls-15" points="65.49 28.14 65.64 28.14 65.64 65.38 65.49 65.38"/><polyline class="cls-15" points="65.64 28.14 65.78 28.14 65.78 65.38 65.64 65.38"/><polyline class="cls-14" points="65.71 28.14 65.84 28.14 65.84 65.38 65.71 65.38"/><polyline class="cls-14" points="65.78 28.14 65.92 28.14 65.92 65.38 65.78 65.38"/><polyline class="cls-248" points="65.92 28.14 66.06 28.14 66.06 65.38 65.92 65.38"/><polyline class="cls-248" points="65.99 28.14 66.13 28.14 66.13 65.38 65.99 65.38"/><polyline class="cls-12" points="66.06 28.14 66.21 28.14 66.21 65.38 66.06 65.38"/><polyline class="cls-12" points="66.21 28.14 66.34 28.14 66.34 65.38 66.21 65.38"/><polyline class="cls-12" points="66.27 28.14 66.41 28.14 66.41 65.38 66.27 65.38"/><polyline class="cls-123" points="66.34 28.14 66.48 28.14 66.48 65.38 66.34 65.38"/><polyline class="cls-11" points="66.48 28.14 66.62 28.14 66.62 65.38 66.48 65.38"/><polyline class="cls-11" points="66.56 28.14 66.69 28.14 66.69 65.38 66.56 65.38"/><polyline class="cls-11" points="66.62 28.14 66.76 28.14 66.76 65.38 66.62 65.38"/><polyline class="cls-122" points="66.76 28.14 66.91 28.14 66.91 65.38 66.76 65.38"/><polyline class="cls-10" points="66.83 28.14 66.98 28.14 66.98 65.38 66.83 65.38"/><polyline class="cls-10" points="66.91 28.14 67.04 28.14 67.04 65.38 66.91 65.38"/><polyline class="cls-10" points="66.98 28.14 67.11 28.14 67.11 65.38 66.98 65.38"/><polyline class="cls-9" points="67.11 28.14 67.25 28.14 67.25 65.38 67.11 65.38"/><polyline class="cls-9" points="67.18 28.14 67.33 28.14 67.33 65.38 67.18 65.38"/><polyline class="cls-8" points="67.25 28.14 67.39 28.14 67.39 65.38 67.25 65.38"/><polyline class="cls-8" points="67.39 28.14 67.53 28.14 67.53 65.38 67.39 65.38"/><polyline class="cls-7" points="67.46 28.14 67.61 28.14 67.61 65.38 67.46 65.38"/><polyline class="cls-7" points="67.53 28.14 67.68 28.14 67.68 65.38 67.53 65.38"/><polyline class="cls-6" points="67.68 28.14 67.81 28.14 67.81 65.38 67.68 65.38"/><polyline class="cls-6" points="67.74 28.14 67.88 28.14 67.88 65.38 67.74 65.38"/><polyline class="cls-5" points="67.81 28.14 67.95 28.14 67.95 65.38 67.81 65.38"/><polyline class="cls-5" points="67.95 28.14 68.09 28.14 68.09 65.38 67.95 65.38"/><polyline class="cls-5" points="68.03 28.14 68.16 28.14 68.16 65.38 68.03 65.38"/><polyline class="cls-4" points="68.09 28.14 68.23 28.14 68.23 65.38 68.09 65.38"/><polyline class="cls-3" points="68.23 28.14 68.38 28.14 68.38 65.38 68.23 65.38"/><polyline class="cls-3" points="68.3 28.14 68.45 28.14 68.45 65.38 68.3 65.38"/></g><g class="cls-249"><polyline class="cls-250" points="84.43 65.59 84.5 65.59 84.5 113.49 84.43 113.49"/><polyline class="cls-250" points="84.43 65.59 84.72 65.59 84.72 113.49 84.43 113.49"/><polyline class="cls-251" points="84.57 65.59 84.85 65.59 84.85 113.49 84.57 113.49"/><polyline class="cls-251" points="84.78 65.59 85.07 65.59 85.07 113.49 84.78 113.49"/><polyline class="cls-252" points="84.99 65.59 85.2 65.59 85.2 113.49 84.99 113.49"/><polyline class="cls-252" points="85.14 65.59 85.42 65.59 85.42 113.49 85.14 113.49"/><polyline class="cls-253" points="85.34 65.59 85.62 65.59 85.62 113.49 85.34 113.49"/><polyline class="cls-254" points="85.49 65.59 85.77 65.59 85.77 113.49 85.49 113.49"/><polyline class="cls-255" points="85.69 65.59 85.97 65.59 85.97 113.49 85.69 113.49"/><polyline class="cls-255" points="85.91 65.59 86.19 65.59 86.19 113.49 85.91 113.49"/><polyline class="cls-256" points="86.04 65.59 86.32 65.59 86.32 113.49 86.04 113.49"/><polyline class="cls-256" points="86.26 65.59 86.54 65.59 86.54 113.49 86.26 113.49"/><polyline class="cls-257" points="86.39 65.59 86.68 65.59 86.68 113.49 86.39 113.49"/><polyline class="cls-258" points="86.61 65.59 86.89 65.59 86.89 113.49 86.61 113.49"/><polyline class="cls-258" points="86.81 65.59 87.09 65.59 87.09 113.49 86.81 113.49"/><polyline class="cls-259" points="86.96 65.59 87.24 65.59 87.24 113.49 86.96 113.49"/><polyline class="cls-259" points="87.17 65.59 87.44 65.59 87.44 113.49 87.17 113.49"/><polyline class="cls-259" points="87.38 65.59 87.59 65.59 87.59 113.49 87.38 113.49"/><polyline class="cls-260" points="87.52 65.59 87.8 65.59 87.8 113.49 87.52 113.49"/><polyline class="cls-260" points="87.73 65.59 88.01 65.59 88.01 113.49 87.73 113.49"/><polyline class="cls-260" points="87.86 65.59 88.15 65.59 88.15 113.49 87.86 113.49"/><polyline class="cls-261" points="88.08 65.59 88.36 65.59 88.36 113.49 88.08 113.49"/><polyline class="cls-261" points="88.29 65.59 88.58 65.59 88.58 113.49 88.29 113.49"/><polyline class="cls-114" points="88.43 65.59 88.71 65.59 88.71 113.49 88.43 113.49"/><polyline class="cls-114" points="88.64 65.59 88.93 65.59 88.93 113.49 88.64 113.49"/><polyline class="cls-262" points="88.85 65.59 89.06 65.59 89.06 113.49 88.85 113.49"/><polyline class="cls-188" points="88.99 65.59 89.28 65.59 89.28 113.49 88.99 113.49"/><polyline class="cls-188" points="89.2 65.59 89.48 65.59 89.48 113.49 89.2 113.49"/><polyline class="cls-189" points="89.34 65.59 89.63 65.59 89.63 113.49 89.34 113.49"/><polyline class="cls-190" points="89.55 65.59 89.83 65.59 89.83 113.49 89.55 113.49"/><polyline class="cls-191" points="89.76 65.59 90.05 65.59 90.05 113.49 89.76 113.49"/><polyline class="cls-191" points="89.9 65.59 90.18 65.59 90.18 113.49 89.9 113.49"/><polyline class="cls-193" points="90.12 65.59 90.4 65.59 90.4 113.49 90.12 113.49"/><polyline class="cls-193" points="90.25 65.59 90.53 65.59 90.53 113.49 90.25 113.49"/><polyline class="cls-195" points="90.47 65.59 90.75 65.59 90.75 113.49 90.47 113.49"/><polyline class="cls-196" points="90.67 65.59 90.95 65.59 90.95 113.49 90.67 113.49"/><polyline class="cls-263" points="90.82 65.59 91.1 65.59 91.1 113.49 90.82 113.49"/><polyline class="cls-198" points="91.02 65.59 91.3 65.59 91.3 113.49 91.02 113.49"/><polyline class="cls-264" points="91.24 65.59 91.45 65.59 91.45 113.49 91.24 113.49"/><polyline class="cls-264" points="91.37 65.59 91.65 65.59 91.65 113.49 91.37 113.49"/><polyline class="cls-199" points="91.59 65.59 91.87 65.59 91.87 113.49 91.59 113.49"/><polyline class="cls-265" points="91.72 65.59 92 65.59 92 113.49 91.72 113.49"/><polyline class="cls-200" points="91.94 65.59 92.22 65.59 92.22 113.49 91.94 113.49"/><polyline class="cls-266" points="92.14 65.59 92.42 65.59 92.42 113.49 92.14 113.49"/><polyline class="cls-266" points="92.29 65.59 92.57 65.59 92.57 113.49 92.29 113.49"/><polyline class="cls-202" points="92.5 65.59 92.78 65.59 92.78 113.49 92.5 113.49"/><polyline class="cls-202" points="92.64 65.59 92.92 65.59 92.92 113.49 92.64 113.49"/><polyline class="cls-267" points="92.84 65.59 93.13 65.59 93.13 113.49 92.84 113.49"/><polyline class="cls-203" points="93.06 65.59 93.34 65.59 93.34 113.49 93.06 113.49"/><polyline class="cls-268" points="93.19 65.59 93.48 65.59 93.48 113.49 93.19 113.49"/><polyline class="cls-205" points="93.41 65.59 93.69 65.59 93.69 113.49 93.41 113.49"/><polyline class="cls-269" points="93.62 65.59 93.89 65.59 93.89 113.49 93.62 113.49"/><polyline class="cls-269" points="93.76 65.59 94.04 65.59 94.04 113.49 93.76 113.49"/><polyline class="cls-206" points="93.97 65.59 94.26 65.59 94.26 113.49 93.97 113.49"/><polyline class="cls-102" points="94.11 65.59 94.39 65.59 94.39 113.49 94.11 113.49"/><polyline class="cls-270" points="94.32 65.59 94.61 65.59 94.61 113.49 94.32 113.49"/><polyline class="cls-208" points="94.53 65.59 94.81 65.59 94.81 113.49 94.53 113.49"/><polyline class="cls-208" points="94.68 65.59 94.95 65.59 94.95 113.49 94.68 113.49"/><polyline class="cls-208" points="94.88 65.59 95.16 65.59 95.16 113.49 94.88 113.49"/><polyline class="cls-100" points="95.09 65.59 95.31 65.59 95.31 113.49 95.09 113.49"/><polyline class="cls-100" points="95.23 65.59 95.51 65.59 95.51 113.49 95.23 113.49"/><polyline class="cls-99" points="95.44 65.59 95.73 65.59 95.73 113.49 95.44 113.49"/><polyline class="cls-99" points="95.58 65.59 95.86 65.59 95.86 113.49 95.58 113.49"/><polyline class="cls-99" points="95.8 65.59 96.08 65.59 96.08 113.49 95.8 113.49"/><polyline class="cls-98" points="96 65.59 96.28 65.59 96.28 113.49 96 113.49"/><polyline class="cls-98" points="96.15 65.59 96.43 65.59 96.43 113.49 96.15 113.49"/><polyline class="cls-98" points="96.35 65.59 96.63 65.59 96.63 113.49 96.35 113.49"/><polyline class="cls-97" points="96.5 65.59 96.78 65.59 96.78 113.49 96.5 113.49"/><polyline class="cls-97" points="96.7 65.59 96.98 65.59 96.98 113.49 96.7 113.49"/><polyline class="cls-209" points="96.92 65.59 97.2 65.59 97.2 113.49 96.92 113.49"/><polyline class="cls-209" points="97.05 65.59 97.33 65.59 97.33 113.49 97.05 113.49"/><polyline class="cls-271" points="97.27 65.59 97.55 65.59 97.55 113.49 97.27 113.49"/><polyline class="cls-210" points="97.48 65.59 97.69 65.59 97.69 113.49 97.48 113.49"/><polyline class="cls-95" points="97.62 65.59 97.9 65.59 97.9 113.49 97.62 113.49"/><polyline class="cls-95" points="97.83 65.59 98.1 65.59 98.1 113.49 97.83 113.49"/><polyline class="cls-272" points="97.97 65.59 98.25 65.59 98.25 113.49 97.97 113.49"/><polyline class="cls-272" points="98.17 65.59 98.45 65.59 98.45 113.49 98.17 113.49"/><polyline class="cls-213" points="98.39 65.59 98.67 65.59 98.67 113.49 98.39 113.49"/><polyline class="cls-213" points="98.53 65.59 98.81 65.59 98.81 113.49 98.53 113.49"/><polyline class="cls-213" points="98.74 65.59 99.02 65.59 99.02 113.49 98.74 113.49"/><polyline class="cls-214" points="98.95 65.59 99.16 65.59 99.16 113.49 98.95 113.49"/><polyline class="cls-214" points="99.09 65.59 99.37 65.59 99.37 113.49 99.09 113.49"/><polyline class="cls-92" points="99.3 65.59 99.57 65.59 99.57 113.49 99.3 113.49"/><polyline class="cls-215" points="99.44 65.59 99.72 65.59 99.72 113.49 99.44 113.49"/><polyline class="cls-91" points="99.65 65.59 99.94 65.59 99.94 113.49 99.65 113.49"/><polyline class="cls-273" points="99.86 65.59 100.14 65.59 100.14 113.49 99.86 113.49"/><polyline class="cls-217" points="100 65.59 100.28 65.59 100.28 113.49 100 113.49"/><polyline class="cls-217" points="100.21 65.59 100.49 65.59 100.49 113.49 100.21 113.49"/><polyline class="cls-219" points="100.36 65.59 100.64 65.59 100.64 113.49 100.36 113.49"/><polyline class="cls-219" points="100.56 65.59 100.84 65.59 100.84 113.49 100.56 113.49"/><polyline class="cls-89" points="100.77 65.59 101.06 65.59 101.06 113.49 100.77 113.49"/><polyline class="cls-220" points="100.91 65.59 101.19 65.59 101.19 113.49 100.91 113.49"/><polyline class="cls-220" points="101.12 65.59 101.41 65.59 101.41 113.49 101.12 113.49"/><polyline class="cls-88" points="101.33 65.59 101.54 65.59 101.54 113.49 101.33 113.49"/><polyline class="cls-221" points="101.47 65.59 101.76 65.59 101.76 113.49 101.47 113.49"/><polyline class="cls-274" points="101.68 65.59 101.96 65.59 101.96 113.49 101.68 113.49"/><polyline class="cls-222" points="101.83 65.59 102.11 65.59 102.11 113.49 101.83 113.49"/><polyline class="cls-223" points="102.03 65.59 102.31 65.59 102.31 113.49 102.03 113.49"/><polyline class="cls-223" points="102.25 65.59 102.53 65.59 102.53 113.49 102.25 113.49"/><polyline class="cls-224" points="102.38 65.59 102.66 65.59 102.66 113.49 102.38 113.49"/><polyline class="cls-224" points="102.6 65.59 102.88 65.59 102.88 113.49 102.6 113.49"/><polyline class="cls-224" points="102.73 65.59 103.01 65.59 103.01 113.49 102.73 113.49"/><polyline class="cls-85" points="102.95 65.59 103.23 65.59 103.23 113.49 102.95 113.49"/><polyline class="cls-85" points="103.16 65.59 103.43 65.59 103.43 113.49 103.16 113.49"/><polyline class="cls-84" points="103.3 65.59 103.58 65.59 103.58 113.49 103.3 113.49"/><polyline class="cls-226" points="103.5 65.59 103.78 65.59 103.78 113.49 103.5 113.49"/><polyline class="cls-226" points="103.72 65.59 103.93 65.59 103.93 113.49 103.72 113.49"/><polyline class="cls-227" points="103.86 65.59 104.13 65.59 104.13 113.49 103.86 113.49"/><polyline class="cls-227" points="104.07 65.59 104.35 65.59 104.35 113.49 104.07 113.49"/><polyline class="cls-227" points="104.2 65.59 104.49 65.59 104.49 113.49 104.2 113.49"/><polyline class="cls-82" points="104.42 65.59 104.7 65.59 104.7 113.49 104.42 113.49"/><polyline class="cls-82" points="104.63 65.59 104.92 65.59 104.92 113.49 104.63 113.49"/><polyline class="cls-275" points="104.77 65.59 105.05 65.59 105.05 113.49 104.77 113.49"/><polyline class="cls-81" points="104.98 65.59 105.27 65.59 105.27 113.49 104.98 113.49"/><polyline class="cls-177" points="105.19 65.59 105.4 65.59 105.4 113.49 105.19 113.49"/><polyline class="cls-228" points="105.33 65.59 105.62 65.59 105.62 113.49 105.33 113.49"/><polyline class="cls-228" points="105.54 65.59 105.82 65.59 105.82 113.49 105.54 113.49"/><polyline class="cls-80" points="105.68 65.59 105.97 65.59 105.97 113.49 105.68 113.49"/><polyline class="cls-80" points="105.89 65.59 106.17 65.59 106.17 113.49 105.89 113.49"/><polyline class="cls-79" points="106.1 65.59 106.39 65.59 106.39 113.49 106.1 113.49"/><polyline class="cls-79" points="106.24 65.59 106.52 65.59 106.52 113.49 106.24 113.49"/><polyline class="cls-79" points="106.45 65.59 106.74 65.59 106.74 113.49 106.45 113.49"/><polyline class="cls-78" points="106.59 65.59 106.87 65.59 106.87 113.49 106.59 113.49"/><polyline class="cls-78" points="106.81 65.59 107.09 65.59 107.09 113.49 106.81 113.49"/><polyline class="cls-78" points="107.02 65.59 107.29 65.59 107.29 113.49 107.02 113.49"/><polyline class="cls-230" points="107.16 65.59 107.44 65.59 107.44 113.49 107.16 113.49"/><polyline class="cls-230" points="107.36 65.59 107.64 65.59 107.64 113.49 107.36 113.49"/><polyline class="cls-77" points="107.57 65.59 107.79 65.59 107.79 113.49 107.57 113.49"/><polyline class="cls-231" points="107.71 65.59 107.99 65.59 107.99 113.49 107.71 113.49"/><polyline class="cls-231" points="107.93 65.59 108.21 65.59 108.21 113.49 107.93 113.49"/><polyline class="cls-76" points="108.06 65.59 108.34 65.59 108.34 113.49 108.06 113.49"/><polyline class="cls-76" points="108.28 65.59 108.56 65.59 108.56 113.49 108.28 113.49"/><polyline class="cls-75" points="108.49 65.59 108.76 65.59 108.76 113.49 108.49 113.49"/><polyline class="cls-75" points="108.63 65.59 108.91 65.59 108.91 113.49 108.63 113.49"/><polyline class="cls-75" points="108.84 65.59 109.11 65.59 109.11 113.49 108.84 113.49"/><polyline class="cls-73" points="108.98 65.59 109.26 65.59 109.26 113.49 108.98 113.49"/><polyline class="cls-73" points="109.19 65.59 109.47 65.59 109.47 113.49 109.19 113.49"/><polyline class="cls-73" points="109.4 65.59 109.68 65.59 109.68 113.49 109.4 113.49"/><polyline class="cls-71" points="109.53 65.59 109.82 65.59 109.82 113.49 109.53 113.49"/><polyline class="cls-71" points="109.75 65.59 110.03 65.59 110.03 113.49 109.75 113.49"/><polyline class="cls-235" points="109.96 65.59 110.23 65.59 110.23 113.49 109.96 113.49"/><polyline class="cls-235" points="110.1 65.59 110.38 65.59 110.38 113.49 110.1 113.49"/><polyline class="cls-236" points="110.31 65.59 110.58 65.59 110.58 113.49 110.31 113.49"/><polyline class="cls-67" points="110.45 65.59 110.73 65.59 110.73 113.49 110.45 113.49"/><polyline class="cls-67" points="110.66 65.59 110.95 65.59 110.95 113.49 110.66 113.49"/><polyline class="cls-67" points="110.87 65.59 111.15 65.59 111.15 113.49 110.87 113.49"/><polyline class="cls-66" points="111.01 65.59 111.3 65.59 111.3 113.49 111.01 113.49"/><polyline class="cls-66" points="111.22 65.59 111.5 65.59 111.5 113.49 111.22 113.49"/><polyline class="cls-64" points="111.43 65.59 111.64 65.59 111.64 113.49 111.43 113.49"/><polyline class="cls-64" points="111.57 65.59 111.85 65.59 111.85 113.49 111.57 113.49"/><polyline class="cls-64" points="111.78 65.59 112.07 65.59 112.07 113.49 111.78 113.49"/><polyline class="cls-63" points="111.92 65.59 112.2 65.59 112.2 113.49 111.92 113.49"/><polyline class="cls-239" points="112.13 65.59 112.42 65.59 112.42 113.49 112.13 113.49"/><polyline class="cls-239" points="112.34 65.59 112.62 65.59 112.62 113.49 112.34 113.49"/><polyline class="cls-276" points="112.49 65.59 112.77 65.59 112.77 113.49 112.49 113.49"/><polyline class="cls-59" points="112.69 65.59 112.97 65.59 112.97 113.49 112.69 113.49"/><polyline class="cls-58" points="112.84 65.59 113.12 65.59 113.12 113.49 112.84 113.49"/><polyline class="cls-58" points="113.04 65.59 113.32 65.59 113.32 113.49 113.04 113.49"/><polyline class="cls-240" points="113.26 65.59 113.54 65.59 113.54 113.49 113.26 113.49"/><polyline class="cls-57" points="113.39 65.59 113.67 65.59 113.67 113.49 113.39 113.49"/><polyline class="cls-57" points="113.61 65.59 113.89 65.59 113.89 113.49 113.61 113.49"/><polyline class="cls-241" points="113.82 65.59 114.02 65.59 114.02 113.49 113.82 113.49"/><polyline class="cls-56" points="113.96 65.59 114.24 65.59 114.24 113.49 113.96 113.49"/><polyline class="cls-56" points="114.17 65.59 114.44 65.59 114.44 113.49 114.17 113.49"/><polyline class="cls-242" points="114.31 65.59 114.59 65.59 114.59 113.49 114.31 113.49"/><polyline class="cls-54" points="114.52 65.59 114.79 65.59 114.79 113.49 114.52 113.49"/><polyline class="cls-54" points="114.73 65.59 115.01 65.59 115.01 113.49 114.73 113.49"/><polyline class="cls-54" points="114.86 65.59 115.14 65.59 115.14 113.49 114.86 113.49"/><polyline class="cls-53" points="115.08 65.59 115.36 65.59 115.36 113.49 115.08 113.49"/><polyline class="cls-53" points="115.29 65.59 115.5 65.59 115.5 113.49 115.29 113.49"/><polyline class="cls-53" points="115.43 65.59 115.71 65.59 115.71 113.49 115.43 113.49"/><polyline class="cls-52" points="115.64 65.59 115.93 65.59 115.93 113.49 115.64 113.49"/><polyline class="cls-52" points="115.78 65.59 116.06 65.59 116.06 113.49 115.78 113.49"/><polyline class="cls-52" points="115.99 65.59 116.28 65.59 116.28 113.49 115.99 113.49"/><polyline class="cls-52" points="116.2 65.59 116.48 65.59 116.48 113.49 116.2 113.49"/><polyline class="cls-51" points="116.34 65.59 116.63 65.59 116.63 113.49 116.34 113.49"/><polyline class="cls-243" points="116.55 65.59 116.83 65.59 116.83 113.49 116.55 113.49"/><polyline class="cls-277" points="116.69 65.59 116.98 65.59 116.98 113.49 116.69 113.49"/><polyline class="cls-49" points="116.9 65.59 117.18 65.59 117.18 113.49 116.9 113.49"/><polyline class="cls-49" points="117.11 65.59 117.4 65.59 117.4 113.49 117.11 113.49"/><polyline class="cls-48" points="117.25 65.59 117.53 65.59 117.53 113.49 117.25 113.49"/><polyline class="cls-47" points="117.46 65.59 117.75 65.59 117.75 113.49 117.46 113.49"/><polyline class="cls-47" points="117.67 65.59 117.88 65.59 117.88 113.49 117.67 113.49"/><polyline class="cls-47" points="117.82 65.59 118.1 65.59 118.1 113.49 117.82 113.49"/><polyline class="cls-47" points="118.03 65.59 118.3 65.59 118.3 113.49 118.03 113.49"/><polyline class="cls-46" points="118.16 65.59 118.45 65.59 118.45 113.49 118.16 113.49"/><polyline class="cls-46" points="118.37 65.59 118.65 65.59 118.65 113.49 118.37 113.49"/><polyline class="cls-46" points="118.58 65.59 118.87 65.59 118.87 113.49 118.58 113.49"/><polyline class="cls-44" points="118.72 65.59 119 65.59 119 113.49 118.72 113.49"/><polyline class="cls-44" points="118.94 65.59 119.22 65.59 119.22 113.49 118.94 113.49"/><polyline class="cls-44" points="119.07 65.59 119.35 65.59 119.35 113.49 119.07 113.49"/><polyline class="cls-42" points="119.29 65.59 119.57 65.59 119.57 113.49 119.29 113.49"/><polyline class="cls-42" points="119.5 65.59 119.77 65.59 119.77 113.49 119.5 113.49"/><polyline class="cls-41" points="119.64 65.59 119.92 65.59 119.92 113.49 119.64 113.49"/><polyline class="cls-40" points="119.85 65.59 120.12 65.59 120.12 113.49 119.85 113.49"/><polyline class="cls-40" points="120.05 65.59 120.34 65.59 120.34 113.49 120.05 113.49"/><polyline class="cls-39" points="120.19 65.59 120.47 65.59 120.47 113.49 120.19 113.49"/><polyline class="cls-39" points="120.41 65.59 120.69 65.59 120.69 113.49 120.41 113.49"/><polyline class="cls-244" points="120.55 65.59 120.83 65.59 120.83 113.49 120.55 113.49"/><polyline class="cls-38" points="120.76 65.59 121.04 65.59 121.04 113.49 120.76 113.49"/><polyline class="cls-38" points="120.97 65.59 121.24 65.59 121.24 113.49 120.97 113.49"/><polyline class="cls-36" points="121.11 65.59 121.39 65.59 121.39 113.49 121.11 113.49"/><polyline class="cls-36" points="121.32 65.59 121.59 65.59 121.59 113.49 121.32 113.49"/><polyline class="cls-36" points="121.53 65.59 121.74 65.59 121.74 113.49 121.53 113.49"/><polyline class="cls-34" points="121.67 65.59 121.96 65.59 121.96 113.49 121.67 113.49"/><polyline class="cls-34" points="121.88 65.59 122.16 65.59 122.16 113.49 121.88 113.49"/><polyline class="cls-34" points="122.02 65.59 122.31 65.59 122.31 113.49 122.02 113.49"/><polyline class="cls-33" points="122.23 65.59 122.51 65.59 122.51 113.49 122.23 113.49"/><polyline class="cls-32" points="122.44 65.59 122.72 65.59 122.72 113.49 122.44 113.49"/><polyline class="cls-31" points="122.58 65.59 122.86 65.59 122.86 113.49 122.58 113.49"/><polyline class="cls-31" points="122.79 65.59 123.08 65.59 123.08 113.49 122.79 113.49"/><polyline class="cls-30" points="122.93 65.59 123.21 65.59 123.21 113.49 122.93 113.49"/><polyline class="cls-29" points="123.14 65.59 123.43 65.59 123.43 113.49 123.14 113.49"/><polyline class="cls-246" points="123.36 65.59 123.63 65.59 123.63 113.49 123.36 113.49"/><polyline class="cls-28" points="123.5 65.59 123.78 65.59 123.78 113.49 123.5 113.49"/><polyline class="cls-28" points="123.7 65.59 123.98 65.59 123.98 113.49 123.7 113.49"/><polyline class="cls-28" points="123.91 65.59 124.13 65.59 124.13 113.49 123.91 113.49"/><polyline class="cls-27" points="124.05 65.59 124.33 65.59 124.33 113.49 124.05 113.49"/><polyline class="cls-26" points="124.26 65.59 124.55 65.59 124.55 113.49 124.26 113.49"/><polyline class="cls-26" points="124.4 65.59 124.68 65.59 124.68 113.49 124.4 113.49"/><polyline class="cls-25" points="124.61 65.59 124.9 65.59 124.9 113.49 124.61 113.49"/><polyline class="cls-24" points="124.83 65.59 125.1 65.59 125.1 113.49 124.83 113.49"/><polyline class="cls-23" points="124.97 65.59 125.25 65.59 125.25 113.49 124.97 113.49"/><polyline class="cls-23" points="125.18 65.59 125.45 65.59 125.45 113.49 125.18 113.49"/><polyline class="cls-22" points="125.39 65.59 125.6 65.59 125.6 113.49 125.39 113.49"/><polyline class="cls-20" points="125.53 65.59 125.8 65.59 125.8 113.49 125.53 113.49"/><polyline class="cls-20" points="125.74 65.59 126.02 65.59 126.02 113.49 125.74 113.49"/><polyline class="cls-278" points="125.88 65.59 126.15 65.59 126.15 113.49 125.88 113.49"/><polyline class="cls-19" points="126.09 65.59 126.37 65.59 126.37 113.49 126.09 113.49"/><polyline class="cls-19" points="126.3 65.59 126.58 65.59 126.58 113.49 126.3 113.49"/><polyline class="cls-18" points="126.44 65.59 126.72 65.59 126.72 113.49 126.44 113.49"/><polyline class="cls-17" points="126.65 65.59 126.92 65.59 126.92 113.49 126.65 113.49"/><polyline class="cls-17" points="126.79 65.59 127.07 65.59 127.07 113.49 126.79 113.49"/><polyline class="cls-16" points="127 65.59 127.27 65.59 127.27 113.49 127 113.49"/><polyline class="cls-15" points="127.21 65.59 127.49 65.59 127.49 113.49 127.21 113.49"/><polyline class="cls-15" points="127.35 65.59 127.64 65.59 127.64 113.49 127.35 113.49"/><polyline class="cls-14" points="127.56 65.59 127.84 65.59 127.84 113.49 127.56 113.49"/><polyline class="cls-248" points="127.77 65.59 127.99 65.59 127.99 113.49 127.77 113.49"/><polyline class="cls-12" points="127.91 65.59 128.19 65.59 128.19 113.49 127.91 113.49"/><polyline class="cls-12" points="128.12 65.59 128.41 65.59 128.41 113.49 128.12 113.49"/><polyline class="cls-12" points="128.26 65.59 128.54 65.59 128.54 113.49 128.26 113.49"/><polyline class="cls-11" points="128.47 65.59 128.76 65.59 128.76 113.49 128.47 113.49"/><polyline class="cls-11" points="128.69 65.59 128.96 65.59 128.96 113.49 128.69 113.49"/><polyline class="cls-11" points="128.82 65.59 129.11 65.59 129.11 113.49 128.82 113.49"/><polyline class="cls-10" points="129.03 65.59 129.31 65.59 129.31 113.49 129.03 113.49"/><polyline class="cls-10" points="129.17 65.59 129.46 65.59 129.46 113.49 129.17 113.49"/><polyline class="cls-9" points="129.38 65.59 129.66 65.59 129.66 113.49 129.38 113.49"/><polyline class="cls-8" points="129.59 65.59 129.88 65.59 129.88 113.49 129.59 113.49"/><polyline class="cls-8" points="129.73 65.59 130.01 65.59 130.01 113.49 129.73 113.49"/><polyline class="cls-7" points="129.95 65.59 130.23 65.59 130.23 113.49 129.95 113.49"/><polyline class="cls-7" points="130.16 65.59 130.43 65.59 130.43 113.49 130.16 113.49"/><polyline class="cls-6" points="130.3 65.59 130.58 65.59 130.58 113.49 130.3 113.49"/><polyline class="cls-5" points="130.51 65.59 130.78 65.59 130.78 113.49 130.51 113.49"/><polyline class="cls-5" points="130.65 65.59 130.93 65.59 130.93 113.49 130.65 113.49"/><polyline class="cls-3" points="130.86 65.59 131.13 65.59 131.13 113.49 130.86 113.49"/><polyline class="cls-3" points="131.07 65.59 133.8 65.59 133.8 113.49 131.07 113.49"/></g><path class="cls-279" d="M181.67,44.84V55.32H166.11c-2.92,0-4.82.71-5.79,2.11a3.44,3.44,0,0,0,0,4.21c1,1.39,2.88,2.09,5.74,2.09h5.65c4.67,0,8.44,1.08,11.22,3.21a15.39,15.39,0,0,1,5.6,7.89,16,16,0,0,1,0,9.33,15.36,15.36,0,0,1-5.55,7.9q-4.2,3.24-11.23,3.23H151.53V84.78h20.22c2.95,0,4.83-.87,5.8-2.63a5.16,5.16,0,0,0-.08-5.27c-1-1.76-2.89-2.64-5.72-2.64h-5.64q-7.16,0-11.41-3A14.34,14.34,0,0,1,149,63.88a13.5,13.5,0,0,1,0-8.7,14.34,14.34,0,0,1,5.69-7.34q4.28-3,11.41-3Z"/><path class="cls-279" d="M215.2,44.87h11l20.22,50.4H235.6l-2.69-6.77H208.56l-2.69,6.77H195Zm5.51,13.43-8.12,20.19h16.22Z"/><path class="cls-279" d="M272.1,95.27H260.84l-9.36-50.4h10.26L268.05,79,281,44.87h7.1L301,79l6.3-34.16h10.22l-9.32,50.4H297L284.53,62.88Z"/><path class="cls-279" d="M345.25,95.27H335.16V54.94H323.1V44.87h34.27V54.94H345.31Z"/><path class="cls-279" d="M383.61,85H372.52V95.27h-10.1V44.87h21.29a18.46,18.46,0,0,1,13.54,5.64,19.33,19.33,0,0,1,5.08,9.15,22.62,22.62,0,0,1,0,10.54,19.4,19.4,0,0,1-5.08,9.16,18.54,18.54,0,0,1-3.62,2.86l7.38,13H389.44Zm.1-10.5a8.34,8.34,0,0,0,6.1-2.54,10.7,10.7,0,0,0,0-14,8.34,8.34,0,0,0-6.1-2.54H372.52v19.1Z"/><path class="cls-279" d="M449,76.69a18.49,18.49,0,0,1-5.62,13.53,19.7,19.7,0,0,1-9.19,5,22.7,22.7,0,0,1-10.56,0,19.4,19.4,0,0,1-9.18-5,18.41,18.41,0,0,1-5.64-13.53V44.87h10.5V76.69a8.28,8.28,0,0,0,2.54,6.11,10.67,10.67,0,0,0,7.07,2.6,10.47,10.47,0,0,0,7-2.6,8.34,8.34,0,0,0,2.56-6.11V44.87H449Z"/><path class="cls-279" d="M492.66,44.87a13.84,13.84,0,0,1,10.16,4.24A13.7,13.7,0,0,1,507,59.2a13.87,13.87,0,0,1-1.9,7.08A15.41,15.41,0,0,1,507.2,68a16,16,0,0,1-11.33,27.28H472V44.87ZM482.05,63.73h10.61A3.3,3.3,0,0,0,496,61.64a5.37,5.37,0,0,0,.07-4.18,3.28,3.28,0,0,0-3.43-2.07H482.05Zm0,21h13.87a5.9,5.9,0,0,0,4.68-2.48,6.24,6.24,0,0,0,1-4.38,7,7,0,0,0-2-3.62,5.62,5.62,0,0,0-3.75-1.62H482.1Z"/><path class="cls-279" d="M561.55,51.87a25.93,25.93,0,1,1-18.24-7.54A24.78,24.78,0,0,1,561.55,51.87ZM531.9,58.74a16,16,0,0,0-.07,22.6l.07.07a16.05,16.05,0,1,0,11.41-27.36,15.54,15.54,0,0,0-11.41,4.69Z"/><path class="cls-279" d="M618.72,51.87a25.93,25.93,0,1,1-18.27-7.54A24.77,24.77,0,0,1,618.72,51.87Zm-29.58,6.87a16,16,0,0,0-.08,22.6l.08.07a16.05,16.05,0,1,0,11.37-27.36A15.51,15.51,0,0,0,589.14,58.74Z"/><path class="cls-279" d="M665.88,44.84V55.32H650.31c-2.91,0-4.82.71-5.78,2.11a3.42,3.42,0,0,0,.06,4.21c1,1.39,2.88,2.09,5.72,2.09H656q7,0,11.23,3.21a15.44,15.44,0,0,1,5.6,7.89,16,16,0,0,1,0,9.33,15.42,15.42,0,0,1-5.6,7.88Q663,95.26,656,95.27H635.75V84.75H656c2.94,0,4.88-.86,5.81-2.63a5.18,5.18,0,0,0-.1-5.27q-1.45-2.64-5.71-2.64h-5.65q-7.12,0-11.39-3a14.51,14.51,0,0,1-5.71-7.35,13.6,13.6,0,0,1,0-8.69,14.48,14.48,0,0,1,5.71-7.34q4.26-3,11.39-3Z"/><path class="cls-279" d="M701.87,95.27H691.79V54.94H679.73V44.87H714V54.94H701.94Z"/><path class="cls-279" d="M173.27,117.6c0-4.71,0-9.72.17-12.48h-.12c-1.2,4.83-4.94,15.84-7.54,23.24h-3.29c-1.94-6.2-5.77-18.29-7-23.3h-.15c.21,3,.3,8.76.3,13.27v10.09h-3.38V102.48h5.42c2.54,7.36,5.8,17.63,6.66,21.26h.06c.53-2.64,4.47-13.85,7.13-21.26h5.27v25.88h-3.54Z"/><path class="cls-279" d="M195.55,120.82l-2.41,7.54h-3.62c1.54-4.56,6.62-20.69,8.34-25.88h4.61l8.72,25.88h-3.85l-2.48-7.54Zm8.51-3.07c-2.07-6.41-3.42-10.23-3.94-12.36h0c-.7,3-2,7-3.73,12.36Z"/><path class="cls-279" d="M227.56,116.8v11.56H224V102.48h9.44c4.64,0,7.91,2.3,7.91,6.74a5.88,5.88,0,0,1-4.22,6c2.69.89,3.8,3,3.8,6.47v.49a36.73,36.73,0,0,0,.36,6.11h-3.55a24.55,24.55,0,0,1-.44-6.11v-.54c0-3.54-1.29-4.91-5.39-4.91Zm0-3h4.62c3.22,0,5.5-.91,5.5-4.4,0-2.69-1.84-4-4.75-4h-5.38Z"/><path class="cls-279" d="M255.67,102.48h3.55v12.81c2.88-3.32,7.87-9,11.13-12.81h4.35l-9.53,10.66,10.1,15.22h-4.34l-8.27-12.82-3.42,3.55v9.27h-3.61Z"/><path class="cls-279" d="M302.49,116.35h-11.6v9h12.76l-.47,3H287.35V102.48H303v3.06H290.89v7.73h11.6Z"/><path class="cls-279" d="M321.94,105.56h-7.48v-3.08H333.1v3.08h-7.52v22.8H322Z"/><path class="cls-279" d="M349.33,102.48v25.88h-3.62V102.48Z"/><path class="cls-279" d="M364.68,128.36V102.48h4.74c9.85,17.88,11.21,20.38,11.67,21.53h0c-.24-3.37-.28-7.55-.28-11.76v-9.77h3.38v25.88h-4.43c-10.54-19.4-11.38-21.12-11.9-22.18h0c.18,3.33.16,7.7.16,12.34v9.84Z"/><path class="cls-279" d="M419,128.36h-2.77a24.44,24.44,0,0,1-.3-3.62c-1.36,2.9-3.92,4-7.53,4-6.78,0-10.12-5.76-10.12-13.19s4-13.42,11.29-13.42c5.63,0,8.74,3,9.49,7.53h-3.62c-.71-2.58-2.35-4.53-6.1-4.53-5.2,0-7.38,4.65-7.38,10.44,0,5.43,2.08,10.18,7.06,10.18,5.25,0,6.36-3.62,6.36-8.13v-.15H409V114.3h10Z"/><path class="cls-279" d="M454.23,121a5.25,5.25,0,0,0,5.64,4.83h0c3.09,0,4.95-1.53,4.95-4.21s-1.38-3.94-5.78-5.28c-5.53-1.66-7.61-3.52-7.61-7.24,0-4.24,3.25-6.9,8.09-6.9,5.71,0,8.14,3.28,8.45,7h-3.62a4.42,4.42,0,0,0-4.65-4.17l-.26,0c-2.91,0-4.35,1.41-4.35,3.67s1.34,3.22,5.41,4.44c6.44,1.93,8,4.42,8,8,0,4.28-2.95,7.51-8.81,7.51-5.44,0-8.71-2.87-9.07-7.67Z"/><path class="cls-279" d="M503.16,115.28c0,7.42-3.5,13.47-11.21,13.47-7.32,0-10.85-5.79-10.85-13.47,0-6.71,3.52-13.15,11.21-13.15C499.55,102.13,503.16,107.91,503.16,115.28Zm-18.36,0c0,5.89,2.41,10.51,7.33,10.51,5.18,0,7.32-4.51,7.32-10.47,0-5.69-2.18-10.16-7.32-10.16s-7.33,4.48-7.33,10.08Z"/><path class="cls-279" d="M517.19,102.48h3.62v22.85h12.31l-.48,3H517.2Z"/><path class="cls-279" d="M549.08,102.48V119c0,3.89,1.37,6.78,5.85,6.78s5.74-2.76,5.74-6.79V102.48h3.69v16.59c0,5.46-2.28,9.65-9.52,9.65-6.8,0-9.4-3.62-9.4-9.51V102.48Z"/><path class="cls-279" d="M584.18,105.56h-7.49v-3.08h18.63v3.08h-7.5v22.8h-3.61Z"/><path class="cls-279" d="M611.56,102.48v25.88h-3.62V102.48Z"/><path class="cls-279" d="M647.72,115.28c0,7.42-3.5,13.47-11.2,13.47-7.32,0-10.85-5.79-10.85-13.47,0-6.71,3.52-13.15,11.21-13.15C644.12,102.13,647.72,107.91,647.72,115.28Zm-18.35,0c0,5.89,2.41,10.51,7.34,10.51,5.18,0,7.31-4.51,7.31-10.47,0-5.69-2.18-10.16-7.32-10.16s-7.33,4.48-7.33,10.08Z"/><path class="cls-279" d="M661.76,128.36V102.48h4.74c9.84,17.88,11.21,20.38,11.67,21.53h0c-.25-3.37-.29-7.55-.29-11.76v-9.77h3.39v25.88h-4.44c-10.52-19.4-11.37-21.12-11.89-22.18h0c.2,3.33.17,7.7.17,12.34v9.84Z"/><path class="cls-279" d="M698.56,121a5.26,5.26,0,0,0,5.64,4.83c3.08,0,4.94-1.53,4.94-4.21s-1.37-3.94-5.78-5.28c-5.53-1.66-7.61-3.52-7.61-7.24,0-4.24,3.25-6.9,8.1-6.9,5.71,0,8.14,3.28,8.44,7h-3.62a4.44,4.44,0,0,0-4.67-4.17l-.25,0c-2.91,0-4.35,1.41-4.35,3.67s1.35,3.22,5.41,4.44c6.44,1.93,8,4.42,8,8,0,4.28-2.94,7.51-8.82,7.51-5.43,0-8.7-2.87-9.06-7.67Z"/></svg>