<svg id="Layer_1" data-name="Layer 1" xmlns="http://www.w3.org/2000/svg" viewBox="0 0 118 100"><defs><style>.cls-1{fill:#b3afaf;}.cls-1,.cls-2{fill-rule:evenodd;}.cls-2{fill:#e5bf43;}</style></defs><g id="LINKEDIN_006" data-name="LINKEDIN 006"><path id="LOGO" class="cls-1" d="M38.57,37.06h8.86v28.5H38.57Zm42,12.87V65.56H71.76V51.7c0-3.31-.06-7.56-4.61-7.56s-5.31,3.6-5.31,7.32v14.1H53V37.06h8.49V41h.12A9.3,9.3,0,0,1,70,36.35C79,36.35,80.61,42.25,80.61,49.93ZM48.14,28A5.14,5.14,0,1,1,43,22.89,5.14,5.14,0,0,1,48.14,28Z"/></g><g id="LINKEDIN_006-2" data-name="LINKEDIN 006"><path id="LOGO-2" data-name="LOGO" class="cls-2" d="M37.57,37.06h8.86v28.5H37.57Zm42,12.87V65.56H70.76V51.7c0-3.31-.06-7.56-4.61-7.56s-5.31,3.6-5.31,7.32v14.1H52V37.06h8.49V41h.12A9.3,9.3,0,0,1,69,36.35C78,36.35,79.61,42.25,79.61,49.93ZM47.14,28A5.14,5.14,0,1,1,42,22.89,5.14,5.14,0,0,1,47.14,28Z"/></g></svg>