<svg id="Layer_1" data-name="Layer 1" xmlns="http://www.w3.org/2000/svg" xmlns:xlink="http://www.w3.org/1999/xlink" viewBox="0 0 277.51 269.77"><defs><style>.cls-1{fill:none;}.cls-2{clip-path:url(#clip-path);}.cls-3{fill:#fdd34b;}.cls-10,.cls-100,.cls-101,.cls-102,.cls-103,.cls-104,.cls-105,.cls-106,.cls-107,.cls-108,.cls-109,.cls-11,.cls-110,.cls-111,.cls-112,.cls-113,.cls-114,.cls-115,.cls-116,.cls-117,.cls-118,.cls-119,.cls-12,.cls-120,.cls-122,.cls-123,.cls-124,.cls-125,.cls-126,.cls-127,.cls-128,.cls-129,.cls-13,.cls-130,.cls-131,.cls-132,.cls-133,.cls-134,.cls-135,.cls-136,.cls-137,.cls-138,.cls-139,.cls-14,.cls-140,.cls-141,.cls-142,.cls-143,.cls-144,.cls-145,.cls-146,.cls-147,.cls-148,.cls-149,.cls-15,.cls-150,.cls-151,.cls-152,.cls-153,.cls-154,.cls-155,.cls-156,.cls-157,.cls-158,.cls-159,.cls-16,.cls-160,.cls-161,.cls-162,.cls-163,.cls-164,.cls-165,.cls-166,.cls-167,.cls-168,.cls-169,.cls-17,.cls-170,.cls-171,.cls-172,.cls-173,.cls-174,.cls-175,.cls-176,.cls-177,.cls-178,.cls-179,.cls-18,.cls-180,.cls-181,.cls-182,.cls-183,.cls-184,.cls-185,.cls-186,.cls-188,.cls-189,.cls-19,.cls-190,.cls-191,.cls-192,.cls-193,.cls-194,.cls-195,.cls-196,.cls-197,.cls-198,.cls-199,.cls-20,.cls-200,.cls-201,.cls-202,.cls-203,.cls-204,.cls-205,.cls-206,.cls-207,.cls-208,.cls-209,.cls-21,.cls-210,.cls-211,.cls-212,.cls-213,.cls-214,.cls-215,.cls-216,.cls-217,.cls-218,.cls-219,.cls-22,.cls-220,.cls-221,.cls-222,.cls-223,.cls-224,.cls-225,.cls-226,.cls-227,.cls-228,.cls-229,.cls-23,.cls-230,.cls-231,.cls-232,.cls-233,.cls-234,.cls-235,.cls-236,.cls-237,.cls-238,.cls-239,.cls-24,.cls-240,.cls-241,.cls-242,.cls-243,.cls-244,.cls-245,.cls-246,.cls-247,.cls-248,.cls-25,.cls-250,.cls-251,.cls-252,.cls-253,.cls-254,.cls-255,.cls-256,.cls-257,.cls-258,.cls-259,.cls-26,.cls-260,.cls-261,.cls-262,.cls-263,.cls-264,.cls-265,.cls-266,.cls-267,.cls-268,.cls-269,.cls-27,.cls-270,.cls-271,.cls-272,.cls-273,.cls-274,.cls-275,.cls-276,.cls-277,.cls-278,.cls-28,.cls-29,.cls-3,.cls-30,.cls-31,.cls-32,.cls-33,.cls-34,.cls-35,.cls-36,.cls-37,.cls-38,.cls-39,.cls-4,.cls-40,.cls-41,.cls-42,.cls-43,.cls-44,.cls-45,.cls-46,.cls-47,.cls-48,.cls-49,.cls-5,.cls-50,.cls-51,.cls-52,.cls-53,.cls-54,.cls-55,.cls-56,.cls-57,.cls-58,.cls-59,.cls-6,.cls-60,.cls-61,.cls-62,.cls-63,.cls-64,.cls-65,.cls-66,.cls-67,.cls-68,.cls-69,.cls-7,.cls-70,.cls-71,.cls-72,.cls-73,.cls-74,.cls-75,.cls-76,.cls-77,.cls-78,.cls-79,.cls-8,.cls-80,.cls-81,.cls-82,.cls-83,.cls-84,.cls-85,.cls-86,.cls-87,.cls-88,.cls-89,.cls-9,.cls-90,.cls-91,.cls-92,.cls-93,.cls-94,.cls-95,.cls-96,.cls-97,.cls-98,.cls-99{fill-rule:evenodd;}.cls-4{fill:#fcd34b;}.cls-5{fill:#fcd249;}.cls-6{fill:#fbd249;}.cls-7{fill:#fcd14a;}.cls-8{fill:#fad14a;}.cls-9{fill:#fbd048;}.cls-10{fill:#f9d048;}.cls-11{fill:#f8cf49;}.cls-12{fill:#f7ce49;}.cls-13{fill:#f6ce47;}.cls-14{fill:#f6cd48;}.cls-15{fill:#f5cd48;}.cls-16{fill:#f5cc48;}.cls-17{fill:#f4cc48;}.cls-18{fill:#f4cb48;}.cls-19{fill:#f3cb48;}.cls-20{fill:#f2ca48;}.cls-21{fill:#f2ca47;}.cls-22{fill:#f1ca47;}.cls-23{fill:#f1c947;}.cls-24{fill:#f0c947;}.cls-25{fill:#f0c847;}.cls-26{fill:#efc847;}.cls-27{fill:#efc747;}.cls-28{fill:#eec747;}.cls-29{fill:#edc646;}.cls-30{fill:#ecc646;}.cls-31{fill:#ecc546;}.cls-32{fill:#ebc546;}.cls-33{fill:#ebc446;}.cls-34{fill:#eac446;}.cls-35{fill:#eac347;}.cls-36{fill:#e9c347;}.cls-37{fill:#e9c345;}.cls-38{fill:#e8c245;}.cls-39{fill:#e7c146;}.cls-40{fill:#e5c146;}.cls-41{fill:#e6c046;}.cls-42{fill:#e4c046;}.cls-43{fill:#e5bf45;}.cls-44{fill:#e3bf45;}.cls-45{fill:#e4be45;}.cls-46{fill:#e3be45;}.cls-47{fill:#e2bd44;}.cls-48{fill:#e1bc44;}.cls-49{fill:#dfbc44;}.cls-50{fill:#e0bb43;}.cls-51{fill:#debb43;}.cls-52{fill:#ddba43;}.cls-53{fill:#dcb943;}.cls-54{fill:#dbb843;}.cls-55{fill:#dbb842;}.cls-56{fill:#dab742;}.cls-57{fill:#d9b642;}.cls-58{fill:#d8b542;}.cls-59{fill:#d7b542;}.cls-60{fill:#d7b541;}.cls-61{fill:#d7b441;}.cls-62{fill:#d6b441;}.cls-63{fill:#d6b341;}.cls-64{fill:#d5b341;}.cls-65{fill:#d5b241;}.cls-66{fill:#d4b241;}.cls-67{fill:#d3b241;}.cls-68{fill:#d3b240;}.cls-69{fill:#d2b240;}.cls-70{fill:#d2b040;}.cls-71{fill:#d1b040;}.cls-72{fill:#d1af41;}.cls-73{fill:#d0af41;}.cls-74{fill:#d0ae41;}.cls-75{fill:#cfae41;}.cls-76{fill:#cead40;}.cls-77{fill:#cdac40;}.cls-78{fill:#cbab40;}.cls-79{fill:#caaa3f;}.cls-80{fill:#c9a93f;}.cls-81{fill:#c7a83e;}.cls-82{fill:#c6a73e;}.cls-83{fill:#c5a63d;}.cls-84{fill:#c4a43d;}.cls-85{fill:#c3a33d;}.cls-86{fill:#c0a23c;}.cls-87{fill:#bfa13c;}.cls-88{fill:#bea03c;}.cls-89{fill:#bd9f3c;}.cls-90{fill:#bc9e3b;}.cls-91{fill:#ba9d3b;}.cls-92{fill:#b99c3b;}.cls-93{fill:#b89b3a;}.cls-94{fill:#b69a3a;}.cls-95{fill:#b5993b;}.cls-96{fill:#b49839;}.cls-97{fill:#b1973a;}.cls-98{fill:#b0963a;}.cls-99{fill:#af9538;}.cls-100{fill:#ae9439;}.cls-101{fill:#ad9337;}.cls-102{fill:#ac9238;}.cls-103{fill:#ab9136;}.cls-104{fill:#a98f37;}.cls-105{fill:#a88e37;}.cls-106{fill:#a78d37;}.cls-107{fill:#a58c36;}.cls-108{fill:#a48b36;}.cls-109{fill:#a38a36;}.cls-110{fill:#a18935;}.cls-111{fill:#a08835;}.cls-112{fill:#9e8835;}.cls-113{fill:#9f8735;}.cls-114{fill:#9d8735;}.cls-115{fill:#9e8635;}.cls-116{fill:#9c8634;}.cls-117{fill:#9d8534;}.cls-118{fill:#9b8534;}.cls-119{fill:#9c8434;}.cls-120{fill:#9a8434;}.cls-121{clip-path:url(#clip-path-2);}.cls-122{fill:#facf49;}.cls-123{fill:#f7cf49;}.cls-124{fill:#f7ce47;}.cls-125{fill:#f4cc46;}.cls-126{fill:#f4cb47;}.cls-127{fill:#f3cb47;}.cls-128{fill:#f0c946;}.cls-129{fill:#f0c846;}.cls-130{fill:#efc846;}.cls-131{fill:#efc746;}.cls-132{fill:#eec746;}.cls-133{fill:#eec646;}.cls-134{fill:#edc645;}.cls-135{fill:#ecc545;}.cls-136{fill:#ebc545;}.cls-137{fill:#ebc445;}.cls-138{fill:#eac445;}.cls-139{fill:#eac345;}.cls-140{fill:#e9c344;}.cls-141{fill:#e8c244;}.cls-142{fill:#e7c144;}.cls-143{fill:#e5c144;}.cls-144{fill:#e6c044;}.cls-145{fill:#e6c043;}.cls-146{fill:#e4c043;}.cls-147{fill:#e5bf43;}.cls-148{fill:#e3bf43;}.cls-149{fill:#e4be43;}.cls-150{fill:#e3be43;}.cls-151{fill:#e2bd42;}.cls-152{fill:#e1bc42;}.cls-153{fill:#dfbc42;}.cls-154{fill:#dfba41;}.cls-155{fill:#ddba41;}.cls-156{fill:#dcb942;}.cls-157{fill:#dab741;}.cls-158{fill:#d9b641;}.cls-159{fill:#d8b540;}.cls-160{fill:#d7b440;}.cls-161{fill:#d6b440;}.cls-162{fill:#d6b340;}.cls-163{fill:#d5b240;}.cls-164{fill:#d4b23f;}.cls-165{fill:#d3b23f;}.cls-166{fill:#d2b23f;}.cls-167{fill:#d2b03f;}.cls-168{fill:#d1af3f;}.cls-169{fill:#d0af3f;}.cls-170{fill:#cfae3f;}.cls-171{fill:#cead3e;}.cls-172{fill:#cdac3e;}.cls-173{fill:#ccab3f;}.cls-174{fill:#cbab3f;}.cls-175{fill:#caa93e;}.cls-176{fill:#c9a93e;}.cls-177{fill:#c8a83e;}.cls-178{fill:#c6a63d;}.cls-179{fill:#c3a33c;}.cls-180{fill:#c2a23c;}.cls-181{fill:#bea03b;}.cls-182{fill:#bd9f3b;}.cls-183{fill:#bc9f3b;}.cls-184{fill:#bb9e3b;}.cls-185{fill:#bb9d3b;}.cls-186{fill:#b99c3a;}.cls-187{clip-path:url(#clip-path-3);}.cls-188{fill:#9e8836;}.cls-189{fill:#a08836;}.cls-190{fill:#9f8936;}.cls-191{fill:#a18936;}.cls-192{fill:#a08a36;}.cls-193{fill:#a28a36;}.cls-194{fill:#a18b36;}.cls-195{fill:#a38b36;}.cls-196{fill:#a38b37;}.cls-197{fill:#a28c37;}.cls-198{fill:#a48c37;}.cls-199{fill:#a58d37;}.cls-200{fill:#a68e37;}.cls-201{fill:#a78f37;}.cls-202{fill:#a88f38;}.cls-203{fill:#a99038;}.cls-204{fill:#a99138;}.cls-205{fill:#aa9138;}.cls-206{fill:#ab9238;}.cls-207{fill:#ac9339;}.cls-208{fill:#ad9339;}.cls-209{fill:#b2983b;}.cls-210{fill:#b3993b;}.cls-211{fill:#b49a3c;}.cls-212{fill:#b59b3c;}.cls-213{fill:#b79b3c;}.cls-214{fill:#b89c3b;}.cls-215{fill:#b99d3b;}.cls-216{fill:#ba9e3b;}.cls-217{fill:#bb9e3c;}.cls-218{fill:#bb9f3c;}.cls-219{fill:#bc9f3c;}.cls-220{fill:#bda03c;}.cls-221{fill:#bea13c;}.cls-222{fill:#bfa23d;}.cls-223{fill:#c0a23d;}.cls-224{fill:#c2a23d;}.cls-225{fill:#c1a33d;}.cls-226{fill:#c4a43e;}.cls-227{fill:#c5a63e;}.cls-228{fill:#c8a93f;}.cls-229{fill:#caab40;}.cls-230{fill:#ccac40;}.cls-231{fill:#cdad40;}.cls-232{fill:#ceae41;}.cls-233{fill:#cfaf41;}.cls-234{fill:#d1b042;}.cls-235{fill:#d2b042;}.cls-236{fill:#d2b241;}.cls-237{fill:#d4b341;}.cls-238{fill:#d5b441;}.cls-239{fill:#d6b442;}.cls-240{fill:#d8b642;}.cls-241{fill:#d9b742;}.cls-242{fill:#dab743;}.cls-243{fill:#debb44;}.cls-244{fill:#e6c245;}.cls-245{fill:#e7c347;}.cls-246{fill:#edc647;}.cls-247{fill:#f1ca48;}.cls-248{fill:#f6ce49;}.cls-249{clip-path:url(#clip-path-4);}.cls-250{fill:#928032;}.cls-251{fill:#948034;}.cls-252{fill:#958034;}.cls-253{fill:#968034;}.cls-254{fill:#968133;}.cls-255{fill:#978133;}.cls-256{fill:#988235;}.cls-257{fill:#9a8235;}.cls-258{fill:#998335;}.cls-259{fill:#9a8436;}.cls-260{fill:#9b8536;}.cls-261{fill:#9c8635;}.cls-262{fill:#9f8737;}.cls-263{fill:#a48b37;}.cls-264{fill:#a58c37;}.cls-265{fill:#a68d37;}.cls-266{fill:#a78e37;}.cls-267{fill:#a98f38;}.cls-268{fill:#aa9038;}.cls-269{fill:#ab9138;}.cls-270{fill:#ac9239;}.cls-271{fill:#b4983b;}.cls-272{fill:#b69a3c;}.cls-273{fill:#ba9d3d;}.cls-274{fill:#bfa13d;}.cls-275{fill:#c7a73e;}.cls-276{fill:#d7b442;}.cls-277{fill:#e0bb44;}.cls-278{fill:#f2cb48;}</style><clipPath id="clip-path"><path class="cls-1" d="M188.08,163.51,139,222.25l50.4-32.33c9.35-5.88,13.23-18.32-1.28-26.45Z"/></clipPath><clipPath id="clip-path-2"><path class="cls-1" d="M55,183.91,101,129l.4-26.92.64-57.33c0-6,6.92-10.49,16.14-10.76l-11.91-7.58C92,17.2,79.82,18.1,66.59,26.81L51.16,37,50,37.73C38,45.79,31.29,56.69,30.17,70.29L30,179v.13c.13,12.31,16.8,15.26,25,4.74Z"/></clipPath><clipPath id="clip-path-3"><path class="cls-1" d="M102.05,44.78l-.64,57.33,43-51.16L118.19,34C109,34.29,102.16,38.76,102.05,44.78Z"/></clipPath><clipPath id="clip-path-4"><path class="cls-1" d="M189.6,164.55c11.93,7.56,9.37,18.32-.24,25.51l59.86-38.46c11.55-7.95,14.62-23.34,2.31-31.92l-15.25-9.88c-11.29-7.32-24.61-1.17-29.48,4.74l-33.16,39.78Z"/></clipPath></defs><g class="cls-2"><polyline class="cls-3" points="138.96 163.51 139.09 163.51 139.09 222.25 138.96 222.25"/><polyline class="cls-3" points="138.96 163.51 139.22 163.51 139.22 222.25 138.96 222.25"/><polyline class="cls-4" points="139.22 163.51 139.48 163.51 139.48 222.25 139.22 222.25"/><polyline class="cls-5" points="139.35 163.51 139.73 163.51 139.73 222.25 139.35 222.25"/><polyline class="cls-5" points="139.59 163.51 139.99 163.51 139.99 222.25 139.59 222.25"/><polyline class="cls-5" points="139.86 163.51 140.26 163.51 140.26 222.25 139.86 222.25"/><polyline class="cls-6" points="140.12 163.51 140.37 163.51 140.37 222.25 140.12 222.25"/><polyline class="cls-7" points="140.37 163.51 140.63 163.51 140.63 222.25 140.37 222.25"/><polyline class="cls-7" points="140.5 163.51 140.9 163.51 140.9 222.25 140.5 222.25"/><polyline class="cls-7" points="140.76 163.51 141.14 163.51 141.14 222.25 140.76 222.25"/><polyline class="cls-8" points="141.01 163.51 141.4 163.51 141.4 222.25 141.01 222.25"/><polyline class="cls-8" points="141.27 163.51 141.53 163.51 141.53 222.25 141.27 222.25"/><polyline class="cls-9" points="141.4 163.51 141.78 163.51 141.78 222.25 141.4 222.25"/><polyline class="cls-9" points="141.67 163.51 142.04 163.51 142.04 222.25 141.67 222.25"/><polyline class="cls-10" points="141.91 163.51 142.31 163.51 142.31 222.25 141.91 222.25"/><polyline class="cls-10" points="142.17 163.51 142.55 163.51 142.55 222.25 142.17 222.25"/><polyline class="cls-10" points="142.42 163.51 142.68 163.51 142.68 222.25 142.42 222.25"/><polyline class="cls-11" points="142.55 163.51 142.95 163.51 142.95 222.25 142.55 222.25"/><polyline class="cls-11" points="142.81 163.51 143.19 163.51 143.19 222.25 142.81 222.25"/><polyline class="cls-11" points="143.06 163.51 143.45 163.51 143.45 222.25 143.06 222.25"/><polyline class="cls-11" points="143.32 163.51 143.59 163.51 143.59 222.25 143.32 222.25"/><polyline class="cls-12" points="143.59 163.51 143.83 163.51 143.83 222.25 143.59 222.25"/><polyline class="cls-12" points="143.69 163.51 144.09 163.51 144.09 222.25 143.69 222.25"/><polyline class="cls-12" points="143.96 163.51 144.36 163.51 144.36 222.25 143.96 222.25"/><polyline class="cls-12" points="144.22 163.51 144.6 163.51 144.6 222.25 144.22 222.25"/><polyline class="cls-13" points="144.47 163.51 144.73 163.51 144.73 222.25 144.47 222.25"/><polyline class="cls-14" points="144.73 163.51 145 163.51 145 222.25 144.73 222.25"/><polyline class="cls-14" points="144.86 163.51 145.24 163.51 145.24 222.25 144.86 222.25"/><polyline class="cls-15" points="145.11 163.51 145.5 163.51 145.5 222.25 145.11 222.25"/><polyline class="cls-15" points="145.37 163.51 145.77 163.51 145.77 222.25 145.37 222.25"/><polyline class="cls-15" points="145.64 163.51 145.88 163.51 145.88 222.25 145.64 222.25"/><polyline class="cls-16" points="145.77 163.51 146.14 163.51 146.14 222.25 145.77 222.25"/><polyline class="cls-17" points="146.01 163.51 146.41 163.51 146.41 222.25 146.01 222.25"/><polyline class="cls-17" points="146.28 163.51 146.65 163.51 146.65 222.25 146.28 222.25"/><polyline class="cls-17" points="146.52 163.51 146.91 163.51 146.91 222.25 146.52 222.25"/><polyline class="cls-18" points="146.78 163.51 147.05 163.51 147.05 222.25 146.78 222.25"/><polyline class="cls-19" points="146.91 163.51 147.29 163.51 147.29 222.25 146.91 222.25"/><polyline class="cls-19" points="147.18 163.51 147.55 163.51 147.55 222.25 147.18 222.25"/><polyline class="cls-19" points="147.42 163.51 147.82 163.51 147.82 222.25 147.42 222.25"/><polyline class="cls-19" points="147.69 163.51 147.93 163.51 147.93 222.25 147.69 222.25"/><polyline class="cls-20" points="147.93 163.51 148.19 163.51 148.19 222.25 147.93 222.25"/><polyline class="cls-20" points="148.06 163.51 148.46 163.51 148.46 222.25 148.06 222.25"/><polyline class="cls-21" points="148.33 163.51 148.7 163.51 148.7 222.25 148.33 222.25"/><polyline class="cls-22" points="148.59 163.51 148.97 163.51 148.97 222.25 148.59 222.25"/><polyline class="cls-23" points="148.83 163.51 149.1 163.51 149.1 222.25 148.83 222.25"/><polyline class="cls-23" points="149.1 163.51 149.34 163.51 149.34 222.25 149.1 222.25"/><polyline class="cls-23" points="149.23 163.51 149.6 163.51 149.6 222.25 149.23 222.25"/><polyline class="cls-24" points="149.47 163.51 149.87 163.51 149.87 222.25 149.47 222.25"/><polyline class="cls-24" points="149.74 163.51 150.11 163.51 150.11 222.25 149.74 222.25"/><polyline class="cls-25" points="150 163.51 150.24 163.51 150.24 222.25 150 222.25"/><polyline class="cls-25" points="150.11 163.51 150.51 163.51 150.51 222.25 150.11 222.25"/><polyline class="cls-26" points="150.38 163.51 150.75 163.51 150.75 222.25 150.38 222.25"/><polyline class="cls-26" points="150.62 163.51 151.01 163.51 151.01 222.25 150.62 222.25"/><polyline class="cls-26" points="150.88 163.51 151.15 163.51 151.15 222.25 150.88 222.25"/><polyline class="cls-27" points="151.15 163.51 151.39 163.51 151.39 222.25 151.15 222.25"/><polyline class="cls-28" points="151.28 163.51 151.66 163.51 151.66 222.25 151.28 222.25"/><polyline class="cls-28" points="151.52 163.51 151.92 163.51 151.92 222.25 151.52 222.25"/><polyline class="cls-28" points="151.79 163.51 152.16 163.51 152.16 222.25 151.79 222.25"/><polyline class="cls-29" points="152.03 163.51 152.29 163.51 152.29 222.25 152.03 222.25"/><polyline class="cls-29" points="152.29 163.51 152.56 163.51 152.56 222.25 152.29 222.25"/><polyline class="cls-29" points="152.43 163.51 152.8 163.51 152.8 222.25 152.43 222.25"/><polyline class="cls-29" points="152.69 163.51 153.07 163.51 153.07 222.25 152.69 222.25"/><polyline class="cls-30" points="152.93 163.51 153.33 163.51 153.33 222.25 152.93 222.25"/><polyline class="cls-31" points="153.2 163.51 153.44 163.51 153.44 222.25 153.2 222.25"/><polyline class="cls-31" points="153.33 163.51 153.71 163.51 153.71 222.25 153.33 222.25"/><polyline class="cls-31" points="153.57 163.51 153.97 163.51 153.97 222.25 153.57 222.25"/><polyline class="cls-32" points="153.84 163.51 154.21 163.51 154.21 222.25 153.84 222.25"/><polyline class="cls-32" points="154.1 163.51 154.48 163.51 154.48 222.25 154.1 222.25"/><polyline class="cls-33" points="154.34 163.51 154.61 163.51 154.61 222.25 154.34 222.25"/><polyline class="cls-33" points="154.48 163.51 154.85 163.51 154.85 222.25 154.48 222.25"/><polyline class="cls-34" points="154.74 163.51 155.12 163.51 155.12 222.25 154.74 222.25"/><polyline class="cls-34" points="154.98 163.51 155.38 163.51 155.38 222.25 154.98 222.25"/><polyline class="cls-35" points="155.25 163.51 155.51 163.51 155.51 222.25 155.25 222.25"/><polyline class="cls-36" points="155.51 163.51 155.76 163.51 155.76 222.25 155.51 222.25"/><polyline class="cls-36" points="155.62 163.51 156.02 163.51 156.02 222.25 155.62 222.25"/><polyline class="cls-37" points="155.89 163.51 156.26 163.51 156.26 222.25 155.89 222.25"/><polyline class="cls-37" points="156.15 163.51 156.53 163.51 156.53 222.25 156.15 222.25"/><polyline class="cls-38" points="156.4 163.51 156.66 163.51 156.66 222.25 156.4 222.25"/><polyline class="cls-38" points="156.66 163.51 156.92 163.51 156.92 222.25 156.66 222.25"/><polyline class="cls-38" points="156.79 163.51 157.17 163.51 157.17 222.25 156.79 222.25"/><polyline class="cls-38" points="157.03 163.51 157.43 163.51 157.43 222.25 157.03 222.25"/><polyline class="cls-39" points="157.3 163.51 157.67 163.51 157.67 222.25 157.3 222.25"/><polyline class="cls-39" points="157.56 163.51 157.81 163.51 157.81 222.25 157.56 222.25"/><polyline class="cls-39" points="157.67 163.51 158.07 163.51 158.07 222.25 157.67 222.25"/><polyline class="cls-40" points="157.94 163.51 158.34 163.51 158.34 222.25 157.94 222.25"/><polyline class="cls-40" points="158.2 163.51 158.58 163.51 158.58 222.25 158.2 222.25"/><polyline class="cls-41" points="158.45 163.51 158.84 163.51 158.84 222.25 158.45 222.25"/><polyline class="cls-41" points="158.71 163.51 158.95 163.51 158.95 222.25 158.71 222.25"/><polyline class="cls-42" points="158.84 163.51 159.22 163.51 159.22 222.25 158.84 222.25"/><polyline class="cls-42" points="159.09 163.51 159.48 163.51 159.48 222.25 159.09 222.25"/><polyline class="cls-42" points="159.35 163.51 159.72 163.51 159.72 222.25 159.35 222.25"/><polyline class="cls-43" points="159.61 163.51 159.86 163.51 159.86 222.25 159.61 222.25"/><polyline class="cls-44" points="159.86 163.51 160.12 163.51 160.12 222.25 159.86 222.25"/><polyline class="cls-44" points="159.99 163.51 160.36 163.51 160.36 222.25 159.99 222.25"/><polyline class="cls-44" points="160.25 163.51 160.63 163.51 160.63 222.25 160.25 222.25"/><polyline class="cls-45" points="160.5 163.51 160.89 163.51 160.89 222.25 160.5 222.25"/><polyline class="cls-46" points="160.76 163.51 161.03 163.51 161.03 222.25 160.76 222.25"/><polyline class="cls-46" points="161.03 163.51 161.27 163.51 161.27 222.25 161.03 222.25"/><polyline class="cls-46" points="161.14 163.51 161.53 163.51 161.53 222.25 161.14 222.25"/><polyline class="cls-46" points="161.4 163.51 161.8 163.51 161.8 222.25 161.4 222.25"/><polyline class="cls-47" points="161.66 163.51 162.04 163.51 162.04 222.25 161.66 222.25"/><polyline class="cls-47" points="161.91 163.51 162.17 163.51 162.17 222.25 161.91 222.25"/><polyline class="cls-47" points="162.04 163.51 162.44 163.51 162.44 222.25 162.04 222.25"/><polyline class="cls-47" points="162.3 163.51 162.68 163.51 162.68 222.25 162.3 222.25"/><polyline class="cls-47" points="162.55 163.51 162.94 163.51 162.94 222.25 162.55 222.25"/><polyline class="cls-48" points="162.81 163.51 163.19 163.51 163.19 222.25 162.81 222.25"/><polyline class="cls-48" points="163.08 163.51 163.32 163.51 163.32 222.25 163.08 222.25"/><polyline class="cls-49" points="163.19 163.51 163.58 163.51 163.58 222.25 163.19 222.25"/><polyline class="cls-49" points="163.45 163.51 163.85 163.51 163.85 222.25 163.45 222.25"/><polyline class="cls-50" points="163.72 163.51 164.09 163.51 164.09 222.25 163.72 222.25"/><polyline class="cls-50" points="163.96 163.51 164.22 163.51 164.22 222.25 163.96 222.25"/><polyline class="cls-51" points="164.22 163.51 164.49 163.51 164.49 222.25 164.22 222.25"/><polyline class="cls-51" points="164.35 163.51 164.73 163.51 164.73 222.25 164.35 222.25"/><polyline class="cls-51" points="164.6 163.51 164.99 163.51 164.99 222.25 164.6 222.25"/><polyline class="cls-52" points="164.86 163.51 165.24 163.51 165.24 222.25 164.86 222.25"/><polyline class="cls-52" points="165.13 163.51 165.37 163.51 165.37 222.25 165.13 222.25"/><polyline class="cls-52" points="165.37 163.51 165.63 163.51 165.63 222.25 165.37 222.25"/><polyline class="cls-52" points="165.5 163.51 165.88 163.51 165.88 222.25 165.5 222.25"/><polyline class="cls-52" points="165.77 163.51 166.14 163.51 166.14 222.25 165.77 222.25"/><polyline class="cls-53" points="166.01 163.51 166.41 163.51 166.41 222.25 166.01 222.25"/><polyline class="cls-53" points="166.27 163.51 166.54 163.51 166.54 222.25 166.27 222.25"/><polyline class="cls-53" points="166.41 163.51 166.78 163.51 166.78 222.25 166.41 222.25"/><polyline class="cls-53" points="166.65 163.51 167.04 163.51 167.04 222.25 166.65 222.25"/><polyline class="cls-54" points="166.91 163.51 167.31 163.51 167.31 222.25 166.91 222.25"/><polyline class="cls-55" points="167.18 163.51 167.42 163.51 167.42 222.25 167.18 222.25"/><polyline class="cls-55" points="167.42 163.51 167.68 163.51 167.68 222.25 167.42 222.25"/><polyline class="cls-55" points="167.55 163.51 167.95 163.51 167.95 222.25 167.55 222.25"/><polyline class="cls-55" points="167.82 163.51 168.19 163.51 168.19 222.25 167.82 222.25"/><polyline class="cls-56" points="168.06 163.51 168.46 163.51 168.46 222.25 168.06 222.25"/><polyline class="cls-56" points="168.32 163.51 168.59 163.51 168.59 222.25 168.32 222.25"/><polyline class="cls-56" points="168.59 163.51 168.83 163.51 168.83 222.25 168.59 222.25"/><polyline class="cls-56" points="168.72 163.51 169.09 163.51 169.09 222.25 168.72 222.25"/><polyline class="cls-57" points="168.96 163.51 169.36 163.51 169.36 222.25 168.96 222.25"/><polyline class="cls-57" points="169.23 163.51 169.6 163.51 169.6 222.25 169.23 222.25"/><polyline class="cls-57" points="169.47 163.51 169.73 163.51 169.73 222.25 169.47 222.25"/><polyline class="cls-57" points="169.6 163.51 170 163.51 170 222.25 169.6 222.25"/><polyline class="cls-57" points="169.87 163.51 170.24 163.51 170.24 222.25 169.87 222.25"/><polyline class="cls-58" points="170.11 163.51 170.51 163.51 170.51 222.25 170.11 222.25"/><polyline class="cls-58" points="170.37 163.51 170.75 163.51 170.75 222.25 170.37 222.25"/><polyline class="cls-58" points="170.64 163.51 170.88 163.51 170.88 222.25 170.64 222.25"/><polyline class="cls-59" points="170.75 163.51 171.15 163.51 171.15 222.25 170.75 222.25"/><polyline class="cls-60" points="171.01 163.51 171.41 163.51 171.41 222.25 171.01 222.25"/><polyline class="cls-61" points="171.28 163.51 171.65 163.51 171.65 222.25 171.28 222.25"/><polyline class="cls-61" points="171.52 163.51 171.78 163.51 171.78 222.25 171.52 222.25"/><polyline class="cls-62" points="171.78 163.51 172.05 163.51 172.05 222.25 171.78 222.25"/><polyline class="cls-62" points="171.92 163.51 172.29 163.51 172.29 222.25 171.92 222.25"/><polyline class="cls-63" points="172.18 163.51 172.56 163.51 172.56 222.25 172.18 222.25"/><polyline class="cls-63" points="172.42 163.51 172.82 163.51 172.82 222.25 172.42 222.25"/><polyline class="cls-64" points="172.69 163.51 172.93 163.51 172.93 222.25 172.69 222.25"/><polyline class="cls-64" points="172.93 163.51 173.2 163.51 173.2 222.25 172.93 222.25"/><polyline class="cls-64" points="173.06 163.51 173.46 163.51 173.46 222.25 173.06 222.25"/><polyline class="cls-65" points="173.33 163.51 173.7 163.51 173.7 222.25 173.33 222.25"/><polyline class="cls-66" points="173.57 163.51 173.97 163.51 173.97 222.25 173.57 222.25"/><polyline class="cls-66" points="173.84 163.51 174.1 163.51 174.1 222.25 173.84 222.25"/><polyline class="cls-66" points="173.97 163.51 174.34 163.51 174.34 222.25 173.97 222.25"/><polyline class="cls-67" points="174.21 163.51 174.61 163.51 174.61 222.25 174.21 222.25"/><polyline class="cls-67" points="174.47 163.51 174.87 163.51 174.87 222.25 174.47 222.25"/><polyline class="cls-67" points="174.74 163.51 175.11 163.51 175.11 222.25 174.74 222.25"/><polyline class="cls-68" points="174.98 163.51 175.25 163.51 175.25 222.25 174.98 222.25"/><polyline class="cls-69" points="175.11 163.51 175.51 163.51 175.51 222.25 175.11 222.25"/><polyline class="cls-70" points="175.38 163.51 175.75 163.51 175.75 222.25 175.38 222.25"/><polyline class="cls-70" points="175.64 163.51 176.02 163.51 176.02 222.25 175.64 222.25"/><polyline class="cls-70" points="175.89 163.51 176.15 163.51 176.15 222.25 175.89 222.25"/><polyline class="cls-71" points="176.15 163.51 176.39 163.51 176.39 222.25 176.15 222.25"/><polyline class="cls-71" points="176.28 163.51 176.66 163.51 176.66 222.25 176.28 222.25"/><polyline class="cls-72" points="176.53 163.51 176.92 163.51 176.92 222.25 176.53 222.25"/><polyline class="cls-72" points="176.79 163.51 177.16 163.51 177.16 222.25 176.79 222.25"/><polyline class="cls-73" points="177.03 163.51 177.3 163.51 177.3 222.25 177.03 222.25"/><polyline class="cls-73" points="177.3 163.51 177.56 163.51 177.56 222.25 177.3 222.25"/><polyline class="cls-74" points="177.43 163.51 177.8 163.51 177.8 222.25 177.43 222.25"/><polyline class="cls-75" points="177.69 163.51 178.07 163.51 178.07 222.25 177.69 222.25"/><polyline class="cls-75" points="177.94 163.51 178.33 163.51 178.33 222.25 177.94 222.25"/><polyline class="cls-75" points="178.2 163.51 178.44 163.51 178.44 222.25 178.2 222.25"/><polyline class="cls-75" points="178.33 163.51 178.71 163.51 178.71 222.25 178.33 222.25"/><polyline class="cls-76" points="178.58 163.51 178.97 163.51 178.97 222.25 178.58 222.25"/><polyline class="cls-77" points="178.84 163.51 179.22 163.51 179.22 222.25 178.84 222.25"/><polyline class="cls-78" points="179.08 163.51 179.48 163.51 179.48 222.25 179.08 222.25"/><polyline class="cls-79" points="179.35 163.51 179.61 163.51 179.61 222.25 179.35 222.25"/><polyline class="cls-80" points="179.48 163.51 179.85 163.51 179.85 222.25 179.48 222.25"/><polyline class="cls-81" points="179.74 163.51 180.12 163.51 180.12 222.25 179.74 222.25"/><polyline class="cls-82" points="179.99 163.51 180.38 163.51 180.38 222.25 179.99 222.25"/><polyline class="cls-83" points="180.25 163.51 180.52 163.51 180.52 222.25 180.25 222.25"/><polyline class="cls-84" points="180.52 163.51 180.76 163.51 180.76 222.25 180.52 222.25"/><polyline class="cls-85" points="180.63 163.51 181.02 163.51 181.02 222.25 180.63 222.25"/><polyline class="cls-86" points="180.89 163.51 181.27 163.51 181.27 222.25 180.89 222.25"/><polyline class="cls-87" points="181.16 163.51 181.53 163.51 181.53 222.25 181.16 222.25"/><polyline class="cls-88" points="181.4 163.51 181.66 163.51 181.66 222.25 181.4 222.25"/><polyline class="cls-89" points="181.66 163.51 181.91 163.51 181.91 222.25 181.66 222.25"/><polyline class="cls-90" points="181.79 163.51 182.17 163.51 182.17 222.25 181.79 222.25"/><polyline class="cls-91" points="182.04 163.51 182.43 163.51 182.43 222.25 182.04 222.25"/><polyline class="cls-92" points="182.3 163.51 182.68 163.51 182.68 222.25 182.3 222.25"/><polyline class="cls-93" points="182.54 163.51 182.81 163.51 182.81 222.25 182.54 222.25"/><polyline class="cls-94" points="182.68 163.51 183.07 163.51 183.07 222.25 182.68 222.25"/><polyline class="cls-95" points="182.94 163.51 183.32 163.51 183.32 222.25 182.94 222.25"/><polyline class="cls-96" points="183.21 163.51 183.58 163.51 183.58 222.25 183.21 222.25"/><polyline class="cls-97" points="183.45 163.51 183.71 163.51 183.71 222.25 183.45 222.25"/><polyline class="cls-98" points="183.71 163.51 183.98 163.51 183.98 222.25 183.71 222.25"/><polyline class="cls-99" points="183.84 163.51 184.22 163.51 184.22 222.25 183.84 222.25"/><polyline class="cls-100" points="184.09 163.51 184.49 163.51 184.49 222.25 184.09 222.25"/><polyline class="cls-101" points="184.35 163.51 184.73 163.51 184.73 222.25 184.35 222.25"/><polyline class="cls-102" points="184.62 163.51 184.86 163.51 184.86 222.25 184.62 222.25"/><polyline class="cls-103" points="184.86 163.51 185.12 163.51 185.12 222.25 184.86 222.25"/><polyline class="cls-104" points="184.99 163.51 185.37 163.51 185.37 222.25 184.99 222.25"/><polyline class="cls-105" points="185.26 163.51 185.63 163.51 185.63 222.25 185.26 222.25"/><polyline class="cls-106" points="185.5 163.51 185.9 163.51 185.9 222.25 185.5 222.25"/><polyline class="cls-107" points="185.76 163.51 186.03 163.51 186.03 222.25 185.76 222.25"/><polyline class="cls-108" points="185.9 163.51 186.27 163.51 186.27 222.25 185.9 222.25"/><polyline class="cls-109" points="186.14 163.51 186.53 163.51 186.53 222.25 186.14 222.25"/><polyline class="cls-110" points="186.4 163.51 186.78 163.51 186.78 222.25 186.4 222.25"/><polyline class="cls-111" points="186.67 163.51 187.04 163.51 187.04 222.25 186.67 222.25"/><polyline class="cls-111" points="186.91 163.51 187.18 163.51 187.18 222.25 186.91 222.25"/><polyline class="cls-111" points="187.04 163.51 187.42 163.51 187.42 222.25 187.04 222.25"/><polyline class="cls-111" points="187.31 163.51 187.68 163.51 187.68 222.25 187.31 222.25"/><polyline class="cls-111" points="187.55 163.51 187.95 163.51 187.95 222.25 187.55 222.25"/><polyline class="cls-112" points="187.81 163.51 188.08 163.51 188.08 222.25 187.81 222.25"/><polyline class="cls-113" points="188.08 163.51 188.32 163.51 188.32 222.25 188.08 222.25"/><polyline class="cls-113" points="188.19 163.51 188.59 163.51 188.59 222.25 188.19 222.25"/><polyline class="cls-113" points="188.45 163.51 188.85 163.51 188.85 222.25 188.45 222.25"/><polyline class="cls-113" points="188.72 163.51 189.09 163.51 189.09 222.25 188.72 222.25"/><polyline class="cls-113" points="188.96 163.51 189.22 163.51 189.22 222.25 188.96 222.25"/><polyline class="cls-113" points="189.22 163.51 189.49 163.51 189.49 222.25 189.22 222.25"/><polyline class="cls-113" points="189.36 163.51 189.73 163.51 189.73 222.25 189.36 222.25"/><polyline class="cls-113" points="189.6 163.51 190 163.51 190 222.25 189.6 222.25"/><polyline class="cls-114" points="189.87 163.51 190.24 163.51 190.24 222.25 189.87 222.25"/><polyline class="cls-114" points="190.13 163.51 190.37 163.51 190.37 222.25 190.13 222.25"/><polyline class="cls-114" points="190.24 163.51 190.64 163.51 190.64 222.25 190.24 222.25"/><polyline class="cls-114" points="190.5 163.51 190.88 163.51 190.88 222.25 190.5 222.25"/><polyline class="cls-115" points="190.77 163.51 191.14 163.51 191.14 222.25 190.77 222.25"/><polyline class="cls-115" points="191.01 163.51 191.41 163.51 191.41 222.25 191.01 222.25"/><polyline class="cls-115" points="191.28 163.51 191.54 163.51 191.54 222.25 191.28 222.25"/><polyline class="cls-115" points="191.41 163.51 191.78 163.51 191.78 222.25 191.41 222.25"/><polyline class="cls-115" points="191.65 163.51 192.05 163.51 192.05 222.25 191.65 222.25"/><polyline class="cls-115" points="191.91 163.51 192.31 163.51 192.31 222.25 191.91 222.25"/><polyline class="cls-116" points="192.18 163.51 192.42 163.51 192.42 222.25 192.18 222.25"/><polyline class="cls-116" points="192.42 163.51 192.69 163.51 192.69 222.25 192.42 222.25"/><polyline class="cls-116" points="192.55 163.51 192.93 163.51 192.93 222.25 192.55 222.25"/><polyline class="cls-116" points="192.82 163.51 193.19 163.51 193.19 222.25 192.82 222.25"/><polyline class="cls-116" points="193.06 163.51 193.46 163.51 193.46 222.25 193.06 222.25"/><polyline class="cls-117" points="193.33 163.51 193.59 163.51 193.59 222.25 193.33 222.25"/><polyline class="cls-117" points="193.59 163.51 193.83 163.51 193.83 222.25 193.59 222.25"/><polyline class="cls-117" points="193.7 163.51 194.1 163.51 194.1 222.25 193.7 222.25"/><polyline class="cls-117" points="193.97 163.51 194.36 163.51 194.36 222.25 193.97 222.25"/><polyline class="cls-118" points="194.23 163.51 194.6 163.51 194.6 222.25 194.23 222.25"/><polyline class="cls-118" points="194.47 163.51 194.74 163.51 194.74 222.25 194.47 222.25"/><polyline class="cls-118" points="194.6 163.51 195 163.51 195 222.25 194.6 222.25"/><polyline class="cls-118" points="194.87 163.51 195.24 163.51 195.24 222.25 194.87 222.25"/><polyline class="cls-118" points="195.11 163.51 195.51 163.51 195.51 222.25 195.11 222.25"/><polyline class="cls-118" points="195.38 163.51 195.75 163.51 195.75 222.25 195.38 222.25"/><polyline class="cls-118" points="195.64 163.51 195.88 163.51 195.88 222.25 195.64 222.25"/><polyline class="cls-118" points="195.75 163.51 196.15 163.51 196.15 222.25 195.75 222.25"/><polyline class="cls-119" points="196.02 163.51 196.41 163.51 196.41 222.25 196.02 222.25"/><polyline class="cls-120" points="196.28 163.51 196.66 163.51 196.66 222.25 196.28 222.25"/><polyline class="cls-120" points="196.52 163.51 196.79 163.51 196.79 222.25 196.52 222.25"/><polyline class="cls-120" points="196.79 163.51 197.05 163.51 197.05 222.25 196.79 222.25"/><polyline class="cls-120" points="196.92 163.51 197.29 163.51 197.29 222.25 196.92 222.25"/><polyline class="cls-120" points="197.16 163.51 202.56 163.51 202.56 222.25 197.16 222.25"/></g><path class="cls-3" d="M97.55,245.2l76.09-90.88,33.07-39.69c5-5.91,18.21-12.06,29.35-4.74L179.52,73.47q-20.57-12.31-40,9.61L101,129,55,183.91c-8.2,10.51-24.87,7.56-25-4.74v37.17A33.33,33.33,0,0,0,45.4,241.85l8.34,5.4c24.25,15.26,37.83,5,43.72-2.05Z"/><g class="cls-121"><polyline class="cls-3" points="87.67 0.55 87.67 0.42 -38.86 115.56 -38.86 115.69"/><polyline class="cls-3" points="87.43 0.31 88.07 0.95 -38.62 116.08 -39.13 115.44"/><polyline class="cls-4" points="87.8 0.68 88.44 1.32 -38.23 116.46 -38.73 115.82"/><polyline class="cls-5" points="88.2 1.08 88.71 1.72 -37.85 116.86 -38.36 116.19"/><polyline class="cls-5" points="88.58 1.46 89.08 2.1 -37.45 117.23 -37.98 116.59"/><polyline class="cls-5" points="88.95 1.83 89.48 2.47 -37.08 117.63 -37.59 116.97"/><polyline class="cls-5" points="89.35 2.36 89.85 2.87 -36.68 118 -37.34 117.5"/><polyline class="cls-5" points="89.72 2.73 90.25 3.24 -36.31 118.38 -36.95 117.87"/><polyline class="cls-5" points="89.99 3.13 90.63 3.77 -36.04 118.78 -36.57 118.27"/><polyline class="cls-5" points="90.36 3.51 91.02 4.15 -35.67 119.28 -36.17 118.64"/><polyline class="cls-6" points="90.76 3.88 91.27 4.52 -35.27 119.68 -35.8 119.04"/><polyline class="cls-6" points="91.13 4.28 91.66 4.92 -34.9 120.05 -35.4 119.41"/><polyline class="cls-6" points="91.53 4.65 92.04 5.29 -34.52 120.43 -35.16 119.79"/><polyline class="cls-7" points="91.9 5.18 92.43 5.69 -34.12 120.83 -34.76 120.19"/><polyline class="cls-7" points="92.3 5.56 92.81 6.06 -33.88 121.2 -34.39 120.69"/><polyline class="cls-7" points="92.54 5.93 93.18 6.59 -33.48 121.6 -33.99 121.09"/><polyline class="cls-7" points="92.94 6.33 93.58 6.97 -33.11 122.1 -33.62 121.47"/><polyline class="cls-7" points="93.31 6.7 93.82 7.37 -32.71 122.48 -33.22 121.84"/><polyline class="cls-8" points="93.71 7.1 94.22 7.74 -32.34 122.88 -32.84 122.24"/><polyline class="cls-8" points="94.09 7.47 94.59 8.11 -31.94 123.25 -32.58 122.61"/><polyline class="cls-8" points="94.46 7.98 94.99 8.51 -31.57 123.65 -32.21 123.01"/><polyline class="cls-8" points="94.86 8.38 95.37 8.89 -31.3 124.02 -31.81 123.52"/><polyline class="cls-9" points="95.12 8.75 95.76 9.39 -30.93 124.42 -31.43 123.89"/><polyline class="cls-9" points="95.5 9.15 96.14 9.79 -30.53 124.93 -31.06 124.29"/><polyline class="cls-9" points="95.87 9.53 96.4 10.16 -30.16 125.3 -30.66 124.66"/><polyline class="cls-9" points="96.27 9.92 96.78 10.56 -29.76 125.7 -30.29 125.06"/><polyline class="cls-10" points="96.64 10.3 97.17 10.94 -29.38 126.07 -30.02 125.43"/><polyline class="cls-10" points="97.04 10.83 97.55 11.33 -29.01 126.47 -29.65 125.83"/><polyline class="cls-10" points="97.42 11.2 97.94 11.71 -28.74 126.84 -29.25 126.34"/><polyline class="cls-10" points="97.68 11.58 98.32 12.21 -28.35 127.24 -28.88 126.71"/><polyline class="cls-10" points="98.06 11.97 98.69 12.61 -27.97 127.75 -28.48 127.11"/><polyline class="cls-10" points="98.45 12.35 98.96 12.99 -27.6 128.12 -28.11 127.48"/><polyline class="cls-122" points="98.83 12.74 99.36 13.38 -27.2 128.52 -27.71 127.88"/><polyline class="cls-122" points="99.22 13.12 99.73 13.76 -26.83 128.9 -27.46 128.25"/><polyline class="cls-11" points="99.6 13.63 100.11 14.16 -26.43 129.29 -27.07 128.65"/><polyline class="cls-11" points="100 14.02 100.5 14.53 -26.16 129.67 -26.69 129.16"/><polyline class="cls-11" points="100.24 14.4 100.88 15.04 -25.79 130.06 -26.3 129.53"/><polyline class="cls-11" points="100.64 14.79 101.28 15.43 -25.41 130.57 -25.92 129.93"/><polyline class="cls-11" points="101.01 15.17 101.52 15.81 -25.02 130.94 -25.55 130.31"/><polyline class="cls-11" points="101.39 15.57 101.91 16.21 -24.64 131.34 -25.15 130.7"/><polyline class="cls-11" points="101.78 15.94 102.29 16.58 -24.25 131.72 -24.89 131.08"/><polyline class="cls-123" points="102.16 16.45 102.69 16.98 -23.87 132.11 -24.51 131.45"/><polyline class="cls-124" points="102.55 16.85 103.06 17.35 -23.61 132.49 -24.14 131.98"/><polyline class="cls-124" points="102.82 17.22 103.46 17.75 -23.23 132.86 -23.74 132.36"/><polyline class="cls-124" points="103.19 17.62 103.83 18.26 -22.84 133.39 -23.36 132.75"/><polyline class="cls-124" points="103.57 17.99 104.1 18.63 -22.46 133.77 -22.97 133.13"/><polyline class="cls-124" points="103.96 18.39 104.47 19.03 -22.09 134.16 -22.59 133.53"/><polyline class="cls-124" points="104.34 18.76 104.87 19.4 -21.69 134.54 -22.33 133.9"/><polyline class="cls-124" points="104.74 19.14 105.24 19.8 -21.31 134.91 -21.95 134.3"/><polyline class="cls-13" points="105.11 19.67 105.62 20.18 -21.05 135.31 -21.56 134.8"/><polyline class="cls-13" points="105.38 20.04 106.02 20.55 -20.65 135.69 -21.18 135.18"/><polyline class="cls-14" points="105.75 20.44 106.39 21.08 -20.28 136.22 -20.79 135.58"/><polyline class="cls-14" points="106.15 20.81 106.65 21.45 -19.9 136.59 -20.41 135.95"/><polyline class="cls-14" points="106.52 21.21 107.03 21.85 -19.51 136.99 -20.01 136.35"/><polyline class="cls-14" points="106.92 21.59 107.43 22.23 -19.13 137.36 -19.77 136.72"/><polyline class="cls-14" points="107.29 21.96 107.8 22.6 -18.73 137.76 -19.37 137.1"/><polyline class="cls-14" points="107.67 22.49 108.2 23 -18.49 138.13 -19 137.63"/><polyline class="cls-15" points="107.93 22.86 108.57 23.37 -18.09 138.51 -18.62 138"/><polyline class="cls-15" points="108.33 23.26 108.97 23.9 -17.72 139.04 -18.23 138.38"/><polyline class="cls-15" points="108.7 23.64 109.21 24.28 -17.32 139.41 -17.85 138.77"/><polyline class="cls-15" points="109.08 24.01 109.61 24.65 -16.95 139.81 -17.45 139.15"/><polyline class="cls-16" points="109.48 24.41 109.98 25.05 -16.55 140.18 -17.19 139.54"/><polyline class="cls-16" points="109.85 24.78 110.38 25.42 -16.18 140.56 -16.82 139.92"/><polyline class="cls-16" points="110.25 25.31 110.75 25.82 -15.91 140.96 -16.44 140.45"/><polyline class="cls-16" points="110.49 25.69 111.15 26.19 -15.54 141.33 -16.04 140.82"/><polyline class="cls-17" points="110.89 26.06 111.53 26.72 -15.14 141.86 -15.67 141.22"/><polyline class="cls-17" points="111.26 26.46 111.79 27.1 -14.77 142.23 -15.27 141.59"/><polyline class="cls-17" points="111.66 26.83 112.17 27.47 -14.39 142.61 -14.9 141.97"/><polyline class="cls-125" points="112.03 27.23 112.54 27.87 -13.99 143.01 -14.63 142.37"/><polyline class="cls-125" points="112.43 27.61 112.94 28.25 -13.62 143.38 -14.26 142.74"/><polyline class="cls-126" points="112.81 28.11 113.31 28.64 -13.35 143.78 -13.86 143.27"/><polyline class="cls-126" points="113.07 28.51 113.71 29.02 -12.98 144.15 -13.49 143.65"/><polyline class="cls-126" points="113.44 28.88 114.08 29.52 -12.58 144.68 -13.09 144.02"/><polyline class="cls-127" points="113.84 29.28 114.35 29.92 -12.21 145.06 -12.71 144.42"/><polyline class="cls-127" points="114.22 29.66 114.72 30.3 -11.81 145.43 -12.32 144.79"/><polyline class="cls-127" points="114.59 30.05 115.12 30.69 -11.44 145.83 -12.08 145.19"/><polyline class="cls-127" points="114.99 30.43 115.5 31.07 -11.04 146.2 -11.68 145.56"/><polyline class="cls-127" points="115.36 30.93 115.89 31.46 -10.8 146.6 -11.3 145.96"/><polyline class="cls-127" points="115.63 31.33 116.27 31.84 -10.4 146.97 -10.91 146.47"/><polyline class="cls-127" points="116 31.71 116.66 32.34 -10.03 147.37 -10.53 146.84"/><polyline class="cls-21" points="116.4 32.1 116.91 32.74 -9.63 147.88 -10.16 147.24"/><polyline class="cls-21" points="116.77 32.48 117.3 33.12 -9.25 148.25 -9.76 147.61"/><polyline class="cls-21" points="117.17 32.88 117.68 33.51 -8.86 148.65 -9.52 148.01"/><polyline class="cls-21" points="117.55 33.25 118.08 33.89 -8.48 149.03 -9.12 148.39"/><polyline class="cls-21" points="117.94 33.76 118.45 34.29 -8.22 149.42 -8.75 148.78"/><polyline class="cls-21" points="118.19 34.15 118.83 34.66 -7.84 149.8 -8.35 149.29"/><polyline class="cls-21" points="118.58 34.53 119.22 35.17 -7.45 150.19 -7.97 149.66"/><polyline class="cls-21" points="118.96 34.92 119.49 35.56 -7.07 150.7 -7.58 150.06"/><polyline class="cls-22" points="119.35 35.3 119.86 35.94 -6.7 151.07 -7.2 150.44"/><polyline class="cls-22" points="119.73 35.7 120.24 36.34 -6.3 151.47 -6.94 150.83"/><polyline class="cls-23" points="120.1 36.07 120.63 36.71 -5.92 151.85 -6.56 151.21"/><polyline class="cls-23" points="120.5 36.58 121.01 37.11 -5.66 152.24 -6.17 151.58"/><polyline class="cls-23" points="120.77 36.98 121.41 37.48 -5.29 152.62 -5.79 152.11"/><polyline class="cls-23" points="121.14 37.35 121.78 37.99 -4.89 152.99 -5.39 152.49"/><polyline class="cls-23" points="121.52 37.75 122.04 38.39 -4.51 153.52 -5.02 152.88"/><polyline class="cls-23" points="121.91 38.12 122.42 38.76 -4.12 153.9 -4.64 153.26"/><polyline class="cls-128" points="122.29 38.52 122.82 39.16 -3.74 154.29 -4.38 153.63"/><polyline class="cls-128" points="122.68 38.89 123.19 39.53 -3.35 154.67 -3.98 154.03"/><polyline class="cls-128" points="123.06 39.4 123.59 39.93 -3.1 155.04 -3.61 154.41"/><polyline class="cls-129" points="123.32 39.8 123.96 40.3 -2.71 155.44 -3.23 154.93"/><polyline class="cls-129" points="123.7 40.17 124.34 40.81 -2.33 155.82 -2.84 155.31"/><polyline class="cls-129" points="124.09 40.57 124.6 41.21 -1.93 156.34 -2.46 155.71"/><polyline class="cls-129" points="124.47 40.94 125 41.58 -1.56 156.72 -2.07 156.08"/><polyline class="cls-129" points="124.87 41.32 125.37 41.98 -1.18 157.12 -1.82 156.48"/><polyline class="cls-130" points="125.24 41.72 125.75 42.35 -0.79 157.49 -1.43 156.85"/><polyline class="cls-130" points="125.64 42.22 126.14 42.73 -0.52 157.87 -1.05 157.23"/><polyline class="cls-130" points="125.88 42.62 126.52 43.13 -0.15 158.26 -0.66 157.76"/><polyline class="cls-130" points="126.28 42.99 126.92 43.63 0.23 158.64 -0.28 158.13"/><polyline class="cls-130" points="126.65 43.39 127.16 44.03 0.62 159.17 0.12 158.51"/><polyline class="cls-131" points="127.05 43.77 127.56 44.41 1 159.54 0.49 158.9"/><polyline class="cls-131" points="127.42 44.14 127.93 44.78 1.4 159.94 0.76 159.28"/><polyline class="cls-131" points="127.8 44.54 128.33 45.18 1.77 160.31 1.13 159.67"/><polyline class="cls-132" points="128.19 44.91 128.7 45.55 2.04 160.69 1.53 160.05"/><polyline class="cls-132" points="128.44 45.44 129.1 45.95 2.41 161.09 1.9 160.58"/><polyline class="cls-132" points="128.84 45.82 129.47 46.32 2.81 161.46 2.28 160.95"/><polyline class="cls-132" points="129.21 46.19 129.74 46.83 3.18 161.99 2.67 161.35"/><polyline class="cls-132" points="129.61 46.59 130.11 47.23 3.58 162.36 3.05 161.72"/><polyline class="cls-132" points="129.98 46.96 130.51 47.6 3.95 162.74 3.31 162.1"/><polyline class="cls-133" points="130.38 47.36 130.88 48 4.35 163.14 3.69 162.5"/><polyline class="cls-29" points="130.75 47.73 131.26 48.38 4.59 163.51 4.09 162.87"/><polyline class="cls-29" points="131.02 48.24 131.66 48.77 4.99 163.91 4.46 163.4"/><polyline class="cls-29" points="131.39 48.64 132.03 49.15 5.37 164.28 4.86 163.78"/><polyline class="cls-29" points="131.79 49.01 132.3 49.67 5.74 164.79 5.23 164.15"/><polyline class="cls-134" points="132.16 49.41 132.67 50.05 6.14 165.19 5.63 164.55"/><polyline class="cls-134" points="132.56 49.79 133.07 50.42 6.51 165.56 5.87 164.92"/><polyline class="cls-135" points="132.94 50.18 133.44 50.82 6.91 165.96 6.27 165.32"/><polyline class="cls-135" points="133.2 50.56 133.84 51.2 7.15 166.33 6.64 165.69"/><polyline class="cls-135" points="133.57 51.06 134.22 51.59 7.55 166.73 7.04 166.2"/><polyline class="cls-136" points="133.97 51.46 134.48 51.97 7.92 167.1 7.42 166.6"/><polyline class="cls-137" points="134.35 51.84 134.85 52.48 8.32 167.61 7.79 166.97"/><polyline class="cls-138" points="134.74 52.23 135.25 52.87 8.69 168.01 8.19 167.37"/><polyline class="cls-138" points="135.12 52.61 135.63 53.25 9.09 168.38 8.45 167.74"/><polyline class="cls-139" points="135.49 53.01 136.02 53.64 9.47 168.78 8.83 168.14"/><polyline class="cls-140" points="135.76 53.38 136.4 54.02 9.73 169.16 9.2 168.52"/><polyline class="cls-140" points="136.13 53.89 136.77 54.42 10.11 169.55 9.6 169.02"/><polyline class="cls-140" points="136.53 54.28 137.04 54.79 10.5 169.93 9.97 169.42"/><polyline class="cls-141" points="136.91 54.66 137.43 55.3 10.88 170.43 10.37 169.79"/><polyline class="cls-141" points="137.3 55.05 137.81 55.7 11.25 170.83 10.74 170.19"/><polyline class="cls-141" points="137.68 55.43 138.18 56.07 11.65 171.21 11.01 170.57"/><polyline class="cls-142" points="138.07 55.83 138.58 56.47 12.02 171.6 11.38 170.96"/><polyline class="cls-142" points="138.32 56.2 138.96 56.84 12.29 171.98 11.78 171.34"/><polyline class="cls-142" points="138.71 56.71 139.35 57.24 12.66 172.37 12.15 171.71"/><polyline class="cls-143" points="139.09 57.11 139.59 57.61 13.06 172.75 12.55 172.24"/><polyline class="cls-144" points="139.48 57.48 139.99 58.12 13.43 173.12 12.93 172.62"/><polyline class="cls-145" points="139.86 57.88 140.37 58.52 13.83 173.65 13.19 173.01"/><polyline class="cls-146" points="140.26 58.25 140.76 58.89 14.21 174.03 13.57 173.39"/><polyline class="cls-147" points="140.63 58.65 141.14 59.29 14.47 174.43 13.96 173.76"/><polyline class="cls-147" points="140.9 59.02 141.53 59.66 14.85 174.8 14.34 174.16"/><polyline class="cls-148" points="141.27 59.53 141.91 60.06 15.24 175.17 14.71 174.53"/><polyline class="cls-148" points="141.67 59.93 142.17 60.44 15.62 175.57 15.11 175.06"/><polyline class="cls-149" points="142.04 60.3 142.55 60.94 16.01 175.95 15.48 175.44"/><polyline class="cls-150" points="142.42 60.7 142.95 61.34 16.39 176.47 15.75 175.84"/><polyline class="cls-150" points="142.81 61.07 143.32 61.71 16.76 176.85 16.12 176.21"/><polyline class="cls-47" points="143.19 61.45 143.69 62.11 17.03 177.22 16.52 176.61"/><polyline class="cls-151" points="143.45 61.85 144.09 62.48 17.43 177.62 16.9 176.98"/><polyline class="cls-151" points="143.83 62.35 144.47 62.86 17.8 178 17.29 177.36"/><polyline class="cls-151" points="144.22 62.75 144.73 63.26 18.18 178.39 17.67 177.89"/><polyline class="cls-152" points="144.6 63.13 145.11 63.76 18.57 178.77 18.06 178.26"/><polyline class="cls-152" points="145 63.5 145.5 64.16 18.95 179.3 18.31 178.66"/><polyline class="cls-153" points="145.37 63.9 145.88 64.54 19.34 179.67 18.7 179.03"/><polyline class="cls-50" points="145.77 64.27 146.28 64.91 19.59 180.07 19.08 179.41"/><polyline class="cls-50" points="146.01 64.67 146.65 65.31 19.98 180.44 19.48 179.8"/><polyline class="cls-51" points="146.41 65.17 147.05 65.68 20.36 180.82 19.85 180.18"/><polyline class="cls-51" points="146.78 65.57 147.29 66.08 20.75 181.22 20.23 180.69"/><polyline class="cls-154" points="147.18 65.95 147.69 66.59 21.13 181.59 20.62 181.08"/><polyline class="cls-155" points="147.55 66.32 148.06 66.96 21.53 182.12 20.89 181.46"/><polyline class="cls-155" points="147.93 66.72 148.46 67.36 21.9 182.49 21.26 181.85"/><polyline class="cls-155" points="148.33 67.09 148.83 67.73 22.16 182.87 21.64 182.23"/><polyline class="cls-156" points="148.59 67.49 149.23 68.13 22.54 183.27 22.03 182.63"/><polyline class="cls-156" points="148.97 68 149.6 68.5 22.94 183.64 22.41 183"/><polyline class="cls-55" points="149.34 68.37 149.87 68.9 23.31 184.04 22.8 183.53"/><polyline class="cls-55" points="149.74 68.77 150.24 69.41 23.69 184.41 23.18 183.91"/><polyline class="cls-157" points="150.11 69.14 150.62 69.78 24.08 184.92 23.44 184.28"/><polyline class="cls-158" points="150.51 69.54 151.01 70.18 24.46 185.32 23.82 184.68"/><polyline class="cls-158" points="150.88 69.92 151.39 70.56 24.72 185.69 24.22 185.05"/><polyline class="cls-159" points="151.15 70.31 151.79 70.95 25.1 186.09 24.59 185.45"/><polyline class="cls-160" points="151.52 70.69 152.16 71.33 25.5 186.46 24.99 185.82"/><polyline class="cls-161" points="151.92 71.19 152.43 71.72 25.87 186.86 25.36 186.33"/><polyline class="cls-162" points="152.29 71.59 152.8 72.1 26.27 187.24 25.76 186.73"/><polyline class="cls-163" points="152.69 71.97 153.2 72.61 26.64 187.74 26 187.1"/><polyline class="cls-164" points="153.07 72.36 153.57 73 27.04 188.14 26.4 187.5"/><polyline class="cls-165" points="153.44 72.74 153.97 73.38 27.28 188.51 26.77 187.87"/><polyline class="cls-166" points="153.71 73.14 154.34 73.77 27.68 188.91 27.17 188.27"/><polyline class="cls-167" points="154.1 73.51 154.74 74.15 28.05 189.28 27.55 188.65"/><polyline class="cls-168" points="154.48 74.02 154.98 74.55 28.45 189.68 27.92 189.15"/><polyline class="cls-169" points="154.85 74.41 155.38 74.92 28.82 190.06 28.32 189.55"/><polyline class="cls-170" points="155.25 74.79 155.76 75.43 29.22 190.56 28.56 189.93"/><polyline class="cls-171" points="155.62 75.19 156.15 75.83 29.6 190.96 28.96 190.32"/><polyline class="cls-171" points="156.02 75.56 156.53 76.2 29.86 191.34 29.33 190.7"/><polyline class="cls-172" points="156.26 75.96 156.92 76.6 30.23 191.73 29.73 191.09"/><polyline class="cls-173" points="156.66 76.33 157.3 76.97 30.63 192.11 30.1 191.47"/><polyline class="cls-174" points="157.03 76.84 157.56 77.37 31.01 192.48 30.5 191.97"/><polyline class="cls-79" points="157.43 77.24 157.94 77.74 31.38 192.88 30.87 192.37"/><polyline class="cls-175" points="157.81 77.61 158.34 78.25 31.78 193.39 31.14 192.75"/><polyline class="cls-176" points="158.2 78.01 158.71 78.65 32.15 193.78 31.51 193.14"/><polyline class="cls-177" points="158.58 78.38 159.09 79.02 32.42 194.16 31.91 193.52"/><polyline class="cls-81" points="158.84 78.78 159.48 79.42 32.79 194.56 32.28 193.89"/><polyline class="cls-82" points="159.22 79.15 159.86 79.79 33.19 194.93 32.68 194.29"/><polyline class="cls-178" points="159.61 79.66 160.12 80.19 33.56 195.33 33.06 194.8"/><polyline class="cls-83" points="159.99 80.06 160.5 80.56 33.96 195.7 33.45 195.19"/><polyline class="cls-84" points="160.36 80.43 160.89 81.07 34.34 196.21 33.7 195.57"/><polyline class="cls-179" points="160.76 80.83 161.27 81.47 34.73 196.6 34.09 195.94"/><polyline class="cls-179" points="161.14 81.2 161.66 81.84 34.98 196.98 34.47 196.34"/><polyline class="cls-180" points="161.4 81.58 162.04 82.24 35.37 197.35 34.87 196.72"/><polyline class="cls-86" points="161.8 81.98 162.44 82.62 35.75 197.75 35.24 197.11"/><polyline class="cls-86" points="162.17 82.48 162.68 82.99 36.14 198.13 35.62 197.62"/><polyline class="cls-87" points="162.55 82.88 163.08 83.39 36.52 198.52 36.01 198.02"/><polyline class="cls-181" points="162.94 83.25 163.45 83.89 36.89 198.9 36.25 198.39"/><polyline class="cls-181" points="163.32 83.63 163.85 84.29 37.29 199.43 36.65 198.79"/><polyline class="cls-182" points="163.72 84.03 164.22 84.67 37.55 199.8 37.03 199.16"/><polyline class="cls-183" points="163.96 84.4 164.6 85.04 37.93 200.18 37.42 199.54"/><polyline class="cls-184" points="164.35 84.8 164.99 85.44 38.33 200.57 37.8 199.93"/><polyline class="cls-185" points="164.73 85.31 165.24 85.81 38.7 200.95 38.19 200.31"/><polyline class="cls-91" points="165.13 85.7 165.63 86.21 39.08 201.35 38.57 200.84"/><polyline class="cls-186" points="165.5 86.08 165.77 86.34 39.08 201.48 38.83 201.21"/></g><g class="cls-187"><polyline class="cls-115" points="101.39 34.02 101.65 34.02 101.65 102.11 101.39 102.11"/><polyline class="cls-114" points="101.52 34.02 101.78 34.02 101.78 102.11 101.52 102.11"/><polyline class="cls-113" points="101.65 34.02 101.91 34.02 101.91 102.11 101.65 102.11"/><polyline class="cls-188" points="101.78 34.02 102.05 34.02 102.05 102.11 101.78 102.11"/><polyline class="cls-189" points="102.05 34.02 102.29 34.02 102.29 102.11 102.05 102.11"/><polyline class="cls-190" points="102.16 34.02 102.42 34.02 102.42 102.11 102.16 102.11"/><polyline class="cls-191" points="102.29 34.02 102.55 34.02 102.55 102.11 102.29 102.11"/><polyline class="cls-192" points="102.55 34.02 102.82 34.02 102.82 102.11 102.55 102.11"/><polyline class="cls-192" points="102.69 34.02 102.93 34.02 102.93 102.11 102.69 102.11"/><polyline class="cls-192" points="102.82 34.02 103.06 34.02 103.06 102.11 102.82 102.11"/><polyline class="cls-193" points="103.06 34.02 103.33 34.02 103.33 102.11 103.06 102.11"/><polyline class="cls-193" points="103.19 34.02 103.46 34.02 103.46 102.11 103.19 102.11"/><polyline class="cls-193" points="103.33 34.02 103.57 34.02 103.57 102.11 103.33 102.11"/><polyline class="cls-194" points="103.57 34.02 103.83 34.02 103.83 102.11 103.57 102.11"/><polyline class="cls-194" points="103.7 34.02 103.96 34.02 103.96 102.11 103.7 102.11"/><polyline class="cls-195" points="103.83 34.02 104.1 34.02 104.1 102.11 103.83 102.11"/><polyline class="cls-195" points="104.1 34.02 104.34 34.02 104.34 102.11 104.1 102.11"/><polyline class="cls-196" points="104.23 34.02 104.47 34.02 104.47 102.11 104.23 102.11"/><polyline class="cls-196" points="104.34 34.02 104.6 34.02 104.6 102.11 104.34 102.11"/><polyline class="cls-197" points="104.47 34.02 104.74 34.02 104.74 102.11 104.47 102.11"/><polyline class="cls-198" points="104.74 34.02 104.98 34.02 104.98 102.11 104.74 102.11"/><polyline class="cls-198" points="104.87 34.02 105.11 34.02 105.11 102.11 104.87 102.11"/><polyline class="cls-198" points="104.98 34.02 105.24 34.02 105.24 102.11 104.98 102.11"/><polyline class="cls-198" points="105.24 34.02 105.51 34.02 105.51 102.11 105.24 102.11"/><polyline class="cls-198" points="105.38 34.02 105.62 34.02 105.62 102.11 105.38 102.11"/><polyline class="cls-199" points="105.51 34.02 105.75 34.02 105.75 102.11 105.51 102.11"/><polyline class="cls-199" points="105.75 34.02 106.02 34.02 106.02 102.11 105.75 102.11"/><polyline class="cls-199" points="105.88 34.02 106.15 34.02 106.15 102.11 105.88 102.11"/><polyline class="cls-200" points="106.02 34.02 106.26 34.02 106.26 102.11 106.02 102.11"/><polyline class="cls-200" points="106.26 34.02 106.52 34.02 106.52 102.11 106.26 102.11"/><polyline class="cls-201" points="106.39 34.02 106.65 34.02 106.65 102.11 106.39 102.11"/><polyline class="cls-202" points="106.52 34.02 106.79 34.02 106.79 102.11 106.52 102.11"/><polyline class="cls-203" points="106.79 34.02 106.92 34.02 106.92 102.11 106.79 102.11"/><polyline class="cls-204" points="106.92 34.02 107.16 34.02 107.16 102.11 106.92 102.11"/><polyline class="cls-205" points="107.03 34.02 107.29 34.02 107.29 102.11 107.03 102.11"/><polyline class="cls-206" points="107.16 34.02 107.43 34.02 107.43 102.11 107.16 102.11"/><polyline class="cls-102" points="107.43 34.02 107.67 34.02 107.67 102.11 107.43 102.11"/><polyline class="cls-207" points="107.56 34.02 107.8 34.02 107.8 102.11 107.56 102.11"/><polyline class="cls-208" points="107.67 34.02 107.93 34.02 107.93 102.11 107.67 102.11"/><polyline class="cls-100" points="107.93 34.02 108.2 34.02 108.2 102.11 107.93 102.11"/><polyline class="cls-99" points="108.06 34.02 108.33 34.02 108.33 102.11 108.06 102.11"/><polyline class="cls-99" points="108.2 34.02 108.44 34.02 108.44 102.11 108.2 102.11"/><polyline class="cls-98" points="108.44 34.02 108.7 34.02 108.7 102.11 108.44 102.11"/><polyline class="cls-98" points="108.57 34.02 108.84 34.02 108.84 102.11 108.57 102.11"/><polyline class="cls-97" points="108.7 34.02 108.97 34.02 108.97 102.11 108.7 102.11"/><polyline class="cls-209" points="108.97 34.02 109.21 34.02 109.21 102.11 108.97 102.11"/><polyline class="cls-209" points="109.08 34.02 109.34 34.02 109.34 102.11 109.08 102.11"/><polyline class="cls-210" points="109.21 34.02 109.48 34.02 109.48 102.11 109.21 102.11"/><polyline class="cls-95" points="109.48 34.02 109.61 34.02 109.61 102.11 109.48 102.11"/><polyline class="cls-211" points="109.61 34.02 109.85 34.02 109.85 102.11 109.61 102.11"/><polyline class="cls-212" points="109.74 34.02 109.98 34.02 109.98 102.11 109.74 102.11"/><polyline class="cls-213" points="109.85 34.02 110.12 34.02 110.12 102.11 109.85 102.11"/><polyline class="cls-214" points="110.12 34.02 110.38 34.02 110.38 102.11 110.12 102.11"/><polyline class="cls-214" points="110.25 34.02 110.49 34.02 110.49 102.11 110.25 102.11"/><polyline class="cls-215" points="110.38 34.02 110.62 34.02 110.62 102.11 110.38 102.11"/><polyline class="cls-216" points="110.62 34.02 110.89 34.02 110.89 102.11 110.62 102.11"/><polyline class="cls-217" points="110.75 34.02 111.02 34.02 111.02 102.11 110.75 102.11"/><polyline class="cls-218" points="110.89 34.02 111.15 34.02 111.15 102.11 110.89 102.11"/><polyline class="cls-219" points="111.15 34.02 111.39 34.02 111.39 102.11 111.15 102.11"/><polyline class="cls-220" points="111.26 34.02 111.53 34.02 111.53 102.11 111.26 102.11"/><polyline class="cls-221" points="111.39 34.02 111.66 34.02 111.66 102.11 111.39 102.11"/><polyline class="cls-221" points="111.66 34.02 111.9 34.02 111.9 102.11 111.66 102.11"/><polyline class="cls-222" points="111.79 34.02 112.03 34.02 112.03 102.11 111.79 102.11"/><polyline class="cls-223" points="111.9 34.02 112.17 34.02 112.17 102.11 111.9 102.11"/><polyline class="cls-224" points="112.17 34.02 112.3 34.02 112.3 102.11 112.17 102.11"/><polyline class="cls-225" points="112.3 34.02 112.54 34.02 112.54 102.11 112.3 102.11"/><polyline class="cls-85" points="112.43 34.02 112.67 34.02 112.67 102.11 112.43 102.11"/><polyline class="cls-84" points="112.54 34.02 112.81 34.02 112.81 102.11 112.54 102.11"/><polyline class="cls-226" points="112.81 34.02 113.07 34.02 113.07 102.11 112.81 102.11"/><polyline class="cls-227" points="112.94 34.02 113.18 34.02 113.18 102.11 112.94 102.11"/><polyline class="cls-227" points="113.07 34.02 113.31 34.02 113.31 102.11 113.07 102.11"/><polyline class="cls-82" points="113.31 34.02 113.58 34.02 113.58 102.11 113.31 102.11"/><polyline class="cls-81" points="113.44 34.02 113.71 34.02 113.71 102.11 113.44 102.11"/><polyline class="cls-81" points="113.58 34.02 113.84 34.02 113.84 102.11 113.58 102.11"/><polyline class="cls-228" points="113.84 34.02 114.08 34.02 114.08 102.11 113.84 102.11"/><polyline class="cls-80" points="113.95 34.02 114.22 34.02 114.22 102.11 113.95 102.11"/><polyline class="cls-79" points="114.08 34.02 114.35 34.02 114.35 102.11 114.08 102.11"/><polyline class="cls-229" points="114.35 34.02 114.59 34.02 114.59 102.11 114.35 102.11"/><polyline class="cls-78" points="114.48 34.02 114.72 34.02 114.72 102.11 114.48 102.11"/><polyline class="cls-230" points="114.59 34.02 114.86 34.02 114.86 102.11 114.59 102.11"/><polyline class="cls-230" points="114.86 34.02 114.99 34.02 114.99 102.11 114.86 102.11"/><polyline class="cls-231" points="114.99 34.02 115.25 34.02 115.25 102.11 114.99 102.11"/><polyline class="cls-232" points="115.12 34.02 115.36 34.02 115.36 102.11 115.12 102.11"/><polyline class="cls-75" points="115.25 34.02 115.5 34.02 115.5 102.11 115.25 102.11"/><polyline class="cls-233" points="115.5 34.02 115.76 34.02 115.76 102.11 115.5 102.11"/><polyline class="cls-73" points="115.63 34.02 115.89 34.02 115.89 102.11 115.63 102.11"/><polyline class="cls-71" points="115.76 34.02 116 34.02 116 102.11 115.76 102.11"/><polyline class="cls-234" points="116 34.02 116.27 34.02 116.27 102.11 116 102.11"/><polyline class="cls-235" points="116.14 34.02 116.4 34.02 116.4 102.11 116.14 102.11"/><polyline class="cls-236" points="116.27 34.02 116.53 34.02 116.53 102.11 116.27 102.11"/><polyline class="cls-236" points="116.53 34.02 116.77 34.02 116.77 102.11 116.53 102.11"/><polyline class="cls-236" points="116.66 34.02 116.91 34.02 116.91 102.11 116.66 102.11"/><polyline class="cls-67" points="116.77 34.02 117.04 34.02 117.04 102.11 116.77 102.11"/><polyline class="cls-67" points="117.04 34.02 117.3 34.02 117.3 102.11 117.04 102.11"/><polyline class="cls-67" points="117.17 34.02 117.41 34.02 117.41 102.11 117.17 102.11"/><polyline class="cls-67" points="117.3 34.02 117.55 34.02 117.55 102.11 117.3 102.11"/><polyline class="cls-66" points="117.55 34.02 117.68 34.02 117.68 102.11 117.55 102.11"/><polyline class="cls-66" points="117.68 34.02 117.94 34.02 117.94 102.11 117.68 102.11"/><polyline class="cls-66" points="117.81 34.02 118.08 34.02 118.08 102.11 117.81 102.11"/><polyline class="cls-237" points="117.94 34.02 118.19 34.02 118.19 102.11 117.94 102.11"/><polyline class="cls-64" points="118.19 34.02 118.45 34.02 118.45 102.11 118.19 102.11"/><polyline class="cls-64" points="118.32 34.02 118.58 34.02 118.58 102.11 118.32 102.11"/><polyline class="cls-64" points="118.45 34.02 118.72 34.02 118.72 102.11 118.45 102.11"/><polyline class="cls-238" points="118.72 34.02 118.96 34.02 118.96 102.11 118.72 102.11"/><polyline class="cls-239" points="118.83 34.02 119.09 34.02 119.09 102.11 118.83 102.11"/><polyline class="cls-239" points="118.96 34.02 119.22 34.02 119.22 102.11 118.96 102.11"/><polyline class="cls-239" points="119.22 34.02 119.49 34.02 119.49 102.11 119.22 102.11"/><polyline class="cls-239" points="119.35 34.02 119.6 34.02 119.6 102.11 119.35 102.11"/><polyline class="cls-59" points="119.49 34.02 119.73 34.02 119.73 102.11 119.49 102.11"/><polyline class="cls-59" points="119.73 34.02 119.99 34.02 119.99 102.11 119.73 102.11"/><polyline class="cls-59" points="119.86 34.02 120.1 34.02 120.1 102.11 119.86 102.11"/><polyline class="cls-58" points="119.99 34.02 120.24 34.02 120.24 102.11 119.99 102.11"/><polyline class="cls-58" points="120.24 34.02 120.37 34.02 120.37 102.11 120.24 102.11"/><polyline class="cls-240" points="120.37 34.02 120.63 34.02 120.63 102.11 120.37 102.11"/><polyline class="cls-240" points="120.5 34.02 120.77 34.02 120.77 102.11 120.5 102.11"/><polyline class="cls-57" points="120.63 34.02 120.88 34.02 120.88 102.11 120.63 102.11"/><polyline class="cls-57" points="120.88 34.02 121.14 34.02 121.14 102.11 120.88 102.11"/><polyline class="cls-57" points="121.01 34.02 121.27 34.02 121.27 102.11 121.01 102.11"/><polyline class="cls-241" points="121.14 34.02 121.41 34.02 121.41 102.11 121.14 102.11"/><polyline class="cls-56" points="121.41 34.02 121.65 34.02 121.65 102.11 121.41 102.11"/><polyline class="cls-56" points="121.52 34.02 121.78 34.02 121.78 102.11 121.52 102.11"/><polyline class="cls-56" points="121.65 34.02 121.91 34.02 121.91 102.11 121.65 102.11"/><polyline class="cls-242" points="121.91 34.02 122.18 34.02 122.18 102.11 121.91 102.11"/><polyline class="cls-54" points="122.04 34.02 122.29 34.02 122.29 102.11 122.04 102.11"/><polyline class="cls-54" points="122.18 34.02 122.42 34.02 122.42 102.11 122.18 102.11"/><polyline class="cls-54" points="122.42 34.02 122.68 34.02 122.68 102.11 122.42 102.11"/><polyline class="cls-54" points="122.55 34.02 122.82 34.02 122.82 102.11 122.55 102.11"/><polyline class="cls-53" points="122.68 34.02 122.93 34.02 122.93 102.11 122.68 102.11"/><polyline class="cls-53" points="122.93 34.02 123.06 34.02 123.06 102.11 122.93 102.11"/><polyline class="cls-53" points="123.06 34.02 123.32 34.02 123.32 102.11 123.06 102.11"/><polyline class="cls-53" points="123.19 34.02 123.45 34.02 123.45 102.11 123.19 102.11"/><polyline class="cls-53" points="123.32 34.02 123.59 34.02 123.59 102.11 123.32 102.11"/><polyline class="cls-52" points="123.59 34.02 123.83 34.02 123.83 102.11 123.59 102.11"/><polyline class="cls-52" points="123.7 34.02 123.96 34.02 123.96 102.11 123.7 102.11"/><polyline class="cls-52" points="123.83 34.02 124.09 34.02 124.09 102.11 123.83 102.11"/><polyline class="cls-52" points="124.09 34.02 124.34 34.02 124.34 102.11 124.09 102.11"/><polyline class="cls-52" points="124.23 34.02 124.47 34.02 124.47 102.11 124.23 102.11"/><polyline class="cls-51" points="124.34 34.02 124.6 34.02 124.6 102.11 124.34 102.11"/><polyline class="cls-51" points="124.6 34.02 124.87 34.02 124.87 102.11 124.6 102.11"/><polyline class="cls-51" points="124.73 34.02 125 34.02 125 102.11 124.73 102.11"/><polyline class="cls-243" points="124.87 34.02 125.11 34.02 125.11 102.11 124.87 102.11"/><polyline class="cls-243" points="125.11 34.02 125.37 34.02 125.37 102.11 125.11 102.11"/><polyline class="cls-49" points="125.24 34.02 125.51 34.02 125.51 102.11 125.24 102.11"/><polyline class="cls-49" points="125.37 34.02 125.64 34.02 125.64 102.11 125.37 102.11"/><polyline class="cls-49" points="125.64 34.02 125.75 34.02 125.75 102.11 125.64 102.11"/><polyline class="cls-49" points="125.75 34.02 126.01 34.02 126.01 102.11 125.75 102.11"/><polyline class="cls-48" points="125.88 34.02 126.14 34.02 126.14 102.11 125.88 102.11"/><polyline class="cls-47" points="126.01 34.02 126.28 34.02 126.28 102.11 126.01 102.11"/><polyline class="cls-47" points="126.28 34.02 126.52 34.02 126.52 102.11 126.28 102.11"/><polyline class="cls-47" points="126.41 34.02 126.65 34.02 126.65 102.11 126.41 102.11"/><polyline class="cls-47" points="126.52 34.02 126.78 34.02 126.78 102.11 126.52 102.11"/><polyline class="cls-46" points="126.78 34.02 127.05 34.02 127.05 102.11 126.78 102.11"/><polyline class="cls-46" points="126.92 34.02 127.16 34.02 127.16 102.11 126.92 102.11"/><polyline class="cls-46" points="127.05 34.02 127.29 34.02 127.29 102.11 127.05 102.11"/><polyline class="cls-46" points="127.29 34.02 127.56 34.02 127.56 102.11 127.29 102.11"/><polyline class="cls-46" points="127.42 34.02 127.69 34.02 127.69 102.11 127.42 102.11"/><polyline class="cls-44" points="127.56 34.02 127.8 34.02 127.8 102.11 127.56 102.11"/><polyline class="cls-44" points="127.8 34.02 128.06 34.02 128.06 102.11 127.8 102.11"/><polyline class="cls-44" points="127.93 34.02 128.19 34.02 128.19 102.11 127.93 102.11"/><polyline class="cls-44" points="128.06 34.02 128.33 34.02 128.33 102.11 128.06 102.11"/><polyline class="cls-44" points="128.33 34.02 128.44 34.02 128.44 102.11 128.33 102.11"/><polyline class="cls-42" points="128.44 34.02 128.7 34.02 128.7 102.11 128.44 102.11"/><polyline class="cls-42" points="128.57 34.02 128.84 34.02 128.84 102.11 128.57 102.11"/><polyline class="cls-42" points="128.7 34.02 128.97 34.02 128.97 102.11 128.7 102.11"/><polyline class="cls-42" points="128.97 34.02 129.21 34.02 129.21 102.11 128.97 102.11"/><polyline class="cls-41" points="129.1 34.02 129.34 34.02 129.34 102.11 129.1 102.11"/><polyline class="cls-40" points="129.21 34.02 129.47 34.02 129.47 102.11 129.21 102.11"/><polyline class="cls-40" points="129.47 34.02 129.74 34.02 129.74 102.11 129.47 102.11"/><polyline class="cls-40" points="129.61 34.02 129.85 34.02 129.85 102.11 129.61 102.11"/><polyline class="cls-39" points="129.74 34.02 129.98 34.02 129.98 102.11 129.74 102.11"/><polyline class="cls-39" points="129.98 34.02 130.25 34.02 130.25 102.11 129.98 102.11"/><polyline class="cls-244" points="130.11 34.02 130.38 34.02 130.38 102.11 130.11 102.11"/><polyline class="cls-38" points="130.25 34.02 130.51 34.02 130.51 102.11 130.25 102.11"/><polyline class="cls-38" points="130.51 34.02 130.75 34.02 130.75 102.11 130.51 102.11"/><polyline class="cls-38" points="130.62 34.02 130.88 34.02 130.88 102.11 130.62 102.11"/><polyline class="cls-245" points="130.75 34.02 131.02 34.02 131.02 102.11 130.75 102.11"/><polyline class="cls-36" points="131.02 34.02 131.15 34.02 131.15 102.11 131.02 102.11"/><polyline class="cls-36" points="131.15 34.02 131.39 34.02 131.39 102.11 131.15 102.11"/><polyline class="cls-36" points="131.26 34.02 131.53 34.02 131.53 102.11 131.26 102.11"/><polyline class="cls-36" points="131.39 34.02 131.66 34.02 131.66 102.11 131.39 102.11"/><polyline class="cls-34" points="131.66 34.02 131.92 34.02 131.92 102.11 131.66 102.11"/><polyline class="cls-34" points="131.79 34.02 132.03 34.02 132.03 102.11 131.79 102.11"/><polyline class="cls-34" points="131.92 34.02 132.16 34.02 132.16 102.11 131.92 102.11"/><polyline class="cls-34" points="132.16 34.02 132.43 34.02 132.43 102.11 132.16 102.11"/><polyline class="cls-33" points="132.3 34.02 132.56 34.02 132.56 102.11 132.3 102.11"/><polyline class="cls-32" points="132.43 34.02 132.67 34.02 132.67 102.11 132.43 102.11"/><polyline class="cls-32" points="132.67 34.02 132.94 34.02 132.94 102.11 132.67 102.11"/><polyline class="cls-32" points="132.8 34.02 133.07 34.02 133.07 102.11 132.8 102.11"/><polyline class="cls-31" points="132.94 34.02 133.2 34.02 133.2 102.11 132.94 102.11"/><polyline class="cls-31" points="133.2 34.02 133.44 34.02 133.44 102.11 133.2 102.11"/><polyline class="cls-30" points="133.33 34.02 133.57 34.02 133.57 102.11 133.33 102.11"/><polyline class="cls-30" points="133.44 34.02 133.71 34.02 133.71 102.11 133.44 102.11"/><polyline class="cls-29" points="133.57 34.02 133.84 34.02 133.84 102.11 133.57 102.11"/><polyline class="cls-246" points="133.84 34.02 134.08 34.02 134.08 102.11 133.84 102.11"/><polyline class="cls-246" points="133.97 34.02 134.22 34.02 134.22 102.11 133.97 102.11"/><polyline class="cls-28" points="134.08 34.02 134.35 34.02 134.35 102.11 134.08 102.11"/><polyline class="cls-28" points="134.35 34.02 134.61 34.02 134.61 102.11 134.35 102.11"/><polyline class="cls-28" points="134.48 34.02 134.74 34.02 134.74 102.11 134.48 102.11"/><polyline class="cls-28" points="134.61 34.02 134.85 34.02 134.85 102.11 134.61 102.11"/><polyline class="cls-26" points="134.85 34.02 135.12 34.02 135.12 102.11 134.85 102.11"/><polyline class="cls-26" points="134.99 34.02 135.25 34.02 135.25 102.11 134.99 102.11"/><polyline class="cls-26" points="135.12 34.02 135.36 34.02 135.36 102.11 135.12 102.11"/><polyline class="cls-26" points="135.36 34.02 135.63 34.02 135.63 102.11 135.36 102.11"/><polyline class="cls-25" points="135.49 34.02 135.76 34.02 135.76 102.11 135.49 102.11"/><polyline class="cls-24" points="135.63 34.02 135.89 34.02 135.89 102.11 135.63 102.11"/><polyline class="cls-24" points="135.89 34.02 136.13 34.02 136.13 102.11 135.89 102.11"/><polyline class="cls-24" points="136.02 34.02 136.26 34.02 136.26 102.11 136.02 102.11"/><polyline class="cls-23" points="136.13 34.02 136.4 34.02 136.4 102.11 136.13 102.11"/><polyline class="cls-23" points="136.26 34.02 136.53 34.02 136.53 102.11 136.26 102.11"/><polyline class="cls-22" points="136.53 34.02 136.77 34.02 136.77 102.11 136.53 102.11"/><polyline class="cls-247" points="136.66 34.02 136.91 34.02 136.91 102.11 136.66 102.11"/><polyline class="cls-20" points="136.77 34.02 137.04 34.02 137.04 102.11 136.77 102.11"/><polyline class="cls-20" points="137.04 34.02 137.3 34.02 137.3 102.11 137.04 102.11"/><polyline class="cls-20" points="137.17 34.02 137.43 34.02 137.43 102.11 137.17 102.11"/><polyline class="cls-19" points="137.3 34.02 137.54 34.02 137.54 102.11 137.3 102.11"/><polyline class="cls-19" points="137.54 34.02 137.81 34.02 137.81 102.11 137.54 102.11"/><polyline class="cls-19" points="137.68 34.02 137.94 34.02 137.94 102.11 137.68 102.11"/><polyline class="cls-19" points="137.81 34.02 138.07 34.02 138.07 102.11 137.81 102.11"/><polyline class="cls-18" points="138.07 34.02 138.32 34.02 138.32 102.11 138.07 102.11"/><polyline class="cls-17" points="138.18 34.02 138.45 34.02 138.45 102.11 138.18 102.11"/><polyline class="cls-17" points="138.32 34.02 138.58 34.02 138.58 102.11 138.32 102.11"/><polyline class="cls-17" points="138.58 34.02 138.84 34.02 138.84 102.11 138.58 102.11"/><polyline class="cls-16" points="138.71 34.02 138.96 34.02 138.96 102.11 138.71 102.11"/><polyline class="cls-15" points="138.84 34.02 139.09 34.02 139.09 102.11 138.84 102.11"/><polyline class="cls-15" points="138.96 34.02 139.22 34.02 139.22 102.11 138.96 102.11"/><polyline class="cls-15" points="139.22 34.02 139.48 34.02 139.48 102.11 139.22 102.11"/><polyline class="cls-14" points="139.35 34.02 139.59 34.02 139.59 102.11 139.35 102.11"/><polyline class="cls-14" points="139.48 34.02 139.73 34.02 139.73 102.11 139.48 102.11"/><polyline class="cls-248" points="139.73 34.02 139.99 34.02 139.99 102.11 139.73 102.11"/><polyline class="cls-248" points="139.86 34.02 140.12 34.02 140.12 102.11 139.86 102.11"/><polyline class="cls-12" points="139.99 34.02 140.26 34.02 140.26 102.11 139.99 102.11"/><polyline class="cls-12" points="140.26 34.02 140.5 34.02 140.5 102.11 140.26 102.11"/><polyline class="cls-12" points="140.37 34.02 140.63 34.02 140.63 102.11 140.37 102.11"/><polyline class="cls-123" points="140.5 34.02 140.76 34.02 140.76 102.11 140.5 102.11"/><polyline class="cls-11" points="140.76 34.02 141.01 34.02 141.01 102.11 140.76 102.11"/><polyline class="cls-11" points="140.9 34.02 141.14 34.02 141.14 102.11 140.9 102.11"/><polyline class="cls-11" points="141.01 34.02 141.27 34.02 141.27 102.11 141.01 102.11"/><polyline class="cls-122" points="141.27 34.02 141.53 34.02 141.53 102.11 141.27 102.11"/><polyline class="cls-10" points="141.4 34.02 141.67 34.02 141.67 102.11 141.4 102.11"/><polyline class="cls-10" points="141.53 34.02 141.78 34.02 141.78 102.11 141.53 102.11"/><polyline class="cls-10" points="141.67 34.02 141.91 34.02 141.91 102.11 141.67 102.11"/><polyline class="cls-9" points="141.91 34.02 142.17 34.02 142.17 102.11 141.91 102.11"/><polyline class="cls-9" points="142.04 34.02 142.31 34.02 142.31 102.11 142.04 102.11"/><polyline class="cls-8" points="142.17 34.02 142.42 34.02 142.42 102.11 142.17 102.11"/><polyline class="cls-8" points="142.42 34.02 142.68 34.02 142.68 102.11 142.42 102.11"/><polyline class="cls-7" points="142.55 34.02 142.81 34.02 142.81 102.11 142.55 102.11"/><polyline class="cls-7" points="142.68 34.02 142.95 34.02 142.95 102.11 142.68 102.11"/><polyline class="cls-6" points="142.95 34.02 143.19 34.02 143.19 102.11 142.95 102.11"/><polyline class="cls-6" points="143.06 34.02 143.32 34.02 143.32 102.11 143.06 102.11"/><polyline class="cls-5" points="143.19 34.02 143.45 34.02 143.45 102.11 143.19 102.11"/><polyline class="cls-5" points="143.45 34.02 143.69 34.02 143.69 102.11 143.45 102.11"/><polyline class="cls-5" points="143.59 34.02 143.83 34.02 143.83 102.11 143.59 102.11"/><polyline class="cls-4" points="143.69 34.02 143.96 34.02 143.96 102.11 143.69 102.11"/><polyline class="cls-3" points="143.96 34.02 144.22 34.02 144.22 102.11 143.96 102.11"/><polyline class="cls-3" points="144.09 34.02 144.36 34.02 144.36 102.11 144.09 102.11"/></g><g class="cls-249"><polyline class="cls-250" points="173.57 102.48 173.7 102.48 173.7 190.06 173.57 190.06"/><polyline class="cls-250" points="173.57 102.48 174.1 102.48 174.1 190.06 173.57 190.06"/><polyline class="cls-251" points="173.84 102.48 174.34 102.48 174.34 190.06 173.84 190.06"/><polyline class="cls-251" points="174.21 102.48 174.74 102.48 174.74 190.06 174.21 190.06"/><polyline class="cls-252" points="174.61 102.48 174.98 102.48 174.98 190.06 174.61 190.06"/><polyline class="cls-252" points="174.87 102.48 175.38 102.48 175.38 190.06 174.87 190.06"/><polyline class="cls-253" points="175.25 102.48 175.75 102.48 175.75 190.06 175.25 190.06"/><polyline class="cls-254" points="175.51 102.48 176.02 102.48 176.02 190.06 175.51 190.06"/><polyline class="cls-255" points="175.89 102.48 176.39 102.48 176.39 190.06 175.89 190.06"/><polyline class="cls-255" points="176.28 102.48 176.79 102.48 176.79 190.06 176.28 190.06"/><polyline class="cls-256" points="176.53 102.48 177.03 102.48 177.03 190.06 176.53 190.06"/><polyline class="cls-256" points="176.92 102.48 177.43 102.48 177.43 190.06 176.92 190.06"/><polyline class="cls-257" points="177.16 102.48 177.69 102.48 177.69 190.06 177.16 190.06"/><polyline class="cls-258" points="177.56 102.48 178.07 102.48 178.07 190.06 177.56 190.06"/><polyline class="cls-258" points="177.94 102.48 178.44 102.48 178.44 190.06 177.94 190.06"/><polyline class="cls-259" points="178.2 102.48 178.71 102.48 178.71 190.06 178.2 190.06"/><polyline class="cls-259" points="178.58 102.48 179.08 102.48 179.08 190.06 178.58 190.06"/><polyline class="cls-259" points="178.97 102.48 179.35 102.48 179.35 190.06 178.97 190.06"/><polyline class="cls-260" points="179.22 102.48 179.74 102.48 179.74 190.06 179.22 190.06"/><polyline class="cls-260" points="179.61 102.48 180.12 102.48 180.12 190.06 179.61 190.06"/><polyline class="cls-260" points="179.85 102.48 180.38 102.48 180.38 190.06 179.85 190.06"/><polyline class="cls-261" points="180.25 102.48 180.76 102.48 180.76 190.06 180.25 190.06"/><polyline class="cls-261" points="180.63 102.48 181.16 102.48 181.16 190.06 180.63 190.06"/><polyline class="cls-114" points="180.89 102.48 181.4 102.48 181.4 190.06 180.89 190.06"/><polyline class="cls-114" points="181.27 102.48 181.79 102.48 181.79 190.06 181.27 190.06"/><polyline class="cls-262" points="181.66 102.48 182.04 102.48 182.04 190.06 181.66 190.06"/><polyline class="cls-188" points="181.91 102.48 182.43 102.48 182.43 190.06 181.91 190.06"/><polyline class="cls-188" points="182.3 102.48 182.81 102.48 182.81 190.06 182.3 190.06"/><polyline class="cls-189" points="182.54 102.48 183.07 102.48 183.07 190.06 182.54 190.06"/><polyline class="cls-190" points="182.94 102.48 183.45 102.48 183.45 190.06 182.94 190.06"/><polyline class="cls-191" points="183.32 102.48 183.84 102.48 183.84 190.06 183.32 190.06"/><polyline class="cls-191" points="183.58 102.48 184.09 102.48 184.09 190.06 183.58 190.06"/><polyline class="cls-193" points="183.98 102.48 184.49 102.48 184.49 190.06 183.98 190.06"/><polyline class="cls-193" points="184.22 102.48 184.73 102.48 184.73 190.06 184.22 190.06"/><polyline class="cls-195" points="184.62 102.48 185.12 102.48 185.12 190.06 184.62 190.06"/><polyline class="cls-196" points="184.99 102.48 185.5 102.48 185.5 190.06 184.99 190.06"/><polyline class="cls-263" points="185.26 102.48 185.76 102.48 185.76 190.06 185.26 190.06"/><polyline class="cls-198" points="185.63 102.48 186.14 102.48 186.14 190.06 185.63 190.06"/><polyline class="cls-264" points="186.03 102.48 186.4 102.48 186.4 190.06 186.03 190.06"/><polyline class="cls-264" points="186.27 102.48 186.78 102.48 186.78 190.06 186.27 190.06"/><polyline class="cls-199" points="186.67 102.48 187.18 102.48 187.18 190.06 186.67 190.06"/><polyline class="cls-265" points="186.91 102.48 187.42 102.48 187.42 190.06 186.91 190.06"/><polyline class="cls-200" points="187.31 102.48 187.81 102.48 187.81 190.06 187.31 190.06"/><polyline class="cls-266" points="187.68 102.48 188.19 102.48 188.19 190.06 187.68 190.06"/><polyline class="cls-266" points="187.95 102.48 188.45 102.48 188.45 190.06 187.95 190.06"/><polyline class="cls-202" points="188.32 102.48 188.85 102.48 188.85 190.06 188.32 190.06"/><polyline class="cls-202" points="188.59 102.48 189.09 102.48 189.09 190.06 188.59 190.06"/><polyline class="cls-267" points="188.96 102.48 189.49 102.48 189.49 190.06 188.96 190.06"/><polyline class="cls-203" points="189.36 102.48 189.87 102.48 189.87 190.06 189.36 190.06"/><polyline class="cls-268" points="189.6 102.48 190.13 102.48 190.13 190.06 189.6 190.06"/><polyline class="cls-205" points="190 102.48 190.5 102.48 190.5 190.06 190 190.06"/><polyline class="cls-269" points="190.37 102.48 190.88 102.48 190.88 190.06 190.37 190.06"/><polyline class="cls-269" points="190.64 102.48 191.14 102.48 191.14 190.06 190.64 190.06"/><polyline class="cls-206" points="191.01 102.48 191.54 102.48 191.54 190.06 191.01 190.06"/><polyline class="cls-102" points="191.28 102.48 191.78 102.48 191.78 190.06 191.28 190.06"/><polyline class="cls-270" points="191.65 102.48 192.18 102.48 192.18 190.06 191.65 190.06"/><polyline class="cls-208" points="192.05 102.48 192.55 102.48 192.55 190.06 192.05 190.06"/><polyline class="cls-208" points="192.31 102.48 192.82 102.48 192.82 190.06 192.31 190.06"/><polyline class="cls-208" points="192.69 102.48 193.19 102.48 193.19 190.06 192.69 190.06"/><polyline class="cls-100" points="193.06 102.48 193.46 102.48 193.46 190.06 193.06 190.06"/><polyline class="cls-100" points="193.33 102.48 193.83 102.48 193.83 190.06 193.33 190.06"/><polyline class="cls-99" points="193.7 102.48 194.23 102.48 194.23 190.06 193.7 190.06"/><polyline class="cls-99" points="193.97 102.48 194.47 102.48 194.47 190.06 193.97 190.06"/><polyline class="cls-99" points="194.36 102.48 194.87 102.48 194.87 190.06 194.36 190.06"/><polyline class="cls-98" points="194.74 102.48 195.24 102.48 195.24 190.06 194.74 190.06"/><polyline class="cls-98" points="195 102.48 195.51 102.48 195.51 190.06 195 190.06"/><polyline class="cls-98" points="195.38 102.48 195.88 102.48 195.88 190.06 195.38 190.06"/><polyline class="cls-97" points="195.64 102.48 196.15 102.48 196.15 190.06 195.64 190.06"/><polyline class="cls-97" points="196.02 102.48 196.52 102.48 196.52 190.06 196.02 190.06"/><polyline class="cls-209" points="196.41 102.48 196.92 102.48 196.92 190.06 196.41 190.06"/><polyline class="cls-209" points="196.66 102.48 197.16 102.48 197.16 190.06 196.66 190.06"/><polyline class="cls-271" points="197.05 102.48 197.56 102.48 197.56 190.06 197.05 190.06"/><polyline class="cls-210" points="197.43 102.48 197.82 102.48 197.82 190.06 197.43 190.06"/><polyline class="cls-95" points="197.69 102.48 198.2 102.48 198.2 190.06 197.69 190.06"/><polyline class="cls-95" points="198.07 102.48 198.57 102.48 198.57 190.06 198.07 190.06"/><polyline class="cls-272" points="198.33 102.48 198.84 102.48 198.84 190.06 198.33 190.06"/><polyline class="cls-272" points="198.71 102.48 199.21 102.48 199.21 190.06 198.71 190.06"/><polyline class="cls-213" points="199.1 102.48 199.61 102.48 199.61 190.06 199.1 190.06"/><polyline class="cls-213" points="199.34 102.48 199.87 102.48 199.87 190.06 199.34 190.06"/><polyline class="cls-213" points="199.74 102.48 200.25 102.48 200.25 190.06 199.74 190.06"/><polyline class="cls-214" points="200.12 102.48 200.51 102.48 200.51 190.06 200.12 190.06"/><polyline class="cls-214" points="200.38 102.48 200.89 102.48 200.89 190.06 200.38 190.06"/><polyline class="cls-92" points="200.76 102.48 201.26 102.48 201.26 190.06 200.76 190.06"/><polyline class="cls-215" points="201.02 102.48 201.53 102.48 201.53 190.06 201.02 190.06"/><polyline class="cls-91" points="201.4 102.48 201.93 102.48 201.93 190.06 201.4 190.06"/><polyline class="cls-273" points="201.79 102.48 202.3 102.48 202.3 190.06 201.79 190.06"/><polyline class="cls-217" points="202.03 102.48 202.56 102.48 202.56 190.06 202.03 190.06"/><polyline class="cls-217" points="202.43 102.48 202.94 102.48 202.94 190.06 202.43 190.06"/><polyline class="cls-219" points="202.7 102.48 203.2 102.48 203.2 190.06 202.7 190.06"/><polyline class="cls-219" points="203.07 102.48 203.58 102.48 203.58 190.06 203.07 190.06"/><polyline class="cls-89" points="203.45 102.48 203.97 102.48 203.97 190.06 203.45 190.06"/><polyline class="cls-220" points="203.71 102.48 204.22 102.48 204.22 190.06 203.71 190.06"/><polyline class="cls-220" points="204.09 102.48 204.62 102.48 204.62 190.06 204.09 190.06"/><polyline class="cls-88" points="204.48 102.48 204.86 102.48 204.86 190.06 204.48 190.06"/><polyline class="cls-221" points="204.72 102.48 205.25 102.48 205.25 190.06 204.72 190.06"/><polyline class="cls-274" points="205.12 102.48 205.63 102.48 205.63 190.06 205.12 190.06"/><polyline class="cls-222" points="205.39 102.48 205.89 102.48 205.89 190.06 205.39 190.06"/><polyline class="cls-223" points="205.76 102.48 206.27 102.48 206.27 190.06 205.76 190.06"/><polyline class="cls-223" points="206.16 102.48 206.66 102.48 206.66 190.06 206.16 190.06"/><polyline class="cls-224" points="206.4 102.48 206.91 102.48 206.91 190.06 206.4 190.06"/><polyline class="cls-224" points="206.8 102.48 207.31 102.48 207.31 190.06 206.8 190.06"/><polyline class="cls-224" points="207.04 102.48 207.55 102.48 207.55 190.06 207.04 190.06"/><polyline class="cls-85" points="207.44 102.48 207.94 102.48 207.94 190.06 207.44 190.06"/><polyline class="cls-85" points="207.81 102.48 208.32 102.48 208.32 190.06 207.81 190.06"/><polyline class="cls-84" points="208.08 102.48 208.58 102.48 208.58 190.06 208.08 190.06"/><polyline class="cls-226" points="208.45 102.48 208.96 102.48 208.96 190.06 208.45 190.06"/><polyline class="cls-226" points="208.85 102.48 209.22 102.48 209.22 190.06 208.85 190.06"/><polyline class="cls-227" points="209.09 102.48 209.6 102.48 209.6 190.06 209.09 190.06"/><polyline class="cls-227" points="209.49 102.48 210 102.48 210 190.06 209.49 190.06"/><polyline class="cls-227" points="209.73 102.48 210.26 102.48 210.26 190.06 209.73 190.06"/><polyline class="cls-82" points="210.13 102.48 210.63 102.48 210.63 190.06 210.13 190.06"/><polyline class="cls-82" points="210.5 102.48 211.03 102.48 211.03 190.06 210.5 190.06"/><polyline class="cls-275" points="210.77 102.48 211.27 102.48 211.27 190.06 210.77 190.06"/><polyline class="cls-81" points="211.14 102.48 211.67 102.48 211.67 190.06 211.14 190.06"/><polyline class="cls-177" points="211.54 102.48 211.91 102.48 211.91 190.06 211.54 190.06"/><polyline class="cls-228" points="211.78 102.48 212.31 102.48 212.31 190.06 211.78 190.06"/><polyline class="cls-228" points="212.18 102.48 212.69 102.48 212.69 190.06 212.18 190.06"/><polyline class="cls-80" points="212.42 102.48 212.95 102.48 212.95 190.06 212.42 190.06"/><polyline class="cls-80" points="212.82 102.48 213.32 102.48 213.32 190.06 212.82 190.06"/><polyline class="cls-79" points="213.19 102.48 213.72 102.48 213.72 190.06 213.19 190.06"/><polyline class="cls-79" points="213.46 102.48 213.96 102.48 213.96 190.06 213.46 190.06"/><polyline class="cls-79" points="213.83 102.48 214.36 102.48 214.36 190.06 213.83 190.06"/><polyline class="cls-78" points="214.1 102.48 214.6 102.48 214.6 190.06 214.1 190.06"/><polyline class="cls-78" points="214.49 102.48 215 102.48 215 190.06 214.49 190.06"/><polyline class="cls-78" points="214.87 102.48 215.37 102.48 215.37 190.06 214.87 190.06"/><polyline class="cls-230" points="215.13 102.48 215.64 102.48 215.64 190.06 215.13 190.06"/><polyline class="cls-230" points="215.51 102.48 216.01 102.48 216.01 190.06 215.51 190.06"/><polyline class="cls-77" points="215.88 102.48 216.28 102.48 216.28 190.06 215.88 190.06"/><polyline class="cls-231" points="216.15 102.48 216.65 102.48 216.65 190.06 216.15 190.06"/><polyline class="cls-231" points="216.54 102.48 217.05 102.48 217.05 190.06 216.54 190.06"/><polyline class="cls-76" points="216.78 102.48 217.29 102.48 217.29 190.06 216.78 190.06"/><polyline class="cls-76" points="217.18 102.48 217.69 102.48 217.69 190.06 217.18 190.06"/><polyline class="cls-75" points="217.56 102.48 218.06 102.48 218.06 190.06 217.56 190.06"/><polyline class="cls-75" points="217.82 102.48 218.33 102.48 218.33 190.06 217.82 190.06"/><polyline class="cls-75" points="218.2 102.48 218.7 102.48 218.7 190.06 218.2 190.06"/><polyline class="cls-73" points="218.46 102.48 218.97 102.48 218.97 190.06 218.46 190.06"/><polyline class="cls-73" points="218.84 102.48 219.37 102.48 219.37 190.06 218.84 190.06"/><polyline class="cls-73" points="219.23 102.48 219.74 102.48 219.74 190.06 219.23 190.06"/><polyline class="cls-71" points="219.47 102.48 220 102.48 220 190.06 219.47 190.06"/><polyline class="cls-71" points="219.87 102.48 220.38 102.48 220.38 190.06 219.87 190.06"/><polyline class="cls-235" points="220.25 102.48 220.75 102.48 220.75 190.06 220.25 190.06"/><polyline class="cls-235" points="220.51 102.48 221.02 102.48 221.02 190.06 220.51 190.06"/><polyline class="cls-236" points="220.89 102.48 221.39 102.48 221.39 190.06 220.89 190.06"/><polyline class="cls-67" points="221.15 102.48 221.66 102.48 221.66 190.06 221.15 190.06"/><polyline class="cls-67" points="221.53 102.48 222.06 102.48 222.06 190.06 221.53 190.06"/><polyline class="cls-67" points="221.92 102.48 222.43 102.48 222.43 190.06 221.92 190.06"/><polyline class="cls-66" points="222.16 102.48 222.69 102.48 222.69 190.06 222.16 190.06"/><polyline class="cls-66" points="222.56 102.48 223.07 102.48 223.07 190.06 222.56 190.06"/><polyline class="cls-64" points="222.94 102.48 223.33 102.48 223.33 190.06 222.94 190.06"/><polyline class="cls-64" points="223.2 102.48 223.71 102.48 223.71 190.06 223.2 190.06"/><polyline class="cls-64" points="223.58 102.48 224.1 102.48 224.1 190.06 223.58 190.06"/><polyline class="cls-63" points="223.84 102.48 224.35 102.48 224.35 190.06 223.84 190.06"/><polyline class="cls-239" points="224.22 102.48 224.75 102.48 224.75 190.06 224.22 190.06"/><polyline class="cls-239" points="224.61 102.48 225.12 102.48 225.12 190.06 224.61 190.06"/><polyline class="cls-276" points="224.88 102.48 225.38 102.48 225.38 190.06 224.88 190.06"/><polyline class="cls-59" points="225.25 102.48 225.76 102.48 225.76 190.06 225.25 190.06"/><polyline class="cls-58" points="225.52 102.48 226.02 102.48 226.02 190.06 225.52 190.06"/><polyline class="cls-58" points="225.89 102.48 226.4 102.48 226.4 190.06 225.89 190.06"/><polyline class="cls-240" points="226.29 102.48 226.79 102.48 226.79 190.06 226.29 190.06"/><polyline class="cls-57" points="226.53 102.48 227.04 102.48 227.04 190.06 226.53 190.06"/><polyline class="cls-57" points="226.93 102.48 227.44 102.48 227.44 190.06 226.93 190.06"/><polyline class="cls-241" points="227.3 102.48 227.68 102.48 227.68 190.06 227.3 190.06"/><polyline class="cls-56" points="227.57 102.48 228.07 102.48 228.07 190.06 227.57 190.06"/><polyline class="cls-56" points="227.94 102.48 228.45 102.48 228.45 190.06 227.94 190.06"/><polyline class="cls-242" points="228.21 102.48 228.71 102.48 228.71 190.06 228.21 190.06"/><polyline class="cls-54" points="228.58 102.48 229.09 102.48 229.09 190.06 228.58 190.06"/><polyline class="cls-54" points="228.98 102.48 229.49 102.48 229.49 190.06 228.98 190.06"/><polyline class="cls-54" points="229.22 102.48 229.73 102.48 229.73 190.06 229.22 190.06"/><polyline class="cls-53" points="229.62 102.48 230.13 102.48 230.13 190.06 229.62 190.06"/><polyline class="cls-53" points="229.99 102.48 230.39 102.48 230.39 190.06 229.99 190.06"/><polyline class="cls-53" points="230.26 102.48 230.76 102.48 230.76 190.06 230.26 190.06"/><polyline class="cls-52" points="230.63 102.48 231.16 102.48 231.16 190.06 230.63 190.06"/><polyline class="cls-52" points="230.9 102.48 231.4 102.48 231.4 190.06 230.9 190.06"/><polyline class="cls-52" points="231.27 102.48 231.8 102.48 231.8 190.06 231.27 190.06"/><polyline class="cls-52" points="231.67 102.48 232.18 102.48 232.18 190.06 231.67 190.06"/><polyline class="cls-51" points="231.91 102.48 232.44 102.48 232.44 190.06 231.91 190.06"/><polyline class="cls-243" points="232.31 102.48 232.81 102.48 232.81 190.06 232.31 190.06"/><polyline class="cls-277" points="232.55 102.48 233.08 102.48 233.08 190.06 232.55 190.06"/><polyline class="cls-49" points="232.95 102.48 233.45 102.48 233.45 190.06 232.95 190.06"/><polyline class="cls-49" points="233.32 102.48 233.85 102.48 233.85 190.06 233.32 190.06"/><polyline class="cls-48" points="233.59 102.48 234.09 102.48 234.09 190.06 233.59 190.06"/><polyline class="cls-47" points="233.96 102.48 234.49 102.48 234.49 190.06 233.96 190.06"/><polyline class="cls-47" points="234.36 102.48 234.73 102.48 234.73 190.06 234.36 190.06"/><polyline class="cls-47" points="234.62 102.48 235.13 102.48 235.13 190.06 234.62 190.06"/><polyline class="cls-47" points="235 102.48 235.5 102.48 235.5 190.06 235 190.06"/><polyline class="cls-46" points="235.24 102.48 235.77 102.48 235.77 190.06 235.24 190.06"/><polyline class="cls-46" points="235.64 102.48 236.14 102.48 236.14 190.06 235.64 190.06"/><polyline class="cls-46" points="236.01 102.48 236.54 102.48 236.54 190.06 236.01 190.06"/><polyline class="cls-44" points="236.28 102.48 236.78 102.48 236.78 190.06 236.28 190.06"/><polyline class="cls-44" points="236.67 102.48 237.18 102.48 237.18 190.06 236.67 190.06"/><polyline class="cls-44" points="236.92 102.48 237.42 102.48 237.42 190.06 236.92 190.06"/><polyline class="cls-42" points="237.31 102.48 237.82 102.48 237.82 190.06 237.31 190.06"/><polyline class="cls-42" points="237.69 102.48 238.19 102.48 238.19 190.06 237.69 190.06"/><polyline class="cls-41" points="237.95 102.48 238.46 102.48 238.46 190.06 237.95 190.06"/><polyline class="cls-40" points="238.33 102.48 238.83 102.48 238.83 190.06 238.33 190.06"/><polyline class="cls-40" points="238.7 102.48 239.23 102.48 239.23 190.06 238.7 190.06"/><polyline class="cls-39" points="238.97 102.48 239.47 102.48 239.47 190.06 238.97 190.06"/><polyline class="cls-39" points="239.36 102.48 239.87 102.48 239.87 190.06 239.36 190.06"/><polyline class="cls-244" points="239.6 102.48 240.13 102.48 240.13 190.06 239.6 190.06"/><polyline class="cls-38" points="240 102.48 240.51 102.48 240.51 190.06 240 190.06"/><polyline class="cls-38" points="240.38 102.48 240.88 102.48 240.88 190.06 240.38 190.06"/><polyline class="cls-36" points="240.64 102.48 241.15 102.48 241.15 190.06 240.64 190.06"/><polyline class="cls-36" points="241.02 102.48 241.52 102.48 241.52 190.06 241.02 190.06"/><polyline class="cls-36" points="241.41 102.48 241.79 102.48 241.79 190.06 241.41 190.06"/><polyline class="cls-34" points="241.66 102.48 242.19 102.48 242.19 190.06 241.66 190.06"/><polyline class="cls-34" points="242.05 102.48 242.56 102.48 242.56 190.06 242.05 190.06"/><polyline class="cls-34" points="242.29 102.48 242.82 102.48 242.82 190.06 242.29 190.06"/><polyline class="cls-33" points="242.69 102.48 243.2 102.48 243.2 190.06 242.69 190.06"/><polyline class="cls-32" points="243.07 102.48 243.57 102.48 243.57 190.06 243.07 190.06"/><polyline class="cls-31" points="243.33 102.48 243.84 102.48 243.84 190.06 243.33 190.06"/><polyline class="cls-31" points="243.71 102.48 244.24 102.48 244.24 190.06 243.71 190.06"/><polyline class="cls-30" points="243.97 102.48 244.48 102.48 244.48 190.06 243.97 190.06"/><polyline class="cls-29" points="244.35 102.48 244.88 102.48 244.88 190.06 244.35 190.06"/><polyline class="cls-246" points="244.74 102.48 245.25 102.48 245.25 190.06 244.74 190.06"/><polyline class="cls-28" points="245.01 102.48 245.51 102.48 245.51 190.06 245.01 190.06"/><polyline class="cls-28" points="245.38 102.48 245.89 102.48 245.89 190.06 245.38 190.06"/><polyline class="cls-28" points="245.76 102.48 246.15 102.48 246.15 190.06 245.76 190.06"/><polyline class="cls-27" points="246.02 102.48 246.53 102.48 246.53 190.06 246.02 190.06"/><polyline class="cls-26" points="246.4 102.48 246.93 102.48 246.93 190.06 246.4 190.06"/><polyline class="cls-26" points="246.66 102.48 247.17 102.48 247.17 190.06 246.66 190.06"/><polyline class="cls-25" points="247.04 102.48 247.56 102.48 247.56 190.06 247.04 190.06"/><polyline class="cls-24" points="247.43 102.48 247.94 102.48 247.94 190.06 247.43 190.06"/><polyline class="cls-23" points="247.7 102.48 248.2 102.48 248.2 190.06 247.7 190.06"/><polyline class="cls-23" points="248.07 102.48 248.58 102.48 248.58 190.06 248.07 190.06"/><polyline class="cls-22" points="248.47 102.48 248.84 102.48 248.84 190.06 248.47 190.06"/><polyline class="cls-20" points="248.71 102.48 249.22 102.48 249.22 190.06 248.71 190.06"/><polyline class="cls-20" points="249.11 102.48 249.62 102.48 249.62 190.06 249.11 190.06"/><polyline class="cls-278" points="249.35 102.48 249.86 102.48 249.86 190.06 249.35 190.06"/><polyline class="cls-19" points="249.75 102.48 250.25 102.48 250.25 190.06 249.75 190.06"/><polyline class="cls-19" points="250.12 102.48 250.63 102.48 250.63 190.06 250.12 190.06"/><polyline class="cls-18" points="250.39 102.48 250.89 102.48 250.89 190.06 250.39 190.06"/><polyline class="cls-17" points="250.76 102.48 251.27 102.48 251.27 190.06 250.76 190.06"/><polyline class="cls-17" points="251.03 102.48 251.53 102.48 251.53 190.06 251.03 190.06"/><polyline class="cls-16" points="251.4 102.48 251.91 102.48 251.91 190.06 251.4 190.06"/><polyline class="cls-15" points="251.8 102.48 252.31 102.48 252.31 190.06 251.8 190.06"/><polyline class="cls-15" points="252.04 102.48 252.57 102.48 252.57 190.06 252.04 190.06"/><polyline class="cls-14" points="252.44 102.48 252.94 102.48 252.94 190.06 252.44 190.06"/><polyline class="cls-248" points="252.81 102.48 253.21 102.48 253.21 190.06 252.81 190.06"/><polyline class="cls-12" points="253.08 102.48 253.58 102.48 253.58 190.06 253.08 190.06"/><polyline class="cls-12" points="253.45 102.48 253.98 102.48 253.98 190.06 253.45 190.06"/><polyline class="cls-12" points="253.72 102.48 254.22 102.48 254.22 190.06 253.72 190.06"/><polyline class="cls-11" points="254.09 102.48 254.62 102.48 254.62 190.06 254.09 190.06"/><polyline class="cls-11" points="254.49 102.48 255 102.48 255 190.06 254.49 190.06"/><polyline class="cls-11" points="254.73 102.48 255.26 102.48 255.26 190.06 254.73 190.06"/><polyline class="cls-10" points="255.13 102.48 255.63 102.48 255.63 190.06 255.13 190.06"/><polyline class="cls-10" points="255.37 102.48 255.9 102.48 255.9 190.06 255.37 190.06"/><polyline class="cls-9" points="255.77 102.48 256.27 102.48 256.27 190.06 255.77 190.06"/><polyline class="cls-8" points="256.14 102.48 256.67 102.48 256.67 190.06 256.14 190.06"/><polyline class="cls-8" points="256.41 102.48 256.91 102.48 256.91 190.06 256.41 190.06"/><polyline class="cls-7" points="256.8 102.48 257.31 102.48 257.31 190.06 256.8 190.06"/><polyline class="cls-7" points="257.18 102.48 257.69 102.48 257.69 190.06 257.18 190.06"/><polyline class="cls-6" points="257.44 102.48 257.95 102.48 257.95 190.06 257.44 190.06"/><polyline class="cls-5" points="257.82 102.48 258.32 102.48 258.32 190.06 257.82 190.06"/><polyline class="cls-5" points="258.08 102.48 258.59 102.48 258.59 190.06 258.08 190.06"/><polyline class="cls-3" points="258.46 102.48 258.96 102.48 258.96 190.06 258.46 190.06"/><polyline class="cls-3" points="258.85 102.48 263.84 102.48 263.84 190.06 258.85 190.06"/></g></svg>