<svg id="Layer_1" data-name="Layer 1" xmlns="http://www.w3.org/2000/svg" viewBox="0 0 118 100"><defs><style>.cls-1{fill:#b3afaf;}.cls-2{fill:#e5bf43;}</style></defs><g id="TWITTER_006" data-name="TWITTER 006"><path id="LOGO" class="cls-1" d="M71.77,37.42A20.66,20.66,0,0,0,77.7,35.8a20.76,20.76,0,0,1-5.15,5.34c0,.45,0,.89,0,1.34,0,13.64-10.39,29.38-29.38,29.38a29.23,29.23,0,0,1-15.83-4.64,20.06,20.06,0,0,0,2.46.15,20.75,20.75,0,0,0,12.83-4.43A10.33,10.33,0,0,1,33,55.77,10.37,10.37,0,0,0,35,56a10.51,10.51,0,0,0,2.72-.36,10.34,10.34,0,0,1-8.28-10.13v-.13a10.29,10.29,0,0,0,4.68,1.29,10.32,10.32,0,0,1-3.2-13.78A29.41,29.41,0,0,0,52.16,43.64a10.34,10.34,0,0,1,17.6-9.42,20.86,20.86,0,0,0,6.55-2.51A10.33,10.33,0,0,1,71.77,37.42Z"/></g><path id="LOGO-2" data-name="LOGO" class="cls-2" d="M70.77,37.42A20.66,20.66,0,0,0,76.7,35.8a20.76,20.76,0,0,1-5.15,5.34c0,.45,0,.89,0,1.34,0,13.64-10.39,29.38-29.38,29.38a29.23,29.23,0,0,1-15.83-4.64,20.06,20.06,0,0,0,2.46.15,20.75,20.75,0,0,0,12.83-4.43A10.33,10.33,0,0,1,32,55.77,10.37,10.37,0,0,0,34,56a10.51,10.51,0,0,0,2.72-.36,10.34,10.34,0,0,1-8.28-10.13v-.13a10.29,10.29,0,0,0,4.68,1.29,10.32,10.32,0,0,1-3.2-13.78A29.41,29.41,0,0,0,51.16,43.64a10.34,10.34,0,0,1,17.6-9.42,20.86,20.86,0,0,0,6.55-2.51A10.33,10.33,0,0,1,70.77,37.42Z"/></svg>